<?xml version="1.0" encoding="UTF-8" standalone="no"?>
<!-- Generator: Adobe Illustrator 13.0.0, SVG Export Plug-In . SVG Version: 6.00 Build 14948)  -->
<svg
   xmlns:dc="http://purl.org/dc/elements/1.1/"
   xmlns:cc="http://creativecommons.org/ns#"
   xmlns:rdf="http://www.w3.org/1999/02/22-rdf-syntax-ns#"
   xmlns:svg="http://www.w3.org/2000/svg"
   xmlns="http://www.w3.org/2000/svg"
   xmlns:xlink="http://www.w3.org/1999/xlink"
   xmlns:sodipodi="http://sodipodi.sourceforge.net/DTD/sodipodi-0.dtd"
   xmlns:inkscape="http://www.inkscape.org/namespaces/inkscape"
   version="1.1"
   id="Layer_1"
   x="0px"
   y="0px"
   width="128px"
   height="128px"
   viewBox="0 0 128 128"
   enable-background="new 0 0 128 128"
   xml:space="preserve"
   sodipodi:version="0.32"
   inkscape:version="0.46"
   sodipodi:docname="check_list.svg"
   inkscape:output_extension="org.inkscape.output.svg.inkscape"><metadata
   id="metadata318"><rdf:RDF><cc:Work
       rdf:about=""><dc:format>image/svg+xml</dc:format><dc:type
         rdf:resource="http://purl.org/dc/dcmitype/StillImage" /></cc:Work></rdf:RDF></metadata><defs
   id="defs316"><inkscape:perspective
     sodipodi:type="inkscape:persp3d"
     inkscape:vp_x="0 : 64 : 1"
     inkscape:vp_y="0 : 1000 : 0"
     inkscape:vp_z="128 : 64 : 1"
     inkscape:persp3d-origin="64 : 42.666667 : 1"
     id="perspective320" /><inkscape:perspective
     sodipodi:type="inkscape:persp3d"
     inkscape:vp_x="0 : 526.18109 : 1"
     inkscape:vp_y="0 : 1000 : 0"
     inkscape:vp_z="744.09448 : 526.18109 : 1"
     inkscape:persp3d-origin="372.04724 : 350.78739 : 1"
     id="perspective3293" /><linearGradient
     y2="155.48718"
     x2="42"
     y1="155.48718"
     x1="72.25"
     gradientTransform="translate(0.1767767,0.1767767)"
     gradientUnits="userSpaceOnUse"
     id="linearGradient3284"
     xlink:href="#linearGradient3190"
     inkscape:collect="always" /><linearGradient
     y2="168.12671"
     x2="54.63039"
     y1="143.36218"
     x1="54.316311"
     gradientTransform="translate(0.1767767,0.1767767)"
     gradientUnits="userSpaceOnUse"
     id="linearGradient3282"
     xlink:href="#linearGradient3200"
     inkscape:collect="always" /><filter
     id="filter3274"
     inkscape:collect="always"><feGaussianBlur
       id="feGaussianBlur3276"
       stdDeviation="0.82016509"
       inkscape:collect="always" /></filter><linearGradient
     gradientTransform="translate(0.1767767,0.1767767)"
     gradientUnits="userSpaceOnUse"
     y2="168.12671"
     x2="54.63039"
     y1="143.36218"
     x1="54.316311"
     id="linearGradient3206"
     xlink:href="#linearGradient3200"
     inkscape:collect="always" /><linearGradient
     gradientTransform="translate(0.1767767,0.1767767)"
     gradientUnits="userSpaceOnUse"
     y2="155.48718"
     x2="42"
     y1="155.48718"
     x1="72.25"
     id="linearGradient3196"
     xlink:href="#linearGradient3190"
     inkscape:collect="always" /><inkscape:perspective
     sodipodi:type="inkscape:persp3d"
     inkscape:vp_x="0 : 526.18109 : 1"
     inkscape:vp_y="0 : 1000 : 0"
     inkscape:vp_z="744.09448 : 526.18109 : 1"
     inkscape:persp3d-origin="372.04724 : 350.78739 : 1"
     id="perspective2390" /><inkscape:perspective
     id="perspective10"
     inkscape:persp3d-origin="372.04724 : 350.78739 : 1"
     inkscape:vp_z="744.09448 : 526.18109 : 1"
     inkscape:vp_y="0 : 1000 : 0"
     inkscape:vp_x="0 : 526.18109 : 1"
     sodipodi:type="inkscape:persp3d" /><linearGradient
     id="linearGradient3190"><stop
       id="stop3192"
       offset="0"
       style="stop-color:#00a100;stop-opacity:1;" /><stop
       style="stop-color:#005b00;stop-opacity:1;"
       offset="0.69008267"
       id="stop3198" /><stop
       id="stop3194"
       offset="1"
       style="stop-color:#009c00;stop-opacity:1;" /></linearGradient><linearGradient
     id="linearGradient3200"><stop
       id="stop3202"
       offset="0"
       style="stop-color:#05ff05;stop-opacity:1;" /><stop
       id="stop3204"
       offset="1"
       style="stop-color:#00bd00;stop-opacity:1;" /></linearGradient></defs><sodipodi:namedview
   inkscape:window-height="672"
   inkscape:window-width="640"
   inkscape:pageshadow="2"
   inkscape:pageopacity="0.0"
   guidetolerance="10.0"
   gridtolerance="10.0"
   objecttolerance="10.0"
   borderopacity="1.0"
   bordercolor="#666666"
   pagecolor="#ffffff"
   id="base"
   showgrid="false"
   inkscape:zoom="3.640625"
   inkscape:cx="64"
   inkscape:cy="64"
   inkscape:window-x="376"
   inkscape:window-y="9"
   inkscape:current-layer="Layer_1" />
<filter
   id="Gaussian_Blur">
	<feGaussianBlur
   in="SourceGraphic"
   stdDeviation="2"
   id="feGaussianBlur4" />
</filter>

<g
   id="Layer_2">
	
		<radialGradient
   id="SVGID_1_"
   cx="554"
   cy="759.25"
   r="62.5979"
   gradientTransform="matrix(1 0 0 1 -484 -665)"
   gradientUnits="userSpaceOnUse">
		<stop
   offset="0"
   style="stop-color:#2CB0FB"
   id="stop13" />
		<stop
   offset="0.1263"
   style="stop-color:#2AAAF6"
   id="stop15" />
		<stop
   offset="0.3021"
   style="stop-color:#2698E9"
   id="stop17" />
		<stop
   offset="0.5069"
   style="stop-color:#1E7AD2"
   id="stop19" />
		<stop
   offset="0.7336"
   style="stop-color:#1351B4"
   id="stop21" />
		<stop
   offset="0.9758"
   style="stop-color:#051C8C"
   id="stop23" />
		<stop
   offset="0.9949"
   style="stop-color:#041889"
   id="stop25" />
	</radialGradient>
	<path
   fill="url(#SVGID_1_)"
   d="M120.532,116.648c0,2.172-1.732,3.934-3.87,3.934H25.07c-2.137,0-3.87-1.762-3.87-3.934   l6.773-73.083c0-2.172,1.733-3.933,3.87-3.933h75.146c2.138,0,3.869,1.761,3.869,3.933L120.532,116.648z"
   id="path27" />
</g>
<g
   id="Layer_3">
	
		<linearGradient
   id="SVGID_2_"
   gradientUnits="userSpaceOnUse"
   x1="554.8672"
   y1="776.834"
   x2="554.8672"
   y2="704.27"
   gradientTransform="matrix(1 0 0 1 -484 -665)">
		<stop
   offset="0.0051"
   style="stop-color:#FFFFFF"
   id="stop31" />
		<stop
   offset="1"
   style="stop-color:#E6E6E6"
   id="stop33" />
	</linearGradient>
	<polygon
   fill="url(#SVGID_2_)"
   points="23.458,114.615 30.553,38.181 107.955,38.342 118.275,114.293  "
   id="polygon35" />
</g>
<g
   id="Layer_2_1_">
	<polygon
   fill="#D1D1D1"
   points="23.791,111.292 117.5,111.25 118.275,114.293 23.458,114.615  "
   id="polygon38" />
</g>

<g
   id="Layer_4">
	<g
   id="g49">
		
			<radialGradient
   id="SVGID_4_"
   cx="553.7744"
   cy="714.71"
   r="28.8795"
   gradientTransform="matrix(1 0 0 1 -484 -665)"
   gradientUnits="userSpaceOnUse">
			<stop
   offset="0"
   style="stop-color:#C6E3FA"
   id="stop52" />
			<stop
   offset="0.368"
   style="stop-color:#C5DBF5"
   id="stop54" />
			<stop
   offset="0.9432"
   style="stop-color:#C0C5E8"
   id="stop56" />
			<stop
   offset="1"
   style="stop-color:#C0C2E7"
   id="stop58" />
		</radialGradient>
		<polygon
   fill="url(#SVGID_4_)"
   points="109.307,49.227 29.787,49.227 29.681,50.194 109.427,50.194   "
   id="polygon60" />
		
			<radialGradient
   id="SVGID_5_"
   cx="491.3027"
   cy="726.3223"
   r="28.8603"
   gradientTransform="matrix(1.148 0 0 1 -494.2081 -665)"
   gradientUnits="userSpaceOnUse">
			<stop
   offset="0"
   style="stop-color:#C6E3FA"
   id="stop63" />
			<stop
   offset="0.368"
   style="stop-color:#C5DBF5"
   id="stop65" />
			<stop
   offset="0.9432"
   style="stop-color:#C0C5E8"
   id="stop67" />
			<stop
   offset="1"
   style="stop-color:#C0C2E7"
   id="stop69" />
		</radialGradient>
		<polygon
   fill="url(#SVGID_5_)"
   points="110.749,60.837 28.578,60.837 28.472,61.805 110.868,61.805   "
   id="polygon71" />
		
			<radialGradient
   id="SVGID_6_"
   cx="491.3027"
   cy="737.9316"
   r="28.8612"
   gradientTransform="matrix(1.148 0 0 1 -494.2081 -665)"
   gradientUnits="userSpaceOnUse">
			<stop
   offset="0"
   style="stop-color:#C6E3FA"
   id="stop74" />
			<stop
   offset="0.368"
   style="stop-color:#C5DBF5"
   id="stop76" />
			<stop
   offset="0.9432"
   style="stop-color:#C0C5E8"
   id="stop78" />
			<stop
   offset="1"
   style="stop-color:#C0C2E7"
   id="stop80" />
		</radialGradient>
		<polygon
   fill="url(#SVGID_6_)"
   points="112.189,72.447 27.409,72.447 27.303,73.415 112.311,73.415   "
   id="polygon82" />
		
			<radialGradient
   id="SVGID_7_"
   cx="491.627"
   cy="750.5107"
   r="28.7783"
   gradientTransform="matrix(1.148 0 0 1 -494.2081 -665)"
   gradientUnits="userSpaceOnUse">
			<stop
   offset="0"
   style="stop-color:#C6E3FA"
   id="stop85" />
			<stop
   offset="0.368"
   style="stop-color:#C5DBF5"
   id="stop87" />
			<stop
   offset="0.9432"
   style="stop-color:#C0C5E8"
   id="stop89" />
			<stop
   offset="1"
   style="stop-color:#C0C2E7"
   id="stop91" />
		</radialGradient>
		<polygon
   fill="url(#SVGID_7_)"
   points="113.995,85.025 26.35,85.025 26.245,85.993 114.115,85.993   "
   id="polygon93" />
		
			<radialGradient
   id="SVGID_8_"
   cx="491.7324"
   cy="763.3281"
   r="28.7825"
   gradientTransform="matrix(1.148 0 0 1 -494.2081 -665)"
   gradientUnits="userSpaceOnUse">
			<stop
   offset="0"
   style="stop-color:#C6E3FA"
   id="stop96" />
			<stop
   offset="0.368"
   style="stop-color:#C5DBF5"
   id="stop98" />
			<stop
   offset="0.9432"
   style="stop-color:#C0C5E8"
   id="stop100" />
			<stop
   offset="1"
   style="stop-color:#C0C2E7"
   id="stop102" />
		</radialGradient>
		<polygon
   fill="url(#SVGID_8_)"
   points="115.708,97.846 25.156,97.846 25.05,98.813 115.828,98.813   "
   id="polygon104" />
	</g>
</g>
<g
   id="Layer_5">
	<polygon
   opacity="0.31"
   fill="#FF004F"
   enable-background="new    "
   points="33.617,113.783 37.326,39.608 38.292,39.657    34.583,113.832  "
   id="polygon107" />
</g>
<g
   id="Layer_6">
	<g
   id="g110">
		<polygon
   opacity="0.28"
   fill="#00FFFF"
   enable-background="new    "
   points="120.35,115.261 21.329,115.261 21.224,116.391     120.498,116.391   "
   id="polygon112" />
		
			<linearGradient
   id="SVGID_9_"
   gradientUnits="userSpaceOnUse"
   x1="554.8662"
   y1="782.6807"
   x2="554.8662"
   y2="786.2274"
   gradientTransform="matrix(1 0 0 1 -484 -665)">
			<stop
   offset="0"
   style="stop-color:#00FFFF"
   id="stop115" />
			<stop
   offset="1"
   style="stop-color:#041889"
   id="stop117" />
		</linearGradient>
		<path
   opacity="0.44"
   fill="url(#SVGID_9_)"
   enable-background="new    "
   d="M25.07,120.582h91.592    c1.953,0,3.552-1.477,3.816-3.387H21.254C21.518,119.105,23.117,120.582,25.07,120.582z"
   id="path119" />
	</g>
</g>
<g
   id="Layer_14">
	<ellipse
   fill="#2C8AFB"
   cx="41.135"
   cy="42.374"
   rx="3.447"
   ry="1.451"
   id="ellipse122" />
	<ellipse
   fill="#2C8AFB"
   cx="59.84"
   cy="42.374"
   rx="3.447"
   ry="1.451"
   id="ellipse124" />
	<ellipse
   fill="#2C8AFB"
   cx="78.869"
   cy="42.374"
   rx="3.447"
   ry="1.451"
   id="ellipse126" />
	<ellipse
   fill="#2C8AFB"
   cx="97.574"
   cy="42.374"
   rx="3.447"
   ry="1.451"
   id="ellipse128" />
</g>
<g
   id="Layer_16">
	<g
   id="g131">
		
			<linearGradient
   id="SVGID_10_"
   gradientUnits="userSpaceOnUse"
   x1="523.5029"
   y1="699.5352"
   x2="526.9501"
   y2="699.5352"
   gradientTransform="matrix(1 0 0 1 -484 -665)">
			<stop
   offset="0"
   style="stop-color:#787878"
   id="stop134" />
			<stop
   offset="0.267"
   style="stop-color:#FFFFFF"
   id="stop136" />
			<stop
   offset="0.7382"
   style="stop-color:#FFFFFF"
   id="stop138" />
			<stop
   offset="1"
   style="stop-color:#CCCCCC"
   id="stop140" />
		</linearGradient>
		<path
   fill="url(#SVGID_10_)"
   d="M41.256,25.402c-1.036,0-1.875,0.839-1.875,1.875v16.34c0.073,0.018,0.147,0.035,0.224,0.051    c0.707-0.609,1.668-1.636,2.036-2.724c0.093-0.275,0.159-0.552,0.159-0.827c0-2.418,0-3.83,0-3.83h1.028v7.345    c0.103-0.025,0.207-0.048,0.303-0.078V27.276C43.13,26.241,42.291,25.402,41.256,25.402z"
   id="path142" />
		
			<linearGradient
   id="SVGID_11_"
   gradientUnits="userSpaceOnUse"
   x1="525.2168"
   y1="708.584"
   x2="525.2168"
   y2="701.2868"
   gradientTransform="matrix(1 0 0 1 -484 -665)">
			<stop
   offset="0"
   style="stop-color:#404040"
   id="stop145" />
			<stop
   offset="1"
   style="stop-color:#FFFFFF"
   id="stop147" />
		</linearGradient>
		<path
   fill="url(#SVGID_11_)"
   d="M41.8,36.286c0,0,0,1.412,0,3.83c0,0.275-0.066,0.552-0.159,0.827    c-0.368,1.088-1.33,2.115-2.036,2.724c0.463,0.097,0.978,0.157,1.531,0.157c0.618,0,1.191-0.074,1.692-0.194v-7.345L41.8,36.286    L41.8,36.286z"
   id="path149" />
	</g>
	<g
   id="g151">
		
			<linearGradient
   id="SVGID_12_"
   gradientUnits="userSpaceOnUse"
   x1="542.208"
   y1="699.5352"
   x2="545.6547"
   y2="699.5352"
   gradientTransform="matrix(1 0 0 1 -484 -665)">
			<stop
   offset="0"
   style="stop-color:#787878"
   id="stop154" />
			<stop
   offset="0.267"
   style="stop-color:#FFFFFF"
   id="stop156" />
			<stop
   offset="0.7382"
   style="stop-color:#FFFFFF"
   id="stop158" />
			<stop
   offset="1"
   style="stop-color:#CCCCCC"
   id="stop160" />
		</linearGradient>
		<path
   fill="url(#SVGID_12_)"
   d="M59.961,25.402c-1.036,0-1.875,0.839-1.875,1.875v16.34c0.073,0.018,0.147,0.035,0.223,0.051    c0.707-0.609,1.668-1.636,2.036-2.724c0.093-0.275,0.159-0.552,0.159-0.827c0-2.418,0-3.83,0-3.83h1.028v7.345    c0.103-0.025,0.206-0.048,0.302-0.078V27.276C61.835,26.241,60.996,25.402,59.961,25.402z"
   id="path162" />
		
			<linearGradient
   id="SVGID_13_"
   gradientUnits="userSpaceOnUse"
   x1="543.9219"
   y1="708.584"
   x2="543.9219"
   y2="701.2868"
   gradientTransform="matrix(1 0 0 1 -484 -665)">
			<stop
   offset="0"
   style="stop-color:#404040"
   id="stop165" />
			<stop
   offset="1"
   style="stop-color:#FFFFFF"
   id="stop167" />
		</linearGradient>
		<path
   fill="url(#SVGID_13_)"
   d="M60.505,36.286c0,0,0,1.412,0,3.83c0,0.275-0.066,0.552-0.159,0.827    c-0.368,1.088-1.33,2.115-2.036,2.724c0.463,0.097,0.978,0.157,1.531,0.157c0.618,0,1.191-0.074,1.693-0.194v-7.345L60.505,36.286    L60.505,36.286z"
   id="path169" />
	</g>
	<g
   id="g171">
		
			<linearGradient
   id="SVGID_14_"
   gradientUnits="userSpaceOnUse"
   x1="561.2363"
   y1="699.5352"
   x2="564.683"
   y2="699.5352"
   gradientTransform="matrix(1 0 0 1 -484 -665)">
			<stop
   offset="0"
   style="stop-color:#787878"
   id="stop174" />
			<stop
   offset="0.267"
   style="stop-color:#FFFFFF"
   id="stop176" />
			<stop
   offset="0.7382"
   style="stop-color:#FFFFFF"
   id="stop178" />
			<stop
   offset="1"
   style="stop-color:#CCCCCC"
   id="stop180" />
		</linearGradient>
		<path
   fill="url(#SVGID_14_)"
   d="M78.988,25.402c-1.034,0-1.873,0.839-1.873,1.875v16.34c0.07,0.018,0.146,0.035,0.223,0.051    c0.707-0.609,1.669-1.636,2.036-2.724c0.093-0.275,0.16-0.552,0.16-0.827c0-2.418,0-3.83,0-3.83h1.026v7.345    c0.104-0.025,0.207-0.048,0.304-0.078V27.276C80.863,26.241,80.025,25.402,78.988,25.402z"
   id="path182" />
		
			<linearGradient
   id="SVGID_15_"
   gradientUnits="userSpaceOnUse"
   x1="562.9492"
   y1="708.584"
   x2="562.9492"
   y2="701.2868"
   gradientTransform="matrix(1 0 0 1 -484 -665)">
			<stop
   offset="0"
   style="stop-color:#404040"
   id="stop185" />
			<stop
   offset="1"
   style="stop-color:#FFFFFF"
   id="stop187" />
		</linearGradient>
		<path
   fill="url(#SVGID_15_)"
   d="M79.534,36.286c0,0,0,1.412,0,3.83c0,0.275-0.067,0.552-0.16,0.827    c-0.367,1.088-1.329,2.115-2.036,2.724c0.463,0.097,0.979,0.157,1.53,0.157c0.618,0,1.19-0.074,1.692-0.194v-7.345L79.534,36.286    L79.534,36.286z"
   id="path189" />
	</g>
	<g
   id="g191">
		
			<linearGradient
   id="SVGID_16_"
   gradientUnits="userSpaceOnUse"
   x1="579.9404"
   y1="699.5352"
   x2="583.3871"
   y2="699.5352"
   gradientTransform="matrix(1 0 0 1 -484 -665)">
			<stop
   offset="0"
   style="stop-color:#787878"
   id="stop194" />
			<stop
   offset="0.267"
   style="stop-color:#FFFFFF"
   id="stop196" />
			<stop
   offset="0.7382"
   style="stop-color:#FFFFFF"
   id="stop198" />
			<stop
   offset="1"
   style="stop-color:#CCCCCC"
   id="stop200" />
		</linearGradient>
		<path
   fill="url(#SVGID_16_)"
   d="M97.693,25.402c-1.035,0-1.875,0.839-1.875,1.875v16.34c0.074,0.018,0.146,0.035,0.225,0.051    c0.706-0.609,1.669-1.636,2.036-2.724c0.093-0.275,0.159-0.552,0.159-0.827c0-2.418,0-3.83,0-3.83h1.027v7.345    c0.104-0.025,0.207-0.048,0.303-0.078V27.276C99.568,26.241,98.729,25.402,97.693,25.402z"
   id="path202" />
		
			<linearGradient
   id="SVGID_17_"
   gradientUnits="userSpaceOnUse"
   x1="581.6543"
   y1="708.584"
   x2="581.6543"
   y2="701.2868"
   gradientTransform="matrix(1 0 0 1 -484 -665)">
			<stop
   offset="0"
   style="stop-color:#404040"
   id="stop205" />
			<stop
   offset="1"
   style="stop-color:#FFFFFF"
   id="stop207" />
		</linearGradient>
		<path
   fill="url(#SVGID_17_)"
   d="M98.238,36.286c0,0,0,1.412,0,3.83c0,0.275-0.066,0.552-0.159,0.827    c-0.367,1.088-1.33,2.115-2.036,2.724c0.463,0.097,0.979,0.157,1.53,0.157c0.618,0,1.19-0.074,1.692-0.194v-7.345L98.238,36.286    L98.238,36.286z"
   id="path209" />
	</g>
</g>






<g
   id="layer1"
   inkscape:label="Layer 1"
   transform="matrix(1.5411061,0,0,1.8701084,76.371544,51.712206)"><g
     transform="translate(-41.012195,-139.30004)"
     id="g3278"><path
       sodipodi:nodetypes="ccccc"
       id="path3208"
       d="M 42.883885,146.92286 L 48.883885,168.17286 L 73.133885,144.92286 L 52.133885,155.42286 L 42.883885,146.92286 z"
       style="opacity:0.49923078;fill:#000000;fill-opacity:1;fill-rule:evenodd;stroke:none;stroke-width:1px;stroke-linecap:round;stroke-linejoin:miter;stroke-opacity:1;filter:url(#filter3274)" /><path
       style="fill:url(#linearGradient3282);fill-opacity:1;fill-rule:evenodd;stroke:url(#linearGradient3284);stroke-width:1px;stroke-linecap:round;stroke-linejoin:miter;stroke-opacity:1"
       d="M 42.176777,146.03896 L 48.176777,167.28896 L 72.426777,144.03896 L 51.426777,154.53896 L 42.176777,146.03896 z"
       id="path2418"
       sodipodi:nodetypes="ccccc" /></g></g></svg>