<?xml version="1.0" encoding="UTF-8" standalone="no"?>
<svg
   xmlns:dc="http://purl.org/dc/elements/1.1/"
   xmlns:cc="http://creativecommons.org/ns#"
   xmlns:rdf="http://www.w3.org/1999/02/22-rdf-syntax-ns#"
   xmlns:svg="http://www.w3.org/2000/svg"
   xmlns="http://www.w3.org/2000/svg"
   xmlns:xlink="http://www.w3.org/1999/xlink"
   xmlns:sodipodi="http://sodipodi.sourceforge.net/DTD/sodipodi-0.dtd"
   xmlns:inkscape="http://www.inkscape.org/namespaces/inkscape"
   viewBox="0 0 70 71.642532"
   version="1.1"
   id="svg37"
   sodipodi:docname="pdfFile.svg"
   inkscape:version="0.92.1 r15371"
   width="70"
   height="71.642532">
  <metadata
     id="metadata41">
    <rdf:RDF>
      <cc:Work
         rdf:about="">
        <dc:format>image/svg+xml</dc:format>
        <dc:type
           rdf:resource="http://purl.org/dc/dcmitype/StillImage" />
        <dc:title></dc:title>
        <cc:license
           rdf:resource="http://creativecommons.org/publicdomain/zero/1.0/" />
        <dc:creator>
          <cc:Agent>
            <dc:title>Robert Paciorek</dc:title>
          </cc:Agent>
        </dc:creator>
        <dc:contributor>
          <cc:Agent>
            <dc:title>based on CC0 works: https://commons.wikimedia.org/wiki/File:File-158878.svg and https://commons.wikimedia.org/wiki/File:Adobe-24943.svg</dc:title>
          </cc:Agent>
        </dc:contributor>
      </cc:Work>
      <cc:License
         rdf:about="http://creativecommons.org/publicdomain/zero/1.0/">
        <cc:permits
           rdf:resource="http://creativecommons.org/ns#Reproduction" />
        <cc:permits
           rdf:resource="http://creativecommons.org/ns#Distribution" />
        <cc:permits
           rdf:resource="http://creativecommons.org/ns#DerivativeWorks" />
      </cc:License>
    </rdf:RDF>
  </metadata>
  <sodipodi:namedview
     pagecolor="#ffffff"
     bordercolor="#666666"
     borderopacity="1"
     objecttolerance="10"
     gridtolerance="10"
     guidetolerance="10"
     inkscape:pageopacity="0"
     inkscape:pageshadow="2"
     inkscape:window-width="1920"
     inkscape:window-height="1009"
     id="namedview39"
     showgrid="false"
     inkscape:snap-grids="false"
     inkscape:snap-to-guides="false"
     inkscape:zoom="4.9059886"
     inkscape:cx="-1.1491205"
     inkscape:cy="10.649073"
     inkscape:window-x="0"
     inkscape:window-y="0"
     inkscape:window-maximized="1"
     inkscape:current-layer="svg37"
     fit-margin-top="0"
     fit-margin-left="0"
     fit-margin-right="0"
     fit-margin-bottom="0" />
  <defs
     id="defs15">
    <filter
       id="d">
      <feGaussianBlur
         stdDeviation="1.2625"
         id="feGaussianBlur2" />
    </filter>
    <filter
       id="e"
       x="-0.041609999"
       y="-0.1075"
       width="1.0832"
       height="1.215">
      <feGaussianBlur
         stdDeviation=".5375"
         id="feGaussianBlur5" />
    </filter>
    <linearGradient
       id="a">
      <stop
         stop-color="#7c7c7c"
         offset="0"
         id="stop8" />
      <stop
         stop-color="#e6e3e3"
         offset="1"
         id="stop10" />
    </linearGradient>
    <linearGradient
       id="b"
       x1="186.00999"
       x2="186.75999"
       y1="-214.19"
       y2="-260.48999"
       gradientUnits="userSpaceOnUse"
       xlink:href="#a" />
    <linearGradient
       id="c"
       x1="200.64"
       x2="192.52"
       y1="-254.45"
       y2="-246.03999"
       gradientUnits="userSpaceOnUse"
       xlink:href="#a" />
    <linearGradient
       id="a-9">
      <stop
         id="stop2"
         offset="0"
         stop-color="#dadada" />
      <stop
         id="stop4"
         offset=".34923"
         stop-color="#f1f1f1" />
      <stop
         id="stop6"
         offset="1"
         stop-color="#f0f0f0" />
    </linearGradient>
    <linearGradient
       y2="0.54688001"
       y1="0.14063001"
       x2="0.062990002"
       x1="0.85826999"
       id="e-2">
      <stop
         id="stop9"
         offset="0"
         stop-color="#fff" />
      <stop
         id="stop11"
         offset="1"
         stop-opacity="0"
         stop-color="#fff" />
    </linearGradient>
    <linearGradient
       y2="0.0078099999"
       y1="0.97656"
       x2="0.78261"
       x1="0.052170001"
       id="d-6">
      <stop
         id="stop14"
         offset="0"
         stop-opacity=".09551" />
      <stop
         id="stop16"
         offset="1"
         stop-opacity="0" />
    </linearGradient>
    <linearGradient
       y2="109.71204"
       y1="30.569181"
       x2="129.23088"
       x1="42.437477"
       id="c-6"
       gradientTransform="scale(0.92014445,1.0867859)"
       gradientUnits="userSpaceOnUse">
      <stop
         id="stop19"
         offset="0"
         stop-color="#df421e" />
      <stop
         id="stop21"
         offset="1"
         stop-color="#900" />
    </linearGradient>
    <linearGradient
       y2="0.38635999"
       y1="1.6061"
       x2="0.63871002"
       x1="0.10968"
       id="b-4">
      <stop
         id="stop24"
         offset="0"
         stop-opacity=".29752" />
      <stop
         id="stop26"
         offset="1"
         stop-opacity="0" />
    </linearGradient>
    <linearGradient
       xlink:href="#a-9"
       y2="1.1797"
       y1="0.21094"
       x2="0.085469998"
       x1="0.88033998"
       id="g" />
    <linearGradient
       xlink:href="#a-9"
       y2="1.3281"
       y1="0.32813001"
       x2="-0.37606999"
       x1="0.63248003"
       id="f" />
    <linearGradient
       inkscape:collect="always"
       xlink:href="#b-4"
       id="linearGradient4614"
       x1="23.377823"
       y1="19.882984"
       x2="78.100494"
       y2="-106.28647"
       gradientTransform="scale(0.92014337,1.0867872)"
       gradientUnits="userSpaceOnUse" />
    <linearGradient
       inkscape:collect="always"
       xlink:href="#b-4"
       id="linearGradient4616"
       x1="22.406191"
       y1="22.4062"
       x2="78.384293"
       y2="-106.65779"
       gradientTransform="scale(0.92080921,1.0860013)"
       gradientUnits="userSpaceOnUse" />
    <linearGradient
       inkscape:collect="always"
       xlink:href="#b-4"
       id="linearGradient4618"
       x1="22.406191"
       y1="22.4062"
       x2="78.384293"
       y2="-106.65779"
       gradientTransform="scale(0.92080921,1.0860013)"
       gradientUnits="userSpaceOnUse" />
  </defs>
  <g
     transform="matrix(1.0293467,0,0,1.0293467,-156.51804,270.86229)"
     id="g35">
    <path
       d="m 170.56,-255.14 v 56 h 45 v -40.108 l -16.023,-15.892 z"
       id="path17"
       inkscape:connector-curvature="0"
       style="opacity:0.6;stroke:#000000;stroke-width:2;stroke-linecap:round;stroke-linejoin:round;stroke-dashoffset:117.54000092;filter:url(#d)" />
    <path
       d="m 163.56,-262.14 v 56 h 45 v -40.108 l -16.023,-15.892 z"
       id="path19"
       inkscape:connector-curvature="0"
       style="fill:url(#b);stroke:#000000;stroke-width:2;stroke-linecap:round;stroke-linejoin:round;stroke-dashoffset:117.54000092" />
    <path
       d="m 208.56,-246.14 -15.989,-15.989 v 15.989 z"
       id="path25"
       inkscape:connector-curvature="0"
       style="fill:url(#c);stroke:#000000;stroke-width:2;stroke-linecap:round;stroke-linejoin:round;stroke-dashoffset:117.54000092" />
    <path
       d="m 163.56,-262.14 v 56 h 45 v -40.108 l -16.023,-15.892 z"
       id="path27"
       inkscape:connector-curvature="0"
       style="fill:none;stroke:#000000;stroke-width:2;stroke-linecap:round;stroke-linejoin:round;stroke-dashoffset:117.54000092" />
    <path
       d="m 155.56,-251.14 h 29 a 1,1 0 0 1 1,1 v 10 a 1,1 0 0 1 -1,1 h -29 a 1,1 0 0 1 -1,-1 v -10 a 1,1 0 0 1 1,-1"
       id="path21"
       inkscape:connector-curvature="0"
       style="filter:url(#e)"
       transform="matrix(1.0723291,0,0,1,-12.30027,0)" />
    <path
       d="m 154.51125,-251.14 h 31.0975 a 1.0723277,1 0 0 1 1.07233,1 v 10 a 1.0723277,1 0 0 1 -1.07233,1 h -31.0975 a 1.0723277,1 0 0 1 -1.07233,-1 v -10 a 1.0723277,1 0 0 1 1.07233,-1"
       id="path29"
       inkscape:connector-curvature="0"
       style="fill:#ff0000;stroke-width:1.03553259" />
    <text
       transform="scale(0.896,1.1161)"
       x="189.47539"
       y="-215.91681"
       font-size="10.208"
       font-weight="bold"
       letter-spacing="0"
       word-spacing="0"
       id="text33"
       style="font-weight:bold;font-size:10.20800018px;font-family:Sans;letter-spacing:0;word-spacing:0;text-anchor:middle;fill:#ffffff">
      <tspan
         x="189.47539"
         y="-215.91681"
         id="tspan31">PDF</tspan>
    </text>
    <g
       id="g4612"
       transform="matrix(0.30281858,0.05624528,-0.04713765,0.25378402,169.48557,-250.97728)">
      <g
         style="fill:url(#linearGradient4618);fill-opacity:0.22642002"
         id="g53"
         transform="matrix(1.1247,0,0,0.82166,16.107,180.52)">
        <path
           style="fill:url(#linearGradient4614)"
           id="path49"
           d="m 57.695,-158.82 c -2.9219,0.4286 -4.522,1.5871 -5.8723,6.492 -1.3503,4.9049 -0.04381,13.735 1.8098,20.508 0.76032,2.2534 1.7489,4.4335 2.625,6.6562 -0.50007,3.3527 -1.1083,6.7045 -1.9688,10 -3.2826,13.457 -7.0134,26.986 -12.625,39.688 -7.8159,3.8425 -15.414,8.0987 -22.625,12.969 -4.3488,2.7264 -12.309,10.38 -5,14.406 4.1042,2.3266 8.3758,1.8563 12.25,0 1.9371,-0.92817 3.7654,-2.2274 5.4375,-3.6562 1.6721,-1.4288 3.2001,-2.9964 4.4688,-4.5625 3.9088,-4.9269 7.2644,-10.191 10.219,-15.688 11.71,-5.2634 23.8,-9.6923 36.25,-12.781 5.2057,4.5423 12.837,9.1164 19.312,4.5938 6.4919,-2.9573 5.4037,-11.732 -2,-11.844 -4.9079,-0.97662 -9.7805,-0.37323 -14.594,0.71875 -2.0981,-2.4129 -4.0458,-5.0074 -5.8438,-7.4375 -5.7972,-9.2227 -11.146,-18.725 -16.156,-28.406 1.3572,-8.879 2.7493,-18.753 1.6604,-25.17 -1.0889,-6.417 -4.2286,-6.9442 -7.3479,-6.4867 z m -0.96875,6.6562 c 0.78729,-1.7459 2.8165,0.10374 2.7816,2.4402 -0.0349,2.33646 -0.40607,7.5669 -2.0629,9.0286 -1.2374,-3.7839 -1.506,-9.7229 -0.71875,-11.469 z m 4.3125,37.688 c 4.5575,9.0952 10.09,17.697 17,25.125 -2.0364,0.58732 -4.1148,1.1445 -6.125,1.6562 -7.4204,2.369 -14.693,5.214 -21.844,8.3438 5.08,-11.175 8.4334,-23.112 10.969,-35.125 z m 31.406,27.938 c 2.6146,-0.02498 4.7028,0.64099 4.1875,3.125 -2.2042,-0.56293 -4.1245,-1.6362 -5.9375,-2.9375 0.59273,-0.06035 1.1869,-0.18212 1.75,-0.1875 z m -54.438,18.5 c -0.55667,1.0631 -1.0024,2.172 -1.5938,3.2188 -3.7514,5.7513 -9.1788,12.977 -16.656,12.844 -2.2333,-6.2697 6.9211,-9.7656 11.188,-12.594 2.3252,-1.209 4.7047,-2.3152 7.0625,-3.4688 z"
           inkscape:connector-curvature="0" />
        <path
           style="fill:url(#linearGradient4616)"
           id="path51"
           d="m 57.625,-160.12 c -7.613,1.2872 -8.1394,10.75 -7.2959,16.869 0.83892,6.2261 1.835,12.496 4.5459,18.225 -3.3153,16.587 -7.7944,32.962 -14.281,48.625 -9.9946,5.7328 -21.228,10.304 -29,19.062 -2.6774,3.3906 -2.2331,9.091 2.3619,10.513 8.0907,4.4214 17.184,-1.6695 22.346,-7.8841 4.8028,-4.7564 7.4004,-11.415 11.594,-16.404 11.276,-4.7521 22.721,-8.834 34.479,-12.225 5.5502,4.7098 14.202,8.9444 20.875,3.9062 6.2984,-2.4687 5.1754,-13.391 -1.9025,-13.699 -5.0898,-1.2526 -10.294,-0.3753 -15.379,0.38666 -8.6447,-10.551 -14.651,-22.849 -21.219,-34.719 0.8448,-9.8555 4.1134,-20.627 -0.25666,-30.016 -1.421,-2.2649 -4.3423,-3.0608 -6.8683,-2.6401 z m 0.5,10.531 c 0.63366,6.845 -1.525,-1.0204 0,0 z m 9.4062,49 c 2.5834,3.6071 5.237,7.2348 8.1875,10.594 -7.8866,2.2972 -15.641,4.9349 -23.188,8.1875 4.1518,-9.3484 6.3798,-19.362 8.9688,-29.219 l 6.0312,10.438 z m -35.156,39.125 c -2.9673,3.5383 -6.5454,7.3982 -11.375,7.9688 0.83482,-6.0172 7.9505,-7.8523 12.389,-10.843 4.2747,-2.8889 -0.83118,1.952 -1.014,2.8746 z"
           inkscape:connector-curvature="0" />
      </g>
      <path
         style="fill:url(#c-6)"
         id="path55"
         d="m 78.743,17.879 c -3.2863,0.48206 -5.086,1.785 -6.6048,7.3017 -1.5188,5.5167 -0.04927,15.448 2.0356,23.066 0.85515,2.5345 1.967,4.9865 2.9524,7.4865 -0.56244,3.7709 -1.2466,7.5407 -2.2143,11.247 -3.6921,15.136 -7.8882,30.352 -14.2,44.638 -8.7908,4.3218 -17.337,9.1088 -25.447,14.586 -4.8912,3.0665 -13.844,11.675 -5.6236,16.203 4.6162,2.6168 9.4204,2.0879 13.778,0 2.1787,-1.0439 4.2351,-2.5052 6.1157,-4.1123 1.8806,-1.6071 3.5993,-3.3701 5.0261,-5.1316 4.3963,-5.5414 8.1705,-11.462 11.493,-17.644 13.171,-5.9199 26.769,-10.901 40.771,-14.375 5.855,5.1089 14.438,10.254 21.721,5.1667 7.3016,-3.3262 6.0776,-13.195 -2.2494,-13.321 -5.5201,-1.0984 -11,-0.41978 -16.414,0.8084 -2.3598,-2.7139 -4.5504,-5.632 -6.5726,-8.3652 -6.5203,-10.373 -12.536,-21.061 -18.171,-31.949 1.5265,-9.9865 3.0923,-21.091 1.8675,-28.309 -1.2248,-7.218 -4.756,-7.8104 -8.2644,-7.2957 z m -1.0896,7.4865 c 0.88549,-1.9636 3.1678,0.11668 3.1286,2.7445 -0.0392,2.62782 -0.45672,8.5107 -2.3202,10.155 -1.3917,-4.2559 -1.6939,-10.936 -0.8084,-12.899 z m 4.8504,42.388 c 5.126,10.23 11.349,19.904 19.12,28.259 -2.2904,0.66058 -4.628,1.2872 -6.889,1.8628 -8.346,2.6644 -16.525,5.8644 -24.568,9.3844 5.7136,-12.569 9.4853,-25.995 12.337,-39.506 z m 35.323,31.422 c 2.9408,-0.0281 5.2894,0.72094 4.7098,3.5148 -2.4791,-0.63314 -4.639,-1.8403 -6.6781,-3.3039 0.66666,-0.06788 1.3349,-0.20483 1.9683,-0.21089 z m -61.227,20.807 c -0.6261,1.1957 -1.1274,2.4429 -1.7925,3.6202 -4.2193,6.4686 -10.324,14.595 -18.734,14.446 -2.5119,-7.0517 7.7844,-10.984 12.583,-14.165 2.6152,-1.3598 5.2915,-2.604 7.9434,-3.9014 z"
         inkscape:connector-curvature="0" />
    </g>
  </g>
</svg>
