<?xml version="1.0" encoding="utf-8"?>
<!-- Generator: Adobe Illustrator 13.0.0, SVG Export Plug-In . SVG Version: 6.00 Build 14948)  -->
<!DOCTYPE svg PUBLIC "-//W3C//DTD SVG 1.1//EN" "http://www.w3.org/Graphics/SVG/1.1/DTD/svg11.dtd">
<svg version="1.1" id="Layer_1" xmlns="http://www.w3.org/2000/svg" xmlns:xlink="http://www.w3.org/1999/xlink" x="0px" y="0px"
	 width="128px" height="128px" viewBox="0 0 128 128" enable-background="new 0 0 128 128" xml:space="preserve">
<filter  id="Gaussian_Blur">
	<feGaussianBlur  in="SourceGraphic" stdDeviation="2"></feGaussianBlur>
</filter>
<g id="drop">
	<g opacity="0.53" filter="url(#Gaussian_Blur)">
		<path d="M111.825,46.469c0-2.172-1.733-3.933-3.87-3.933H39.654c0,0-30.593-37.18-33.029-35.411c-4.051,2.943-1.25,6.5-1.25,6.5
			L31,40.375l-8.833,79.177c0,2.171,1.733,3.933,3.87,3.933h91.592c2.139,0,3.87-1.762,3.87-3.933L111.825,46.469z"/>
	</g>
</g>
<g id="Layer_2">
	
		<radialGradient id="SVGID_1_" cx="554" cy="759.25" r="62.5979" gradientTransform="matrix(1 0 0 1 -484 -665)" gradientUnits="userSpaceOnUse">
		<stop  offset="0" style="stop-color:#2CB0FB"/>
		<stop  offset="0.1263" style="stop-color:#2AAAF6"/>
		<stop  offset="0.3021" style="stop-color:#2698E9"/>
		<stop  offset="0.5069" style="stop-color:#1E7AD2"/>
		<stop  offset="0.7336" style="stop-color:#1351B4"/>
		<stop  offset="0.9758" style="stop-color:#051C8C"/>
		<stop  offset="0.9949" style="stop-color:#041889"/>
	</radialGradient>
	<path fill="url(#SVGID_1_)" d="M120.532,116.648c0,2.172-1.732,3.934-3.87,3.934H25.07c-2.137,0-3.87-1.762-3.87-3.934
		l6.773-73.083c0-2.172,1.733-3.933,3.87-3.933h75.146c2.138,0,3.869,1.761,3.869,3.933L120.532,116.648z"/>
</g>
<g id="Layer_3">
	
		<linearGradient id="SVGID_2_" gradientUnits="userSpaceOnUse" x1="554.8672" y1="776.834" x2="554.8672" y2="704.27" gradientTransform="matrix(1 0 0 1 -484 -665)">
		<stop  offset="0.0051" style="stop-color:#FFFFFF"/>
		<stop  offset="1" style="stop-color:#E6E6E6"/>
	</linearGradient>
	<polygon fill="url(#SVGID_2_)" points="23.458,114.615 30.553,38.181 107.955,38.342 118.275,114.293 	"/>
</g>
<g id="Layer_2_1_">
	<polygon fill="#D1D1D1" points="23.791,111.292 117.5,111.25 118.275,114.293 23.458,114.615 	"/>
</g>
<g id="Layer_7">
	
		<linearGradient id="SVGID_3_" gradientUnits="userSpaceOnUse" x1="512.4971" y1="759.5801" x2="576.8365" y2="759.5801" gradientTransform="matrix(1 0 0 1 -484 -665)">
		<stop  offset="0.0051" style="stop-color:#FFFFFF"/>
		<stop  offset="0.9898" style="stop-color:#BFBFBF"/>
	</linearGradient>
	<polygon fill="url(#SVGID_3_)" points="26.32,91.072 76.994,91.557 94.288,95.426 85.822,97.846 26.441,98.087 	"/>
</g>
<g id="Layer_4">
	<g>
		
			<radialGradient id="SVGID_4_" cx="553.7744" cy="714.71" r="28.8795" gradientTransform="matrix(1 0 0 1 -484 -665)" gradientUnits="userSpaceOnUse">
			<stop  offset="0" style="stop-color:#C6E3FA"/>
			<stop  offset="0.368" style="stop-color:#C5DBF5"/>
			<stop  offset="0.9432" style="stop-color:#C0C5E8"/>
			<stop  offset="1" style="stop-color:#C0C2E7"/>
		</radialGradient>
		<polygon fill="url(#SVGID_4_)" points="109.307,49.227 29.787,49.227 29.681,50.194 109.427,50.194 		"/>
		
			<radialGradient id="SVGID_5_" cx="491.3027" cy="726.3223" r="28.8603" gradientTransform="matrix(1.148 0 0 1 -494.2081 -665)" gradientUnits="userSpaceOnUse">
			<stop  offset="0" style="stop-color:#C6E3FA"/>
			<stop  offset="0.368" style="stop-color:#C5DBF5"/>
			<stop  offset="0.9432" style="stop-color:#C0C5E8"/>
			<stop  offset="1" style="stop-color:#C0C2E7"/>
		</radialGradient>
		<polygon fill="url(#SVGID_5_)" points="110.749,60.837 28.578,60.837 28.472,61.805 110.868,61.805 		"/>
		
			<radialGradient id="SVGID_6_" cx="491.3027" cy="737.9316" r="28.8612" gradientTransform="matrix(1.148 0 0 1 -494.2081 -665)" gradientUnits="userSpaceOnUse">
			<stop  offset="0" style="stop-color:#C6E3FA"/>
			<stop  offset="0.368" style="stop-color:#C5DBF5"/>
			<stop  offset="0.9432" style="stop-color:#C0C5E8"/>
			<stop  offset="1" style="stop-color:#C0C2E7"/>
		</radialGradient>
		<polygon fill="url(#SVGID_6_)" points="112.189,72.447 27.409,72.447 27.303,73.415 112.311,73.415 		"/>
		
			<radialGradient id="SVGID_7_" cx="491.627" cy="750.5107" r="28.7783" gradientTransform="matrix(1.148 0 0 1 -494.2081 -665)" gradientUnits="userSpaceOnUse">
			<stop  offset="0" style="stop-color:#C6E3FA"/>
			<stop  offset="0.368" style="stop-color:#C5DBF5"/>
			<stop  offset="0.9432" style="stop-color:#C0C5E8"/>
			<stop  offset="1" style="stop-color:#C0C2E7"/>
		</radialGradient>
		<polygon fill="url(#SVGID_7_)" points="113.995,85.025 26.35,85.025 26.245,85.993 114.115,85.993 		"/>
		
			<radialGradient id="SVGID_8_" cx="491.7324" cy="763.3281" r="28.7825" gradientTransform="matrix(1.148 0 0 1 -494.2081 -665)" gradientUnits="userSpaceOnUse">
			<stop  offset="0" style="stop-color:#C6E3FA"/>
			<stop  offset="0.368" style="stop-color:#C5DBF5"/>
			<stop  offset="0.9432" style="stop-color:#C0C5E8"/>
			<stop  offset="1" style="stop-color:#C0C2E7"/>
		</radialGradient>
		<polygon fill="url(#SVGID_8_)" points="115.708,97.846 25.156,97.846 25.05,98.813 115.828,98.813 		"/>
	</g>
</g>
<g id="Layer_5">
	<polygon opacity="0.31" fill="#FF004F" enable-background="new    " points="33.617,113.783 37.326,39.608 38.292,39.657 
		34.583,113.832 	"/>
</g>
<g id="Layer_6">
	<g>
		<polygon opacity="0.28" fill="#00FFFF" enable-background="new    " points="120.35,115.261 21.329,115.261 21.224,116.391 
			120.498,116.391 		"/>
		
			<linearGradient id="SVGID_9_" gradientUnits="userSpaceOnUse" x1="554.8662" y1="782.6807" x2="554.8662" y2="786.2274" gradientTransform="matrix(1 0 0 1 -484 -665)">
			<stop  offset="0" style="stop-color:#00FFFF"/>
			<stop  offset="1" style="stop-color:#041889"/>
		</linearGradient>
		<path opacity="0.44" fill="url(#SVGID_9_)" enable-background="new    " d="M25.07,120.582h91.592
			c1.953,0,3.552-1.477,3.816-3.387H21.254C21.518,119.105,23.117,120.582,25.07,120.582z"/>
	</g>
</g>
<g id="Layer_14">
	<ellipse fill="#2C8AFB" cx="41.135" cy="42.374" rx="3.447" ry="1.451"/>
	<ellipse fill="#2C8AFB" cx="59.84" cy="42.374" rx="3.447" ry="1.451"/>
	<ellipse fill="#2C8AFB" cx="78.869" cy="42.374" rx="3.447" ry="1.451"/>
	<ellipse fill="#2C8AFB" cx="97.574" cy="42.374" rx="3.447" ry="1.451"/>
</g>
<g id="Layer_16">
	<g>
		
			<linearGradient id="SVGID_10_" gradientUnits="userSpaceOnUse" x1="523.5029" y1="699.5352" x2="526.9501" y2="699.5352" gradientTransform="matrix(1 0 0 1 -484 -665)">
			<stop  offset="0" style="stop-color:#787878"/>
			<stop  offset="0.267" style="stop-color:#FFFFFF"/>
			<stop  offset="0.7382" style="stop-color:#FFFFFF"/>
			<stop  offset="1" style="stop-color:#CCCCCC"/>
		</linearGradient>
		<path fill="url(#SVGID_10_)" d="M41.256,25.402c-1.036,0-1.875,0.839-1.875,1.875v16.34c0.073,0.018,0.147,0.035,0.224,0.051
			c0.707-0.609,1.668-1.636,2.036-2.724c0.093-0.275,0.159-0.552,0.159-0.827c0-2.418,0-3.83,0-3.83h1.028v7.345
			c0.103-0.025,0.207-0.048,0.303-0.078V27.276C43.13,26.241,42.291,25.402,41.256,25.402z"/>
		
			<linearGradient id="SVGID_11_" gradientUnits="userSpaceOnUse" x1="525.2168" y1="708.584" x2="525.2168" y2="701.2868" gradientTransform="matrix(1 0 0 1 -484 -665)">
			<stop  offset="0" style="stop-color:#404040"/>
			<stop  offset="1" style="stop-color:#FFFFFF"/>
		</linearGradient>
		<path fill="url(#SVGID_11_)" d="M41.8,36.286c0,0,0,1.412,0,3.83c0,0.275-0.066,0.552-0.159,0.827
			c-0.368,1.088-1.33,2.115-2.036,2.724c0.463,0.097,0.978,0.157,1.531,0.157c0.618,0,1.191-0.074,1.692-0.194v-7.345L41.8,36.286
			L41.8,36.286z"/>
	</g>
	<g>
		
			<linearGradient id="SVGID_12_" gradientUnits="userSpaceOnUse" x1="542.208" y1="699.5352" x2="545.6547" y2="699.5352" gradientTransform="matrix(1 0 0 1 -484 -665)">
			<stop  offset="0" style="stop-color:#787878"/>
			<stop  offset="0.267" style="stop-color:#FFFFFF"/>
			<stop  offset="0.7382" style="stop-color:#FFFFFF"/>
			<stop  offset="1" style="stop-color:#CCCCCC"/>
		</linearGradient>
		<path fill="url(#SVGID_12_)" d="M59.961,25.402c-1.036,0-1.875,0.839-1.875,1.875v16.34c0.073,0.018,0.147,0.035,0.223,0.051
			c0.707-0.609,1.668-1.636,2.036-2.724c0.093-0.275,0.159-0.552,0.159-0.827c0-2.418,0-3.83,0-3.83h1.028v7.345
			c0.103-0.025,0.206-0.048,0.302-0.078V27.276C61.835,26.241,60.996,25.402,59.961,25.402z"/>
		
			<linearGradient id="SVGID_13_" gradientUnits="userSpaceOnUse" x1="543.9219" y1="708.584" x2="543.9219" y2="701.2868" gradientTransform="matrix(1 0 0 1 -484 -665)">
			<stop  offset="0" style="stop-color:#404040"/>
			<stop  offset="1" style="stop-color:#FFFFFF"/>
		</linearGradient>
		<path fill="url(#SVGID_13_)" d="M60.505,36.286c0,0,0,1.412,0,3.83c0,0.275-0.066,0.552-0.159,0.827
			c-0.368,1.088-1.33,2.115-2.036,2.724c0.463,0.097,0.978,0.157,1.531,0.157c0.618,0,1.191-0.074,1.693-0.194v-7.345L60.505,36.286
			L60.505,36.286z"/>
	</g>
	<g>
		
			<linearGradient id="SVGID_14_" gradientUnits="userSpaceOnUse" x1="561.2363" y1="699.5352" x2="564.683" y2="699.5352" gradientTransform="matrix(1 0 0 1 -484 -665)">
			<stop  offset="0" style="stop-color:#787878"/>
			<stop  offset="0.267" style="stop-color:#FFFFFF"/>
			<stop  offset="0.7382" style="stop-color:#FFFFFF"/>
			<stop  offset="1" style="stop-color:#CCCCCC"/>
		</linearGradient>
		<path fill="url(#SVGID_14_)" d="M78.988,25.402c-1.034,0-1.873,0.839-1.873,1.875v16.34c0.07,0.018,0.146,0.035,0.223,0.051
			c0.707-0.609,1.669-1.636,2.036-2.724c0.093-0.275,0.16-0.552,0.16-0.827c0-2.418,0-3.83,0-3.83h1.026v7.345
			c0.104-0.025,0.207-0.048,0.304-0.078V27.276C80.863,26.241,80.025,25.402,78.988,25.402z"/>
		
			<linearGradient id="SVGID_15_" gradientUnits="userSpaceOnUse" x1="562.9492" y1="708.584" x2="562.9492" y2="701.2868" gradientTransform="matrix(1 0 0 1 -484 -665)">
			<stop  offset="0" style="stop-color:#404040"/>
			<stop  offset="1" style="stop-color:#FFFFFF"/>
		</linearGradient>
		<path fill="url(#SVGID_15_)" d="M79.534,36.286c0,0,0,1.412,0,3.83c0,0.275-0.067,0.552-0.16,0.827
			c-0.367,1.088-1.329,2.115-2.036,2.724c0.463,0.097,0.979,0.157,1.53,0.157c0.618,0,1.19-0.074,1.692-0.194v-7.345L79.534,36.286
			L79.534,36.286z"/>
	</g>
	<g>
		
			<linearGradient id="SVGID_16_" gradientUnits="userSpaceOnUse" x1="579.9404" y1="699.5352" x2="583.3871" y2="699.5352" gradientTransform="matrix(1 0 0 1 -484 -665)">
			<stop  offset="0" style="stop-color:#787878"/>
			<stop  offset="0.267" style="stop-color:#FFFFFF"/>
			<stop  offset="0.7382" style="stop-color:#FFFFFF"/>
			<stop  offset="1" style="stop-color:#CCCCCC"/>
		</linearGradient>
		<path fill="url(#SVGID_16_)" d="M97.693,25.402c-1.035,0-1.875,0.839-1.875,1.875v16.34c0.074,0.018,0.146,0.035,0.225,0.051
			c0.706-0.609,1.669-1.636,2.036-2.724c0.093-0.275,0.159-0.552,0.159-0.827c0-2.418,0-3.83,0-3.83h1.027v7.345
			c0.104-0.025,0.207-0.048,0.303-0.078V27.276C99.568,26.241,98.729,25.402,97.693,25.402z"/>
		
			<linearGradient id="SVGID_17_" gradientUnits="userSpaceOnUse" x1="581.6543" y1="708.584" x2="581.6543" y2="701.2868" gradientTransform="matrix(1 0 0 1 -484 -665)">
			<stop  offset="0" style="stop-color:#404040"/>
			<stop  offset="1" style="stop-color:#FFFFFF"/>
		</linearGradient>
		<path fill="url(#SVGID_17_)" d="M98.238,36.286c0,0,0,1.412,0,3.83c0,0.275-0.066,0.552-0.159,0.827
			c-0.367,1.088-1.33,2.115-2.036,2.724c0.463,0.097,0.979,0.157,1.53,0.157c0.618,0,1.19-0.074,1.692-0.194v-7.345L98.238,36.286
			L98.238,36.286z"/>
	</g>
</g>
<g id="Layer_8">
	
		<linearGradient id="SVGID_18_" gradientUnits="userSpaceOnUse" x1="529.873" y1="719.3066" x2="538.1779" y2="711.0022" gradientTransform="matrix(1 0 0 1 -484 -665)">
		<stop  offset="0.264" style="stop-color:#E09300"/>
		<stop  offset="0.335" style="stop-color:#FABA00"/>
		<stop  offset="0.6041" style="stop-color:#FABA00"/>
		<stop  offset="0.7157" style="stop-color:#FEDB00"/>
		<stop  offset="0.7919" style="stop-color:#FFEDAF"/>
		<stop  offset="0.9239" style="stop-color:#FFEDAF"/>
		<stop  offset="1" style="stop-color:#FEDB00"/>
	</linearGradient>
	<polygon fill="url(#SVGID_18_)" points="15.717,23.991 24.425,16.412 84.413,76.236 76.025,84.3 	"/>
</g>
<g id="Layer_9">
	
		<linearGradient id="SVGID_19_" gradientUnits="userSpaceOnUse" x1="566.4141" y1="753.8525" x2="573.6073" y2="745.2801" gradientTransform="matrix(1 0 0 1 -484 -665)">
		<stop  offset="0" style="stop-color:#EFD3BF"/>
		<stop  offset="0.0426" style="stop-color:#EBC8AE"/>
		<stop  offset="0.1273" style="stop-color:#E2AB81"/>
		<stop  offset="0.245" style="stop-color:#D37D39"/>
		<stop  offset="0.2932" style="stop-color:#CC691A"/>
		<stop  offset="0.352" style="stop-color:#D27B35"/>
		<stop  offset="0.4547" style="stop-color:#DB955F"/>
		<stop  offset="0.5597" style="stop-color:#E2AC82"/>
		<stop  offset="0.6658" style="stop-color:#E8BD9D"/>
		<stop  offset="0.7735" style="stop-color:#ECC9B0"/>
		<stop  offset="0.8836" style="stop-color:#EED1BB"/>
		<stop  offset="1" style="stop-color:#EFD3BF"/>
	</linearGradient>
	<polygon fill="url(#SVGID_19_)" points="89.209,92.282 76.025,84.3 84.291,76.238 91.91,89.702 	"/>
	<polygon opacity="0.5" fill="#FFFFFF" enable-background="new    " points="80.702,79.805 87.395,84.723 83.404,77.124 	"/>
</g>
<g id="Layer_10">
	
		<linearGradient id="SVGID_20_" gradientUnits="userSpaceOnUse" x1="577.0498" y1="757.5371" x2="575.6591" y2="758.9883" gradientTransform="matrix(1 0 0 1 -484 -665)">
		<stop  offset="0" style="stop-color:#333333"/>
		<stop  offset="0.9895" style="stop-color:#050505"/>
	</linearGradient>
	<path fill="url(#SVGID_20_)" d="M89.209,92.282l4.203,2.69c0,0,0.798,0.527,1.209,0.182c0.393-0.334-0.092-1.149-0.092-1.149
		l-2.619-4.303L89.209,92.282z"/>
</g>
<g id="Layer_13">
	
		<linearGradient id="SVGID_21_" gradientUnits="userSpaceOnUse" x1="488.7939" y1="675.8105" x2="495.8747" y2="669.7411" gradientTransform="matrix(1 0 0 1 -484 -665)">
		<stop  offset="0" style="stop-color:#FF926E"/>
		<stop  offset="0.7592" style="stop-color:#FFE1CC"/>
	</linearGradient>
	<path fill="url(#SVGID_21_)" stroke="#F1803B" stroke-width="0.25" d="M7.534,15.122l-3.347-3.466c0,0-1.29-1.169-1.25-3.306
		c0.04-2.137,0.808-4.838,4.676-4.958c1.29-0.04,2.661,0.282,3.75,1.29c1.03,0.954,3.467,3.305,3.467,3.305L7.534,15.122z"/>
</g>
<g id="Layer_11">
	
		<linearGradient id="SVGID_22_" gradientUnits="userSpaceOnUse" x1="495.5273" y1="684.8096" x2="503.5699" y2="677.0088" gradientTransform="matrix(1 0 0 1 -484 -665)">
		<stop  offset="0" style="stop-color:#616161"/>
		<stop  offset="0.2094" style="stop-color:#878787"/>
		<stop  offset="0.4577" style="stop-color:#CCCCCC"/>
		<stop  offset="0.6126" style="stop-color:#F2F2F2"/>
		<stop  offset="0.7382" style="stop-color:#EBEBEB"/>
		<stop  offset="0.8796" style="stop-color:#A3A3A3"/>
		<stop  offset="1" style="stop-color:#4D4D4D"/>
	</linearGradient>
	<polygon fill="url(#SVGID_22_)" points="16.101,24.434 6.788,15.243 15.073,7.2 24.566,16.331 	"/>
</g>
<g id="Layer_12">
	
		<linearGradient id="SVGID_23_" gradientUnits="userSpaceOnUse" x1="493.6924" y1="682.418" x2="497.4029" y2="679.2374" gradientTransform="matrix(1 0 0 1 -484 -665)">
		<stop  offset="0" style="stop-color:#333333"/>
		<stop  offset="1" style="stop-color:#C7C7C7"/>
	</linearGradient>
	<polygon fill="url(#SVGID_23_)" points="13.028,13.762 13.691,14.466 9.76,18.156 9.041,17.48 	"/>
	
		<linearGradient id="SVGID_24_" gradientUnits="userSpaceOnUse" x1="495.6045" y1="684.5625" x2="499.2735" y2="681.4174" gradientTransform="matrix(1 0 0 1 -484 -665)">
		<stop  offset="0" style="stop-color:#333333"/>
		<stop  offset="1" style="stop-color:#C7C7C7"/>
	</linearGradient>
	<polygon fill="url(#SVGID_24_)" points="11.167,19.532 15.078,15.722 15.752,16.416 11.842,20.224 	"/>
	
		<linearGradient id="SVGID_25_" gradientUnits="userSpaceOnUse" x1="497.3008" y1="686.5391" x2="500.9685" y2="683.3951" gradientTransform="matrix(1 0 0 1 -484 -665)">
		<stop  offset="0" style="stop-color:#333333"/>
		<stop  offset="1" style="stop-color:#C7C7C7"/>
	</linearGradient>
	<polygon fill="url(#SVGID_25_)" points="13.021,21.366 16.871,17.617 17.546,18.309 13.695,22.059 	"/>
</g>
</svg>
