<?xml version="1.0" encoding="UTF-8" standalone="no"?>
<!-- Created with Inkscape (http://www.inkscape.org/) -->
<svg
   xmlns:dc="http://purl.org/dc/elements/1.1/"
   xmlns:cc="http://web.resource.org/cc/"
   xmlns:rdf="http://www.w3.org/1999/02/22-rdf-syntax-ns#"
   xmlns:svg="http://www.w3.org/2000/svg"
   xmlns="http://www.w3.org/2000/svg"
   xmlns:sodipodi="http://sodipodi.sourceforge.net/DTD/sodipodi-0.dtd"
   xmlns:inkscape="http://www.inkscape.org/namespaces/inkscape"
   id="svg1890"
   sodipodi:version="0.32"
   inkscape:version="0.44.1"
   width="470"
   height="470"
   version="1.0"
   sodipodi:docbase="D:\program\svg\道路標識\警戒標識"
   sodipodi:docname="Japanese_Road_sign_(Road works).svg">
  <metadata
     id="metadata1895">
    <rdf:RDF>
      <cc:Work
         rdf:about="">
        <dc:format>image/svg+xml</dc:format>
        <dc:type
           rdf:resource="http://purl.org/dc/dcmitype/StillImage" />
      </cc:Work>
    </rdf:RDF>
  </metadata>
  <defs
     id="defs1893" />
  <sodipodi:namedview
     inkscape:window-height="712"
     inkscape:window-width="1024"
     inkscape:pageshadow="2"
     inkscape:pageopacity="0.0"
     guidetolerance="10.0"
     gridtolerance="10.0"
     objecttolerance="10.0"
     borderopacity="1.0"
     bordercolor="#666666"
     pagecolor="#ffffff"
     id="base"
     inkscape:zoom="0.96176273"
     inkscape:cx="343.62189"
     inkscape:cy="215.67958"
     inkscape:window-x="-4"
     inkscape:window-y="1"
     inkscape:current-layer="svg1890" />
  <path
     style="fill:#fd0;fill-opacity:1;fill-rule:evenodd;stroke:black;stroke-width:1px;stroke-linecap:butt;stroke-linejoin:miter;stroke-opacity:1"
     d="M 8.517922,226.27321 L 226.02653,8.7267875 C 229.30096,5.6277575 232.50984,3.0168375 236.15052,2.5560175 C 239.63304,3.0696975 243.53322,5.4507175 246.59682,8.7267875 L 465.38992,228.14324 C 466.66174,230.2568 467.46036,232.20402 467.97435,235.28679 C 467.38282,237.55504 467.24122,239.60748 465.28297,242.62487 L 245.46357,462.2995 C 243.65056,464.65271 239.86358,466.57463 236.58495,467.02144 C 234.14219,466.57106 232.80136,466.40418 228.59552,463.36362 L 8.480102,243.10345 C 6.0747322,241.26088 5.4731022,238.27573 4.2154622,235.28543 C 4.9195022,230.82114 6.6557022,228.42116 8.517922,226.27321 z "
     id="path1899"
     sodipodi:nodetypes="ccccccccccccc" />
  <path
     style="fill:black;fill-rule:evenodd;stroke:black;stroke-width:1px;stroke-linecap:butt;stroke-linejoin:miter;stroke-opacity:1"
     d="M 458.51872,235.06986 L 236.48109,456.9973 L 14.443472,234.95967 L 236.59129,12.922047 L 458.51872,235.06986 z "
     id="path1919"
     sodipodi:nodetypes="ccccc" />
  <path
     style="fill:#fd0;fill-opacity:1;fill-rule:evenodd;stroke:black;stroke-width:1px;stroke-linecap:butt;stroke-linejoin:miter;stroke-opacity:1"
     d="M 39.023872,223.77984 L 224.31235,38.803046 C 230.53157,33.584736 240.97439,33.485704 246.95907,37.814737 C 247.09699,37.938108 253.15855,42.845457 253.14191,42.854777 L 431.1061,221.28647 C 437.78192,228.98818 437.42018,239.09171 432.35279,247.46684 L 250.18103,430.41777 C 243.4408,436.47558 231.36254,436.56854 223.92274,430.80736 L 37.777192,244.97347 C 35.287402,239.7031 34.971572,231.00544 39.023872,223.77984 z "
     id="path1921"
     sodipodi:nodetypes="cccccccccc" />
  <path
     style="fill:black;fill-rule:evenodd;stroke:black;stroke-width:1px;stroke-linecap:butt;stroke-linejoin:miter;stroke-opacity:1"
     d="M 345.1995,330.67249 L 133.60884,331.19237 C 136.49475,309.41408 145.12074,292.97525 156.22356,275.30541 C 160.81582,270.02302 169.56713,269.43008 173.63951,274.52559 C 176.06753,288.05518 175.43155,314.99117 190.27563,322.35443 L 344.67962,322.35443 L 345.1995,330.67249 z "
     id="path6382"
     sodipodi:nodetypes="ccccccc" />
  <path
     style="fill:black;fill-rule:evenodd;stroke:black;stroke-width:1px;stroke-linecap:butt;stroke-linejoin:miter;stroke-opacity:1"
     d="M 190.01569,257.62953 L 197.55393,270.10662 C 198.91873,272.34804 198.96132,272.21857 196.25423,274.00571 C 188.36782,278.85158 178.95881,277.60706 169.74041,277.12498 C 173.00204,269.52795 178.69877,263.14847 186.1166,257.62953 C 188.81563,255.99894 188.98346,255.96907 190.01569,257.62953 z "
     id="path6384"
     sodipodi:nodetypes="cccccc" />
  <path
     style="fill:black;fill-rule:evenodd;stroke:black;stroke-width:1px;stroke-linecap:butt;stroke-linejoin:miter;stroke-opacity:1"
     d="M 193.65484,262.82831 L 221.98823,248.79159 L 223.28793,252.1708 L 194.6946,265.68765 L 193.65484,262.82831 z "
     id="path6386" />
  <path
     style="fill:black;fill-rule:evenodd;stroke:black;stroke-width:1px;stroke-linecap:butt;stroke-linejoin:miter;stroke-opacity:1"
     d="M 195.47441,322.61437 C 195.12469,321.18604 196.38657,320.14258 197.55393,318.97522 C 198.52036,318.00879 199.78952,317.24659 201.19308,316.89571 C 202.57673,316.54979 203.45631,316.39488 204.57229,316.11589 C 205.42125,315.90365 207.07386,315.22125 207.6312,314.66392 C 208.60799,313.68713 210.04565,312.95924 210.33826,311.78882 C 211.40148,309.40067 211.69911,307.11312 211.54606,304.60241 L 211.60643,270.88643 C 211.60643,269.54377 211.58278,266.75619 211.85059,265.68494 C 214.20851,261.4023 213.419,257.56731 212.46237,253.48897 C 211.96554,248.47249 212.82651,243.3824 212.11053,238.39401 C 211.81546,237.2137 211.62335,235.92539 211.33072,234.75486 C 205.61073,222.25538 198.42327,209.33337 195.47441,195.76395 C 194.04355,188.23284 195.50096,184.10248 200.43924,178.76114 C 205.7157,175.26025 208.35603,172.79777 207.7508,170.42462 C 207.28326,168.59134 205.35469,167.0693 201.35827,165.80289 C 199.2597,165.26288 197.34811,164.49148 196.30363,161.57538 C 195.77491,160.09924 195.3625,158.68219 194.55748,157.07216 C 193.98525,155.92769 190.50366,154.20969 189.68666,153.12036 C 189.44975,153.1682 189.21284,153.21603 188.97593,153.26387 C 187.0634,153.99375 186.90176,154.5734 186.38983,153.53687 C 185.87809,152.82768 186.5389,151.77831 187.72353,150.40836 C 188.76433,149.3829 188.80168,149.37589 188.71599,147.93511 C 183.84949,131.71121 215.02521,124.01028 218.60902,140.91674 C 219.09325,145.44172 215.77375,155.34343 220.29863,158.33268 C 224.23214,158.83976 228.12295,158.70519 231.9959,158.85256 C 246.68163,159.81519 270.01835,168.42585 293.99398,181.79713 C 296.50195,183.19583 298.8331,184.55472 301.25397,186.51381 C 304.46321,188.93935 305.14336,189.2747 305.16883,191.86486 C 305.22991,201.19374 297.3513,206.48872 291.1294,212.65731 C 288.65804,215.12867 282.51615,219.88499 281.37515,220.45549 C 284.08738,234.89177 293.80493,257.09191 295.20194,262.78372 C 297.17,268.65952 299.23035,273.78778 300.43226,278.93149 C 307.60775,284.25829 320.76401,317.0013 323.55381,321.46694 C 323.22841,321.65698 322.903,321.84702 322.5776,322.03706 C 316.5396,323.05389 292.70544,327.74281 293.35262,319.27998 C 293.58029,318.54514 294.06292,317.61648 295.03604,316.90041 C 296.21804,316.03065 299.27856,315.48095 300.3372,314.50105 C 301.23912,313.59914 300.56561,311.85074 299.78579,310.45735 C 293.57873,299.92253 291.87505,297.56229 285.51049,286.18811 C 282.19103,276.99965 271.9687,261.36471 267.37306,253.08792 C 265.20138,250.41085 264.73269,249.73129 260.0301,249.64946 C 256.30515,251.39315 253.60211,252.80376 250.31074,254.27995 C 245.66126,256.81308 240.80153,258.95147 236.3731,261.93286 C 233.44613,263.75598 231.9043,265.17895 229.41081,267.48777 C 227.01143,273.70098 225.87912,277.20597 225.44324,283.91872 C 224.56645,288.46691 224.11201,292.97528 224.11201,297.59101 C 224.32035,306.167 224.24198,314.74605 224.24198,323.32369 C 222.20226,328.26983 195.98598,321.81979 194.64939,321.48564"
     id="path6388"
     sodipodi:nodetypes="csssscccccccccscssccccccccscccccccccscccccccccccc" />
  <path
     style="fill:#fd0;fill-rule:evenodd;stroke:black;stroke-width:1px;stroke-linecap:butt;stroke-linejoin:miter;stroke-opacity:1;fill-opacity:1"
     d="M 257.60257,182.89675 C 259.05931,182.16838 263.78847,183.68132 265.04666,184.27529 C 267.21923,185.30091 270.07331,186.71268 272.03125,187.67568 C 275.33797,190.04058 278.84094,191.49821 281.95671,194.10885 C 283.33304,195.48518 283.76971,197.83506 283.05954,199.25539 C 281.94627,201.48194 278.82695,203.12047 276.81018,204.21812 C 273.84317,205.83294 273.74603,206.48431 271.75554,204.49383 C 270.02388,202.76217 269.83358,202.20424 267.98754,199.8068 C 265.59986,196.74574 261.91123,193.0413 260.26774,189.51373 C 258.80713,187.01587 257.08735,186.07341 257.60257,182.89675 z "
     id="path6392"
     sodipodi:nodetypes="csccsssccc" />
  <path
     style="fill:#fd0;fill-rule:evenodd;stroke:black;stroke-width:1px;stroke-linecap:butt;stroke-linejoin:miter;stroke-opacity:1;fill-opacity:1"
     d="M 243.54245,230.48685 C 243.9653,226.19334 238.34066,220.96872 229.75612,213.77597 C 226.40952,210.96482 222.60687,207.28625 218.45212,205.32095 C 215.74105,204.64318 216.15456,208.3343 216.15456,210.46748 C 216.15456,213.0263 216.38481,214.69696 216.88978,216.71685 C 217.21705,218.02592 218.99722,220.56412 219.46305,221.49578 C 220.22211,223.01389 221.09702,224.48801 221.76061,225.8152 C 222.23882,229.56843 223.63491,233.46092 223.78247,237.303 C 224.04604,239.84817 223.62698,242.44925 223.59347,245.0237 C 223.58498,245.6761 223.73193,246.50469 224.30051,247.04564 C 227.79851,245.00579 240.77305,237.95113 243.54245,230.48685 z "
     id="path6394"
     sodipodi:nodetypes="cccsssccscc" />
</svg>
