<svg enable-background="new 100.873 -104.477 263.043 263.042" height="128" viewBox="100.873 -104.477 263.043 263.042" width="128" xmlns="http://www.w3.org/2000/svg" xmlns:xlink="http://www.w3.org/1999/xlink"><defs><pattern id="af" patternTransform="translate(217.62 -51.49) scale(.14665)" xlink:href="#a"/><filter id="ah"><feGaussianBlur stdDeviation=".949"/></filter><clipPath id="ag"><path d="M232.394-96.257c-68.097 0-123.3 55.204-123.3 123.301s55.203 123.301 123.3 123.301c68.098 0 123.302-55.205 123.302-123.301S300.492-96.257 232.394-96.257zm0 164.401c-22.698 0-41.1-18.401-41.1-41.1s18.402-41.1 41.1-41.1c22.7 0 41.101 18.401 41.101 41.1s-18.4 41.1-41.1 41.1z"/></clipPath><filter id="C" height="1.56" width="1.28" x="-.14" y="-.28"><feGaussianBlur stdDeviation="3.48"/></filter><filter id="A"><feGaussianBlur stdDeviation=".479"/></filter><filter id="v"><feGaussianBlur stdDeviation=".843"/></filter><filter id="u"><feGaussianBlur stdDeviation=".928"/></filter><mask id="t"><path d="M-115.097-75c-56.832 0-102.88 46.11-102.88 102.943 0 56.832 46.048 102.88 102.88 102.88S-12.153 84.775-12.153 27.943-58.265-75-115.097-75zm0 68.586c18.953 0 34.357 15.404 34.357 34.357s-15.404 34.293-34.357 34.293-34.293-15.34-34.293-34.293 15.34-34.357 34.293-34.357z" fill="url(#b)"/></mask><radialGradient id="b" cx="-115.07" cy="27.91" fx="-79.1" fy="89.56" gradientUnits="userSpaceOnUse" r="102.91"><stop offset="0" stop-color="#fff"/><stop offset="1" stop-color="#fff" stop-opacity=".661"/></radialGradient><filter id="x"><feGaussianBlur stdDeviation="1.416"/></filter><filter id="w" height="1.26" width="1.16" x="-.08" y="-.13"><feGaussianBlur stdDeviation="2.343"/></filter><filter id="s"><feGaussianBlur stdDeviation="2.448"/></filter><linearGradient id="c"><stop offset="0" stop-color="#fff"/><stop offset="1" stop-color="#fff" stop-opacity="0"/></linearGradient><linearGradient id="d" xlink:href="#c"/><filter id="y" height="1.21" width="1.17" x="-.08" y="-.1"><feGaussianBlur stdDeviation="2.628"/></filter><filter id="D"><feGaussianBlur stdDeviation="1.521"/></filter><linearGradient id="p" gradientUnits="userSpaceOnUse" x1="422.81" x2="678.746" y1="-129.475" y2="126.46"><stop offset="0" stop-color="#c2c2d0"/><stop offset=".5" stop-color="#fff"/><stop offset="1" stop-color="#b3b2be"/></linearGradient><linearGradient id="r" gradientUnits="userSpaceOnUse" x1="356.39" x2="232" xlink:href="#d" y1="27" y2="-65.2"/><linearGradient id="z" gradientUnits="userSpaceOnUse" x1="-123.72" x2="-120.19" y1="54.82" y2="49.73"><stop offset="0" stop-color="#e0d"/><stop offset=".5" stop-color="#ae0"/><stop offset="1" stop-color="#8d0083"/></linearGradient><linearGradient id="B" gradientUnits="userSpaceOnUse" x1="-127.2" x2="-122.63" y1="58.17" y2="53.25"><stop offset="0" stop-color="#00e0e0"/><stop offset=".5" stop-color="#e0d800"/><stop offset=".75" stop-color="#00dcd1"/><stop offset="1" stop-color="#e000b4"/></linearGradient><linearGradient id="E" gradientUnits="userSpaceOnUse" x1="220.698" x2="248.162" y1="53.275" y2="25.811"><stop offset="0" stop-color="#473a56"/><stop offset=".5" stop-color="#c4c4c4"/><stop offset="1" stop-color="#282131"/></linearGradient><clipPath id="n"><path d="M664.335-117.707v281.089h282.309v-281.089zM805.104-88.23c64.079 0 115.98 51.966 115.98 116.045 0 64.078-51.901 116.044-115.98 116.044-64.08 0-116.045-51.965-116.045-116.044 0-64.08 51.966-116.045 116.045-116.045zm-.321 100.825c-8.54 0-15.477 6.935-15.477 15.477s6.936 15.476 15.477 15.476c8.54 0 15.477-6.934 15.477-15.476s-6.937-15.477-15.477-15.477z"/></clipPath><filter id="o"><feGaussianBlur stdDeviation="1.69"/></filter><filter id="Y" height="2.14" width="1.02" x="-.01" y="-.57"><feGaussianBlur stdDeviation=".327"/></filter><linearGradient id="e" gradientUnits="userSpaceOnUse"><stop offset="0" stop-color="#4b4a57"/><stop offset="1"/></linearGradient><radialGradient id="f" cx="308.43" cy="-306.19" gradientTransform="matrix(.95 0 0 -.95 -282.4 -266.28)" r="108.32" xlink:href="#e"/><radialGradient id="g" cx="357.52" cy="-322.54" gradientTransform="matrix(.95 0 0 -.8769 -282.4 -263.26)" gradientUnits="userSpaceOnUse" r="125.84"><stop offset="0" stop-color="#4b4a57"/><stop offset=".74"/></radialGradient><linearGradient id="h" gradientUnits="userSpaceOnUse"><stop offset="0" stop-color="#7b7b7b"/><stop offset="1" stop-color="#a8a8a8"/></linearGradient><radialGradient id="i" cx="308.45" cy="-306.19" gradientTransform="matrix(.95 0 0 -.95 -282.4 -266.28)" r="108.31" xlink:href="#e"/><linearGradient id="Z" gradientTransform="matrix(.98887 0 0 1.07015 237.13 -6.77)" gradientUnits="userSpaceOnUse" x1="35.89" x2="35.89" y1="24" y2="37.54"><stop offset="0" stop-color="#5a5868"/><stop offset="1" stop-color="#30333d"/></linearGradient><linearGradient id="U" gradientTransform="matrix(1.0864 0 0 -1.44065 -99.26 -398.06)" gradientUnits="userSpaceOnUse" x1="382.22" x2="382.22" y1="-305.75" y2="-303.54"><stop offset="0" stop-opacity="0"/><stop offset="1"/></linearGradient><linearGradient id="T" gradientTransform="rotate(-15 -113.254 -573.987) scale(1.53846)" x1="89.91" x2="85.33" xlink:href="#f" y1="59.7" y2="59.79"/><linearGradient id="S" gradientTransform="rotate(-15 -113.254 -573.987) scale(1.53846)" x1="98.76" x2="96.17" xlink:href="#f" y1="76.16" y2="85.84"/><linearGradient id="R" gradientTransform="matrix(1.0864 0 0 -1.61138 -115.24 -394.57)" gradientUnits="userSpaceOnUse" x1="385.14" x2="385.14" y1="-323.34" y2="-311.42"><stop offset="0" stop-color="#a2a2a2"/><stop offset="1" stop-color="#fff"/></linearGradient><linearGradient id="Q" gradientTransform="translate(217.62 -41.22) scale(1.53846)" x1="67.71" x2="67.71" xlink:href="#g" y1="76.43" y2="66.41"/><linearGradient id="P" gradientTransform="matrix(1.0864 0 0 -1.61138 -99.26 -450.65)" gradientUnits="userSpaceOnUse" x1="375.8" x2="375.8" y1="-295.39" y2="-303.77"><stop offset="0" stop-color="#b7b8b9"/><stop offset=".189" stop-color="#ececec"/><stop offset=".257" stop-color="#fafafa"/><stop offset=".301" stop-color="#fff"/><stop offset=".531" stop-color="#fafafa"/><stop offset=".845" stop-color="#ebecec"/><stop offset="1" stop-color="#e1e2e3"/></linearGradient><linearGradient id="O" gradientTransform="matrix(1.58974 0 0 -1.5117 214.34 155.89)" gradientUnits="userSpaceOnUse" x1="67.08" x2="67.08" xlink:href="#c" y1="81.24" y2="46.44"/><linearGradient id="ac" x1="39.17" x2="43.42" xlink:href="#h" y1="85.14" y2="85.14"/><linearGradient id="ae" gradientTransform="translate(36.02 -10.38)" x1="5.65" x2="7.65" xlink:href="#i" y1="57.61" y2="57.61"/><linearGradient id="ad" gradientTransform="translate(20.75 -31.22)" x1="28.56" x2="30.56" xlink:href="#i" y1="45.06" y2="45.06"/><linearGradient id="aa" x1="39.44" x2="43.69" xlink:href="#h" y1="85.14" y2="85.14"/><linearGradient id="ab" gradientTransform="translate(-20.68 -31.33)" x1="39.88" x2="41.88" xlink:href="#i" y1="-16.81" y2="-16.81"/><linearGradient id="j" gradientUnits="userSpaceOnUse"><stop offset="0" stop-color="#fff"/><stop offset="1" stop-color="#a4c0e4"/></linearGradient><linearGradient id="X" x1="75.14" x2="214.14" xlink:href="#j" y1="23.07" y2="124.73"/><linearGradient id="W" x1="62.23" x2="201.23" xlink:href="#j" y1="14.39" y2="116.05"/><linearGradient id="V" x1="70.84" x2="209.84" xlink:href="#j" y1="2.61" y2="104.28"/><linearGradient id="N" x1="83.03" x2="222.03" xlink:href="#j" y1="-14.05" y2="87.62"/><linearGradient id="M" x1="89.04" x2="228.04" xlink:href="#j" y1=".74" y2="102.41"/><linearGradient id="L" x1="78.15" x2="217.15" xlink:href="#j" y1="15.64" y2="117.3"/><filter id="ai"><feGaussianBlur stdDeviation=".329"/></filter><filter id="aj" height="1.39" width="1.27" x="-.13" y="-.19"><feGaussianBlur stdDeviation="4.437"/></filter><mask id="ak"><path d="M242.75 69.5h70v50h-70z" fill="url(#k)"/></mask><linearGradient id="m" gradientUnits="userSpaceOnUse"><stop offset="0" stop-color="#eaeaea"/><stop offset="1" stop-color="#eaeaea" stop-opacity="0"/></linearGradient><pattern id="k" patternTransform="translate(-2.25 -51.5) scale(.19015)" xlink:href="#l"/><radialGradient id="al" cx="262.5" cy="105.5" r="7.5" xlink:href="#m"/><radialGradient id="am" cx="277.5" cy="100.5" r="7.5" xlink:href="#m"/><radialGradient id="an" cx="263.5" cy="84.5" r="6.5" xlink:href="#m"/><radialGradient id="ao" cx="280" cy="86.25" gradientTransform="matrix(1 0 0 .5 0 43.13)" r="10" xlink:href="#m"/><radialGradient id="ap" cx="300.56" cy="89" gradientTransform="matrix(1 0 0 1.61803 0 -55.01)" r="5.56" xlink:href="#m"/><radialGradient id="aq" cx="294.88" cy="97.63" r="7.63" xlink:href="#m"/><radialGradient id="ar" cx="256.38" cy="91.63" r="6.38" xlink:href="#m"/><radialGradient id="K" cx="375.76" cy="-480.9" fx="375.76" fy="-480.9" gradientTransform="matrix(.77493 -.00408 -.00352 -.66767 5.28 -171.26)" r="125.84" xlink:href="#g"/><filter id="J"><feGaussianBlur stdDeviation="2.457"/></filter><clipPath id="I"><path d="M219.036-102.405c-64.06 0-115.964 51.976-115.964 116.036s51.904 115.963 115.964 115.963S335.072 77.691 335.072 13.631s-51.976-116.036-116.036-116.036zm0 77.309c21.363 0 38.727 17.363 38.727 38.727 0 21.363-17.364 38.654-38.727 38.654S180.38 34.994 180.38 13.631c0-21.364 17.292-38.727 38.655-38.727z"/></clipPath><filter id="as" height="4.71" width="1.1" x="-.05" y="-1.85"><feGaussianBlur stdDeviation=".966"/></filter><linearGradient id="F" gradientUnits="userSpaceOnUse" x1="314.07" x2="314.07" y1="149.32" y2="59.65"><stop offset="0"/><stop offset="1" stop-opacity="0"/></linearGradient><filter id="G"><feGaussianBlur stdDeviation=".711"/></filter><filter id="H" height="1.34" width="1.11" x="-.05" y="-.17"><feGaussianBlur stdDeviation="1.051"/></filter><clipPath id="q"><path d="M232.5-92.699c-66.274 0-120 53.726-120 120s53.726 120 120 120 120-53.727 120-120-53.726-120-120-120zm0 163.44c-23.991 0-43.44-19.449-43.44-43.44 0-23.99 19.449-43.439 43.44-43.439 23.992 0 43.439 19.449 43.439 43.439 0 23.991-19.447 43.44-43.439 43.44z"/></clipPath></defs><path clip-path="url(#n)" d="M805.104-86.175c-64.08 0-116.045 51.965-116.045 116.045 0 64.079 51.966 116.044 116.045 116.044s115.98-51.966 115.98-116.044c0-64.079-51.901-116.045-115.98-116.045zm-.321 100.825c8.54 0 15.477 6.935 15.477 15.477s-6.937 15.476-15.477 15.476-15.477-6.934-15.477-15.476 6.936-15.477 15.477-15.477z" filter="url(#o)" opacity=".441" transform="translate(-571.5)"/><path d="M559.734-171.052c-98.589 0-178.51 79.922-178.51 178.51s79.921 178.512 178.51 178.512S738.245 106.046 738.245 7.459s-79.922-178.511-178.51-178.511zm0 238.014c-32.862 0-59.504-26.64-59.504-59.503s26.642-59.504 59.504-59.504c32.864 0 59.504 26.641 59.504 59.504 0 32.862-26.64 59.504-59.504 59.504z" fill="url(#p)" transform="translate(-130.22 22.98) scale(.64997)"/><path d="M233.301-10.587c-21.35 0-38.658 17.312-38.658 38.668S211.95 66.749 233.3 66.749s38.658-17.313 38.658-38.668-17.307-38.668-38.658-38.668zm0 54.135c-8.54 0-15.463-6.924-15.463-15.467 0-8.542 6.922-15.467 15.463-15.467 8.54 0 15.463 6.925 15.463 15.467 0 8.543-6.922 15.467-15.463 15.467z" fill="#fff" opacity=".5"/><path d="M233.588-88.248c-64.07 0-116.013 51.944-116.013 116.013s51.944 116.013 116.013 116.013S349.6 91.833 349.6 27.765 297.657-88.248 233.588-88.248zm0 .603c63.741 0 115.41 51.669 115.41 115.41 0 63.74-51.669 115.41-115.41 115.41s-115.411-51.67-115.411-115.41c0-63.741 51.67-115.41 115.41-115.41z" fill="#2b383d" fill-opacity=".503"/><path d="M233.304-10.588c-21.35 0-38.659 17.313-38.659 38.669s17.31 38.669 38.659 38.669c21.351 0 38.658-17.314 38.658-38.669s-17.307-38.669-38.658-38.669zm0 61.87c-12.79 0-23.195-10.408-23.195-23.201S220.514 4.88 233.304 4.88c12.79 0 23.195 10.408 23.195 23.201s-10.406 23.201-23.195 23.201z" fill="none" opacity=".5"/><g clip-path="url(#q)" opacity=".6" transform="matrix(.96645 0 0 .9667 8.834 1.46)"><path d="M356.386-18.607L232 27l41.595-120.379z" fill="url(#r)" filter="url(#s)" opacity=".8"/></g><path d="M233.301 4.88c-12.79 0-23.195 10.407-23.195 23.2 0 12.794 10.405 23.202 23.195 23.202s23.195-10.409 23.195-23.201c0-12.793-10.406-23.201-23.195-23.201z" fill="none" stroke="#d0d0d0" stroke-width="1.16"/><path d="M233.301 4.88c-12.79 0-23.195 10.407-23.195 23.2 0 12.794 10.405 23.202 23.195 23.202s23.195-10.409 23.195-23.201c0-12.793-10.406-23.201-23.195-23.201zm0 38.668c-8.54 0-15.463-6.924-15.463-15.467 0-8.542 6.922-15.467 15.463-15.467 8.54 0 15.463 6.925 15.463 15.467 0 8.543-6.922 15.467-15.463 15.467z" fill="#fff" opacity=".2"/><path d="M233.304 4.88c-12.79 0-23.195 10.408-23.195 23.201s10.405 23.201 23.195 23.201c12.79 0 23.195-10.408 23.195-23.201S246.093 4.88 233.304 4.88zm0 38.668c-8.54 0-15.463-6.924-15.463-15.467 0-8.542 6.922-15.467 15.463-15.467s15.463 6.925 15.463 15.467c0 8.543-6.922 15.467-15.463 15.467z" fill="none" opacity=".5"/><path d="M233.301-18.321c-25.58 0-46.39 20.816-46.39 46.402s20.81 46.402 46.39 46.402 46.39-20.816 46.39-46.402-20.81-46.402-46.39-46.402zm0 85.07c-21.35 0-38.658-17.313-38.658-38.668S211.95-10.587 233.3-10.587s38.658 17.312 38.658 38.668-17.307 38.668-38.658 38.668z" fill="#323232" opacity=".1"/><g mask="url(#t)" opacity=".53" transform="translate(363.162 -3.48) scale(1.12718)"><path d="M-100.895 67.675l-66.025-44.977-5.126 3.712z" fill="#ff11f7" fill-opacity=".497" filter="url(#u)" opacity=".703" transform="translate(100.87 -104.48) scale(2.05502)"/><path d="M-101.072 67.72l-37.396-68.81-9.969 6.092z" fill="#096eff" fill-opacity=".058" filter="url(#v)" transform="translate(100.87 -104.48) scale(2.05502)"/><path d="M-100.94 68.029l-65.937-45.034-11.844 16.263 77.781 28.77z" fill="#ff7e7e" fill-opacity=".317" filter="url(#w)" transform="translate(100.87 -104.48) scale(2.05502)"/><path d="M-101.072 67.587L-166.7 21.404l-2.122 3.182z" fill="#ff7e7e" fill-opacity=".455" filter="url(#w)" transform="translate(100.87 -104.48) scale(2.05502)"/><path d="M-100.719 67.984l-64.214-49.232-2.828 3.536z" fill="#ff1" fill-opacity=".497" filter="url(#x)" opacity=".614" transform="translate(100.87 -104.48) scale(2.05502)"/><path d="M-100.851 68.073l-69.651-45.28 16.056-14.959z" fill="#f4ff0f" fill-opacity=".339" filter="url(#y)" transform="translate(100.87 -104.48) scale(2.05502)"/><path d="M-101.072 67.72L-146.63 4.35l-5.888 4.052z" fill="#096eff" fill-opacity=".302" filter="url(#v)" transform="translate(100.87 -104.48) scale(2.05502)"/><path d="M-99.835 64.98l-59.44-37.566-3.804 14.606z" fill="url(#z)" filter="url(#A)" opacity=".119" transform="rotate(180 -165.35 76.755) scale(2.05502)"/><path d="M-100.011 64.89l-52.434-29.692-7.494 10.968 59.928 18.725z" fill="url(#B)" filter="url(#C)" opacity=".074" transform="rotate(180 -165.35 76.755) scale(2.05502)"/><path d="M-99.833 65.071l-52.559-47.533-11.42 11.215z" fill="#f4ff0f" fill-opacity=".307" filter="url(#D)" transform="rotate(180 -165.35 76.755) scale(2.05502)"/><path d="M-100.011 64.89l-34.31-51.886-7.493 10.969z" fill="url(#B)" filter="url(#C)" opacity=".074" transform="rotate(180 -165.35 76.755) scale(2.05502)"/></g><path d="M234.406 25.781c-7.603 0-13.75 6.115-13.75 13.719s6.147 13.813 13.75 13.813c7.604 0 13.781-6.21 13.781-13.813s-6.177-13.719-13.78-13.719zm0 .594c7.266 0 13.188 5.859 13.188 13.125s-5.922 13.219-13.188 13.219S221.25 46.766 221.25 39.5s5.89-13.125 13.156-13.125z" fill="url(#E)" transform="translate(-30.62 -16.434) scale(1.12581)"/><path d="M248.32 61.38h99.67v87.94h-99.67z" fill="url(#F)" filter="url(#G)"/><path d="M71.771 79.386l1.061 2.829 45.785-12.816-.707-2.21z" filter="url(#H)" opacity=".208" transform="translate(100.87 -104.48) scale(2.05502)"/><g clip-path="url(#I)" filter="url(#J)" opacity=".574" transform="translate(14.39 14.39)"><path d="M248.83 73.28h98.64v75.01h-98.64z" fill="url(#K)"/><path d="M76.82 51.36h1.34v26.3h-1.34z" fill="url(#L)" opacity=".8" transform="matrix(.76923 0 0 1.09378 219.54 31.49)"/><path d="M107.49 51.36h1.34v26.3h-1.34z" fill="url(#M)" opacity=".8" transform="matrix(.76923 0 0 1.09378 227.8 31.49)"/><path d="M46.84 49.97h90.8v1.34h-90.8z" fill="url(#N)" opacity=".8" transform="matrix(1.0864 0 0 .76923 197.95 48.2)"/><path d="M250.553 75.15v46.153c13.781-2.955 30.52-7.768 50.384-15.447a1042.714 1042.714 0 0 1 45-16.204V75.15z" fill="url(#O)" opacity=".2"/><path d="M248.83 61.98h98.64v12.33h-98.64z" fill="url(#P)"/><path d="M40.148 32.126l7.793 1.812-10.348 10.35h-4.8L36 32z" fill-rule="evenodd" filter="url(#A)" opacity=".5" transform="matrix(1.07023 0 0 1.06224 214.77 29.32)"/><path d="M278.633 61.98l-8.22 12.33h16.44l8.22-12.33zm30.825 0l-8.22 12.33h16.44l8.22-12.33zm30.825 0l-8.22 12.33h15.413V61.98z" fill="url(#Q)"/><path d="M224.41 112.38h98.46v12.31h-98.46z" fill="url(#R)" transform="rotate(-15)"/><path d="M340.99 24.989l-14.963 3.982 11.11 9.761 7-1.862zm-28.835 7.706l-15.862 4.239 11.11 9.761 15.926-4.238zm-29.734 7.964l-15.798 4.238 11.11 9.761 15.863-4.238z" fill="url(#S)"/><path d="M260.927 59.176l-11.889 3.185-3.185-11.888 3.892-1.043z" fill="url(#T)"/><path d="M248.83 74.31h98.42v3.76h-98.42z" fill="url(#U)"/><path d="M46.84 76.28h90.8v1.34h-90.8z" fill="url(#V)" opacity=".8" transform="matrix(1.0864 0 0 .76923 197.95 57.76)"/><path d="M46.84 94.4h90.8v1.36h-90.8z" fill="url(#W)" opacity=".8" transform="matrix(1.0864 0 0 .76923 197.95 62.32)"/><path d="M95.94 78.47h1.34v14.35h-1.34z" fill="url(#X)" transform="matrix(.76923 0 0 1.21743 228.47 21.93)"/><path d="M255.167 111.362l.435-2.122 3.745-2.658c4.644-3.485 7.46-5.915 7.46-8.483 0-1.287-.899-2.46-2.908-2.46-1.794 0-3.22.59-4.21 1.203l-.805-2.348c1.516-.921 3.746-1.593 5.851-1.593 3.93 0 5.817 2.207 5.817 4.721 0 3.766-3.589 6.7-7.674 9.66l-1.86 1.255v.058h7.77l-.587 2.768h-13.034zm41.63.001l1.012-4.744h-8.799l.473-2.215 10.324-11.501h4.368l-2.345 11.13h2.565l-.546 2.587h-2.556l-1.015 4.744zm1.552-7.331l1.133-4.968c.257-1.08.607-2.245.893-3.293h-.13c-.883 1.19-1.584 2.213-2.534 3.35l-4.432 4.856-.029.055zm39.418-8.331h-6.987l-1.233 3.632c.34-.052.585-.052.928-.052 1.015 0 2.659.25 3.86 1.006 1.517.837 2.288 2.368 2.288 4.02 0 4.47-4.076 7.064-8.803 7.064-2.228 0-4.082-.53-4.822-1.034l.987-2.594c.772.416 2.284.893 3.951.893 2.504 0 4.947-1.51 4.947-3.741 0-1.76-1.113-3.108-4.912-3.108-.93 0-1.575.06-2.382.116l2.842-8.994h9.951zM312.46 123.216c0 .748-.266 1.47-.745 1.93-.39.368-.919.587-1.549.587-1.084 0-1.692-.75-1.692-1.704 0-.74.278-1.477.766-1.934a2.221 2.221 0 0 1 1.532-.586c1.105 0 1.687.727 1.687 1.707zm-2.513-.669c-.335.328-.52.964-.52 1.451 0 .578.265 1.007.877 1.007.26 0 .507-.113.702-.297.329-.324.508-.996.508-1.47 0-.508-.187-1.002-.843-1.002-.284 0-.531.121-.724.311zm4.793 3.123l-.285-.827c-.08-.249-.148-.445-.224-.697h-.013c-.134.23-.247.436-.43.73l-.488.796h-1.077l1.565-2.092-.73-2.003H314l.252.781c.076.26.13.439.196.681h.017c.156-.277.26-.473.396-.692l.486-.77h1.067l-1.525 2.008.8 2.087zm2.35 0l.323-1.67-.817-2.423h.96l.265 1.04.164.737h.012c.124-.218.249-.449.425-.747l.63-1.032h1.067l-1.808 2.406-.326 1.69zm5.907-.19c-.32.104-.825.23-1.348.23-.579 0-1.056-.143-1.401-.448-.338-.288-.524-.736-.524-1.262 0-.766.323-1.43.853-1.871.474-.382 1.119-.595 1.844-.595.548 0 .955.104 1.113.182l-.265.739a2.342 2.342 0 0 0-.889-.165c-.418 0-.792.114-1.066.328-.361.279-.607.76-.607 1.32 0 .688.42 1.036 1.077 1.036.205 0 .353-.031.454-.075l.165-.863h-.643l.134-.696h1.52zm3.44-1.549h-1.488l-.19.99h1.667l-.142.75h-2.562l.792-4.094h2.476l-.148.747h-1.578l-.17.876h1.489zm.493 1.739l.794-4.094h1.051l.554 1.56c.163.523.278.951.377 1.4h.02a9.48 9.48 0 0 1 .192-1.472l.287-1.488h.832l-.787 4.094h-.926l-.588-1.636a13.02 13.02 0 0 1-.408-1.427l-.018.01c-.052.399-.152.973-.277 1.62l-.27 1.433z" fill="#fff"/><path d="M31.88 47.13H96v2.09H31.88z" fill="#fff" filter="url(#Y)" opacity=".2" transform="matrix(1.53846 0 0 2.22819 199.78 -43.03)"/><g fill-rule="evenodd"><path d="M253.972 54.787l13.504 10.494-13.504 11.084h-5.137V54.787z" fill="url(#Z)"/><path d="M8 18c0 1.105-.951 2-2.125 2s-2.125-.895-2.125-2 .951-2 2.125-2S8 16.895 8 18z" fill="url(#aa)" transform="matrix(.49988 0 0 -.53112 250.006 67.56)"/><path d="M39.88-17.06h2v.5h-2z" fill="url(#ab)" opacity=".5" transform="rotate(60 82.488 201.514) scale(1.06224)"/><path d="M8 18c0 1.105-.951 2-2.125 2s-2.125-.895-2.125-2 .951-2 2.125-2S8 16.895 8 18z" fill="url(#ac)" transform="matrix(.50364 0 0 -.53112 249.242 82.432)"/><path d="M28.56 44.81h2v.5h-2z" fill="url(#ad)" opacity=".5" transform="matrix(1.06178 -.13324 .13425 1.05385 214.77 29.32)"/><g><path d="M8 18c0 1.105-.951 2-2.125 2s-2.125-.895-2.125-2 .951-2 2.125-2S8 16.895 8 18z" fill="url(#ac)" transform="matrix(.50364 0 0 -.53112 259.945 74.996)"/><path d="M5.65 57.36h2v.5h-2z" fill="url(#ae)" opacity=".5" transform="matrix(.7228 -.78337 .78927 .7174 212.63 29.32)"/></g></g><path d="M32.568 47.263L96 47.837v1.38l-63.432-.573v-1.38z" fill="#fff" filter="url(#Y)" opacity=".2" transform="matrix(1.38494 -.39444 .5598 2.04702 181.16 -34.66)"/><path d="M253.972 54.787l13.504 10.494-13.504 11.084h-5.137V54.787z" fill="url(#af)" fill-rule="evenodd" opacity=".089"/></g><g clip-path="url(#ag)" fill="#fff" transform="translate(16.99 3.07) scale(.93363)"><path d="M238.547 22.906l128.943-52.85 5.698 4.177z" filter="url(#ah)"/><path d="M226.57 27.006L97.625 79.856 91.93 75.68z" filter="url(#ah)" transform="translate(-5.28 -1.77) scale(1.03313)"/></g><path d="M248.83 73.28h98.64v75.01h-98.64z" fill="url(#K)"/><path d="M76.82 51.36h1.34v26.3h-1.34z" fill="url(#L)" opacity=".8" transform="matrix(.76923 0 0 1.09378 219.54 31.49)"/><path d="M107.49 51.36h1.34v26.3h-1.34z" fill="url(#M)" opacity=".8" transform="matrix(.76923 0 0 1.09378 227.8 31.49)"/><path d="M46.84 49.97h90.8v1.34h-90.8z" fill="url(#N)" opacity=".8" transform="matrix(1.0864 0 0 .76923 197.95 48.2)"/><path d="M250.553 75.15v46.153c13.781-2.955 30.52-7.768 50.384-15.447a1042.714 1042.714 0 0 1 45-16.204V75.15z" fill="url(#O)" opacity=".2"/><path d="M248.83 61.98h98.64v12.33h-98.64z" fill="url(#P)"/><path d="M40.148 32.126l7.793 1.812-10.348 10.35h-4.8L36 32z" fill-rule="evenodd" filter="url(#A)" opacity=".5" transform="matrix(1.07023 0 0 1.06224 214.77 29.32)"/><path d="M278.633 61.98l-8.22 12.33h16.44l8.22-12.33zm30.825 0l-8.22 12.33h16.44l8.22-12.33zm30.825 0l-8.22 12.33h15.413V61.98z" fill="url(#Q)"/><path d="M224.41 112.38h98.46v12.31h-98.46z" fill="url(#R)" transform="rotate(-15)"/><path d="M340.99 24.989l-14.963 3.982 11.11 9.761 7-1.862zm-28.835 7.706l-15.862 4.239 11.11 9.761 15.926-4.238zm-29.734 7.964l-15.798 4.238 11.11 9.761 15.863-4.238z" fill="url(#S)"/><path d="M260.927 59.176l-11.889 3.185-3.185-11.888 3.892-1.043z" fill="url(#T)"/><path d="M248.83 74.31h98.42v3.76h-98.42z" fill="url(#U)"/><path d="M46.84 76.28h90.8v1.34h-90.8z" fill="url(#V)" opacity=".8" transform="matrix(1.0864 0 0 .76923 197.95 57.76)"/><path d="M46.84 94.4h90.8v1.36h-90.8z" fill="url(#W)" opacity=".8" transform="matrix(1.0864 0 0 .76923 197.95 62.32)"/><path d="M95.94 78.47h1.34v14.35h-1.34z" fill="url(#X)" transform="matrix(.76923 0 0 1.21743 228.47 21.93)"/><path d="M255.167 111.362l.435-2.122 3.745-2.658c4.644-3.485 7.46-5.915 7.46-8.483 0-1.287-.899-2.46-2.908-2.46-1.794 0-3.22.59-4.21 1.203l-.805-2.348c1.516-.921 3.746-1.593 5.851-1.593 3.93 0 5.817 2.207 5.817 4.721 0 3.766-3.589 6.7-7.674 9.66l-1.86 1.255v.058h7.77l-.587 2.768h-13.034zm41.63.001l1.012-4.744h-8.799l.473-2.215 10.324-11.501h4.368l-2.345 11.13h2.565l-.546 2.587h-2.556l-1.015 4.744zm1.552-7.331l1.133-4.968c.257-1.08.607-2.245.893-3.293h-.13c-.883 1.19-1.584 2.213-2.534 3.35l-4.432 4.856-.029.055zm39.418-8.331h-6.987l-1.233 3.632c.34-.052.585-.052.928-.052 1.015 0 2.659.25 3.86 1.006 1.517.837 2.288 2.368 2.288 4.02 0 4.47-4.076 7.064-8.803 7.064-2.228 0-4.082-.53-4.822-1.034l.987-2.594c.772.416 2.284.893 3.951.893 2.504 0 4.947-1.51 4.947-3.741 0-1.76-1.113-3.108-4.912-3.108-.93 0-1.575.06-2.382.116l2.842-8.994h9.951zM312.46 123.216c0 .748-.266 1.47-.745 1.93-.39.368-.919.587-1.549.587-1.084 0-1.692-.75-1.692-1.704 0-.74.278-1.477.766-1.934a2.221 2.221 0 0 1 1.532-.586c1.105 0 1.687.727 1.687 1.707zm-2.513-.669c-.335.328-.52.964-.52 1.451 0 .578.265 1.007.877 1.007.26 0 .507-.113.702-.297.329-.324.508-.996.508-1.47 0-.508-.187-1.002-.843-1.002-.284 0-.531.121-.724.311zm4.793 3.123l-.285-.827c-.08-.249-.148-.445-.224-.697h-.013c-.134.23-.247.436-.43.73l-.488.796h-1.077l1.565-2.092-.73-2.003H314l.252.781c.076.26.13.439.196.681h.017c.156-.277.26-.473.396-.692l.486-.77h1.067l-1.525 2.008.8 2.087zm2.35 0l.323-1.67-.817-2.423h.96l.265 1.04.164.737h.012c.124-.218.249-.449.425-.747l.63-1.032h1.067l-1.808 2.406-.326 1.69zm5.907-.19c-.32.104-.825.23-1.348.23-.579 0-1.056-.143-1.401-.448-.338-.288-.524-.736-.524-1.262 0-.766.323-1.43.853-1.871.474-.382 1.119-.595 1.844-.595.548 0 .955.104 1.113.182l-.265.739a2.342 2.342 0 0 0-.889-.165c-.418 0-.792.114-1.066.328-.361.279-.607.76-.607 1.32 0 .688.42 1.036 1.077 1.036.205 0 .353-.031.454-.075l.165-.863h-.643l.134-.696h1.52zm3.44-1.549h-1.488l-.19.99h1.667l-.142.75h-2.562l.792-4.094h2.476l-.148.747h-1.578l-.17.876h1.489zm.493 1.739l.794-4.094h1.051l.554 1.56c.163.523.278.951.377 1.4h.02a9.48 9.48 0 0 1 .192-1.472l.287-1.488h.832l-.787 4.094h-.926l-.588-1.636a13.02 13.02 0 0 1-.408-1.427l-.018.01c-.052.399-.152.973-.277 1.62l-.27 1.433z" fill="#fff"/><path d="M31.88 47.13H96v2.09H31.88z" fill="#fff" filter="url(#Y)" opacity=".2" transform="matrix(1.53846 0 0 2.22819 199.78 -43.03)"/><g fill-rule="evenodd"><path d="M253.972 54.787l13.504 10.494-13.504 11.084h-5.137V54.787z" fill="url(#Z)"/><path d="M8 18c0 1.105-.951 2-2.125 2s-2.125-.895-2.125-2 .951-2 2.125-2S8 16.895 8 18z" fill="url(#aa)" transform="matrix(.49988 0 0 -.53112 250.006 67.56)"/><path d="M39.88-17.06h2v.5h-2z" fill="url(#ab)" opacity=".5" transform="rotate(60 82.488 201.514) scale(1.06224)"/><path d="M8 18c0 1.105-.951 2-2.125 2s-2.125-.895-2.125-2 .951-2 2.125-2S8 16.895 8 18z" fill="url(#ac)" transform="matrix(.50364 0 0 -.53112 249.242 82.432)"/><path d="M28.56 44.81h2v.5h-2z" fill="url(#ad)" opacity=".5" transform="matrix(1.06178 -.13324 .13425 1.05385 214.77 29.32)"/><g><path d="M8 18c0 1.105-.951 2-2.125 2s-2.125-.895-2.125-2 .951-2 2.125-2S8 16.895 8 18z" fill="url(#ac)" transform="matrix(.50364 0 0 -.53112 259.945 74.996)"/><path d="M5.65 57.36h2v.5h-2z" fill="url(#ae)" opacity=".5" transform="matrix(.7228 -.78337 .78927 .7174 212.63 29.32)"/></g></g><path d="M32.568 47.263L96 47.837v1.38l-63.432-.573v-1.38z" fill="#fff" filter="url(#Y)" opacity=".2" transform="matrix(1.38494 -.39444 .5598 2.04702 181.16 -34.66)"/><path d="M253.972 54.787l13.504 10.494-13.504 11.084h-5.137V54.787z" fill="url(#af)" fill-rule="evenodd" opacity=".089"/><g filter="url(#ai)" opacity=".535" transform="matrix(1.40935 0 0 1.47879 55.6 -26.26)"><g filter="url(#ai)"><g filter="url(#aj)" mask="url(#ak)" opacity=".47" transform="translate(-105.69 -1.48)"><path d="M270 105.5a7.5 7.5 0 1 1-15 0 7.5 7.5 0 0 1 15 0z" fill="url(#al)" transform="translate(-182.46 -93.14) scale(1.75609)"/><path d="M285 100.5a7.5 7.5 0 1 1-15 0 7.5 7.5 0 0 1 15 0z" fill="url(#am)" transform="translate(-14.94 -7.46) scale(1.10427)"/><path d="M270 84.5a6.5 6.5 0 1 1-13 0 6.5 6.5 0 0 1 13 0z" fill="url(#an)" transform="translate(5.94 3.16) scale(1.10427)"/><path d="M290 86.25c0 2.761-4.477 5-10 5s-10-2.239-10-5 4.477-5 10-5 10 2.239 10 5z" fill="url(#ao)" transform="translate(-5.23 2.4) scale(1.10427)"/><path d="M306.125 89c0 4.97-2.49 9-5.563 9-3.072 0-5.562-4.03-5.562-9s2.49-9 5.562-9 5.563 4.03 5.563 9z" fill="url(#ap)" transform="translate(-252.03 -59.83) scale(1.75609)"/><path d="M302.5 97.625a7.625 7.625 0 1 1-15.25 0 7.625 7.625 0 0 1 15.25 0z" fill="url(#aq)" transform="translate(-218.27 -65.22) scale(1.75609)"/><path d="M262.75 91.625a6.375 6.375 0 1 1-12.75 0 6.375 6.375 0 0 1 12.75 0z" fill="url(#ar)" transform="translate(3.82 -17.65) scale(1.10427)"/><path d="M262.75 91.625a6.375 6.375 0 1 1-12.75 0 6.375 6.375 0 0 1 12.75 0z" fill="url(#ar)" transform="translate(117.43 19.84) scale(.67122)"/><path d="M270 105.5a7.5 7.5 0 1 1-15 0 7.5 7.5 0 0 1 15 0z" fill="url(#al)" transform="translate(18.46 -21.73) scale(1.10427)"/><path d="M285 100.5a7.5 7.5 0 1 1-15 0 7.5 7.5 0 0 1 15 0z" fill="url(#am)" transform="translate(-52.67 -2.2) scale(1.10427)"/><path d="M270 84.5a6.5 6.5 0 1 1-13 0 6.5 6.5 0 0 1 13 0z" fill="url(#an)" transform="translate(7.69 11.77) scale(1.10427)"/><path d="M290 86.25c0 2.761-4.477 5-10 5s-10-2.239-10-5 4.477-5 10-5 10 2.239 10 5z" fill="url(#ao)" transform="translate(-45.21 -19.14) scale(1.10427)"/><path d="M306.125 89c0 4.97-2.49 9-5.563 9-3.072 0-5.562-4.03-5.562-9s2.49-9 5.562-9 5.563 4.03 5.563 9z" fill="url(#ap)" transform="translate(-39.97 -23.96) scale(1.10427)"/><path d="M302.5 97.625a7.625 7.625 0 1 1-15.25 0 7.625 7.625 0 0 1 15.25 0z" fill="url(#aq)" transform="translate(-16.29 -2.12) scale(1.10427)"/><path d="M262.75 91.625a6.375 6.375 0 1 1-12.75 0 6.375 6.375 0 0 1 12.75 0z" fill="url(#ar)" transform="translate(-174.77 -73.29) scale(1.75609)"/><path d="M262.75 91.625a6.375 6.375 0 1 1-12.75 0 6.375 6.375 0 0 1 12.75 0z" fill="url(#ar)" transform="translate(136.08 40.58) scale(.67122)"/><path d="M270 105.5a7.5 7.5 0 1 1-15 0 7.5 7.5 0 0 1 15 0z" fill="url(#al)" transform="translate(-199.73 -93.02) scale(1.75609)"/><path d="M285 100.5a7.5 7.5 0 1 1-15 0 7.5 7.5 0 0 1 15 0z" fill="url(#am)" transform="translate(-12.33 -33.42) scale(1.10427)"/><path d="M270 84.5a6.5 6.5 0 1 1-13 0 6.5 6.5 0 0 1 13 0z" fill="url(#an)" transform="translate(-40.84 -.58) scale(1.10427)"/><path d="M290 86.25c0 2.761-4.477 5-10 5s-10-2.239-10-5 4.477-5 10-5 10 2.239 10 5z" fill="url(#ao)" transform="translate(-16.88 -.69) scale(1.10427)"/><path d="M306.125 89c0 4.97-2.49 9-5.563 9-3.072 0-5.562-4.03-5.562-9s2.49-9 5.562-9 5.563 4.03 5.563 9z" fill="url(#ap)" transform="translate(-265.83 -53.12) scale(1.75609)"/><path d="M302.5 97.625a7.625 7.625 0 1 1-15.25 0 7.625 7.625 0 0 1 15.25 0z" fill="url(#aq)" transform="translate(-243.02 -80.54) scale(1.75609)"/><path d="M262.75 91.625a6.375 6.375 0 1 1-12.75 0 6.375 6.375 0 0 1 12.75 0z" fill="url(#ar)" transform="translate(-2.3 -24.74) scale(1.10427)"/><path d="M262.75 91.625a6.375 6.375 0 1 1-12.75 0 6.375 6.375 0 0 1 12.75 0z" fill="url(#ar)" transform="translate(74.14 8.31) scale(.67122)"/><path d="M270 105.5a7.5 7.5 0 1 1-15 0 7.5 7.5 0 0 1 15 0z" fill="url(#al)" transform="translate(-13.37 -8.45) scale(1.10427)"/><path d="M285 100.5a7.5 7.5 0 1 1-15 0 7.5 7.5 0 0 1 15 0z" fill="url(#am)" transform="translate(2.14 -11.1) scale(1.10427)"/><path d="M270 84.5a6.5 6.5 0 1 1-13 0 6.5 6.5 0 0 1 13 0z" fill="url(#an)" transform="translate(7.61 15.16) scale(1.10427)"/><path d="M290 86.25c0 2.761-4.477 5-10 5s-10-2.239-10-5 4.477-5 10-5 10 2.239 10 5z" fill="url(#ao)" transform="translate(-47.1 -9.65) scale(1.10427)"/><path d="M306.125 89c0 4.97-2.49 9-5.563 9-3.072 0-5.562-4.03-5.562-9s2.49-9 5.562-9 5.563 4.03 5.563 9z" fill="url(#ap)" transform="translate(-41.89 -9.41) scale(1.10427)"/><path d="M302.5 97.625a7.625 7.625 0 1 1-15.25 0 7.625 7.625 0 0 1 15.25 0z" fill="url(#aq)" transform="translate(-79.64 -29.34) scale(1.10427)"/><g fill="url(#ar)"><path d="M291.963 85.972a11.195 11.195 0 1 1-22.39 0 11.195 11.195 0 0 1 22.39 0zM246.713 110.77a4.279 4.279 0 1 1-8.558 0 4.279 4.279 0 0 1 8.558 0z"/></g></g></g></g><path d="M71.75 122.25h48.5v1.25h-48.5z" filter="url(#as)" transform="translate(100.87 -104.48) scale(2.05502)"/></svg>