<?xml version="1.0" encoding="UTF-8" standalone="no"?>
<!-- Created with Inkscape (http://www.inkscape.org/) -->
<svg
   xmlns:dc="http://purl.org/dc/elements/1.1/"
   xmlns:cc="http://web.resource.org/cc/"
   xmlns:rdf="http://www.w3.org/1999/02/22-rdf-syntax-ns#"
   xmlns:svg="http://www.w3.org/2000/svg"
   xmlns="http://www.w3.org/2000/svg"
   xmlns:sodipodi="http://sodipodi.sourceforge.net/DTD/sodipodi-0.dtd"
   xmlns:inkscape="http://www.inkscape.org/namespaces/inkscape"
   width="601"
   height="601"
   id="svg2"
   sodipodi:version="0.32"
   inkscape:version="0.45.1"
   version="1.0"
   sodipodi:docbase="C:\Documents and Settings\Administrator\Desktop"
   sodipodi:docname="Stop_sign_light_red.svg"
   inkscape:output_extension="org.inkscape.output.svg.inkscape">
  <defs
     id="defs4" />
  <sodipodi:namedview
     id="base"
     pagecolor="#ffffff"
     bordercolor="#666666"
     borderopacity="1.0"
     gridtolerance="10000"
     guidetolerance="10"
     objecttolerance="10"
     inkscape:pageopacity="0.0"
     inkscape:pageshadow="2"
     inkscape:zoom="0.5"
     inkscape:cx="328.33831"
     inkscape:cy="263.88667"
     inkscape:document-units="px"
     inkscape:current-layer="g1945"
     width="601px"
     height="601px"
     inkscape:window-width="800"
     inkscape:window-height="578"
     inkscape:window-x="0"
     inkscape:window-y="0" />
  <metadata
     id="metadata7">
    <rdf:RDF>
      <cc:Work
         rdf:about="">
        <dc:format>image/svg+xml</dc:format>
        <dc:type
           rdf:resource="http://purl.org/dc/dcmitype/StillImage" />
      </cc:Work>
    </rdf:RDF>
  </metadata>
  <g
     inkscape:label="Layer 1"
     inkscape:groupmode="layer"
     id="layer1">
    <g
       style="overflow:visible"
       id="g1945"
       transform="translate(648.0711,3.290686)">
      <path
         style="fill:white;fill-rule:evenodd;stroke:black;stroke-opacity:1"
         d="M -223.30743,-2.790682 L -47.57208,172.94564 L -47.5711,421.47298 L -223.30743,597.20931 L -471.83477,597.20931 L -647.5711,421.47298 L -647.5711,172.94564 L -471.83526,-2.7901937 L -223.30743,-2.790682 z "
         id="polygon5" />
      <polygon
         clip-rule="evenodd"
         stroke-miterlimit="3.863693"
         points="424.76367,0.5 600.49902,176.23633 600.5,424.76367 424.76367,600.5 176.23633,600.5 0.5,424.76367 0.5,176.23633 176.23584,0.5004883 424.76367,0.5 "
         id="polygon7"
         style="fill:none;fill-rule:evenodd;stroke:none;stroke-linecap:round;stroke-linejoin:round;stroke-miterlimit:3.863693"
         transform="translate(-648.0711,-3.290682)" />
      <path
         style="fill:#ff0000;fill-opacity:1;fill-rule:evenodd"
         d="M -61.19708,177.41742 L -61.1961,413.00121 L -227.7792,579.58431 L -463.36299,579.58431 L -629.9461,413.00121 L -629.9461,177.41791 L -463.36299,10.83481 L -227.78018,10.83433 L -61.19708,177.41742 z "
         id="polygon9" />
      <g
         style="fill:white;fill-opacity:1"
         transform="matrix(1.014179,0,0,0.998337,-1240.996,-87.79125)"
         id="g2814">
        <g
           id="g1960">
          <path
             id="text2793"
             d="M 746.25222,431.08743 C 746.2521,439.26322 744.80735,446.88843 741.91798,453.96308 C 739.02838,461.0378 735.0424,467.16655 729.96005,472.34937 C 724.87749,477.53222 718.99662,481.66875 712.31742,484.75898 C 705.63805,487.84921 698.41129,489.39433 690.63711,489.39433 C 681.86517,489.39433 673.99207,487.70017 667.0178,484.31187 C 660.04344,480.92356 654.16409,476.33992 649.37974,470.56093 C 644.59532,464.78197 640.90742,458.10421 638.31602,450.52763 C 635.72459,442.95112 634.42889,435.07802 634.4289,426.90831 L 662.53301,426.90831 C 662.53297,431.09357 663.08045,435.22858 664.17545,439.31336 C 665.27038,443.39823 666.96453,447.08613 669.25792,450.37707 C 671.55121,453.66808 674.44222,456.30968 677.93095,458.30188 C 681.41958,460.29413 685.65496,461.29025 690.63711,461.29022 C 694.42684,461.29025 698.06607,460.49336 701.55483,458.89955 C 705.04343,457.30579 708.03329,455.11282 710.52442,452.32063 C 713.01537,449.52851 715.0076,446.28924 716.5011,442.60282 C 717.99442,438.91648 718.74112,435.07802 718.74122,431.08743 C 718.74112,425.30851 717.54579,420.17739 715.15521,415.69405 C 712.76445,411.21085 708.57925,406.67587 702.59961,402.0891 C 701.60189,401.09155 701.20345,400.54255 701.40427,400.44209 C 701.60494,400.34181 701.00727,399.79432 699.61127,398.79964 C 698.21511,397.80514 695.27391,395.86158 690.78767,392.96895 C 686.30129,390.07652 678.97568,385.14462 668.81081,378.17324 C 660.64111,372.58903 654.51235,366.05878 650.42452,358.58248 C 646.33662,351.10644 644.29269,342.88508 644.29271,333.91839 C 644.29269,326.74045 645.5884,320.0125 648.17984,313.73453 C 650.77123,307.45691 654.40894,301.92582 659.09299,297.14125 C 663.77697,292.35705 669.20921,288.61897 675.38972,285.92698 C 681.57013,283.23539 688.24637,281.8895 695.41846,281.88929 C 702.59649,281.8895 709.22558,283.18521 715.30577,285.77642 C 721.38577,288.36804 726.66745,291.95709 731.15083,296.54358 C 735.63399,301.13045 739.22152,306.61288 741.91342,312.99087 C 744.60509,319.36921 746.05135,326.34504 746.25222,333.91839 L 718.74122,333.91839 C 718.34572,326.94119 715.95505,321.35991 711.5692,317.17455 C 707.18317,312.98952 701.7996,310.89692 695.41846,310.89675 C 688.84252,310.89692 683.26277,313.08989 678.67918,317.47566 C 674.09548,321.86177 671.80366,327.34268 671.80371,333.91839 C 671.80366,338.90063 673.09937,343.08583 675.69084,346.47399 C 678.2822,349.86244 683.26429,353.64919 690.63711,357.83426 C 709.97533,368.99694 724.07907,380.35871 732.94839,391.91961 C 741.81749,403.4807 746.2521,416.53663 746.25222,431.08743 L 746.25222,431.08743 z "
             style="font-size:298.99850464px;font-style:normal;font-variant:normal;font-weight:normal;font-stretch:normal;text-align:center;line-height:125%;writing-mode:lr-tb;text-anchor:middle;fill:white;fill-opacity:1;font-family:Roadgeek 2005 Series C" />
          <path
             id="text2797"
             d="M 822.51854,312.09209 L 822.51854,485.80832 L 793.52021,485.80832 L 793.52021,312.09209 L 757.03962,312.09209 L 757.03962,285.47531 L 858.99913,285.47531 L 858.99913,312.09209 L 822.51854,312.09209 z "
             style="font-size:298.99850464px;font-style:normal;font-variant:normal;font-weight:normal;font-stretch:normal;text-align:center;line-height:125%;writing-mode:lr-tb;text-anchor:middle;fill:white;fill-opacity:1;font-family:Roadgeek 2005 Series C" />
          <path
             id="text2801"
             d="M 990.81712,385.34526 C 990.81698,400.69311 989.96991,413.74903 988.27589,424.51308 C 986.5816,435.27725 983.63889,445.44368 979.44773,455.01242 C 974.46552,466.97189 968.23791,475.69207 960.76489,481.17297 C 953.29165,486.65387 943.87344,489.39433 932.51022,489.39433 C 920.5507,489.39433 910.8329,486.65387 903.35677,481.17297 C 895.88055,475.69207 889.65142,466.97189 884.66937,455.01242 C 880.48414,445.24294 877.54447,435.02632 875.85033,424.36252 C 874.15616,413.69885 873.30908,400.69311 873.3091,385.34526 C 873.30908,370.19836 874.15616,357.19262 875.85033,346.328 C 877.54447,335.46366 880.48414,325.24704 884.66937,315.6781 C 889.85217,303.71883 896.18167,295.0975 903.65789,289.81411 C 911.13401,284.5311 920.75145,281.8895 932.51022,281.88929 C 944.0681,281.8895 953.53498,284.5311 960.91088,289.81411 C 968.28658,295.0975 974.46552,303.91957 979.44773,316.28033 C 981.44287,321.26258 983.18873,326.24467 984.68531,331.2266 C 986.18164,336.20884 987.37849,341.44034 988.27589,346.9211 C 989.17302,352.40215 989.82087,358.28302 990.21945,364.56373 C 990.61776,370.84469 990.81698,377.77186 990.81712,385.34526 L 990.81712,385.34526 z M 963.30612,385.34526 C 963.30601,379.76104 963.15697,374.67706 962.85901,370.09331 C 962.56083,365.50978 962.16238,361.2744 961.66367,357.38715 C 961.16475,353.50015 960.51689,349.76359 959.72011,346.17744 C 958.92311,342.59157 958.02585,339.00404 957.02832,335.41485 C 954.4368,326.44237 951.19753,319.96231 947.3105,315.97465 C 943.42329,311.98733 938.48986,309.99358 932.51022,309.9934 C 920.14922,309.99358 911.67845,318.26664 907.0979,334.81261 C 904.7011,342.38627 903.05561,350.00995 902.16144,357.6837 C 901.26717,365.3577 900.82006,374.77591 900.8201,385.93837 C 900.82006,391.32204 900.96909,396.25698 901.26721,400.74321 C 901.56524,405.2296 901.96369,409.41632 902.46255,413.30337 C 902.96132,417.19057 903.60917,421.0275 904.40611,424.81419 C 905.20296,428.60101 906.10022,432.48661 907.0979,436.47101 C 911.67845,453.01718 920.14922,461.29025 932.51022,461.29022 C 938.48986,461.29025 943.42329,459.2965 947.3105,455.30898 C 951.19753,451.32151 954.4368,445.0422 957.02832,436.47101 C 958.22051,432.48661 959.21662,428.65119 960.01666,424.96475 C 960.81649,421.27843 961.46434,417.4415 961.96022,413.45393 C 962.45589,409.46651 962.80415,405.2296 963.005,400.74321 C 963.20564,396.25698 963.30601,391.12434 963.30612,385.34526 L 963.30612,385.34526 z "
             style="font-size:298.99850464px;font-style:normal;font-variant:normal;font-weight:normal;font-stretch:normal;text-align:center;line-height:125%;writing-mode:lr-tb;text-anchor:middle;fill:white;fill-opacity:1;font-family:Roadgeek 2005 Series C" />
          <path
             id="text2805"
             d="M 1127.4384,341.69265 C 1127.4382,360.02736 1122.9033,373.97902 1113.8334,383.54769 C 1104.7634,393.11656 1091.7576,397.90095 1074.8162,397.90086 L 1043.7192,397.90086 L 1043.7192,485.80832 L 1015.0128,485.80832 L 1015.0128,285.47531 L 1074.8162,285.47531 C 1082.5903,285.47551 1089.7167,286.8214 1096.1954,289.51299 C 1102.6738,292.20497 1108.2551,295.99325 1112.9392,300.87782 C 1117.6231,305.76276 1121.2106,311.69381 1123.7018,318.671 C 1126.1927,325.64852 1127.4382,333.3224 1127.4384,341.69265 L 1127.4384,341.69265 z M 1099.3343,341.69265 C 1099.3342,333.3224 1096.942,326.54579 1092.1577,321.36279 C 1087.3732,316.18013 1081.0939,313.58871 1073.3197,313.58854 L 1043.7192,313.58854 L 1043.7192,370.39898 L 1073.3197,370.39898 C 1081.69,370.3991 1088.1184,367.90654 1092.6048,362.92128 C 1097.091,357.93628 1099.3342,350.86007 1099.3343,341.69265 L 1099.3343,341.69265 z "
             style="font-size:298.99850464px;font-style:normal;font-variant:normal;font-weight:normal;font-stretch:normal;text-align:center;line-height:125%;writing-mode:lr-tb;text-anchor:middle;fill:white;fill-opacity:1;font-family:Roadgeek 2005 Series C" />
        </g>
      </g>
    </g>
  </g>
</svg>
