<?xml version="1.0" encoding="UTF-8" standalone="no"?>
<!-- Created with Inkscape (http://www.inkscape.org/) -->
<svg
   xmlns:svg="http://www.w3.org/2000/svg"
   xmlns="http://www.w3.org/2000/svg"
   xmlns:xlink="http://www.w3.org/1999/xlink"
   version="1.0"
   width="499.99951"
   height="435.18066"
   viewBox="0 0 499.99951 435.18066"
   id="svg1324"
   xml:space="preserve"><defs
   id="defs1352" />
	<g
   id="Ebene_1">
		<g
   id="g1327">
			<defs
   id="defs1329">
				<rect
   width="499.99951"
   height="435.18066"
   x="0"
   y="0"
   id="XMLID_1_" /> 
			</defs>
			<clipPath
   id="XMLID_3_">
				<use
   id="use1333"
   x="0"
   y="0"
   width="499.99951"
   height="435.18066"
   xlink:href="#XMLID_1_" />
			</clipPath>
			<path
   d="M 20.856445,433.06055 C 4.0205078,432.52148 -3.6923828,416.0625 3.21875,402.56445 L 230.03955,10.570801 C 239.18408,-3.8754883 257.01025,-2.0454101 265.26709,10.570801 L 492.08838,402.56445 C 498.86963,414.97559 492.12061,430.53027 477.07178,432.91992 L 20.856445,433.06055"
   style="fill:#ffd911"
   id="path1335" />
		</g>
		<path
   d="M 20.345215,427.2793 C 8.762207,426.6123 3.0195313,414.57715 8.2241211,405.45996 L 235.03955,13.455566 C 240.47607,4.1982422 254.14697,3.3583984 260.19678,13.455566 L 487.08252,405.45996 C 492.63721,414.46973 485.80127,427.43066 474.43408,427.26855 L 20.345215,427.2793"
   style="fill:#fc1921"
   id="path1337" />
		<polyline
   fill="#FFD911"
   points="61.2182617,389.4960938 247.6186523,67.2680664 434.0883789,389.4960938 61.2182617,389.4960938     "
   id="polyline1339"
   style="fill:#ffd911" />
		<path
   d="M 96.418457,380.77637 L 96.418457,365.125 L 132.00146,365.125 L 138.32568,360.72168 L 145.69873,350.06543 L 148.00244,343.10059 L 151.96436,339.67676 L 157.62646,337.64258 L 161.25342,339.41895 L 170.21533,347.24512 L 172.71826,348.16016 L 175.42041,350 L 175.74854,353.49902 L 176.07666,355.3291 L 177.229,357.81543 L 179.23096,358.02051 L 181.28174,357.55762 L 182.99268,356.78223 L 182.85889,333.16504 L 183.19189,326.2002 L 183.78467,319.23535 L 183.7085,312.84082 L 182.84717,298.33008 L 182.20752,280.24609 L 182.20752,268.86719 L 182.52979,257.56445 L 183.58545,236.85352 L 180.95264,236.91797 L 178.18701,235.92773 L 176.21143,233.81836 L 175.3501,231.12695 C 175.18897,230.45898 175.28564,229.70605 175.68408,228.88769 L 176.52881,227.38086 L 178.6499,225.07715 C 179.521,224.29102 180.64111,223.65625 182.0083,223.17187 C 183.28857,222.52637 184.08545,221.82617 184.38135,221.06152 L 186.15283,217.97266 L 186.94873,212.25635 L 188.12744,205.48535 C 189.04248,201.16894 189.65088,197.72412 189.979,195.16211 C 190.26416,194.2041 190.72705,193.33252 191.35693,192.5249 C 192.3042,191.57764 193.27295,190.87793 194.2583,190.43652 L 198.54248,188.45605 L 202.18115,186.75488 L 208.75244,184.31152 L 214.42041,182.13721 L 219.76514,180.83447 L 225.09912,180.29639 L 230.43311,180.96387 L 240.83643,184.05322 L 246.70361,185.17285 L 252.70459,185.89404 L 256.98877,185.10791 L 259.42139,183.39648 L 260.41162,182.3418 L 261.91943,179.31689 L 262.92041,175.95801 L 265.0835,167.61572 L 266.13916,165.37646 L 267.73193,163.60059 L 270.6167,160.96289 L 274.31982,159.6499 L 277.80811,159.3916 L 281.61865,160.18799 L 288.34619,163.86963 L 291.58643,167.21728 L 292.36182,169.12256 L 292.42627,175.23682 L 290.45654,179.12305 L 288.55029,180.56543 L 287.68994,184.44092 L 285.19189,189.76904 L 281.23096,194.18262 L 278.45361,195.75439 L 277.07568,195.81885 L 276.68799,195.49609 L 275.85889,195.2915 L 275.03076,195.68994 L 274.57861,196.47559 L 274.70752,197.7998 L 275.09522,199.70508 L 276.35498,203.64502 L 276.62354,205.48535 L 276.28955,208.04736 L 274.83643,212.78418 L 271.99463,217.97266 L 269.30322,222.45019 L 266.87061,227.9082 L 265.01904,231.92383 L 265.90186,256.20801 L 267.52783,267.8125 L 271.80127,273.20605 L 274.57861,275.90723 L 277.52783,278.21094 L 281.9624,280.82715 L 286.22607,283.00195 L 290.45654,285.11133 L 295.26807,287.99609 L 300.15479,291.78516 L 303.68604,295.17578 L 306.14014,297.93164 L 310.01514,295.17578 L 318.32568,301.21484 L 320.97412,303.48633 L 326.1626,306.14551 L 330.31787,308.19043 L 334.47217,310.0957 L 337.70166,307.59863 L 344.34326,303.77734 L 355.2915,300.62305 L 358.51025,303.51855 L 361.40576,308.25488 L 369.78076,316.72656 L 376.896,325.46777 L 381.36279,331.85156 L 384.15088,335.33887 L 386.58447,339.08496 L 388.5542,343.10059 L 391.71924,350.72168 L 394.62549,358.4834 L 396.88623,364.41406 L 398.51123,370.98047 L 398.88818,373.81152 L 399.29736,380.77637 L 96.418457,380.77637"
   id="path1341" />
		<polyline
   fill="#FFD911"
   points="211.3198242,360.3994141 210.8032227,357.6972656 205.7866211,354.6074219     200.7172852,349.9355469 200.2543945,349.2792969 200.0551758,347.7080078 200.9165039,342.0566406 203.0854492,341.9697266     204.9370117,341.2597656 205.7866211,339.6123047 207.4174805,329.6767578 207.7680664,326.8671875 211.0024414,312.2060547     213.0424805,304.7675781 213.6987305,301.3447266 214.0864258,296.5537109 214.3500977,293.9169922 216.137207,282.4199219     217.0522461,274.8525391 217.2514648,274.0664063 218.1772461,272.6132813 219.6303711,271.9570313 222.1333008,272.2910156     223.7104492,272.9472656 226.9399414,277.0166016 229.9047852,280.5683594 233.0698242,283.8623047 236.4282227,287.0166016     239.980957,289.9765625 243.6088867,292.6679688 244.7338867,294.3154297 244.7983398,296.6513672 243.737793,302.3994141     242.0961914,309.2998047 239.6577148,316.0703125 237.3432617,324.1650391 236.2290039,331.0654297 235.3735352,336.78125     233.7319336,340.2802734 231.2182617,343.7568359 229.9047852,346.8466797 229.7709961,348.4931641 234.9750977,351.7763672     239.7924805,353.4990234 247.8930664,358.0957031 242.0961914,359.7314453 237.6069336,360.8515625 233.1342773,361.5722656     228.5161133,361.8417969 223.6459961,361.90625 219.5014648,361.7773438 215.4106445,361.2382813 211.3198242,360.3994141 "
   id="polyline1343"
   style="fill:#ffd911" />
		<polyline
   fill="#FFD911"
   points="217.4506836,202.7192383 216.8530273,202.1914063 216.2719727,201.9980469     215.6098633,202.0732422 213.5053711,201.7392578 211.9174805,201.6103516 210.340332,201.5458984 208.0366211,201.9438477     206.5131836,201.9980469 203.9467773,201.9980469 203.3491211,202.1269531 202.1704102,202.7192383 201.3793945,203.3862305     200.5180664,204.4951172 199.9907227,205.7441406 199.7915039,206.6049805 199.6567383,207.9829102 199.7915039,209.4902344     199.6567383,210.5449219 199.4038086,211.9228516 198.8120117,213.3759766 197.815918,215.7441406 197.2885742,217.0576172     196.6264648,219.6191406 196.5083008,220.6748047 196.1743164,223.1074219 196.1098633,224.5498047 196.1743164,225.4111328     197.0893555,226.390625 197.9506836,226.4658203 202.7348633,219.3720703 206.777832,211.4599609 207.4389648,210.3510742     211.1850586,207.3046875 217.4506836,203.9677734 217.4506836,202.7192383 "
   id="polyline1345"
   style="fill:#ffd911" />
		<polyline
   fill="#FFD911"
   points="243.2749023,230.265625 241.487793,231.71875 240.309082,233.4951172 239.7817383,235.5400391     239.9106445,237.8330078 240.4438477,239.609375 242.0961914,243.8183594 244.0014648,247.8984375 246.1762695,251.8378906     249.3510742,256.3378906 252.2358398,260.1162109 253.3608398,260.9775391 254.3413086,260.7832031 255.0083008,259.9863281     255.0727539,259.4052734 255.0083008,259.1367188 254.7817383,258.2431641 250.7290039,242.6992188 250.659668,241.375     250.8588867,238.7587891 250.1967773,235.4755859 249.2709961,231.6542969 248.6889648,230.2011719 248.2260742,229.5556641     247.5649414,229.0927734 246.8374023,228.8876953 246.1108398,228.9521484 243.2749023,230.265625 "
   id="polyline1347"
   style="fill:#ffd911" />
		<polyline
   fill-rule="evenodd"
   clip-rule="evenodd"
   fill="#FFD911"
   points="273.7817383,282.4736328 278.1303711,285.3701172     282.4145508,287.7382813 286.9575195,289.8476563 292.1674805,291.9472656 296.2583008,294.0888672 299.9614258,298.2548828     302.7172852,300.4941406 306.0112305,303.0556641 309.4985352,305.2949219 313.309082,307.3945313 317.2709961,309.1054688     320.9741211,310.5478516 324.784668,311.5380859 332.4916992,312.8515625 324.5795898,321.7216797 321.081543,326.46875     318.3901367,330.8066406 315.8823242,335.2744141 313.6538086,339.8173828 311.6733398,344.5429688 310.284668,348.4179688     308.8422852,350.4628906 307.1948242,352.3681641 304.0522461,355.0595703 303.1049805,355.7167969 300.7250977,357.0400391     298.2172852,358.1601563 294.019043,359.2685547 291.2416992,359.6025391 287.2163086,359.6240234 282.2856445,358.4179688     276.8491211,357.7724609 272.3393555,357.0400391 267.3227539,356.8466797 262.2631836,356.9111328 257.2475586,357.234375     257.440918,355.5869141 256.6547852,354.4033203 250.3305664,350.8613281 248.355957,346.0498047 250.5297852,340.0751953     252.7045898,340.0107422 254.4057617,339.8173828 255.9985352,339.2900391 257.9145508,338.5361328 260.7993164,334.6826172     265.3530273,312.2597656 266.8706055,306.6083984 270.5522461,295.3056641 273.8461914,287.0166016 274.2553711,285.8974609     274.3198242,284.6484375 273.7817383,282.4736328 "
   id="polyline1349"
   style="fill:#ffd911;fill-rule:evenodd" />
	</g>
</svg>