<?xml version="1.0" encoding="UTF-8" standalone="no"?>
<!-- Generator: Adobe Illustrator 10.0.3, SVG Export Plug-In . SVG Version: 3.0.0 Build 77)  -->

<svg
   xmlns:a="http://ns.adobe.com/AdobeSVGViewerExtensions/3.0/"
   xmlns:dc="http://purl.org/dc/elements/1.1/"
   xmlns:cc="http://creativecommons.org/ns#"
   xmlns:rdf="http://www.w3.org/1999/02/22-rdf-syntax-ns#"
   xmlns:svg="http://www.w3.org/2000/svg"
   xmlns="http://www.w3.org/2000/svg"
   xmlns:xlink="http://www.w3.org/1999/xlink"
   xmlns:sodipodi="http://sodipodi.sourceforge.net/DTD/sodipodi-0.dtd"
   xmlns:inkscape="http://www.inkscape.org/namespaces/inkscape"
   width="128"
   height="128"
   viewBox="0 0 128 128"
   overflow="visible"
   enable-background="new 0 0 128 128"
   xml:space="preserve"
   id="svg2"
   sodipodi:version="0.32"
   inkscape:version="0.47 r22583"
   sodipodi:docname="folder_notatki.svg"
   inkscape:output_extension="org.inkscape.output.svg.inkscape"
   inkscape:export-filename="/home/rrp/Ikony/folder_archive1.png"
   inkscape:export-xdpi="180"
   inkscape:export-ydpi="180"
   version="1.1"><metadata
   id="metadata121"><rdf:RDF><cc:Work
       rdf:about=""><dc:format>image/svg+xml</dc:format><dc:type
         rdf:resource="http://purl.org/dc/dcmitype/StillImage" /><dc:title></dc:title></cc:Work></rdf:RDF></metadata><defs
   id="defs119"><inkscape:perspective
     sodipodi:type="inkscape:persp3d"
     inkscape:vp_x="0 : 64 : 1"
     inkscape:vp_y="0 : 1000 : 0"
     inkscape:vp_z="128 : 64 : 1"
     inkscape:persp3d-origin="64 : 42.666667 : 1"
     id="perspective123" /><linearGradient
     id="linearGradient22140"><stop
       id="stop22142"
       offset="0"
       style="stop-color:black;stop-opacity:0;" /><stop
       style="stop-color:black;stop-opacity:1;"
       offset="0.5"
       id="stop22148" /><stop
       id="stop22144"
       offset="1"
       style="stop-color:black;stop-opacity:0;" /></linearGradient><inkscape:perspective
     id="perspective3124"
     inkscape:persp3d-origin="24 : 16 : 1"
     inkscape:vp_z="48 : 24 : 1"
     inkscape:vp_y="0 : 1000 : 0"
     inkscape:vp_x="0 : 24 : 1"
     sodipodi:type="inkscape:persp3d" /><inkscape:perspective
     id="perspective3106"
     inkscape:persp3d-origin="0.5 : 0.33333333 : 1"
     inkscape:vp_z="1 : 0.5 : 1"
     inkscape:vp_y="0 : 1000 : 0"
     inkscape:vp_x="0 : 0.5 : 1"
     sodipodi:type="inkscape:persp3d" /><linearGradient
     gradientTransform="matrix(0.9121,0.4099,-0.4099,0.9121,1486.1229,-457.4578)"
     y2="1056.0115"
     x2="-1075.9254"
     y1="1056.168"
     x1="-1082.9839"
     gradientUnits="userSpaceOnUse"
     id="XMLID_13_"><stop
       id="stop162"
       style="stop-color:#FFAE00"
       offset="0" /><stop
       id="stop164"
       style="stop-color:#BB4400"
       offset="1" /><a:midPointStop
       style="stop-color:#FFAE00"
       offset="0" /><a:midPointStop
       style="stop-color:#FFAE00"
       offset="0.5" /><a:midPointStop
       style="stop-color:#BB4400"
       offset="1" /></linearGradient><linearGradient
     y2="48.500702"
     x2="77.010002"
     y1="100.9199"
     x1="52.900902"
     gradientUnits="userSpaceOnUse"
     id="XMLID_14_"><stop
       id="stop171"
       style="stop-color:#FFFFFF"
       offset="0" /><stop
       id="stop173"
       style="stop-color:#FFEB00"
       offset="1" /><a:midPointStop
       style="stop-color:#FFFFFF"
       offset="0" /><a:midPointStop
       style="stop-color:#FFFFFF"
       offset="0.5" /><a:midPointStop
       style="stop-color:#FFEB00"
       offset="1" /></linearGradient><linearGradient
     y2="50.165798"
     x2="86.208298"
     y1="101.4902"
     x1="62.463902"
     gradientUnits="userSpaceOnUse"
     id="XMLID_15_"><stop
       id="stop178"
       style="stop-color:#FFFFD9"
       offset="0" /><stop
       id="stop180"
       style="stop-color:#FF9A2B"
       offset="1" /><a:midPointStop
       style="stop-color:#FFFFD9"
       offset="0" /><a:midPointStop
       style="stop-color:#FFFFD9"
       offset="0.5" /><a:midPointStop
       style="stop-color:#FF9A2B"
       offset="1" /></linearGradient><linearGradient
     y2="44.146999"
     x2="83.82"
     y1="108.6143"
     x1="54.7822"
     gradientUnits="userSpaceOnUse"
     id="XMLID_16_"><stop
       id="stop185"
       style="stop-color:#FFFFE8"
       offset="0" /><stop
       id="stop187"
       style="stop-color:#FFBD00"
       offset="1" /><a:midPointStop
       style="stop-color:#FFFFE8"
       offset="0" /><a:midPointStop
       style="stop-color:#FFFFE8"
       offset="0.5" /><a:midPointStop
       style="stop-color:#FFBD00"
       offset="1" /></linearGradient><linearGradient
     gradientTransform="matrix(0.9809,-0.1946,0.1946,0.9809,-15.4342,13.3755)"
     y2="136.8056"
     x2="64.832497"
     y1="63.372101"
     x1="64.832497"
     gradientUnits="userSpaceOnUse"
     id="XMLID_11_"><stop
       id="stop142"
       style="stop-color:#FFFFFF"
       offset="0" /><stop
       id="stop144"
       style="stop-color:#D4D4D4"
       offset="1" /><a:midPointStop
       style="stop-color:#FFFFFF"
       offset="0" /><a:midPointStop
       style="stop-color:#FFFFFF"
       offset="0.5" /><a:midPointStop
       style="stop-color:#D4D4D4"
       offset="1" /></linearGradient><linearGradient
     gradientTransform="matrix(0.9809,-0.1946,0.1946,0.9809,-15.4342,13.3755)"
     y2="-31.787001"
     x2="169.2888"
     y1="136.03709"
     x1="19.6763"
     gradientUnits="userSpaceOnUse"
     id="XMLID_12_"><stop
       id="stop149"
       style="stop-color:#D4D4D4"
       offset="0" /><stop
       id="stop151"
       style="stop-color:#999999"
       offset="1" /><a:midPointStop
       style="stop-color:#D4D4D4"
       offset="0" /><a:midPointStop
       style="stop-color:#D4D4D4"
       offset="0.5" /><a:midPointStop
       style="stop-color:#999999"
       offset="1" /></linearGradient><linearGradient
     inkscape:collect="always"
     xlink:href="#XMLID_11_"
     id="linearGradient3135"
     gradientUnits="userSpaceOnUse"
     gradientTransform="matrix(0.9809,-0.1946,0.1946,0.9809,-15.4342,13.3755)"
     x1="64.832497"
     y1="63.372101"
     x2="64.832497"
     y2="136.8056" /><linearGradient
     inkscape:collect="always"
     xlink:href="#XMLID_12_"
     id="linearGradient3137"
     gradientUnits="userSpaceOnUse"
     gradientTransform="matrix(0.9809,-0.1946,0.1946,0.9809,-15.4342,13.3755)"
     x1="19.6763"
     y1="136.03709"
     x2="169.2888"
     y2="-31.787001" /><linearGradient
     inkscape:collect="always"
     xlink:href="#XMLID_13_"
     id="linearGradient3139"
     gradientUnits="userSpaceOnUse"
     gradientTransform="matrix(0.9121,0.4099,-0.4099,0.9121,1486.1229,-457.4578)"
     x1="-1082.9839"
     y1="1056.168"
     x2="-1075.9254"
     y2="1056.0115" /><linearGradient
     inkscape:collect="always"
     xlink:href="#XMLID_14_"
     id="linearGradient3141"
     gradientUnits="userSpaceOnUse"
     x1="52.900902"
     y1="100.9199"
     x2="77.010002"
     y2="48.500702" /><linearGradient
     inkscape:collect="always"
     xlink:href="#XMLID_15_"
     id="linearGradient3143"
     gradientUnits="userSpaceOnUse"
     x1="62.463902"
     y1="101.4902"
     x2="86.208298"
     y2="50.165798" /><linearGradient
     inkscape:collect="always"
     xlink:href="#XMLID_16_"
     id="linearGradient3145"
     gradientUnits="userSpaceOnUse"
     x1="54.7822"
     y1="108.6143"
     x2="83.82"
     y2="44.146999" /></defs><sodipodi:namedview
   inkscape:window-height="767"
   inkscape:window-width="792"
   inkscape:pageshadow="2"
   inkscape:pageopacity="0.0"
   guidetolerance="10.0"
   gridtolerance="10.0"
   objecttolerance="10.0"
   borderopacity="1.0"
   bordercolor="#666666"
   pagecolor="#ffffff"
   id="base"
   showgrid="false"
   inkscape:zoom="3.640625"
   inkscape:cx="64"
   inkscape:cy="64"
   inkscape:window-x="0"
   inkscape:window-y="0"
   inkscape:current-layer="svg2"
   inkscape:window-maximized="0" />
	<g
   id="Layer_1">
		<g
   id="g5">
			<g
   id="g7">
				<linearGradient
   id="XMLID_1_"
   gradientUnits="userSpaceOnUse"
   x1="67.0205"
   y1="-22.6318"
   x2="60.5043"
   y2="123.7301">
					<stop
   offset="0.382"
   style="stop-color:#DCF0FF"
   id="stop10" />
					<stop
   offset="0.4435"
   style="stop-color:#C9E6FF"
   id="stop12" />
					<stop
   offset="0.6311"
   style="stop-color:#92CAFF"
   id="stop14" />
					<stop
   offset="0.793"
   style="stop-color:#6AB5FF"
   id="stop16" />
					<stop
   offset="0.9213"
   style="stop-color:#52A9FF"
   id="stop18" />
					<stop
   offset="1"
   style="stop-color:#49A4FF"
   id="stop20" />
					<a:midPointStop
   offset="0.382"
   style="stop-color:#DCF0FF" />
					<a:midPointStop
   offset="0.4"
   style="stop-color:#DCF0FF" />
					<a:midPointStop
   offset="1"
   style="stop-color:#49A4FF" />
				</linearGradient>
				<path
   fill-rule="evenodd"
   clip-rule="evenodd"
   fill="url(#XMLID_1_)"
   d="M101.944,22.202      c-2.628-9.266-4.355-16.555-4.776-18.001c-0.604-2.081-2.325-2.449-3.891-1.492c-2.003,1.228-45.738,25.562-45.738,25.562      s-3.47,2.491-7.073,1.264c-3.601-1.23-7.215-7.521-13.401-4.884c-4.749,2.026-10.732,5.412-16.307,9.101      c-7.002,4.631-2.34,10.637-2.664,14.347c-0.287,3.28-5.031,5.204-5.031,5.204S9.776,71.266,17.999,88.81      s21.085,36.104,21.085,36.104c0.312,0.442,0.862,1.212,2.23,0.652c1.95-0.794,78.553-52.096,81.12-53.473      c0.462-0.245,0.773-0.591,0.987-0.935c-2.407-4.28-4.803-8.815-6.899-13.286C108.299,40.326,101.727,22.305,101.944,22.202z"
   id="path22" />
				<path
   fill-rule="evenodd"
   clip-rule="evenodd"
   fill="#FFFFFF"
   d="M101.944,23.202c-2.628-9.266-4.355-16.555-4.776-18.001      c-0.604-2.081-2.325-2.449-3.891-1.492c-2.003,1.228-45.738,25.562-45.738,25.562s-3.47,2.491-7.073,1.264      c-3.601-1.23-7.215-7.521-13.401-4.884c-4.749,2.026-10.732,5.412-16.307,9.101c-7.002,4.631-2.34,10.637-2.664,14.347      c-0.287,3.28-5.031,5.204-5.031,5.204S9.776,72.266,17.999,89.81s21.085,36.104,21.085,36.104      c0.312,0.442,0.862,1.212,2.23,0.652c1.95-0.794,78.553-52.096,81.12-53.473c0.462-0.245,0.773-0.591,0.987-0.935      c-2.407-4.28-4.803-8.815-6.899-13.286C108.299,41.326,101.727,23.305,101.944,23.202z"
   id="path24" />
				<linearGradient
   id="XMLID_2_"
   gradientUnits="userSpaceOnUse"
   x1="8.5332"
   y1="64.3467"
   x2="120.7432"
   y2="64.3467">
					<stop
   offset="0.0056"
   style="stop-color:#FFFFFF"
   id="stop27" />
					<stop
   offset="0.3989"
   style="stop-color:#87BBFF"
   id="stop29" />
					<stop
   offset="1"
   style="stop-color:#1E65FF"
   id="stop31" />
					<a:midPointStop
   offset="0.0056"
   style="stop-color:#FFFFFF" />
					<a:midPointStop
   offset="0.5"
   style="stop-color:#FFFFFF" />
					<a:midPointStop
   offset="0.3989"
   style="stop-color:#87BBFF" />
					<a:midPointStop
   offset="0.5"
   style="stop-color:#87BBFF" />
					<a:midPointStop
   offset="1"
   style="stop-color:#1E65FF" />
				</linearGradient>
				<path
   fill="url(#XMLID_2_)"
   d="M100.722,25.434C98.269,16.796,96.659,10,96.267,8.651c-0.563-1.94-2.166-2.284-3.627-1.392      c-1.867,1.145-42.641,23.83-42.641,23.83s-3.235,2.324-6.595,1.18c-3.357-1.148-6.727-7.014-12.496-4.554      c-4.426,1.888-10.004,5.044-15.201,8.483c-6.527,4.318-2.182,9.918-2.483,13.376c-0.269,3.059-4.69,4.852-4.69,4.852      s6.258,16.748,13.926,33.106c7.664,16.355,19.656,33.659,19.656,33.659c0.291,0.411,0.805,1.127,2.079,0.607      c1.818-0.742,73.235-48.569,75.63-49.854c0.43-0.229,0.719-0.552,0.919-0.871c-2.244-3.991-4.479-8.22-6.432-12.387      C106.645,42.33,100.516,25.529,100.722,25.434z"
   id="path33" />
				<linearGradient
   id="XMLID_3_"
   gradientUnits="userSpaceOnUse"
   x1="87.4238"
   y1="71.2764"
   x2="10.7515"
   y2="41.6424">
					<stop
   offset="0"
   style="stop-color:#001EA4"
   id="stop36" />
					<stop
   offset="1"
   style="stop-color:#398BFF"
   id="stop38" />
					<a:midPointStop
   offset="0"
   style="stop-color:#001EA4" />
					<a:midPointStop
   offset="0.5"
   style="stop-color:#001EA4" />
					<a:midPointStop
   offset="1"
   style="stop-color:#398BFF" />
				</linearGradient>
				<path
   fill="url(#XMLID_3_)"
   d="M92.703,1.771c-1.961,1.202-45.262,25.296-45.698,25.538l-0.053,0.029L46.9,27.375      c-0.03,0.021-3.072,2.143-6.08,1.118c-0.959-0.328-2.033-1.171-3.17-2.062c-2.756-2.162-6.186-4.853-11.018-2.792      C22.007,25.612,16,28.964,10.15,32.834c-5.683,3.758-4.515,8.488-3.662,11.941c0.301,1.217,0.585,2.367,0.51,3.227      c-0.187,2.129-3.203,3.812-4.35,4.281L1.66,52.688l0.373,1c0.066,0.18,6.822,18.206,14.97,35.589      c8.167,17.426,21.048,36.077,21.177,36.264c0.906,1.288,2.1,1.638,3.551,1.044c1.1-0.448,18.391-11.916,46.737-30.75      c16.412-10.904,33.384-22.181,34.486-22.771c0.572-0.304,1.045-0.749,1.401-1.323l0.345-0.553l-0.319-0.567      c-2.657-4.725-4.966-9.17-6.862-13.215c-8.084-17.246-14.25-34.148-14.492-35.332l-0.008-0.04l-0.016-0.13      c-1.819-6.414-3.201-11.858-4.026-15.111l-0.752-2.896c-0.367-1.263-1.13-2.176-2.148-2.57      C95.033,0.92,93.835,1.078,92.703,1.771z M93.853,3.646c0.524-0.32,1.045-0.42,1.429-0.271c0.467,0.181,0.709,0.716,0.83,1.132      c0,0.001,0.732,2.824,0.732,2.824c0.829,3.264,2.215,8.727,4.042,15.17c0,0,0.013-0.025,0.013-0.027      c0.215,1.321,1.325,4.264,4.146,11.424c2.339,5.936,6.055,14.994,10.482,24.44c1.819,3.88,4.036,8.141,6.546,12.636      c-0.057,0.041-0.091,0.113-0.153,0.146c-1.198,0.643-16.709,10.948-34.669,22.881c-20.022,13.303-44.941,29.859-46.379,30.557      c-0.537,0.22-0.611,0.113-0.887-0.278c-0.124-0.179-12.902-18.682-20.989-35.938C11.938,73.286,5.934,57.752,4.449,53.855      c1.564-0.83,4.485-2.752,4.74-5.662c0.014-0.161,0.021-0.324,0.021-0.488c0-1.085-0.287-2.242-0.586-3.457      c-0.323-1.307-0.65-2.631-0.65-3.936c0-1.972,0.748-3.896,3.39-5.645c5.743-3.799,11.623-7.082,16.132-9.006      c3.635-1.55,6.259,0.509,8.797,2.5c1.287,1.01,2.504,1.965,3.816,2.413c3.917,1.334,7.553-1.054,8.005-1.366      C50.246,28.023,91.861,4.867,93.853,3.646z"
   id="path40" />
				<path
   fill="none"
   d="M128,128H0V0h128V128z"
   id="path42" />
			</g>
			<linearGradient
   id="XMLID_4_"
   gradientUnits="userSpaceOnUse"
   x1="32.1113"
   y1="59.9604"
   x2="85.1559"
   y2="67.4256">
				<stop
   offset="0"
   style="stop-color:#CDF8FF"
   id="stop45" />
				<stop
   offset="0.1068"
   style="stop-color:#A1D6FF"
   id="stop47" />
				<stop
   offset="0.2858"
   style="stop-color:#5CA2FF"
   id="stop49" />
				<stop
   offset="0.4358"
   style="stop-color:#2A7BFF"
   id="stop51" />
				<stop
   offset="0.549"
   style="stop-color:#0C64FF"
   id="stop53" />
				<stop
   offset="0.6124"
   style="stop-color:#005BFF"
   id="stop55" />
				<stop
   offset="0.7113"
   style="stop-color:#0056FF"
   id="stop57" />
				<stop
   offset="0.8313"
   style="stop-color:#0047FF"
   id="stop59" />
				<stop
   offset="0.9616"
   style="stop-color:#002FFF"
   id="stop61" />
				<stop
   offset="1"
   style="stop-color:#0026FF"
   id="stop63" />
				<a:midPointStop
   offset="0"
   style="stop-color:#CDF8FF" />
				<a:midPointStop
   offset="0.4214"
   style="stop-color:#CDF8FF" />
				<a:midPointStop
   offset="0.6124"
   style="stop-color:#005BFF" />
				<a:midPointStop
   offset="0.6667"
   style="stop-color:#005BFF" />
				<a:midPointStop
   offset="1"
   style="stop-color:#0026FF" />
			</linearGradient>
			<path
   opacity="0.4"
   fill="url(#XMLID_4_)"
   d="M40.3,124.545c0,0-5.63-13.158-9.86-26.29c-3.762-11.693-8.514-27.498-5.066-30.032     c3.033-2.229,17.423-10.991,21.643-13.982c3.77-2.672,2.719-9.599,5.253-14.022c1.243-2.17,3.354-3.299,3.354-3.299     S105.001,8.47,107.793,6.608c1.351-0.899,3.126,0.315,3.126,2.258c0,2.669,2.196,18.056,5.485,33.048     c3.294,15.017,8.718,28.038,8.718,28.038s-0.133,1.522-1.458,2.23c-2.572,1.375-79.172,52.676-81.124,53.473     C40.588,126.451,40.3,124.545,40.3,124.545z"
   id="path65" />
			<defs
   id="defs67">
				<filter
   id="Adobe_OpacityMaskFilter"
   filterUnits="userSpaceOnUse"
   x="37"
   y="9.75"
   width="86.795"
   height="115.955">
					<feColorMatrix
   type="matrix"
   values="1 0 0 0 0  0 1 0 0 0  0 0 1 0 0  0 0 0 1 0"
   id="feColorMatrix70" />
				</filter>
			</defs>
			<mask
   maskUnits="userSpaceOnUse"
   x="37"
   y="9.75"
   width="86.795"
   height="115.955"
   id="XMLID_5_">
				<g
   filter="url(#Adobe_OpacityMaskFilter)"
   id="g73">
					<linearGradient
   id="XMLID_6_"
   gradientUnits="userSpaceOnUse"
   x1="101.9082"
   y1="30.7671"
   x2="12.619"
   y2="86.1555">
						<stop
   offset="0"
   style="stop-color:#FFFFFF"
   id="stop76" />
						<stop
   offset="1"
   style="stop-color:#000000"
   id="stop78" />
						<a:midPointStop
   offset="0"
   style="stop-color:#FFFFFF" />
						<a:midPointStop
   offset="0.5"
   style="stop-color:#FFFFFF" />
						<a:midPointStop
   offset="1"
   style="stop-color:#000000" />
					</linearGradient>
					<path
   fill="url(#XMLID_6_)"
   d="M125.483,115.934H-1.522V-4.865h127.006V115.934z"
   id="path80" />
				</g>
			</mask>
			<linearGradient
   id="XMLID_7_"
   gradientUnits="userSpaceOnUse"
   x1="46.1694"
   y1="55.1499"
   x2="97.3291"
   y2="76.854">
				<stop
   offset="0"
   style="stop-color:#6AC5FF"
   id="stop83" />
				<stop
   offset="0.1262"
   style="stop-color:#61B3F6"
   id="stop85" />
				<stop
   offset="0.3781"
   style="stop-color:#4886E0"
   id="stop87" />
				<stop
   offset="0.7286"
   style="stop-color:#213DBD"
   id="stop89" />
				<stop
   offset="1"
   style="stop-color:#00009F"
   id="stop91" />
				<a:midPointStop
   offset="0"
   style="stop-color:#6AC5FF" />
				<a:midPointStop
   offset="0.5526"
   style="stop-color:#6AC5FF" />
				<a:midPointStop
   offset="1"
   style="stop-color:#00009F" />
			</linearGradient>
			<path
   opacity="0.4"
   mask="url(#XMLID_5_)"
   fill="url(#XMLID_7_)"
   d="M115.251,43.631c-0.67-3.055-4.683-30.909-5.251-33.881     c-7.5,68.5-57.5,36.75-73,98.75c-1.066,4.266,3.66,16.117,3.66,16.117s0.283,1.868,2.196,1.088     c1.913-0.781,76.988-51.061,79.51-52.408c1.299-0.694,1.429-2.187,1.429-2.187S118.479,58.348,115.251,43.631z"
   id="path93" />
			<path
   fill="#FFFFFF"
   d="M28.949,69.737c3.033-2.228,17.424-10.99,21.643-13.982c3.77-2.672,2.721-9.6,5.253-14.022     c1.244-2.17,3.354-3.3,3.354-3.3s42.856-24.691,50.972-29.57c-0.296-1.609-1.847-2.523-3.065-1.712     c-2.793,1.86-52.172,30.31-52.172,30.31s-2.109,1.129-3.354,3.3c-2.533,4.423-1.483,11.35-5.253,14.022     c-4.22,2.991-18.609,11.754-21.642,13.981c-3.449,2.534,1.303,18.339,5.066,30.031c4.23,13.134,9.86,26.291,9.86,26.291     s0.288,1.907,2.239,1.109c0.148-0.059,0.727-0.41,1.658-1.002c-1.311-3.131-5.905-14.285-9.494-25.426     C30.252,88.076,25.502,72.271,28.949,69.737z"
   id="path95" />
			<linearGradient
   id="XMLID_8_"
   gradientUnits="userSpaceOnUse"
   x1="57.8667"
   y1="100.9258"
   x2="120.5585"
   y2="70.7129">
				<stop
   offset="0"
   style="stop-color:#FFFFFF"
   id="stop98" />
				<stop
   offset="1"
   style="stop-color:#B1B1C5"
   id="stop100" />
				<a:midPointStop
   offset="0"
   style="stop-color:#FFFFFF" />
				<a:midPointStop
   offset="0.5"
   style="stop-color:#FFFFFF" />
				<a:midPointStop
   offset="1"
   style="stop-color:#B1B1C5" />
			</linearGradient>
			<path
   fill="url(#XMLID_8_)"
   d="M34.57,110.088c3.049,8.195,5.729,14.457,5.729,14.457s0.288,1.906,2.24,1.11     c1.952-0.797,78.552-52.098,81.124-53.473c1.325-0.708,1.458-2.23,1.458-2.23s-2.802-6.724-5.6-16.083     C103.634,64.267,49.998,100.108,34.57,110.088z"
   id="path102" />
			<linearGradient
   id="XMLID_9_"
   gradientUnits="userSpaceOnUse"
   x1="18.0327"
   y1="124.1084"
   x2="116.4508"
   y2="70.4536">
				<stop
   offset="0"
   style="stop-color:#FFFFFF"
   id="stop105" />
				<stop
   offset="1"
   style="stop-color:#B1B1C5"
   id="stop107" />
				<a:midPointStop
   offset="0"
   style="stop-color:#FFFFFF" />
				<a:midPointStop
   offset="0.5"
   style="stop-color:#FFFFFF" />
				<a:midPointStop
   offset="1"
   style="stop-color:#B1B1C5" />
			</linearGradient>
			<path
   fill="url(#XMLID_9_)"
   a:adobe-blending-mode="multiply"
   d="M119.522,53.869c-0.107,0.069-0.221,0.145-0.332,0.217     c2.44,7.683,4.63,12.942,4.63,12.942s-0.133,1.521-1.457,2.229c-2.571,1.375-79.172,52.676-81.123,53.473     c-0.902,0.369-1.445,0.157-1.773-0.176c0.523,1.263,0.833,1.99,0.833,1.99s0.288,1.906,2.24,1.11     c1.952-0.797,78.552-52.098,81.124-53.473c1.325-0.708,1.458-2.23,1.458-2.23S122.32,63.229,119.522,53.869z"
   id="path109" />
			<linearGradient
   id="XMLID_10_"
   gradientUnits="userSpaceOnUse"
   x1="95.627"
   y1="73.9512"
   x2="35.7537"
   y2="50.8101">
				<stop
   offset="0"
   style="stop-color:#001EA4"
   id="stop112" />
				<stop
   offset="1"
   style="stop-color:#398BFF"
   id="stop114" />
				<a:midPointStop
   offset="0"
   style="stop-color:#001EA4" />
				<a:midPointStop
   offset="0.5"
   style="stop-color:#001EA4" />
				<a:midPointStop
   offset="1"
   style="stop-color:#398BFF" />
			</linearGradient>
			<path
   fill="url(#XMLID_10_)"
   d="M107.184,5.693c-2.731,1.82-51.617,29.988-52.111,30.272c-0.066,0.036-2.373,1.289-3.758,3.705     c-1.154,2.015-1.605,4.41-2.043,6.726c-0.548,2.906-1.064,5.651-2.893,6.946c-2.108,1.495-6.814,4.466-11.364,7.337     c-4.506,2.845-8.762,5.531-10.293,6.656c-1.098,0.808-1.665,2.348-1.665,4.863c0,4.761,2.031,13.013,6.336,26.393     c4.072,12.642,9.488,25.429,9.86,26.303c0.085,0.371,0.365,1.257,1.237,1.752c0.482,0.274,1.303,0.502,2.465,0.027     c1.098-0.448,18.279-11.843,46.446-30.558c16.554-10.997,33.671-22.37,34.781-22.964c1.461-0.78,1.967-2.318,2.035-3.104     l0.023-0.27l-0.104-0.249c-0.054-0.13-5.426-13.11-8.659-27.852c-3.341-15.228-5.46-30.459-5.46-32.812     c0-1.423-0.713-2.688-1.861-3.304C109.192,5.047,108.081,5.096,107.184,5.693z M41.578,124.734     c-0.076-0.042-0.168-0.237-0.193-0.372l-0.022-0.118l-0.052-0.132c-0.056-0.131-5.658-13.265-9.824-26.194     c-5.667-17.614-7.505-27.307-5.462-28.809c1.469-1.079,5.692-3.746,10.165-6.568c4.574-2.889,9.305-5.875,11.462-7.403     c2.552-1.81,3.178-5.126,3.782-8.333c0.402-2.137,0.82-4.348,1.789-6.04c1.062-1.853,2.902-2.867,2.922-2.878     c2.044-1.177,49.469-28.504,52.259-30.363c0.223-0.148,0.464-0.156,0.716-0.021c0.322,0.174,0.7,0.635,0.7,1.364     c0,2.868,2.272,18.522,5.511,33.284c3.012,13.73,7.844,25.924,8.65,27.914c-0.078,0.305-0.284,0.854-0.835,1.148     c-1.122,0.6-13.957,9.116-34.961,23.071c-19.897,13.219-44.659,29.671-46.087,30.364     C41.797,124.771,41.623,124.759,41.578,124.734z"
   id="path116" />
		</g>
	</g>
<path
   style="opacity:0.1"
   id="path135"
   d="m 108.37137,70.22723 c -0.0958,-0.139591 -0.24443,-0.229268 -0.40794,-0.24788 L 64.5665,65.227331 c -0.270033,-0.02877 -0.524377,0.140437 -0.606956,0.404391 L 48.51974,114.6815 c -0.05368,0.16582 -0.02973,0.35109 0.06524,0.50084 0.09497,0.1472 0.250214,0.24534 0.422804,0.26226 l 46.918935,4.83577 c 0.283246,0.0296 0.54337,-0.15905 0.612736,-0.44246 L 108.45643,70.706916 c 0.0421,-0.16751 0.01,-0.340941 -0.0851,-0.479686 z" /><g
   transform="matrix(0.82579041,0,0,0.84600666,21.159653,18.1809)"
   id="g137"><path
     style="fill:#ffffff"
     id="path139"
     d="m 45.789,46.285 57.682,6.164 -15.84,63.746 -62.365,-6.273 20.523,-63.637 z" /><linearGradient
     gradientTransform="matrix(0.9809,-0.1946,0.1946,0.9809,-15.4342,13.3755)"
     y2="136.8056"
     x2="64.832497"
     y1="63.372101"
     x1="64.832497"
     gradientUnits="userSpaceOnUse"
     id="linearGradient3131"><stop
       id="stop3133"
       style="stop-color:#FFFFFF"
       offset="0" /><stop
       id="stop3135"
       style="stop-color:#D4D4D4"
       offset="1" /><a:midPointStop
       style="stop-color:#FFFFFF"
       offset="0" /><a:midPointStop
       style="stop-color:#FFFFFF"
       offset="0.5" /><a:midPointStop
       style="stop-color:#D4D4D4"
       offset="1" /></linearGradient><path
     style="fill:url(#linearGradient3135)"
     id="path146"
     d="M 49.384,53.475 95.085,58.359 82.536,108.863 33.123,103.894 49.384,53.475 z" /><linearGradient
     gradientTransform="matrix(0.9809,-0.1946,0.1946,0.9809,-15.4342,13.3755)"
     y2="-31.787001"
     x2="169.2888"
     y1="136.03709"
     x1="19.6763"
     gradientUnits="userSpaceOnUse"
     id="linearGradient3138"><stop
       id="stop3140"
       style="stop-color:#D4D4D4"
       offset="0" /><stop
       id="stop3142"
       style="stop-color:#999999"
       offset="1" /><a:midPointStop
       style="stop-color:#D4D4D4"
       offset="0" /><a:midPointStop
       style="stop-color:#D4D4D4"
       offset="0.5" /><a:midPointStop
       style="stop-color:#999999"
       offset="1" /></linearGradient><path
     style="fill:url(#linearGradient3137)"
     id="path153"
     d="m 45.064,46.051 -20.523,63.637 c -0.071,0.218 -0.039,0.46 0.088,0.652 0.125,0.19 0.332,0.315 0.562,0.341 l 62.365,6.271 c 0.377,0.038 0.723,-0.207 0.815,-0.574 l 15.84,-63.745 c 0.054,-0.215 0.012,-0.44 -0.113,-0.622 -0.128,-0.179 -0.324,-0.297 -0.543,-0.321 L 45.872,45.524 c -0.361,-0.036 -0.698,0.184 -0.808,0.527 z m 1.26,1.058 c 1.188,0.126 54.526,5.827 56.196,6.007 -0.405,1.633 -15.162,61.016 -15.47,62.255 -1.267,-0.128 -58.969,-5.931 -60.77,-6.113 0.558,-1.727 19.677,-61.008 20.044,-62.149 z" /></g><g
   transform="matrix(0.82579041,0,0,0.84600666,21.159653,18.1809)"
   id="g155"><g
     style="opacity:0.1"
     id="g157"><path
       style="fill:#000030"
       id="path159"
       d="m 114.658,73.821 c -1.962,-3.588 -4.534,-5.956 -5.85,-5.392 L 69.468,85.423 C 69.435,85.367 59.049,97.777 59.049,97.777 l 0.057,0.009 -0.003,0.006 17.373,0.337 0.045,0.053 39.325,-16.883 c 1.285,-0.63 0.781,-3.885 -1.188,-7.478 z" /></g><linearGradient
     gradientTransform="matrix(0.9121,0.4099,-0.4099,0.9121,1486.1229,-457.4578)"
     y2="1056.0115"
     x2="-1075.9254"
     y1="1056.168"
     x1="-1082.9839"
     gradientUnits="userSpaceOnUse"
     id="linearGradient3148"><stop
       id="stop3150"
       style="stop-color:#FFAE00"
       offset="0" /><stop
       id="stop3152"
       style="stop-color:#BB4400"
       offset="1" /><a:midPointStop
       style="stop-color:#FFAE00"
       offset="0" /><a:midPointStop
       style="stop-color:#FFAE00"
       offset="0.5" /><a:midPointStop
       style="stop-color:#BB4400"
       offset="1" /></linearGradient><path
     style="fill:url(#linearGradient3139)"
     id="path166"
     d="m 73.897,84.913 0.071,0.016 20.778,-45.481 c 0.627,-1.557 -1.967,-4.184 -5.984,-6.011 -4.007,-1.828 -7.693,-2.063 -8.389,-0.542 L 59.656,78.491 c -0.112,-0.048 -0.221,19.336 -0.221,19.336 l 0.054,-0.036 0.002,0.009 1.362,-0.938 13.044,-11.949 z" /><path
     style="fill:#fff0dc"
     id="path168"
     d="M 61.125,78.428 60.432,95.68 72.916,83.744 72.83,83.706 c 0.093,-0.064 0.178,-0.136 0.246,-0.217 L 73.14,83.52 93.036,39.916 92.972,39.89 c 0.594,-1.299 -1.581,-3.562 -4.858,-5.057 -3.275,-1.495 -6.409,-1.654 -7.002,-0.357 l -19.893,43.601 -0.094,0.351 z" /><linearGradient
     y2="48.500702"
     x2="77.010002"
     y1="100.9199"
     x1="52.900902"
     gradientUnits="userSpaceOnUse"
     id="linearGradient3156"><stop
       id="stop3158"
       style="stop-color:#FFFFFF"
       offset="0" /><stop
       id="stop3160"
       style="stop-color:#FFEB00"
       offset="1" /><a:midPointStop
       style="stop-color:#FFFFFF"
       offset="0" /><a:midPointStop
       style="stop-color:#FFFFFF"
       offset="0.5" /><a:midPointStop
       style="stop-color:#FFEB00"
       offset="1" /></linearGradient><path
     style="fill:url(#linearGradient3141)"
     id="path175"
     d="m 81.233,34.215 c -0.404,0.997 0.756,2.529 2.771,3.857 L 64.038,81.828 C 62.26,80.667 61.218,79.1 61.189,78.099 l 20.036,-43.89 0.008,0.006 z" /><linearGradient
     y2="50.165798"
     x2="86.208298"
     y1="101.4902"
     x1="62.463902"
     gradientUnits="userSpaceOnUse"
     id="linearGradient3163"><stop
       id="stop3165"
       style="stop-color:#FFFFD9"
       offset="0" /><stop
       id="stop3167"
       style="stop-color:#FF9A2B"
       offset="1" /><a:midPointStop
       style="stop-color:#FFFFD9"
       offset="0" /><a:midPointStop
       style="stop-color:#FFFFD9"
       offset="0.5" /><a:midPointStop
       style="stop-color:#FF9A2B"
       offset="1" /></linearGradient><path
     style="fill:url(#linearGradient3143)"
     id="path182"
     d="m 73.271,83.346 c -0.451,0.991 -2.459,1.089 -4.769,0.476 L 88.459,40.085 c 2.266,0.614 4.126,0.47 4.606,-0.472 L 93.19,39.67 73.831,82.093 c -0.007,0.036 -0.457,1.024 -0.56,1.253 z" /><linearGradient
     y2="44.146999"
     x2="83.82"
     y1="108.6143"
     x1="54.7822"
     gradientUnits="userSpaceOnUse"
     id="linearGradient3170"><stop
       id="stop3172"
       style="stop-color:#FFFFE8"
       offset="0" /><stop
       id="stop3174"
       style="stop-color:#FFBD00"
       offset="1" /><a:midPointStop
       style="stop-color:#FFFFE8"
       offset="0" /><a:midPointStop
       style="stop-color:#FFFFE8"
       offset="0.5" /><a:midPointStop
       style="stop-color:#FFBD00"
       offset="1" /></linearGradient><path
     style="fill:url(#linearGradient3145)"
     id="path189"
     d="M 66.076,82.944 C 65.332,82.606 64.651,82.225 64.038,81.828 L 84.004,38.072 c 0.625,0.41 1.325,0.804 2.092,1.153 0.808,0.369 1.608,0.656 2.363,0.858 L 68.502,83.821 c -0.773,-0.204 -1.598,-0.498 -2.426,-0.877 z" /><path
     style="opacity:0.4;fill:#000030"
     id="path191"
     d="m 60.669,88.878 -0.251,6.854 4.454,-4.251 c 0,0 -0.792,0.199 -2.266,-0.56 -1.951,-1 -1.937,-2.043 -1.937,-2.043 z" /></g></svg>