<?xml version="1.0" encoding="UTF-8" standalone="no"?>
<!-- Generator: Adobe Illustrator 10.0.3, SVG Export Plug-In . SVG Version: 3.0.0 Build 77)  -->

<svg
   xmlns:a="http://ns.adobe.com/AdobeSVGViewerExtensions/3.0/"
   xmlns:dc="http://purl.org/dc/elements/1.1/"
   xmlns:cc="http://creativecommons.org/ns#"
   xmlns:rdf="http://www.w3.org/1999/02/22-rdf-syntax-ns#"
   xmlns:svg="http://www.w3.org/2000/svg"
   xmlns="http://www.w3.org/2000/svg"
   xmlns:xlink="http://www.w3.org/1999/xlink"
   xmlns:sodipodi="http://sodipodi.sourceforge.net/DTD/sodipodi-0.dtd"
   xmlns:inkscape="http://www.inkscape.org/namespaces/inkscape"
   width="128"
   height="128"
   viewBox="0 0 128 128"
   overflow="visible"
   enable-background="new 0 0 128 128"
   xml:space="preserve"
   id="svg2"
   sodipodi:version="0.32"
   inkscape:version="0.92.1 r15371"
   sodipodi:docname="folder_archive3.svg"
   inkscape:output_extension="org.inkscape.output.svg.inkscape"
   inkscape:export-filename="/tmp/folder_archive1.png"
   inkscape:export-xdpi="180"
   inkscape:export-ydpi="180"
   version="1.1"><metadata
     id="metadata121"><rdf:RDF><cc:Work
         rdf:about=""><dc:format>image/svg+xml</dc:format><dc:type
           rdf:resource="http://purl.org/dc/dcmitype/StillImage" /></cc:Work></rdf:RDF></metadata><defs
     id="defs119"><inkscape:perspective
       sodipodi:type="inkscape:persp3d"
       inkscape:vp_x="0 : 64 : 1"
       inkscape:vp_y="0 : 1000 : 0"
       inkscape:vp_z="128 : 64 : 1"
       inkscape:persp3d-origin="64 : 42.666667 : 1"
       id="perspective123" /><linearGradient
       id="linearGradient22140"><stop
         id="stop22142"
         offset="0"
         style="stop-color:black;stop-opacity:0;" /><stop
         style="stop-color:black;stop-opacity:1;"
         offset="0.5"
         id="stop22148" /><stop
         id="stop22144"
         offset="1"
         style="stop-color:black;stop-opacity:0;" /></linearGradient><inkscape:perspective
       id="perspective3124"
       inkscape:persp3d-origin="24 : 16 : 1"
       inkscape:vp_z="48 : 24 : 1"
       inkscape:vp_y="0 : 1000 : 0"
       inkscape:vp_x="0 : 24 : 1"
       sodipodi:type="inkscape:persp3d" /><linearGradient
       id="linearGradient4633"><stop
         style="stop-color:#ffffff;stop-opacity:1"
         offset="0"
         id="stop4635" /><stop
         style="stop-color:#ffffff;stop-opacity:1"
         offset="1"
         id="stop4637" /></linearGradient><linearGradient
       id="linearGradient4564"><stop
         id="stop4566"
         offset="0"
         style="stop-color:#007e00;stop-opacity:1" /><stop
         style="stop-color:#00fa00;stop-opacity:1"
         offset="0.71453762"
         id="stop4572" /><stop
         id="stop4568"
         offset="1"
         style="stop-color:#ecffec;stop-opacity:1" /></linearGradient><linearGradient
       id="linearGradient4556"><stop
         id="stop4558"
         offset="0"
         style="stop-color:#004e00;stop-opacity:1" /><stop
         id="stop4560"
         offset="1"
         style="stop-color:#1fd000;stop-opacity:1" /></linearGradient><linearGradient
       id="linearGradient4523"
       inkscape:collect="always"><stop
         id="stop4525"
         offset="0"
         style="stop-color:#ffbe70;stop-opacity:1" /><stop
         id="stop4527"
         offset="1"
         style="stop-color:#ffbd70;stop-opacity:0" /></linearGradient><linearGradient
       id="linearGradient4513"
       inkscape:collect="always"><stop
         id="stop4515"
         offset="0"
         style="stop-color:#784726;stop-opacity:1;" /><stop
         id="stop4517"
         offset="1"
         style="stop-color:#8d5828;stop-opacity:1" /></linearGradient><linearGradient
       id="linearGradient4505"
       inkscape:collect="always"><stop
         id="stop4507"
         offset="0"
         style="stop-color:#dc952b;stop-opacity:1" /><stop
         id="stop4509"
         offset="1"
         style="stop-color:#784726;stop-opacity:1" /></linearGradient><linearGradient
       id="linearGradient4497"
       inkscape:collect="always"><stop
         id="stop4499"
         offset="0"
         style="stop-color:#d08c2a;stop-opacity:1" /><stop
         id="stop4501"
         offset="1"
         style="stop-color:#de972b;stop-opacity:1" /></linearGradient><linearGradient
       id="linearGradient4489"
       inkscape:collect="always"><stop
         id="stop4491"
         offset="0"
         style="stop-color:#8b5627;stop-opacity:1" /><stop
         id="stop4493"
         offset="1"
         style="stop-color:#ab7029;stop-opacity:0.98039216" /></linearGradient><linearGradient
       id="linearGradient4475"
       inkscape:collect="always"><stop
         id="stop4477"
         offset="0"
         style="stop-color:#ae7229;stop-opacity:1" /><stop
         id="stop4479"
         offset="1"
         style="stop-color:#7f4d27;stop-opacity:1" /></linearGradient><linearGradient
       id="linearGradient4467"
       inkscape:collect="always"><stop
         id="stop4469"
         offset="0"
         style="stop-color:#de972b;stop-opacity:1" /><stop
         id="stop4471"
         offset="1"
         style="stop-color:#ad7129;stop-opacity:1" /></linearGradient><linearGradient
       id="linearGradient4443"
       inkscape:collect="always"><stop
         id="stop4445"
         offset="0"
         style="stop-color:#ffdf8e;stop-opacity:1" /><stop
         id="stop4447"
         offset="1"
         style="stop-color:#ffc44b;stop-opacity:1" /></linearGradient><linearGradient
       id="linearGradient4427"
       inkscape:collect="always"><stop
         id="stop4429"
         offset="0"
         style="stop-color:#ffc057;stop-opacity:1" /><stop
         id="stop4431"
         offset="1"
         style="stop-color:#ffe6a8;stop-opacity:1" /></linearGradient><linearGradient
       id="linearGradient4411"
       inkscape:collect="always"><stop
         id="stop4413"
         offset="0"
         style="stop-color:#ffc560;stop-opacity:1" /><stop
         id="stop4415"
         offset="1"
         style="stop-color:#ffffdb;stop-opacity:1" /></linearGradient><linearGradient
       id="linearGradient4357"
       inkscape:collect="always"><stop
         id="stop4359"
         offset="0"
         style="stop-color:#784726;stop-opacity:1;" /><stop
         id="stop4361"
         offset="1"
         style="stop-color:#784726;stop-opacity:0;" /></linearGradient><linearGradient
       id="linearGradient4349"
       inkscape:collect="always"><stop
         id="stop4351"
         offset="0"
         style="stop-color:#fffad1;stop-opacity:1" /><stop
         id="stop4353"
         offset="1"
         style="stop-color:#ffb82d;stop-opacity:1" /></linearGradient><linearGradient
       y2="71.530899"
       x2="67.389603"
       y1="61.564899"
       x1="29.304701"
       gradientUnits="userSpaceOnUse"
       id="SVGID_1_"><stop
         id="stop9"
         style="stop-color:#FFF8D1"
         offset="0" /><stop
         id="stop11"
         style="stop-color:#FFE6A8"
         offset="1" /></linearGradient><linearGradient
       y2="61.638199"
       x2="28.1891"
       y1="122.5498"
       x1="59.660198"
       gradientUnits="userSpaceOnUse"
       id="SVGID_2_"><stop
         id="stop16-7"
         style="stop-color:#FFFFDB"
         offset="0" /><stop
         id="stop18-5"
         style="stop-color:#FFC560"
         offset="1" /></linearGradient><linearGradient
       y2="75.376404"
       x2="106.1222"
       y1="63.757801"
       x1="61.721699"
       gradientUnits="userSpaceOnUse"
       id="SVGID_3_"><stop
         id="stop23"
         style="stop-color:#FFF8D1"
         offset="0" /><stop
         id="stop25"
         style="stop-color:#FFE6A8"
         offset="1" /></linearGradient><linearGradient
       y2="68.024002"
       x2="99.357697"
       y1="120.7891"
       x1="60.439499"
       gradientUnits="userSpaceOnUse"
       id="SVGID_4_"><stop
         id="stop30"
         style="stop-color:#FFFFDB"
         offset="0" /><stop
         id="stop32"
         style="stop-color:#FFC560"
         offset="1" /></linearGradient><linearGradient
       y2="70.908401"
       x2="103.1233"
       y1="85.877899"
       x1="77.424797"
       gradientUnits="userSpaceOnUse"
       id="SVGID_5_"><stop
         id="stop38-3"
         style="stop-color:#FFBE52"
         offset="0" /><stop
         id="stop40"
         style="stop-color:#FFF8D1"
         offset="1" /></linearGradient><linearGradient
       y2="63.0401"
       x2="24.5427"
       y1="81.389603"
       x1="43.333"
       gradientUnits="userSpaceOnUse"
       id="SVGID_6_"><stop
         id="stop45-5"
         style="stop-color:#FFBE52"
         offset="0" /><stop
         id="stop47-6"
         style="stop-color:#FFF8D1"
         offset="1" /></linearGradient><linearGradient
       y2="24.005501"
       x2="47.803799"
       y1="56.201698"
       x1="40.977501"
       gradientUnits="userSpaceOnUse"
       id="SVGID_7_"><stop
         id="stop52"
         style="stop-color:#FFBE52"
         offset="0" /><stop
         id="stop54"
         style="stop-color:#FFE6A8"
         offset="1" /></linearGradient><linearGradient
       y2="43.716801"
       x2="90.281898"
       y1="67.4814"
       x1="94.864304"
       gradientUnits="userSpaceOnUse"
       id="SVGID_8_"><stop
         id="stop59-2"
         style="stop-color:#FFBE52"
         offset="0" /><stop
         id="stop61-9"
         style="stop-color:#FFE6A8"
         offset="1" /></linearGradient><linearGradient
       gradientTransform="translate(0,-60)"
       gradientUnits="userSpaceOnUse"
       y2="81.28553"
       x2="98.020981"
       y1="123.83735"
       x1="59.422821"
       id="linearGradient4355"
       xlink:href="#linearGradient4349"
       inkscape:collect="always" /><linearGradient
       gradientUnits="userSpaceOnUse"
       y2="92.067001"
       x2="59.905998"
       y1="92.067001"
       x1="27.916"
       id="linearGradient4363"
       xlink:href="#linearGradient4357"
       inkscape:collect="always" /><linearGradient
       y2="81.28553"
       x2="98.020981"
       y1="123.83735"
       x1="59.422821"
       gradientUnits="userSpaceOnUse"
       id="linearGradient4380"
       xlink:href="#linearGradient4349"
       inkscape:collect="always" /><linearGradient
       gradientUnits="userSpaceOnUse"
       y2="77.768211"
       x2="30.274773"
       y1="122.90414"
       x1="59.26997"
       id="linearGradient4393"
       xlink:href="#linearGradient4349"
       inkscape:collect="always" /><linearGradient
       gradientTransform="translate(0,-20)"
       gradientUnits="userSpaceOnUse"
       y2="88.974571"
       x2="107.67097"
       y1="109.30297"
       x1="69.759293"
       id="linearGradient4417"
       xlink:href="#linearGradient4411"
       inkscape:collect="always" /><linearGradient
       gradientUnits="userSpaceOnUse"
       y2="60.059631"
       x2="22.350143"
       y1="86.245361"
       x1="48.82605"
       id="linearGradient4425"
       xlink:href="#linearGradient4411"
       inkscape:collect="always" /><linearGradient
       gradientUnits="userSpaceOnUse"
       y2="47.650745"
       x2="100.06258"
       y1="66.773224"
       x1="99.615517"
       id="linearGradient4433"
       xlink:href="#linearGradient4427"
       inkscape:collect="always" /><linearGradient
       gradientUnits="userSpaceOnUse"
       y2="41.508499"
       x2="68.916"
       y1="41.508499"
       x1="19.268999"
       id="linearGradient4441"
       xlink:href="#linearGradient4427"
       inkscape:collect="always" /><linearGradient
       gradientUnits="userSpaceOnUse"
       y2="69.567497"
       x2="99.917"
       y1="69.567497"
       x1="67.927002"
       id="linearGradient4449"
       xlink:href="#linearGradient4443"
       inkscape:collect="always" /><linearGradient
       gradientUnits="userSpaceOnUse"
       y2="72.252556"
       x2="28.614754"
       y1="73.11393"
       x1="68.055977"
       id="linearGradient4457"
       xlink:href="#linearGradient4443"
       inkscape:collect="always" /><linearGradient
       gradientTransform="translate(0,60)"
       gradientUnits="userSpaceOnUse"
       y2="30.001637"
       x2="60.140209"
       y1="-1.8054068"
       x1="13.956039"
       id="linearGradient4473"
       xlink:href="#linearGradient4467"
       inkscape:collect="always" /><linearGradient
       gradientTransform="translate(0,60)"
       gradientUnits="userSpaceOnUse"
       y2="18.966499"
       x2="119.102"
       y1="18.966499"
       x1="58.155998"
       id="linearGradient4481"
       xlink:href="#linearGradient4475"
       inkscape:collect="always" /><linearGradient
       gradientTransform="translate(0,60)"
       gradientUnits="userSpaceOnUse"
       y2="-12.008841"
       x2="86.569275"
       y1="8.106966"
       x1="86.595085"
       id="linearGradient4495"
       xlink:href="#linearGradient4489"
       inkscape:collect="always" /><linearGradient
       gradientTransform="translate(0,60)"
       gradientUnits="userSpaceOnUse"
       y2="-19.695011"
       x2="33.560707"
       y1="0.42079529"
       x1="33.648834"
       id="linearGradient4503"
       xlink:href="#linearGradient4497"
       inkscape:collect="always" /><linearGradient
       gradientTransform="translate(0,60)"
       gradientUnits="userSpaceOnUse"
       y2="62.476887"
       x2="44.662651"
       y1="16.524172"
       x1="44.060383"
       id="linearGradient4511"
       xlink:href="#linearGradient4505"
       inkscape:collect="always" /><linearGradient
       gradientTransform="translate(0,60)"
       gradientUnits="userSpaceOnUse"
       y2="19.524672"
       x2="78.590675"
       y1="63.450062"
       x1="78.203995"
       id="linearGradient4519"
       xlink:href="#linearGradient4513"
       inkscape:collect="always" /><linearGradient
       gradientTransform="translate(0,60)"
       gradientUnits="userSpaceOnUse"
       y2="37.816578"
       x2="59.3228"
       y1="59.798218"
       x1="59.635868"
       id="linearGradient4529"
       xlink:href="#linearGradient4523"
       inkscape:collect="always" /><linearGradient
       gradientTransform="translate(0,20)"
       gradientUnits="userSpaceOnUse"
       y2="-13.5158"
       x2="63.746243"
       y1="51.183994"
       x1="64.455986"
       id="linearGradient4562"
       xlink:href="#linearGradient4556"
       inkscape:collect="always" /><linearGradient
       gradientTransform="translate(-20)"
       gradientUnits="userSpaceOnUse"
       y2="6.484199"
       x2="80.007393"
       y1="71.18399"
       x1="80.860443"
       id="linearGradient4570"
       xlink:href="#linearGradient4564"
       inkscape:collect="always" /><linearGradient
       y2="-13.5158"
       x2="63.746243"
       y1="51.183994"
       x1="64.455986"
       gradientTransform="translate(0,20)"
       gradientUnits="userSpaceOnUse"
       id="linearGradient4631"
       xlink:href="#linearGradient4633"
       inkscape:collect="always" /><filter
       color-interpolation-filters="sRGB"
       y="-0.25"
       x="-0.25"
       height="1.5"
       width="1.5"
       inkscape:label="Drop shadow"
       id="filter4639"><feGaussianBlur
         result="blur"
         stdDeviation="2"
         in="SourceAlpha"
         id="feGaussianBlur4641" /><feColorMatrix
         values="1 0 0 0 0 0 1 0 0 0 0 0 1 0 0 0 0 0 0.5 0 "
         type="matrix"
         result="bluralpha"
         id="feColorMatrix4643" /><feOffset
         result="offsetBlur"
         dy="2"
         dx="2"
         in="bluralpha"
         id="feOffset4645" /><feMerge
         id="feMerge4647"><feMergeNode
           in="offsetBlur"
           id="feMergeNode4649" /><feMergeNode
           in="SourceGraphic"
           id="feMergeNode4651" /></feMerge></filter><filter
       color-interpolation-filters="sRGB"
       y="-0.25"
       x="-0.25"
       height="1.5"
       width="1.5"
       inkscape:label="Drop shadow"
       id="filter4667"><feGaussianBlur
         result="blur"
         stdDeviation="2"
         in="SourceAlpha"
         id="feGaussianBlur4669" /><feColorMatrix
         values="1 0 0 0 0 0 1 0 0 0 0 0 1 0 0 0 0 0 0.5 0 "
         type="matrix"
         result="bluralpha"
         id="feColorMatrix4671" /><feOffset
         result="offsetBlur"
         dy="2"
         dx="2"
         in="bluralpha"
         id="feOffset4673" /><feMerge
         id="feMerge4675"><feMergeNode
           in="offsetBlur"
           id="feMergeNode4677" /><feMergeNode
           in="SourceGraphic"
           id="feMergeNode4679" /></feMerge></filter></defs><sodipodi:namedview
     inkscape:window-height="1009"
     inkscape:window-width="1920"
     inkscape:pageshadow="2"
     inkscape:pageopacity="0.0"
     guidetolerance="10.0"
     gridtolerance="10.0"
     objecttolerance="10.0"
     borderopacity="1.0"
     bordercolor="#666666"
     pagecolor="#ffffff"
     id="base"
     showgrid="false"
     inkscape:zoom="3.640625"
     inkscape:cx="-19.227468"
     inkscape:cy="64"
     inkscape:window-x="0"
     inkscape:window-y="0"
     inkscape:current-layer="svg2"
     inkscape:window-maximized="1" /><g
     id="Layer_1"><g
       id="g5"><g
         id="g7"><linearGradient
           id="XMLID_1_"
           gradientUnits="userSpaceOnUse"
           x1="67.0205"
           y1="-22.6318"
           x2="60.5043"
           y2="123.7301"><stop
             offset="0.382"
             style="stop-color:#DCF0FF"
             id="stop10" /><stop
             offset="0.4435"
             style="stop-color:#C9E6FF"
             id="stop12" /><stop
             offset="0.6311"
             style="stop-color:#92CAFF"
             id="stop14" /><stop
             offset="0.793"
             style="stop-color:#6AB5FF"
             id="stop16" /><stop
             offset="0.9213"
             style="stop-color:#52A9FF"
             id="stop18" /><stop
             offset="1"
             style="stop-color:#49A4FF"
             id="stop20" /><a:midPointStop
             offset="0.382"
             style="stop-color:#DCF0FF" /><a:midPointStop
             offset="0.4"
             style="stop-color:#DCF0FF" /><a:midPointStop
             offset="1"
             style="stop-color:#49A4FF" /></linearGradient><path
           fill-rule="evenodd"
           clip-rule="evenodd"
           fill="url(#XMLID_1_)"
           d="M101.944,22.202      c-2.628-9.266-4.355-16.555-4.776-18.001c-0.604-2.081-2.325-2.449-3.891-1.492c-2.003,1.228-45.738,25.562-45.738,25.562      s-3.47,2.491-7.073,1.264c-3.601-1.23-7.215-7.521-13.401-4.884c-4.749,2.026-10.732,5.412-16.307,9.101      c-7.002,4.631-2.34,10.637-2.664,14.347c-0.287,3.28-5.031,5.204-5.031,5.204S9.776,71.266,17.999,88.81      s21.085,36.104,21.085,36.104c0.312,0.442,0.862,1.212,2.23,0.652c1.95-0.794,78.553-52.096,81.12-53.473      c0.462-0.245,0.773-0.591,0.987-0.935c-2.407-4.28-4.803-8.815-6.899-13.286C108.299,40.326,101.727,22.305,101.944,22.202z"
           id="path22" /><path
           fill-rule="evenodd"
           clip-rule="evenodd"
           fill="#FFFFFF"
           d="M101.944,23.202c-2.628-9.266-4.355-16.555-4.776-18.001      c-0.604-2.081-2.325-2.449-3.891-1.492c-2.003,1.228-45.738,25.562-45.738,25.562s-3.47,2.491-7.073,1.264      c-3.601-1.23-7.215-7.521-13.401-4.884c-4.749,2.026-10.732,5.412-16.307,9.101c-7.002,4.631-2.34,10.637-2.664,14.347      c-0.287,3.28-5.031,5.204-5.031,5.204S9.776,72.266,17.999,89.81s21.085,36.104,21.085,36.104      c0.312,0.442,0.862,1.212,2.23,0.652c1.95-0.794,78.553-52.096,81.12-53.473c0.462-0.245,0.773-0.591,0.987-0.935      c-2.407-4.28-4.803-8.815-6.899-13.286C108.299,41.326,101.727,23.305,101.944,23.202z"
           id="path24" /><linearGradient
           id="XMLID_2_"
           gradientUnits="userSpaceOnUse"
           x1="8.5332"
           y1="64.3467"
           x2="120.7432"
           y2="64.3467"><stop
             offset="0.0056"
             style="stop-color:#FFFFFF"
             id="stop27" /><stop
             offset="0.3989"
             style="stop-color:#87BBFF"
             id="stop29" /><stop
             offset="1"
             style="stop-color:#1E65FF"
             id="stop31" /><a:midPointStop
             offset="0.0056"
             style="stop-color:#FFFFFF" /><a:midPointStop
             offset="0.5"
             style="stop-color:#FFFFFF" /><a:midPointStop
             offset="0.3989"
             style="stop-color:#87BBFF" /><a:midPointStop
             offset="0.5"
             style="stop-color:#87BBFF" /><a:midPointStop
             offset="1"
             style="stop-color:#1E65FF" /></linearGradient><path
           fill="url(#XMLID_2_)"
           d="M100.722,25.434C98.269,16.796,96.659,10,96.267,8.651c-0.563-1.94-2.166-2.284-3.627-1.392      c-1.867,1.145-42.641,23.83-42.641,23.83s-3.235,2.324-6.595,1.18c-3.357-1.148-6.727-7.014-12.496-4.554      c-4.426,1.888-10.004,5.044-15.201,8.483c-6.527,4.318-2.182,9.918-2.483,13.376c-0.269,3.059-4.69,4.852-4.69,4.852      s6.258,16.748,13.926,33.106c7.664,16.355,19.656,33.659,19.656,33.659c0.291,0.411,0.805,1.127,2.079,0.607      c1.818-0.742,73.235-48.569,75.63-49.854c0.43-0.229,0.719-0.552,0.919-0.871c-2.244-3.991-4.479-8.22-6.432-12.387      C106.645,42.33,100.516,25.529,100.722,25.434z"
           id="path33" /><linearGradient
           id="XMLID_3_"
           gradientUnits="userSpaceOnUse"
           x1="87.4238"
           y1="71.2764"
           x2="10.7515"
           y2="41.6424"><stop
             offset="0"
             style="stop-color:#001EA4"
             id="stop36" /><stop
             offset="1"
             style="stop-color:#398BFF"
             id="stop38" /><a:midPointStop
             offset="0"
             style="stop-color:#001EA4" /><a:midPointStop
             offset="0.5"
             style="stop-color:#001EA4" /><a:midPointStop
             offset="1"
             style="stop-color:#398BFF" /></linearGradient><path
           fill="url(#XMLID_3_)"
           d="M92.703,1.771c-1.961,1.202-45.262,25.296-45.698,25.538l-0.053,0.029L46.9,27.375      c-0.03,0.021-3.072,2.143-6.08,1.118c-0.959-0.328-2.033-1.171-3.17-2.062c-2.756-2.162-6.186-4.853-11.018-2.792      C22.007,25.612,16,28.964,10.15,32.834c-5.683,3.758-4.515,8.488-3.662,11.941c0.301,1.217,0.585,2.367,0.51,3.227      c-0.187,2.129-3.203,3.812-4.35,4.281L1.66,52.688l0.373,1c0.066,0.18,6.822,18.206,14.97,35.589      c8.167,17.426,21.048,36.077,21.177,36.264c0.906,1.288,2.1,1.638,3.551,1.044c1.1-0.448,18.391-11.916,46.737-30.75      c16.412-10.904,33.384-22.181,34.486-22.771c0.572-0.304,1.045-0.749,1.401-1.323l0.345-0.553l-0.319-0.567      c-2.657-4.725-4.966-9.17-6.862-13.215c-8.084-17.246-14.25-34.148-14.492-35.332l-0.008-0.04l-0.016-0.13      c-1.819-6.414-3.201-11.858-4.026-15.111l-0.752-2.896c-0.367-1.263-1.13-2.176-2.148-2.57      C95.033,0.92,93.835,1.078,92.703,1.771z M93.853,3.646c0.524-0.32,1.045-0.42,1.429-0.271c0.467,0.181,0.709,0.716,0.83,1.132      c0,0.001,0.732,2.824,0.732,2.824c0.829,3.264,2.215,8.727,4.042,15.17c0,0,0.013-0.025,0.013-0.027      c0.215,1.321,1.325,4.264,4.146,11.424c2.339,5.936,6.055,14.994,10.482,24.44c1.819,3.88,4.036,8.141,6.546,12.636      c-0.057,0.041-0.091,0.113-0.153,0.146c-1.198,0.643-16.709,10.948-34.669,22.881c-20.022,13.303-44.941,29.859-46.379,30.557      c-0.537,0.22-0.611,0.113-0.887-0.278c-0.124-0.179-12.902-18.682-20.989-35.938C11.938,73.286,5.934,57.752,4.449,53.855      c1.564-0.83,4.485-2.752,4.74-5.662c0.014-0.161,0.021-0.324,0.021-0.488c0-1.085-0.287-2.242-0.586-3.457      c-0.323-1.307-0.65-2.631-0.65-3.936c0-1.972,0.748-3.896,3.39-5.645c5.743-3.799,11.623-7.082,16.132-9.006      c3.635-1.55,6.259,0.509,8.797,2.5c1.287,1.01,2.504,1.965,3.816,2.413c3.917,1.334,7.553-1.054,8.005-1.366      C50.246,28.023,91.861,4.867,93.853,3.646z"
           id="path40" /><path
           fill="none"
           d="M128,128H0V0h128V128z"
           id="path42" /></g><linearGradient
         id="XMLID_4_"
         gradientUnits="userSpaceOnUse"
         x1="32.1113"
         y1="59.9604"
         x2="85.1559"
         y2="67.4256"><stop
           offset="0"
           style="stop-color:#CDF8FF"
           id="stop45" /><stop
           offset="0.1068"
           style="stop-color:#A1D6FF"
           id="stop47" /><stop
           offset="0.2858"
           style="stop-color:#5CA2FF"
           id="stop49" /><stop
           offset="0.4358"
           style="stop-color:#2A7BFF"
           id="stop51" /><stop
           offset="0.549"
           style="stop-color:#0C64FF"
           id="stop53" /><stop
           offset="0.6124"
           style="stop-color:#005BFF"
           id="stop55" /><stop
           offset="0.7113"
           style="stop-color:#0056FF"
           id="stop57" /><stop
           offset="0.8313"
           style="stop-color:#0047FF"
           id="stop59" /><stop
           offset="0.9616"
           style="stop-color:#002FFF"
           id="stop61" /><stop
           offset="1"
           style="stop-color:#0026FF"
           id="stop63" /><a:midPointStop
           offset="0"
           style="stop-color:#CDF8FF" /><a:midPointStop
           offset="0.4214"
           style="stop-color:#CDF8FF" /><a:midPointStop
           offset="0.6124"
           style="stop-color:#005BFF" /><a:midPointStop
           offset="0.6667"
           style="stop-color:#005BFF" /><a:midPointStop
           offset="1"
           style="stop-color:#0026FF" /></linearGradient><path
         opacity="0.4"
         fill="url(#XMLID_4_)"
         d="M40.3,124.545c0,0-5.63-13.158-9.86-26.29c-3.762-11.693-8.514-27.498-5.066-30.032     c3.033-2.229,17.423-10.991,21.643-13.982c3.77-2.672,2.719-9.599,5.253-14.022c1.243-2.17,3.354-3.299,3.354-3.299     S105.001,8.47,107.793,6.608c1.351-0.899,3.126,0.315,3.126,2.258c0,2.669,2.196,18.056,5.485,33.048     c3.294,15.017,8.718,28.038,8.718,28.038s-0.133,1.522-1.458,2.23c-2.572,1.375-79.172,52.676-81.124,53.473     C40.588,126.451,40.3,124.545,40.3,124.545z"
         id="path65" /><defs
         id="defs67"><filter
           id="Adobe_OpacityMaskFilter"
           filterUnits="userSpaceOnUse"
           x="37"
           y="9.75"
           width="86.795"
           height="115.955"><feColorMatrix
             type="matrix"
             values="1 0 0 0 0  0 1 0 0 0  0 0 1 0 0  0 0 0 1 0"
             id="feColorMatrix70" /></filter></defs><mask
         maskUnits="userSpaceOnUse"
         x="37"
         y="9.75"
         width="86.795"
         height="115.955"
         id="XMLID_5_"><g
           filter="url(#Adobe_OpacityMaskFilter)"
           id="g73"><linearGradient
             id="XMLID_6_"
             gradientUnits="userSpaceOnUse"
             x1="101.9082"
             y1="30.7671"
             x2="12.619"
             y2="86.1555"><stop
               offset="0"
               style="stop-color:#FFFFFF"
               id="stop76" /><stop
               offset="1"
               style="stop-color:#000000"
               id="stop78" /><a:midPointStop
               offset="0"
               style="stop-color:#FFFFFF" /><a:midPointStop
               offset="0.5"
               style="stop-color:#FFFFFF" /><a:midPointStop
               offset="1"
               style="stop-color:#000000" /></linearGradient><path
             fill="url(#XMLID_6_)"
             d="M125.483,115.934H-1.522V-4.865h127.006V115.934z"
             id="path80" /></g></mask><linearGradient
         id="XMLID_7_"
         gradientUnits="userSpaceOnUse"
         x1="46.1694"
         y1="55.1499"
         x2="97.3291"
         y2="76.854"><stop
           offset="0"
           style="stop-color:#6AC5FF"
           id="stop83" /><stop
           offset="0.1262"
           style="stop-color:#61B3F6"
           id="stop85" /><stop
           offset="0.3781"
           style="stop-color:#4886E0"
           id="stop87" /><stop
           offset="0.7286"
           style="stop-color:#213DBD"
           id="stop89" /><stop
           offset="1"
           style="stop-color:#00009F"
           id="stop91" /><a:midPointStop
           offset="0"
           style="stop-color:#6AC5FF" /><a:midPointStop
           offset="0.5526"
           style="stop-color:#6AC5FF" /><a:midPointStop
           offset="1"
           style="stop-color:#00009F" /></linearGradient><path
         opacity="0.4"
         mask="url(#XMLID_5_)"
         fill="url(#XMLID_7_)"
         d="M115.251,43.631c-0.67-3.055-4.683-30.909-5.251-33.881     c-7.5,68.5-57.5,36.75-73,98.75c-1.066,4.266,3.66,16.117,3.66,16.117s0.283,1.868,2.196,1.088     c1.913-0.781,76.988-51.061,79.51-52.408c1.299-0.694,1.429-2.187,1.429-2.187S118.479,58.348,115.251,43.631z"
         id="path93" /><path
         fill="#FFFFFF"
         d="M28.949,69.737c3.033-2.228,17.424-10.99,21.643-13.982c3.77-2.672,2.721-9.6,5.253-14.022     c1.244-2.17,3.354-3.3,3.354-3.3s42.856-24.691,50.972-29.57c-0.296-1.609-1.847-2.523-3.065-1.712     c-2.793,1.86-52.172,30.31-52.172,30.31s-2.109,1.129-3.354,3.3c-2.533,4.423-1.483,11.35-5.253,14.022     c-4.22,2.991-18.609,11.754-21.642,13.981c-3.449,2.534,1.303,18.339,5.066,30.031c4.23,13.134,9.86,26.291,9.86,26.291     s0.288,1.907,2.239,1.109c0.148-0.059,0.727-0.41,1.658-1.002c-1.311-3.131-5.905-14.285-9.494-25.426     C30.252,88.076,25.502,72.271,28.949,69.737z"
         id="path95" /><linearGradient
         id="XMLID_8_"
         gradientUnits="userSpaceOnUse"
         x1="57.8667"
         y1="100.9258"
         x2="120.5585"
         y2="70.7129"><stop
           offset="0"
           style="stop-color:#FFFFFF"
           id="stop98" /><stop
           offset="1"
           style="stop-color:#B1B1C5"
           id="stop100" /><a:midPointStop
           offset="0"
           style="stop-color:#FFFFFF" /><a:midPointStop
           offset="0.5"
           style="stop-color:#FFFFFF" /><a:midPointStop
           offset="1"
           style="stop-color:#B1B1C5" /></linearGradient><path
         fill="url(#XMLID_8_)"
         d="M34.57,110.088c3.049,8.195,5.729,14.457,5.729,14.457s0.288,1.906,2.24,1.11     c1.952-0.797,78.552-52.098,81.124-53.473c1.325-0.708,1.458-2.23,1.458-2.23s-2.802-6.724-5.6-16.083     C103.634,64.267,49.998,100.108,34.57,110.088z"
         id="path102" /><linearGradient
         id="XMLID_9_"
         gradientUnits="userSpaceOnUse"
         x1="18.0327"
         y1="124.1084"
         x2="116.4508"
         y2="70.4536"><stop
           offset="0"
           style="stop-color:#FFFFFF"
           id="stop105" /><stop
           offset="1"
           style="stop-color:#B1B1C5"
           id="stop107" /><a:midPointStop
           offset="0"
           style="stop-color:#FFFFFF" /><a:midPointStop
           offset="0.5"
           style="stop-color:#FFFFFF" /><a:midPointStop
           offset="1"
           style="stop-color:#B1B1C5" /></linearGradient><path
         fill="url(#XMLID_9_)"
         a:adobe-blending-mode="multiply"
         d="M119.522,53.869c-0.107,0.069-0.221,0.145-0.332,0.217     c2.44,7.683,4.63,12.942,4.63,12.942s-0.133,1.521-1.457,2.229c-2.571,1.375-79.172,52.676-81.123,53.473     c-0.902,0.369-1.445,0.157-1.773-0.176c0.523,1.263,0.833,1.99,0.833,1.99s0.288,1.906,2.24,1.11     c1.952-0.797,78.552-52.098,81.124-53.473c1.325-0.708,1.458-2.23,1.458-2.23S122.32,63.229,119.522,53.869z"
         id="path109" /><linearGradient
         id="XMLID_10_"
         gradientUnits="userSpaceOnUse"
         x1="95.627"
         y1="73.9512"
         x2="35.7537"
         y2="50.8101"><stop
           offset="0"
           style="stop-color:#001EA4"
           id="stop112" /><stop
           offset="1"
           style="stop-color:#398BFF"
           id="stop114" /><a:midPointStop
           offset="0"
           style="stop-color:#001EA4" /><a:midPointStop
           offset="0.5"
           style="stop-color:#001EA4" /><a:midPointStop
           offset="1"
           style="stop-color:#398BFF" /></linearGradient><path
         fill="url(#XMLID_10_)"
         d="M107.184,5.693c-2.731,1.82-51.617,29.988-52.111,30.272c-0.066,0.036-2.373,1.289-3.758,3.705     c-1.154,2.015-1.605,4.41-2.043,6.726c-0.548,2.906-1.064,5.651-2.893,6.946c-2.108,1.495-6.814,4.466-11.364,7.337     c-4.506,2.845-8.762,5.531-10.293,6.656c-1.098,0.808-1.665,2.348-1.665,4.863c0,4.761,2.031,13.013,6.336,26.393     c4.072,12.642,9.488,25.429,9.86,26.303c0.085,0.371,0.365,1.257,1.237,1.752c0.482,0.274,1.303,0.502,2.465,0.027     c1.098-0.448,18.279-11.843,46.446-30.558c16.554-10.997,33.671-22.37,34.781-22.964c1.461-0.78,1.967-2.318,2.035-3.104     l0.023-0.27l-0.104-0.249c-0.054-0.13-5.426-13.11-8.659-27.852c-3.341-15.228-5.46-30.459-5.46-32.812     c0-1.423-0.713-2.688-1.861-3.304C109.192,5.047,108.081,5.096,107.184,5.693z M41.578,124.734     c-0.076-0.042-0.168-0.237-0.193-0.372l-0.022-0.118l-0.052-0.132c-0.056-0.131-5.658-13.265-9.824-26.194     c-5.667-17.614-7.505-27.307-5.462-28.809c1.469-1.079,5.692-3.746,10.165-6.568c4.574-2.889,9.305-5.875,11.462-7.403     c2.552-1.81,3.178-5.126,3.782-8.333c0.402-2.137,0.82-4.348,1.789-6.04c1.062-1.853,2.902-2.867,2.922-2.878     c2.044-1.177,49.469-28.504,52.259-30.363c0.223-0.148,0.464-0.156,0.716-0.021c0.322,0.174,0.7,0.635,0.7,1.364     c0,2.868,2.272,18.522,5.511,33.284c3.012,13.73,7.844,25.924,8.65,27.914c-0.078,0.305-0.284,0.854-0.835,1.148     c-1.122,0.6-13.957,9.116-34.961,23.071c-19.897,13.219-44.659,29.671-46.087,30.364     C41.797,124.771,41.623,124.759,41.578,124.734z"
         id="path116" /></g></g><g
     style="display:inline"
     id="g544"
     transform="matrix(0.69750166,0,0,0.61661345,43.583811,50.152332)"
     inkscape:export-filename="/tmp/g544.png"
     inkscape:export-xdpi="180"
     inkscape:export-ydpi="180"><g
       style="display:inline"
       inkscape:label="tst"
       id="layer5"><g
         style="filter:url(#filter4667)"
         id="g4653"><path
           style="fill:#de972b;fill-opacity:1;stroke:none"
           d="M 67.40625,70.28125 49.125,80.78125 59.172944,89.774593 79.15625,79.15625 Z"
           id="path4459"
           inkscape:connector-curvature="0"
           sodipodi:nodetypes="ccccc" /><path
           inkscape:connector-curvature="0"
           id="polyline13"
           d="M 68.427,72 28.416,95 V 61.134 L 68.427,38.135 Z"
           style="fill:url(#linearGradient4457);fill-opacity:1;stroke:none"
           sodipodi:nodetypes="ccccc" /><path
           sodipodi:nodetypes="cccc"
           inkscape:connector-curvature="0"
           id="polygon20"
           d="M 59.406,89.135 28.416,61.134 V 95 l 30.99,28"
           style="fill:url(#linearGradient4393);fill-opacity:1;stroke:url(#linearGradient4511);stroke-width:2.5;stroke-linecap:round;stroke-linejoin:round;stroke-miterlimit:4;stroke-dasharray:none;stroke-opacity:1" /><path
           inkscape:connector-curvature="0"
           id="polygon27"
           d="M 99.417,101 V 67.135 l -30.99,-29 V 72 Z"
           style="fill:url(#linearGradient4449);fill-opacity:1;stroke:none"
           sodipodi:nodetypes="ccccc" /><path
           sodipodi:nodetypes="cccc"
           inkscape:connector-curvature="0"
           id="polyline34"
           d="m 59.406,89.135 40.01,-22 V 101 l -40.01,22"
           style="fill:url(#linearGradient4380);fill-opacity:1;stroke:url(#linearGradient4519);stroke-width:2.5;stroke-linecap:round;stroke-linejoin:round;stroke-miterlimit:4;stroke-dasharray:none" /><path
           style="fill:none;stroke:#ffffff;stroke-width:1.5;stroke-linecap:round;stroke-linejoin:miter;stroke-miterlimit:4;stroke-dasharray:none;stroke-opacity:0.78431373"
           d="M 59.591916,117.27553 59.722887,89.640597"
           id="path4533"
           inkscape:connector-curvature="0"
           sodipodi:nodetypes="cc" /><path
           inkscape:connector-curvature="0"
           id="polygon42"
           d="m 79.411,90.798 38.441,-21.231 -18.435,-2.432 -40.011,22 z"
           style="fill:url(#linearGradient4417);fill-opacity:1;stroke:url(#linearGradient4481);stroke-width:2.5;stroke-linejoin:round;stroke-miterlimit:4;stroke-dasharray:none" /><path
           style="fill:none;stroke:#ffffff;stroke-width:1px;stroke-linecap:round;stroke-linejoin:miter;stroke-opacity:1"
           d="M 30.319842,74.709874 V 94.093618"
           id="path4531"
           inkscape:connector-curvature="0"
           sodipodi:nodetypes="cc" /><path
           inkscape:connector-curvature="0"
           id="polygon49"
           d="M 41.002,84.654 10.392,57.17 28.416,61.134 59.406,89.135 Z"
           style="fill:url(#linearGradient4425);fill-opacity:1;stroke:url(#linearGradient4473);stroke-width:2.5;stroke-linejoin:round;stroke-miterlimit:4;stroke-dasharray:none" /><path
           inkscape:connector-curvature="0"
           id="polygon56"
           d="m 59.769,21.883 -40,23 8.647,16.251 40,-23 z"
           style="fill:url(#linearGradient4441);fill-opacity:1;stroke:url(#linearGradient4503);stroke-width:2.5;stroke-linejoin:round;stroke-miterlimit:4;stroke-dasharray:none" /><path
           inkscape:connector-curvature="0"
           id="polygon63"
           d="m 68.417,38.135 31,29 13.583,-13.414 -31,-29 z"
           style="fill:url(#linearGradient4433);fill-opacity:1;stroke:url(#linearGradient4495);stroke-width:2.5;stroke-linejoin:round;stroke-miterlimit:4;stroke-dasharray:none" /><path
           style="fill:none;stroke:url(#linearGradient4529);stroke-width:2.5;stroke-linecap:square;stroke-linejoin:miter;stroke-miterlimit:4;stroke-dasharray:none;stroke-opacity:1"
           d="M 31.157399,94.409787 59.745027,120.00944 97.000635,99.460965"
           id="path4521"
           inkscape:connector-curvature="0"
           sodipodi:nodetypes="ccc" /></g></g><g
       style="display:inline"
       inkscape:label="Слой"
       id="layer6"><path
         d="M 46.75,3.6835938 A 2.3173496,2.3173496 0 0 0 44.433594,5.9726562 L 44.085938,35.246094 H 29.59375 a 2.3173496,2.3173496 0 0 0 -1.609375,3.982422 l 35.03125,33.84375 a 2.3173496,2.3173496 0 0 0 3.21875,0 L 101.26562,39.228516 A 2.3173496,2.3173496 0 0 0 99.65625,35.246094 H 85.193359 L 84.816406,5.9707031 A 2.3173496,2.3173496 0 0 0 82.5,3.6835938 Z"
         id="path4627"
         style="display:inline;fill:none;stroke:url(#linearGradient4631);stroke-width:4;stroke-linecap:butt;stroke-linejoin:round;stroke-miterlimit:4;stroke-dasharray:none;stroke-opacity:1;filter:url(#filter4639)"
         inkscape:original="M 46.75 6 L 46.375 37.5625 L 29.59375 37.5625 L 64.625 71.40625 L 99.65625 37.5625 L 82.90625 37.5625 L 82.5 6 L 46.75 6 z "
         inkscape:radius="2.3171179"
         sodipodi:type="inkscape:offset" /><path
         sodipodi:nodetypes="cccccccc"
         inkscape:connector-curvature="0"
         id="path4535"
         d="M 46.75,6 46.375,37.5625 H 29.59375 L 64.625,71.40625 99.65625,37.5625 h -16.75 L 82.5,6 Z"
         style="fill:url(#linearGradient4570);fill-opacity:1;stroke:url(#linearGradient4562);stroke-width:4;stroke-linecap:butt;stroke-linejoin:round;stroke-miterlimit:4;stroke-dasharray:none;stroke-opacity:1" /></g></g></svg>