<?xml version="1.0" encoding="UTF-8" standalone="no"?>
<!-- Generator: Adobe Illustrator 10.0.3, SVG Export Plug-In . SVG Version: 3.0.0 Build 77)  -->
<svg
   xmlns:a="http://ns.adobe.com/AdobeSVGViewerExtensions/3.0/"
   xmlns:dc="http://purl.org/dc/elements/1.1/"
   xmlns:cc="http://creativecommons.org/ns#"
   xmlns:rdf="http://www.w3.org/1999/02/22-rdf-syntax-ns#"
   xmlns:svg="http://www.w3.org/2000/svg"
   xmlns="http://www.w3.org/2000/svg"
   xmlns:xlink="http://www.w3.org/1999/xlink"
   xmlns:sodipodi="http://sodipodi.sourceforge.net/DTD/sodipodi-0.dtd"
   xmlns:inkscape="http://www.inkscape.org/namespaces/inkscape"
   width="128"
   height="128"
   viewBox="0 0 128 128"
   overflow="visible"
   enable-background="new 0 0 128 128"
   xml:space="preserve"
   id="svg2"
   sodipodi:version="0.32"
   inkscape:version="0.46"
   sodipodi:docname="folder_archive1.svg"
   inkscape:output_extension="org.inkscape.output.svg.inkscape"
   inkscape:export-filename="/home/rrp/Ikony/folder_archive1.png"
   inkscape:export-xdpi="180"
   inkscape:export-ydpi="180"><metadata
   id="metadata121"><rdf:RDF><cc:Work
       rdf:about=""><dc:format>image/svg+xml</dc:format><dc:type
         rdf:resource="http://purl.org/dc/dcmitype/StillImage" /></cc:Work></rdf:RDF></metadata><defs
   id="defs119"><inkscape:perspective
     sodipodi:type="inkscape:persp3d"
     inkscape:vp_x="0 : 64 : 1"
     inkscape:vp_y="0 : 1000 : 0"
     inkscape:vp_z="128 : 64 : 1"
     inkscape:persp3d-origin="64 : 42.666667 : 1"
     id="perspective123" /><linearGradient
     gradientUnits="userSpaceOnUse"
     y2="41.07143"
     x2="40.229511"
     y1="29.979694"
     x1="24.202541"
     id="linearGradient9753"
     xlink:href="#linearGradient6985"
     inkscape:collect="always" /><linearGradient
     gradientUnits="userSpaceOnUse"
     y2="30.088398"
     x2="40.488609"
     y1="15.969543"
     x1="19.151775"
     id="linearGradient9745"
     xlink:href="#linearGradient6985"
     inkscape:collect="always" /><linearGradient
     gradientTransform="translate(-5.112972e-6,-12.99999)"
     y2="30.945896"
     x2="26.262691"
     y1="32.494919"
     x1="26.489847"
     gradientUnits="userSpaceOnUse"
     id="linearGradient7039"
     xlink:href="#linearGradient7951"
     inkscape:collect="always" /><linearGradient
     gradientTransform="translate(-5.9604639e-8,1.000001)"
     gradientUnits="userSpaceOnUse"
     y2="31.363701"
     x2="24.572922"
     y1="33.479073"
     x1="25.000002"
     id="linearGradient7025"
     xlink:href="#linearGradient7957"
     inkscape:collect="always" /><linearGradient
     gradientUnits="userSpaceOnUse"
     y2="6.9999981"
     x2="23.856884"
     y1="18.618044"
     x1="23.714289"
     id="linearGradient7003"
     xlink:href="#linearGradient6997"
     inkscape:collect="always" /><linearGradient
     gradientUnits="userSpaceOnUse"
     y2="42.782379"
     x2="40.109936"
     y1="18.285715"
     x1="19.571428"
     id="linearGradient6991"
     xlink:href="#linearGradient11955"
     inkscape:collect="always" /><linearGradient
     id="linearGradient6985"
     inkscape:collect="always"><stop
       id="stop6987"
       offset="0"
       style="stop-color:#c4c6c0;stop-opacity:1" /><stop
       id="stop6989"
       offset="1"
       style="stop-color:#888a85;stop-opacity:1" /></linearGradient><linearGradient
     id="linearGradient6997"
     inkscape:collect="always"><stop
       id="stop6999"
       offset="0"
       style="stop-color:white;stop-opacity:1" /><stop
       id="stop7001"
       offset="1"
       style="stop-color:white;stop-opacity:0.46994534" /></linearGradient><linearGradient
     inkscape:collect="always"
     id="linearGradient7951"><stop
       style="stop-color:#d6d6d0;stop-opacity:1"
       offset="0"
       id="stop7953" /><stop
       style="stop-color:#555753;stop-opacity:1"
       offset="1"
       id="stop7955" /></linearGradient><linearGradient
     inkscape:collect="always"
     id="linearGradient7957"><stop
       style="stop-color:#ddddd9;stop-opacity:1"
       offset="0"
       id="stop7959" /><stop
       style="stop-color:#555753;stop-opacity:1"
       offset="1"
       id="stop7961" /></linearGradient><radialGradient
     r="3.5"
     fy="39.464806"
     fx="7"
     cy="39.464806"
     cx="7"
     gradientTransform="matrix(0,-1.000001,1.142856,0,-41.10259,45.50001)"
     gradientUnits="userSpaceOnUse"
     id="radialGradient23040"
     xlink:href="#linearGradient22122"
     inkscape:collect="always" /><linearGradient
     id="linearGradient22122"
     inkscape:collect="always"><stop
       id="stop22124"
       offset="0"
       style="stop-color:black;stop-opacity:1;" /><stop
       id="stop22126"
       offset="1"
       style="stop-color:black;stop-opacity:0;" /></linearGradient><radialGradient
     r="3.5"
     fy="39.464806"
     fx="7"
     cy="39.464806"
     cx="7"
     gradientTransform="matrix(0,-1.000001,1.142856,0,-89.10259,-31.49999)"
     gradientUnits="userSpaceOnUse"
     id="radialGradient23042"
     xlink:href="#linearGradient22122"
     inkscape:collect="always" /><linearGradient
     y2="42.040661"
     x2="18.142136"
     y1="35"
     x1="18.142136"
     gradientUnits="userSpaceOnUse"
     id="linearGradient23044"
     xlink:href="#linearGradient22140"
     inkscape:collect="always" /><linearGradient
     id="linearGradient22140"><stop
       id="stop22142"
       offset="0"
       style="stop-color:black;stop-opacity:0;" /><stop
       style="stop-color:black;stop-opacity:1;"
       offset="0.5"
       id="stop22148" /><stop
       id="stop22144"
       offset="1"
       style="stop-color:black;stop-opacity:0;" /></linearGradient><linearGradient
     inkscape:collect="always"
     id="linearGradient11955"><stop
       style="stop-color:#caccc6;stop-opacity:1"
       offset="0"
       id="stop11957" /><stop
       style="stop-color:#888a85;stop-opacity:1"
       offset="1"
       id="stop11959" /></linearGradient><inkscape:perspective
     id="perspective3124"
     inkscape:persp3d-origin="24 : 16 : 1"
     inkscape:vp_z="48 : 24 : 1"
     inkscape:vp_y="0 : 1000 : 0"
     inkscape:vp_x="0 : 24 : 1"
     sodipodi:type="inkscape:persp3d" /></defs><sodipodi:namedview
   inkscape:window-height="672"
   inkscape:window-width="640"
   inkscape:pageshadow="2"
   inkscape:pageopacity="0.0"
   guidetolerance="10.0"
   gridtolerance="10.0"
   objecttolerance="10.0"
   borderopacity="1.0"
   bordercolor="#666666"
   pagecolor="#ffffff"
   id="base"
   showgrid="false"
   inkscape:zoom="3.640625"
   inkscape:cx="64"
   inkscape:cy="64"
   inkscape:window-x="0"
   inkscape:window-y="0"
   inkscape:current-layer="svg2" />
	<g
   id="Layer_1">
		<g
   id="g5">
			<g
   id="g7">
				<linearGradient
   id="XMLID_1_"
   gradientUnits="userSpaceOnUse"
   x1="67.0205"
   y1="-22.6318"
   x2="60.5043"
   y2="123.7301">
					<stop
   offset="0.382"
   style="stop-color:#DCF0FF"
   id="stop10" />
					<stop
   offset="0.4435"
   style="stop-color:#C9E6FF"
   id="stop12" />
					<stop
   offset="0.6311"
   style="stop-color:#92CAFF"
   id="stop14" />
					<stop
   offset="0.793"
   style="stop-color:#6AB5FF"
   id="stop16" />
					<stop
   offset="0.9213"
   style="stop-color:#52A9FF"
   id="stop18" />
					<stop
   offset="1"
   style="stop-color:#49A4FF"
   id="stop20" />
					<a:midPointStop
   offset="0.382"
   style="stop-color:#DCF0FF" />
					<a:midPointStop
   offset="0.4"
   style="stop-color:#DCF0FF" />
					<a:midPointStop
   offset="1"
   style="stop-color:#49A4FF" />
				</linearGradient>
				<path
   fill-rule="evenodd"
   clip-rule="evenodd"
   fill="url(#XMLID_1_)"
   d="M101.944,22.202      c-2.628-9.266-4.355-16.555-4.776-18.001c-0.604-2.081-2.325-2.449-3.891-1.492c-2.003,1.228-45.738,25.562-45.738,25.562      s-3.47,2.491-7.073,1.264c-3.601-1.23-7.215-7.521-13.401-4.884c-4.749,2.026-10.732,5.412-16.307,9.101      c-7.002,4.631-2.34,10.637-2.664,14.347c-0.287,3.28-5.031,5.204-5.031,5.204S9.776,71.266,17.999,88.81      s21.085,36.104,21.085,36.104c0.312,0.442,0.862,1.212,2.23,0.652c1.95-0.794,78.553-52.096,81.12-53.473      c0.462-0.245,0.773-0.591,0.987-0.935c-2.407-4.28-4.803-8.815-6.899-13.286C108.299,40.326,101.727,22.305,101.944,22.202z"
   id="path22" />
				<path
   fill-rule="evenodd"
   clip-rule="evenodd"
   fill="#FFFFFF"
   d="M101.944,23.202c-2.628-9.266-4.355-16.555-4.776-18.001      c-0.604-2.081-2.325-2.449-3.891-1.492c-2.003,1.228-45.738,25.562-45.738,25.562s-3.47,2.491-7.073,1.264      c-3.601-1.23-7.215-7.521-13.401-4.884c-4.749,2.026-10.732,5.412-16.307,9.101c-7.002,4.631-2.34,10.637-2.664,14.347      c-0.287,3.28-5.031,5.204-5.031,5.204S9.776,72.266,17.999,89.81s21.085,36.104,21.085,36.104      c0.312,0.442,0.862,1.212,2.23,0.652c1.95-0.794,78.553-52.096,81.12-53.473c0.462-0.245,0.773-0.591,0.987-0.935      c-2.407-4.28-4.803-8.815-6.899-13.286C108.299,41.326,101.727,23.305,101.944,23.202z"
   id="path24" />
				<linearGradient
   id="XMLID_2_"
   gradientUnits="userSpaceOnUse"
   x1="8.5332"
   y1="64.3467"
   x2="120.7432"
   y2="64.3467">
					<stop
   offset="0.0056"
   style="stop-color:#FFFFFF"
   id="stop27" />
					<stop
   offset="0.3989"
   style="stop-color:#87BBFF"
   id="stop29" />
					<stop
   offset="1"
   style="stop-color:#1E65FF"
   id="stop31" />
					<a:midPointStop
   offset="0.0056"
   style="stop-color:#FFFFFF" />
					<a:midPointStop
   offset="0.5"
   style="stop-color:#FFFFFF" />
					<a:midPointStop
   offset="0.3989"
   style="stop-color:#87BBFF" />
					<a:midPointStop
   offset="0.5"
   style="stop-color:#87BBFF" />
					<a:midPointStop
   offset="1"
   style="stop-color:#1E65FF" />
				</linearGradient>
				<path
   fill="url(#XMLID_2_)"
   d="M100.722,25.434C98.269,16.796,96.659,10,96.267,8.651c-0.563-1.94-2.166-2.284-3.627-1.392      c-1.867,1.145-42.641,23.83-42.641,23.83s-3.235,2.324-6.595,1.18c-3.357-1.148-6.727-7.014-12.496-4.554      c-4.426,1.888-10.004,5.044-15.201,8.483c-6.527,4.318-2.182,9.918-2.483,13.376c-0.269,3.059-4.69,4.852-4.69,4.852      s6.258,16.748,13.926,33.106c7.664,16.355,19.656,33.659,19.656,33.659c0.291,0.411,0.805,1.127,2.079,0.607      c1.818-0.742,73.235-48.569,75.63-49.854c0.43-0.229,0.719-0.552,0.919-0.871c-2.244-3.991-4.479-8.22-6.432-12.387      C106.645,42.33,100.516,25.529,100.722,25.434z"
   id="path33" />
				<linearGradient
   id="XMLID_3_"
   gradientUnits="userSpaceOnUse"
   x1="87.4238"
   y1="71.2764"
   x2="10.7515"
   y2="41.6424">
					<stop
   offset="0"
   style="stop-color:#001EA4"
   id="stop36" />
					<stop
   offset="1"
   style="stop-color:#398BFF"
   id="stop38" />
					<a:midPointStop
   offset="0"
   style="stop-color:#001EA4" />
					<a:midPointStop
   offset="0.5"
   style="stop-color:#001EA4" />
					<a:midPointStop
   offset="1"
   style="stop-color:#398BFF" />
				</linearGradient>
				<path
   fill="url(#XMLID_3_)"
   d="M92.703,1.771c-1.961,1.202-45.262,25.296-45.698,25.538l-0.053,0.029L46.9,27.375      c-0.03,0.021-3.072,2.143-6.08,1.118c-0.959-0.328-2.033-1.171-3.17-2.062c-2.756-2.162-6.186-4.853-11.018-2.792      C22.007,25.612,16,28.964,10.15,32.834c-5.683,3.758-4.515,8.488-3.662,11.941c0.301,1.217,0.585,2.367,0.51,3.227      c-0.187,2.129-3.203,3.812-4.35,4.281L1.66,52.688l0.373,1c0.066,0.18,6.822,18.206,14.97,35.589      c8.167,17.426,21.048,36.077,21.177,36.264c0.906,1.288,2.1,1.638,3.551,1.044c1.1-0.448,18.391-11.916,46.737-30.75      c16.412-10.904,33.384-22.181,34.486-22.771c0.572-0.304,1.045-0.749,1.401-1.323l0.345-0.553l-0.319-0.567      c-2.657-4.725-4.966-9.17-6.862-13.215c-8.084-17.246-14.25-34.148-14.492-35.332l-0.008-0.04l-0.016-0.13      c-1.819-6.414-3.201-11.858-4.026-15.111l-0.752-2.896c-0.367-1.263-1.13-2.176-2.148-2.57      C95.033,0.92,93.835,1.078,92.703,1.771z M93.853,3.646c0.524-0.32,1.045-0.42,1.429-0.271c0.467,0.181,0.709,0.716,0.83,1.132      c0,0.001,0.732,2.824,0.732,2.824c0.829,3.264,2.215,8.727,4.042,15.17c0,0,0.013-0.025,0.013-0.027      c0.215,1.321,1.325,4.264,4.146,11.424c2.339,5.936,6.055,14.994,10.482,24.44c1.819,3.88,4.036,8.141,6.546,12.636      c-0.057,0.041-0.091,0.113-0.153,0.146c-1.198,0.643-16.709,10.948-34.669,22.881c-20.022,13.303-44.941,29.859-46.379,30.557      c-0.537,0.22-0.611,0.113-0.887-0.278c-0.124-0.179-12.902-18.682-20.989-35.938C11.938,73.286,5.934,57.752,4.449,53.855      c1.564-0.83,4.485-2.752,4.74-5.662c0.014-0.161,0.021-0.324,0.021-0.488c0-1.085-0.287-2.242-0.586-3.457      c-0.323-1.307-0.65-2.631-0.65-3.936c0-1.972,0.748-3.896,3.39-5.645c5.743-3.799,11.623-7.082,16.132-9.006      c3.635-1.55,6.259,0.509,8.797,2.5c1.287,1.01,2.504,1.965,3.816,2.413c3.917,1.334,7.553-1.054,8.005-1.366      C50.246,28.023,91.861,4.867,93.853,3.646z"
   id="path40" />
				<path
   fill="none"
   d="M128,128H0V0h128V128z"
   id="path42" />
			</g>
			<linearGradient
   id="XMLID_4_"
   gradientUnits="userSpaceOnUse"
   x1="32.1113"
   y1="59.9604"
   x2="85.1559"
   y2="67.4256">
				<stop
   offset="0"
   style="stop-color:#CDF8FF"
   id="stop45" />
				<stop
   offset="0.1068"
   style="stop-color:#A1D6FF"
   id="stop47" />
				<stop
   offset="0.2858"
   style="stop-color:#5CA2FF"
   id="stop49" />
				<stop
   offset="0.4358"
   style="stop-color:#2A7BFF"
   id="stop51" />
				<stop
   offset="0.549"
   style="stop-color:#0C64FF"
   id="stop53" />
				<stop
   offset="0.6124"
   style="stop-color:#005BFF"
   id="stop55" />
				<stop
   offset="0.7113"
   style="stop-color:#0056FF"
   id="stop57" />
				<stop
   offset="0.8313"
   style="stop-color:#0047FF"
   id="stop59" />
				<stop
   offset="0.9616"
   style="stop-color:#002FFF"
   id="stop61" />
				<stop
   offset="1"
   style="stop-color:#0026FF"
   id="stop63" />
				<a:midPointStop
   offset="0"
   style="stop-color:#CDF8FF" />
				<a:midPointStop
   offset="0.4214"
   style="stop-color:#CDF8FF" />
				<a:midPointStop
   offset="0.6124"
   style="stop-color:#005BFF" />
				<a:midPointStop
   offset="0.6667"
   style="stop-color:#005BFF" />
				<a:midPointStop
   offset="1"
   style="stop-color:#0026FF" />
			</linearGradient>
			<path
   opacity="0.4"
   fill="url(#XMLID_4_)"
   d="M40.3,124.545c0,0-5.63-13.158-9.86-26.29c-3.762-11.693-8.514-27.498-5.066-30.032     c3.033-2.229,17.423-10.991,21.643-13.982c3.77-2.672,2.719-9.599,5.253-14.022c1.243-2.17,3.354-3.299,3.354-3.299     S105.001,8.47,107.793,6.608c1.351-0.899,3.126,0.315,3.126,2.258c0,2.669,2.196,18.056,5.485,33.048     c3.294,15.017,8.718,28.038,8.718,28.038s-0.133,1.522-1.458,2.23c-2.572,1.375-79.172,52.676-81.124,53.473     C40.588,126.451,40.3,124.545,40.3,124.545z"
   id="path65" />
			<defs
   id="defs67">
				<filter
   id="Adobe_OpacityMaskFilter"
   filterUnits="userSpaceOnUse"
   x="37"
   y="9.75"
   width="86.795"
   height="115.955">
					<feColorMatrix
   type="matrix"
   values="1 0 0 0 0  0 1 0 0 0  0 0 1 0 0  0 0 0 1 0"
   id="feColorMatrix70" />
				</filter>
			</defs>
			<mask
   maskUnits="userSpaceOnUse"
   x="37"
   y="9.75"
   width="86.795"
   height="115.955"
   id="XMLID_5_">
				<g
   filter="url(#Adobe_OpacityMaskFilter)"
   id="g73">
					<linearGradient
   id="XMLID_6_"
   gradientUnits="userSpaceOnUse"
   x1="101.9082"
   y1="30.7671"
   x2="12.619"
   y2="86.1555">
						<stop
   offset="0"
   style="stop-color:#FFFFFF"
   id="stop76" />
						<stop
   offset="1"
   style="stop-color:#000000"
   id="stop78" />
						<a:midPointStop
   offset="0"
   style="stop-color:#FFFFFF" />
						<a:midPointStop
   offset="0.5"
   style="stop-color:#FFFFFF" />
						<a:midPointStop
   offset="1"
   style="stop-color:#000000" />
					</linearGradient>
					<path
   fill="url(#XMLID_6_)"
   d="M125.483,115.934H-1.522V-4.865h127.006V115.934z"
   id="path80" />
				</g>
			</mask>
			<linearGradient
   id="XMLID_7_"
   gradientUnits="userSpaceOnUse"
   x1="46.1694"
   y1="55.1499"
   x2="97.3291"
   y2="76.854">
				<stop
   offset="0"
   style="stop-color:#6AC5FF"
   id="stop83" />
				<stop
   offset="0.1262"
   style="stop-color:#61B3F6"
   id="stop85" />
				<stop
   offset="0.3781"
   style="stop-color:#4886E0"
   id="stop87" />
				<stop
   offset="0.7286"
   style="stop-color:#213DBD"
   id="stop89" />
				<stop
   offset="1"
   style="stop-color:#00009F"
   id="stop91" />
				<a:midPointStop
   offset="0"
   style="stop-color:#6AC5FF" />
				<a:midPointStop
   offset="0.5526"
   style="stop-color:#6AC5FF" />
				<a:midPointStop
   offset="1"
   style="stop-color:#00009F" />
			</linearGradient>
			<path
   opacity="0.4"
   mask="url(#XMLID_5_)"
   fill="url(#XMLID_7_)"
   d="M115.251,43.631c-0.67-3.055-4.683-30.909-5.251-33.881     c-7.5,68.5-57.5,36.75-73,98.75c-1.066,4.266,3.66,16.117,3.66,16.117s0.283,1.868,2.196,1.088     c1.913-0.781,76.988-51.061,79.51-52.408c1.299-0.694,1.429-2.187,1.429-2.187S118.479,58.348,115.251,43.631z"
   id="path93" />
			<path
   fill="#FFFFFF"
   d="M28.949,69.737c3.033-2.228,17.424-10.99,21.643-13.982c3.77-2.672,2.721-9.6,5.253-14.022     c1.244-2.17,3.354-3.3,3.354-3.3s42.856-24.691,50.972-29.57c-0.296-1.609-1.847-2.523-3.065-1.712     c-2.793,1.86-52.172,30.31-52.172,30.31s-2.109,1.129-3.354,3.3c-2.533,4.423-1.483,11.35-5.253,14.022     c-4.22,2.991-18.609,11.754-21.642,13.981c-3.449,2.534,1.303,18.339,5.066,30.031c4.23,13.134,9.86,26.291,9.86,26.291     s0.288,1.907,2.239,1.109c0.148-0.059,0.727-0.41,1.658-1.002c-1.311-3.131-5.905-14.285-9.494-25.426     C30.252,88.076,25.502,72.271,28.949,69.737z"
   id="path95" />
			<linearGradient
   id="XMLID_8_"
   gradientUnits="userSpaceOnUse"
   x1="57.8667"
   y1="100.9258"
   x2="120.5585"
   y2="70.7129">
				<stop
   offset="0"
   style="stop-color:#FFFFFF"
   id="stop98" />
				<stop
   offset="1"
   style="stop-color:#B1B1C5"
   id="stop100" />
				<a:midPointStop
   offset="0"
   style="stop-color:#FFFFFF" />
				<a:midPointStop
   offset="0.5"
   style="stop-color:#FFFFFF" />
				<a:midPointStop
   offset="1"
   style="stop-color:#B1B1C5" />
			</linearGradient>
			<path
   fill="url(#XMLID_8_)"
   d="M34.57,110.088c3.049,8.195,5.729,14.457,5.729,14.457s0.288,1.906,2.24,1.11     c1.952-0.797,78.552-52.098,81.124-53.473c1.325-0.708,1.458-2.23,1.458-2.23s-2.802-6.724-5.6-16.083     C103.634,64.267,49.998,100.108,34.57,110.088z"
   id="path102" />
			<linearGradient
   id="XMLID_9_"
   gradientUnits="userSpaceOnUse"
   x1="18.0327"
   y1="124.1084"
   x2="116.4508"
   y2="70.4536">
				<stop
   offset="0"
   style="stop-color:#FFFFFF"
   id="stop105" />
				<stop
   offset="1"
   style="stop-color:#B1B1C5"
   id="stop107" />
				<a:midPointStop
   offset="0"
   style="stop-color:#FFFFFF" />
				<a:midPointStop
   offset="0.5"
   style="stop-color:#FFFFFF" />
				<a:midPointStop
   offset="1"
   style="stop-color:#B1B1C5" />
			</linearGradient>
			<path
   fill="url(#XMLID_9_)"
   a:adobe-blending-mode="multiply"
   d="M119.522,53.869c-0.107,0.069-0.221,0.145-0.332,0.217     c2.44,7.683,4.63,12.942,4.63,12.942s-0.133,1.521-1.457,2.229c-2.571,1.375-79.172,52.676-81.123,53.473     c-0.902,0.369-1.445,0.157-1.773-0.176c0.523,1.263,0.833,1.99,0.833,1.99s0.288,1.906,2.24,1.11     c1.952-0.797,78.552-52.098,81.124-53.473c1.325-0.708,1.458-2.23,1.458-2.23S122.32,63.229,119.522,53.869z"
   id="path109" />
			<linearGradient
   id="XMLID_10_"
   gradientUnits="userSpaceOnUse"
   x1="95.627"
   y1="73.9512"
   x2="35.7537"
   y2="50.8101">
				<stop
   offset="0"
   style="stop-color:#001EA4"
   id="stop112" />
				<stop
   offset="1"
   style="stop-color:#398BFF"
   id="stop114" />
				<a:midPointStop
   offset="0"
   style="stop-color:#001EA4" />
				<a:midPointStop
   offset="0.5"
   style="stop-color:#001EA4" />
				<a:midPointStop
   offset="1"
   style="stop-color:#398BFF" />
			</linearGradient>
			<path
   fill="url(#XMLID_10_)"
   d="M107.184,5.693c-2.731,1.82-51.617,29.988-52.111,30.272c-0.066,0.036-2.373,1.289-3.758,3.705     c-1.154,2.015-1.605,4.41-2.043,6.726c-0.548,2.906-1.064,5.651-2.893,6.946c-2.108,1.495-6.814,4.466-11.364,7.337     c-4.506,2.845-8.762,5.531-10.293,6.656c-1.098,0.808-1.665,2.348-1.665,4.863c0,4.761,2.031,13.013,6.336,26.393     c4.072,12.642,9.488,25.429,9.86,26.303c0.085,0.371,0.365,1.257,1.237,1.752c0.482,0.274,1.303,0.502,2.465,0.027     c1.098-0.448,18.279-11.843,46.446-30.558c16.554-10.997,33.671-22.37,34.781-22.964c1.461-0.78,1.967-2.318,2.035-3.104     l0.023-0.27l-0.104-0.249c-0.054-0.13-5.426-13.11-8.659-27.852c-3.341-15.228-5.46-30.459-5.46-32.812     c0-1.423-0.713-2.688-1.861-3.304C109.192,5.047,108.081,5.096,107.184,5.693z M41.578,124.734     c-0.076-0.042-0.168-0.237-0.193-0.372l-0.022-0.118l-0.052-0.132c-0.056-0.131-5.658-13.265-9.824-26.194     c-5.667-17.614-7.505-27.307-5.462-28.809c1.469-1.079,5.692-3.746,10.165-6.568c4.574-2.889,9.305-5.875,11.462-7.403     c2.552-1.81,3.178-5.126,3.782-8.333c0.402-2.137,0.82-4.348,1.789-6.04c1.062-1.853,2.902-2.867,2.922-2.878     c2.044-1.177,49.469-28.504,52.259-30.363c0.223-0.148,0.464-0.156,0.716-0.021c0.322,0.174,0.7,0.635,0.7,1.364     c0,2.868,2.272,18.522,5.511,33.284c3.012,13.73,7.844,25.924,8.65,27.914c-0.078,0.305-0.284,0.854-0.835,1.148     c-1.122,0.6-13.957,9.116-34.961,23.071c-19.897,13.219-44.659,29.671-46.087,30.364     C41.797,124.771,41.623,124.759,41.578,124.734z"
   id="path116" />
		</g>
	</g>
<g
   inkscape:label="Layer 1"
   id="layer1"
   transform="matrix(2.3317726,0,0,2.0834559,31.867278,38.782641)"><g
     transform="matrix(0.6875,0,0,1.42857,8,-16.99994)"
     style="opacity:0.3"
     id="g22150"><rect
       style="opacity:1;fill:url(#radialGradient23040);fill-opacity:1;stroke:none;stroke-width:3;stroke-linecap:square;stroke-linejoin:miter;stroke-miterlimit:10;stroke-dasharray:none;stroke-dashoffset:1.20000057;stroke-opacity:1"
       id="rect22120"
       width="4"
       height="7"
       x="0"
       y="35" /><rect
       style="opacity:1;fill:url(#radialGradient23042);fill-opacity:1;stroke:none;stroke-width:3;stroke-linecap:square;stroke-linejoin:miter;stroke-miterlimit:10;stroke-dasharray:none;stroke-dashoffset:1.20000057;stroke-opacity:1"
       id="rect22134"
       width="4"
       height="7"
       x="-48"
       y="-42"
       transform="scale(-1,-1)" /><rect
       style="opacity:1;fill:url(#linearGradient23044);fill-opacity:1;stroke:none;stroke-width:3;stroke-linecap:square;stroke-linejoin:miter;stroke-miterlimit:10;stroke-dasharray:none;stroke-dashoffset:1.20000057;stroke-opacity:1"
       id="rect22138"
       width="40"
       height="7"
       x="4"
       y="35" /></g><path
     sodipodi:nodetypes="ccccccccc"
     id="path4307"
     d="M 14.571429,6.5 L 34.571429,6.5 L 38.5,11 L 38.5,39.571429 C 38.514782,39.936745 37.958135,40.516346 37.472917,40.45309 L 11.428571,40.45309 C 10.904762,40.397298 10.523809,40.055792 10.5,39.428571 L 10.5,11 L 14.571429,6.5 z"
     style="fill:url(#linearGradient6991);fill-opacity:1;fill-rule:evenodd;stroke:#555753;stroke-width:1px;stroke-linecap:butt;stroke-linejoin:round;stroke-opacity:1" /><rect
     ry="1.0714285"
     rx="1.0714285"
     y="13.499998"
     x="14.499998"
     height="11.000003"
     width="20.999996"
     id="rect5197"
     style="opacity:1;fill:url(#linearGradient9745);fill-opacity:1;fill-rule:nonzero;stroke:#6c6f6a;stroke-width:0.99999988;stroke-linecap:butt;stroke-linejoin:round;stroke-miterlimit:4;stroke-dasharray:none;stroke-dashoffset:0;stroke-opacity:1" /><rect
     ry="1.0714285"
     rx="1.0714285"
     y="26.499998"
     x="14.5"
     height="11.000003"
     width="20.999996"
     id="rect5199"
     style="opacity:1;fill:url(#linearGradient9753);fill-opacity:1;fill-rule:nonzero;stroke:#6c6f6a;stroke-width:0.99999988;stroke-linecap:butt;stroke-linejoin:round;stroke-miterlimit:4;stroke-dasharray:none;stroke-dashoffset:0;stroke-opacity:1" /><path
     sodipodi:nodetypes="ccccc"
     id="path5203"
     d="M 11.142857,11 L 37.857143,10.928571 L 34.5,7 L 15,7 L 11.142857,11 z"
     style="opacity:0.5;fill:#ffffff;fill-opacity:1;fill-rule:evenodd;stroke:none;stroke-width:1px;stroke-linecap:butt;stroke-linejoin:miter;stroke-opacity:1" /><path
     sodipodi:nodetypes="ccccccc"
     id="path6993"
     d="M 14.923435,7.499998 L 34.280391,7.499998 L 37.499742,11.240546 L 37.499742,39.450375 L 11.500003,39.494324 L 11.500003,11.240546 L 14.923435,7.499998 z"
     style="opacity:0.5;fill:none;fill-opacity:1;fill-rule:evenodd;stroke:url(#linearGradient7003);stroke-width:1px;stroke-linecap:butt;stroke-linejoin:miter;stroke-opacity:1" /><rect
     ry="1.0714288"
     rx="1.0714282"
     y="31.499994"
     x="21.5"
     height="3.0000052"
     width="7.0000052"
     id="rect7017"
     style="opacity:1;fill:none;fill-opacity:1;fill-rule:nonzero;stroke:url(#linearGradient7025);stroke-width:0.99999988;stroke-linecap:round;stroke-linejoin:miter;stroke-miterlimit:4;stroke-dasharray:none;stroke-dashoffset:0;stroke-opacity:1" /><rect
     ry="1.0714288"
     rx="1.0714282"
     y="17.5"
     x="21.499994"
     height="3.0000052"
     width="7.0000052"
     id="rect7037"
     style="opacity:1;fill:none;fill-opacity:1;fill-rule:nonzero;stroke:url(#linearGradient7039);stroke-width:0.99999988;stroke-linecap:round;stroke-linejoin:miter;stroke-miterlimit:4;stroke-dasharray:none;stroke-dashoffset:0;stroke-opacity:1" /><path
     sodipodi:nodetypes="cc"
     id="path6093"
     d="M 12.5,10.571429 L 36.571429,10.571429"
     style="opacity:0.6;fill:none;fill-opacity:0.75;fill-rule:evenodd;stroke:#ffffff;stroke-width:1px;stroke-linecap:round;stroke-linejoin:miter;stroke-opacity:1" /></g></svg>