<?xml version="1.0" encoding="UTF-8" standalone="no"?>
<!-- Generator: Adobe Illustrator 10.0.3, SVG Export Plug-In . SVG Version: 3.0.0 Build 77)  -->
<svg
   xmlns:a="http://ns.adobe.com/AdobeSVGViewerExtensions/3.0/"
   xmlns:dc="http://purl.org/dc/elements/1.1/"
   xmlns:cc="http://creativecommons.org/ns#"
   xmlns:rdf="http://www.w3.org/1999/02/22-rdf-syntax-ns#"
   xmlns:svg="http://www.w3.org/2000/svg"
   xmlns="http://www.w3.org/2000/svg"
   xmlns:xlink="http://www.w3.org/1999/xlink"
   xmlns:sodipodi="http://sodipodi.sourceforge.net/DTD/sodipodi-0.dtd"
   xmlns:inkscape="http://www.inkscape.org/namespaces/inkscape"
   width="128"
   height="128"
   viewBox="0 0 128 128"
   overflow="visible"
   enable-background="new 0 0 128 128"
   xml:space="preserve"
   id="svg2"
   sodipodi:version="0.32"
   inkscape:version="0.46"
   sodipodi:docname="folder_archive2.svg"
   inkscape:output_extension="org.inkscape.output.svg.inkscape"
   inkscape:export-filename="/tmp/folder_archive2.png"
   inkscape:export-xdpi="170.06996"
   inkscape:export-ydpi="170.06996"><metadata
   id="metadata121"><rdf:RDF><cc:Work
       rdf:about=""><dc:format>image/svg+xml</dc:format><dc:type
         rdf:resource="http://purl.org/dc/dcmitype/StillImage" /></cc:Work></rdf:RDF></metadata><defs
   id="defs119"><inkscape:perspective
     sodipodi:type="inkscape:persp3d"
     inkscape:vp_x="0 : 64 : 1"
     inkscape:vp_y="0 : 1000 : 0"
     inkscape:vp_z="128 : 64 : 1"
     inkscape:persp3d-origin="64 : 42.666667 : 1"
     id="perspective123" /><linearGradient
     gradientUnits="userSpaceOnUse"
     y2="41.07143"
     x2="40.229511"
     y1="29.979694"
     x1="24.202541"
     id="linearGradient9753"
     xlink:href="#linearGradient6985"
     inkscape:collect="always" /><linearGradient
     gradientUnits="userSpaceOnUse"
     y2="30.088398"
     x2="40.488609"
     y1="15.969543"
     x1="19.151775"
     id="linearGradient9745"
     xlink:href="#linearGradient6985"
     inkscape:collect="always" /><linearGradient
     gradientTransform="translate(-5.112972e-6,-12.99999)"
     y2="30.945896"
     x2="26.262691"
     y1="32.494919"
     x1="26.489847"
     gradientUnits="userSpaceOnUse"
     id="linearGradient7039"
     xlink:href="#linearGradient7951"
     inkscape:collect="always" /><linearGradient
     gradientTransform="translate(-5.9604639e-8,1.000001)"
     gradientUnits="userSpaceOnUse"
     y2="31.363701"
     x2="24.572922"
     y1="33.479073"
     x1="25.000002"
     id="linearGradient7025"
     xlink:href="#linearGradient7957"
     inkscape:collect="always" /><linearGradient
     gradientUnits="userSpaceOnUse"
     y2="6.9999981"
     x2="23.856884"
     y1="18.618044"
     x1="23.714289"
     id="linearGradient7003"
     xlink:href="#linearGradient6997"
     inkscape:collect="always" /><linearGradient
     gradientUnits="userSpaceOnUse"
     y2="42.782379"
     x2="40.109936"
     y1="18.285715"
     x1="19.571428"
     id="linearGradient6991"
     xlink:href="#linearGradient11955"
     inkscape:collect="always" /><linearGradient
     id="linearGradient6985"
     inkscape:collect="always"><stop
       id="stop6987"
       offset="0"
       style="stop-color:#c4c6c0;stop-opacity:1" /><stop
       id="stop6989"
       offset="1"
       style="stop-color:#888a85;stop-opacity:1" /></linearGradient><linearGradient
     id="linearGradient6997"
     inkscape:collect="always"><stop
       id="stop6999"
       offset="0"
       style="stop-color:white;stop-opacity:1" /><stop
       id="stop7001"
       offset="1"
       style="stop-color:white;stop-opacity:0.46994534" /></linearGradient><linearGradient
     inkscape:collect="always"
     id="linearGradient7951"><stop
       style="stop-color:#d6d6d0;stop-opacity:1"
       offset="0"
       id="stop7953" /><stop
       style="stop-color:#555753;stop-opacity:1"
       offset="1"
       id="stop7955" /></linearGradient><linearGradient
     inkscape:collect="always"
     id="linearGradient7957"><stop
       style="stop-color:#ddddd9;stop-opacity:1"
       offset="0"
       id="stop7959" /><stop
       style="stop-color:#555753;stop-opacity:1"
       offset="1"
       id="stop7961" /></linearGradient><radialGradient
     r="3.5"
     fy="39.464806"
     fx="7"
     cy="39.464806"
     cx="7"
     gradientTransform="matrix(0,-1.000001,1.142856,0,-41.10259,45.50001)"
     gradientUnits="userSpaceOnUse"
     id="radialGradient23040"
     xlink:href="#linearGradient22122"
     inkscape:collect="always" /><linearGradient
     id="linearGradient22122"
     inkscape:collect="always"><stop
       id="stop22124"
       offset="0"
       style="stop-color:black;stop-opacity:1;" /><stop
       id="stop22126"
       offset="1"
       style="stop-color:black;stop-opacity:0;" /></linearGradient><radialGradient
     r="3.5"
     fy="39.464806"
     fx="7"
     cy="39.464806"
     cx="7"
     gradientTransform="matrix(0,-1.000001,1.142856,0,-89.10259,-31.49999)"
     gradientUnits="userSpaceOnUse"
     id="radialGradient23042"
     xlink:href="#linearGradient22122"
     inkscape:collect="always" /><linearGradient
     y2="42.040661"
     x2="18.142136"
     y1="35"
     x1="18.142136"
     gradientUnits="userSpaceOnUse"
     id="linearGradient23044"
     xlink:href="#linearGradient22140"
     inkscape:collect="always" /><linearGradient
     id="linearGradient22140"><stop
       id="stop22142"
       offset="0"
       style="stop-color:black;stop-opacity:0;" /><stop
       style="stop-color:black;stop-opacity:1;"
       offset="0.5"
       id="stop22148" /><stop
       id="stop22144"
       offset="1"
       style="stop-color:black;stop-opacity:0;" /></linearGradient><linearGradient
     inkscape:collect="always"
     id="linearGradient11955"><stop
       style="stop-color:#caccc6;stop-opacity:1"
       offset="0"
       id="stop11957" /><stop
       style="stop-color:#888a85;stop-opacity:1"
       offset="1"
       id="stop11959" /></linearGradient><inkscape:perspective
     id="perspective3124"
     inkscape:persp3d-origin="24 : 16 : 1"
     inkscape:vp_z="48 : 24 : 1"
     inkscape:vp_y="0 : 1000 : 0"
     inkscape:vp_x="0 : 24 : 1"
     sodipodi:type="inkscape:persp3d" /><linearGradient
     gradientUnits="userSpaceOnUse"
     y2="6.193233"
     x2="-71.637245"
     y1="8.4029417"
     x1="-71.724426"
     id="linearGradient6512"
     xlink:href="#linearGradient6506"
     inkscape:collect="always" /><linearGradient
     gradientUnits="userSpaceOnUse"
     y2="6.3250184"
     x2="35.194096"
     y1="7.9827366"
     x1="35.283695"
     id="linearGradient6496"
     xlink:href="#linearGradient6490"
     inkscape:collect="always" /><linearGradient
     gradientTransform="translate(0,1)"
     gradientUnits="userSpaceOnUse"
     y2="12.600467"
     x2="23.643883"
     y1="14.324039"
     x1="23.643883"
     id="linearGradient5601"
     xlink:href="#linearGradient5595"
     inkscape:collect="always" /><linearGradient
     y2="13.086602"
     x2="-6.4965434"
     y1="17.329243"
     x1="-6.4523492"
     gradientTransform="translate(29,1)"
     gradientUnits="userSpaceOnUse"
     id="linearGradient5587"
     xlink:href="#linearGradient3267"
     inkscape:collect="always" /><linearGradient
     y2="38.75"
     x2="22.625"
     y1="20.624619"
     x1="22.625"
     gradientUnits="userSpaceOnUse"
     id="linearGradient5584"
     xlink:href="#linearGradient3162"
     inkscape:collect="always" /><linearGradient
     y2="11.952705"
     x2="28.615379"
     y1="11.918621"
     x1="18.250002"
     gradientTransform="matrix(0.928572,0,0,1.11,1.67856,-1.705002)"
     gradientUnits="userSpaceOnUse"
     id="linearGradient5581"
     xlink:href="#linearGradient3275"
     inkscape:collect="always" /><linearGradient
     y2="42.944225"
     x2="19.375"
     y1="17.749723"
     x1="19.375"
     gradientUnits="userSpaceOnUse"
     id="linearGradient5578"
     xlink:href="#linearGradient3184"
     inkscape:collect="always" /><linearGradient
     y2="-20.594276"
     x2="36.5625"
     y1="-16.999678"
     x1="36.5625"
     gradientTransform="translate(-26,49)"
     gradientUnits="userSpaceOnUse"
     id="linearGradient3499"
     xlink:href="#linearGradient3234"
     inkscape:collect="always" /><linearGradient
     y2="-20.594276"
     x2="36.5625"
     y1="-16.999678"
     x1="36.5625"
     gradientTransform="translate(-49,49)"
     gradientUnits="userSpaceOnUse"
     id="linearGradient3497"
     xlink:href="#linearGradient3234"
     inkscape:collect="always" /><linearGradient
     y2="8.9339542"
     x2="5.3916893"
     y1="-38.885746"
     x1="5.3916893"
     gradientTransform="translate(-83,49)"
     gradientUnits="userSpaceOnUse"
     id="linearGradient3410"
     xlink:href="#linearGradient3146"
     inkscape:collect="always" /><linearGradient
     y2="35.466221"
     x2="56.500004"
     y1="13.926061"
     x1="56.500004"
     gradientTransform="matrix(-1,0,0,1,-16,-1)"
     gradientUnits="userSpaceOnUse"
     id="linearGradient3408"
     xlink:href="#linearGradient3412"
     inkscape:collect="always" /><linearGradient
     y2="8.9339542"
     x2="5.3916893"
     y1="-38.885746"
     x1="5.3916893"
     gradientTransform="translate(-83,49)"
     gradientUnits="userSpaceOnUse"
     id="linearGradient3382"
     xlink:href="#linearGradient3146"
     inkscape:collect="always" /><linearGradient
     y2="33.869427"
     x2="56.500004"
     y1="13.926061"
     x1="56.500004"
     gradientTransform="matrix(-1,0,0,1,-16,-1)"
     gradientUnits="userSpaceOnUse"
     id="linearGradient3380"
     xlink:href="#linearGradient3392"
     inkscape:collect="always" /><linearGradient
     gradientUnits="userSpaceOnUse"
     y2="41.500175"
     x2="10.915961"
     y1="35.498535"
     x1="10.915961"
     id="linearGradient3310"
     xlink:href="#linearGradient3304"
     inkscape:collect="always" /><radialGradient
     r="1.5"
     fy="39.015625"
     fx="2"
     cy="39.015625"
     cx="2"
     gradientTransform="matrix(2,0,0,2,38,-39.5313)"
     gradientUnits="userSpaceOnUse"
     id="radialGradient3300"
     xlink:href="#linearGradient3290"
     inkscape:collect="always" /><radialGradient
     gradientUnits="userSpaceOnUse"
     gradientTransform="matrix(2,0,0,2,-9,-116.5313)"
     r="1.5"
     fy="39.015625"
     fx="2"
     cy="39.015625"
     cx="2"
     id="radialGradient3296"
     xlink:href="#linearGradient3290"
     inkscape:collect="always" /><radialGradient
     gradientUnits="userSpaceOnUse"
     gradientTransform="matrix(1,0,0,0.232687,0,29.92521)"
     r="22.5625"
     fy="39"
     fx="24.3125"
     cy="39"
     cx="24.3125"
     id="radialGradient3286"
     xlink:href="#linearGradient3280"
     inkscape:collect="always" /><linearGradient
     id="linearGradient3146"
     inkscape:collect="always"><stop
       id="stop3148"
       offset="0"
       style="stop-color:white;stop-opacity:1;" /><stop
       id="stop3150"
       offset="1"
       style="stop-color:white;stop-opacity:0;" /></linearGradient><linearGradient
     id="linearGradient3162"><stop
       id="stop3164"
       offset="0"
       style="stop-color:#729fcf;stop-opacity:1;" /><stop
       id="stop3166"
       offset="1"
       style="stop-color:#3465a4;stop-opacity:1" /></linearGradient><linearGradient
     id="linearGradient3184"
     inkscape:collect="always"><stop
       id="stop3186"
       offset="0"
       style="stop-color:white;stop-opacity:1;" /><stop
       id="stop3188"
       offset="1"
       style="stop-color:white;stop-opacity:0;" /></linearGradient><linearGradient
     id="linearGradient3234"
     inkscape:collect="always"><stop
       id="stop3236"
       offset="0"
       style="stop-color:white;stop-opacity:1;" /><stop
       id="stop3238"
       offset="1"
       style="stop-color:white;stop-opacity:0;" /></linearGradient><linearGradient
     id="linearGradient3280"
     inkscape:collect="always"><stop
       id="stop3282"
       offset="0"
       style="stop-color:black;stop-opacity:1;" /><stop
       id="stop3284"
       offset="1"
       style="stop-color:black;stop-opacity:0;" /></linearGradient><linearGradient
     id="linearGradient3290"
     inkscape:collect="always"><stop
       id="stop3292"
       offset="0"
       style="stop-color:black;stop-opacity:1;" /><stop
       id="stop3294"
       offset="1"
       style="stop-color:black;stop-opacity:0;" /></linearGradient><linearGradient
     id="linearGradient3304"><stop
       id="stop3306"
       offset="0"
       style="stop-color:black;stop-opacity:0;" /><stop
       style="stop-color:black;stop-opacity:1;"
       offset="0.5"
       id="stop3312" /><stop
       id="stop3308"
       offset="1"
       style="stop-color:black;stop-opacity:0;" /></linearGradient><linearGradient
     id="linearGradient3267"
     inkscape:collect="always"><stop
       id="stop3269"
       offset="0"
       style="stop-color:black;stop-opacity:1;" /><stop
       id="stop3271"
       offset="1"
       style="stop-color:black;stop-opacity:0;" /></linearGradient><linearGradient
     id="linearGradient3275"><stop
       style="stop-color:#e7e7e4;stop-opacity:1;"
       offset="0"
       id="stop3277" /><stop
       id="stop5589"
       offset="0.32432431"
       style="stop-color:white;stop-opacity:1;" /><stop
       style="stop-color:white;stop-opacity:1;"
       offset="0.83564645"
       id="stop5591" /><stop
       style="stop-color:#d3d7cf;stop-opacity:1"
       offset="1"
       id="stop3279" /></linearGradient><linearGradient
     id="linearGradient3392"><stop
       style="stop-color:#73d216;stop-opacity:1"
       offset="0"
       id="stop3394" /><stop
       style="stop-color:#8ae234;stop-opacity:1"
       offset="1"
       id="stop3396" /></linearGradient><linearGradient
     id="linearGradient3412"><stop
       id="stop3414"
       offset="0"
       style="stop-color:#babdb6;stop-opacity:1" /><stop
       id="stop3416"
       offset="1"
       style="stop-color:#d3d7cf;stop-opacity:1" /></linearGradient><linearGradient
     id="linearGradient5595"
     inkscape:collect="always"><stop
       id="stop5597"
       offset="0"
       style="stop-color:black;stop-opacity:1;" /><stop
       id="stop5599"
       offset="1"
       style="stop-color:black;stop-opacity:0;" /></linearGradient><linearGradient
     id="linearGradient6490"
     inkscape:collect="always"><stop
       id="stop6492"
       offset="0"
       style="stop-color:white;stop-opacity:1;" /><stop
       id="stop6494"
       offset="1"
       style="stop-color:white;stop-opacity:0;" /></linearGradient><linearGradient
     id="linearGradient6506"
     inkscape:collect="always"><stop
       id="stop6508"
       offset="0"
       style="stop-color:white;stop-opacity:1;" /><stop
       id="stop6510"
       offset="1"
       style="stop-color:white;stop-opacity:0;" /></linearGradient><inkscape:perspective
     id="perspective3850"
     inkscape:persp3d-origin="24 : 16 : 1"
     inkscape:vp_z="48 : 24 : 1"
     inkscape:vp_y="0 : 1000 : 0"
     inkscape:vp_x="0 : 24 : 1"
     sodipodi:type="inkscape:persp3d" /></defs><sodipodi:namedview
   inkscape:window-height="672"
   inkscape:window-width="640"
   inkscape:pageshadow="2"
   inkscape:pageopacity="0.0"
   guidetolerance="10.0"
   gridtolerance="10.0"
   objecttolerance="10.0"
   borderopacity="1.0"
   bordercolor="#666666"
   pagecolor="#ffffff"
   id="base"
   showgrid="false"
   inkscape:zoom="3.640625"
   inkscape:cx="64"
   inkscape:cy="64"
   inkscape:window-x="-66"
   inkscape:window-y="0"
   inkscape:current-layer="svg2" />
	<g
   id="Layer_1">
		<g
   id="g5">
			<g
   id="g7">
				<linearGradient
   id="XMLID_1_"
   gradientUnits="userSpaceOnUse"
   x1="67.0205"
   y1="-22.6318"
   x2="60.5043"
   y2="123.7301">
					<stop
   offset="0.382"
   style="stop-color:#DCF0FF"
   id="stop10" />
					<stop
   offset="0.4435"
   style="stop-color:#C9E6FF"
   id="stop12" />
					<stop
   offset="0.6311"
   style="stop-color:#92CAFF"
   id="stop14" />
					<stop
   offset="0.793"
   style="stop-color:#6AB5FF"
   id="stop16" />
					<stop
   offset="0.9213"
   style="stop-color:#52A9FF"
   id="stop18" />
					<stop
   offset="1"
   style="stop-color:#49A4FF"
   id="stop20" />
					<a:midPointStop
   offset="0.382"
   style="stop-color:#DCF0FF" />
					<a:midPointStop
   offset="0.4"
   style="stop-color:#DCF0FF" />
					<a:midPointStop
   offset="1"
   style="stop-color:#49A4FF" />
				</linearGradient>
				<path
   fill-rule="evenodd"
   clip-rule="evenodd"
   fill="url(#XMLID_1_)"
   d="M101.944,22.202      c-2.628-9.266-4.355-16.555-4.776-18.001c-0.604-2.081-2.325-2.449-3.891-1.492c-2.003,1.228-45.738,25.562-45.738,25.562      s-3.47,2.491-7.073,1.264c-3.601-1.23-7.215-7.521-13.401-4.884c-4.749,2.026-10.732,5.412-16.307,9.101      c-7.002,4.631-2.34,10.637-2.664,14.347c-0.287,3.28-5.031,5.204-5.031,5.204S9.776,71.266,17.999,88.81      s21.085,36.104,21.085,36.104c0.312,0.442,0.862,1.212,2.23,0.652c1.95-0.794,78.553-52.096,81.12-53.473      c0.462-0.245,0.773-0.591,0.987-0.935c-2.407-4.28-4.803-8.815-6.899-13.286C108.299,40.326,101.727,22.305,101.944,22.202z"
   id="path22" />
				<path
   fill-rule="evenodd"
   clip-rule="evenodd"
   fill="#FFFFFF"
   d="M101.944,23.202c-2.628-9.266-4.355-16.555-4.776-18.001      c-0.604-2.081-2.325-2.449-3.891-1.492c-2.003,1.228-45.738,25.562-45.738,25.562s-3.47,2.491-7.073,1.264      c-3.601-1.23-7.215-7.521-13.401-4.884c-4.749,2.026-10.732,5.412-16.307,9.101c-7.002,4.631-2.34,10.637-2.664,14.347      c-0.287,3.28-5.031,5.204-5.031,5.204S9.776,72.266,17.999,89.81s21.085,36.104,21.085,36.104      c0.312,0.442,0.862,1.212,2.23,0.652c1.95-0.794,78.553-52.096,81.12-53.473c0.462-0.245,0.773-0.591,0.987-0.935      c-2.407-4.28-4.803-8.815-6.899-13.286C108.299,41.326,101.727,23.305,101.944,23.202z"
   id="path24" />
				<linearGradient
   id="XMLID_2_"
   gradientUnits="userSpaceOnUse"
   x1="8.5332"
   y1="64.3467"
   x2="120.7432"
   y2="64.3467">
					<stop
   offset="0.0056"
   style="stop-color:#FFFFFF"
   id="stop27" />
					<stop
   offset="0.3989"
   style="stop-color:#87BBFF"
   id="stop29" />
					<stop
   offset="1"
   style="stop-color:#1E65FF"
   id="stop31" />
					<a:midPointStop
   offset="0.0056"
   style="stop-color:#FFFFFF" />
					<a:midPointStop
   offset="0.5"
   style="stop-color:#FFFFFF" />
					<a:midPointStop
   offset="0.3989"
   style="stop-color:#87BBFF" />
					<a:midPointStop
   offset="0.5"
   style="stop-color:#87BBFF" />
					<a:midPointStop
   offset="1"
   style="stop-color:#1E65FF" />
				</linearGradient>
				<path
   fill="url(#XMLID_2_)"
   d="M100.722,25.434C98.269,16.796,96.659,10,96.267,8.651c-0.563-1.94-2.166-2.284-3.627-1.392      c-1.867,1.145-42.641,23.83-42.641,23.83s-3.235,2.324-6.595,1.18c-3.357-1.148-6.727-7.014-12.496-4.554      c-4.426,1.888-10.004,5.044-15.201,8.483c-6.527,4.318-2.182,9.918-2.483,13.376c-0.269,3.059-4.69,4.852-4.69,4.852      s6.258,16.748,13.926,33.106c7.664,16.355,19.656,33.659,19.656,33.659c0.291,0.411,0.805,1.127,2.079,0.607      c1.818-0.742,73.235-48.569,75.63-49.854c0.43-0.229,0.719-0.552,0.919-0.871c-2.244-3.991-4.479-8.22-6.432-12.387      C106.645,42.33,100.516,25.529,100.722,25.434z"
   id="path33" />
				<linearGradient
   id="XMLID_3_"
   gradientUnits="userSpaceOnUse"
   x1="87.4238"
   y1="71.2764"
   x2="10.7515"
   y2="41.6424">
					<stop
   offset="0"
   style="stop-color:#001EA4"
   id="stop36" />
					<stop
   offset="1"
   style="stop-color:#398BFF"
   id="stop38" />
					<a:midPointStop
   offset="0"
   style="stop-color:#001EA4" />
					<a:midPointStop
   offset="0.5"
   style="stop-color:#001EA4" />
					<a:midPointStop
   offset="1"
   style="stop-color:#398BFF" />
				</linearGradient>
				<path
   fill="url(#XMLID_3_)"
   d="M92.703,1.771c-1.961,1.202-45.262,25.296-45.698,25.538l-0.053,0.029L46.9,27.375      c-0.03,0.021-3.072,2.143-6.08,1.118c-0.959-0.328-2.033-1.171-3.17-2.062c-2.756-2.162-6.186-4.853-11.018-2.792      C22.007,25.612,16,28.964,10.15,32.834c-5.683,3.758-4.515,8.488-3.662,11.941c0.301,1.217,0.585,2.367,0.51,3.227      c-0.187,2.129-3.203,3.812-4.35,4.281L1.66,52.688l0.373,1c0.066,0.18,6.822,18.206,14.97,35.589      c8.167,17.426,21.048,36.077,21.177,36.264c0.906,1.288,2.1,1.638,3.551,1.044c1.1-0.448,18.391-11.916,46.737-30.75      c16.412-10.904,33.384-22.181,34.486-22.771c0.572-0.304,1.045-0.749,1.401-1.323l0.345-0.553l-0.319-0.567      c-2.657-4.725-4.966-9.17-6.862-13.215c-8.084-17.246-14.25-34.148-14.492-35.332l-0.008-0.04l-0.016-0.13      c-1.819-6.414-3.201-11.858-4.026-15.111l-0.752-2.896c-0.367-1.263-1.13-2.176-2.148-2.57      C95.033,0.92,93.835,1.078,92.703,1.771z M93.853,3.646c0.524-0.32,1.045-0.42,1.429-0.271c0.467,0.181,0.709,0.716,0.83,1.132      c0,0.001,0.732,2.824,0.732,2.824c0.829,3.264,2.215,8.727,4.042,15.17c0,0,0.013-0.025,0.013-0.027      c0.215,1.321,1.325,4.264,4.146,11.424c2.339,5.936,6.055,14.994,10.482,24.44c1.819,3.88,4.036,8.141,6.546,12.636      c-0.057,0.041-0.091,0.113-0.153,0.146c-1.198,0.643-16.709,10.948-34.669,22.881c-20.022,13.303-44.941,29.859-46.379,30.557      c-0.537,0.22-0.611,0.113-0.887-0.278c-0.124-0.179-12.902-18.682-20.989-35.938C11.938,73.286,5.934,57.752,4.449,53.855      c1.564-0.83,4.485-2.752,4.74-5.662c0.014-0.161,0.021-0.324,0.021-0.488c0-1.085-0.287-2.242-0.586-3.457      c-0.323-1.307-0.65-2.631-0.65-3.936c0-1.972,0.748-3.896,3.39-5.645c5.743-3.799,11.623-7.082,16.132-9.006      c3.635-1.55,6.259,0.509,8.797,2.5c1.287,1.01,2.504,1.965,3.816,2.413c3.917,1.334,7.553-1.054,8.005-1.366      C50.246,28.023,91.861,4.867,93.853,3.646z"
   id="path40" />
				<path
   fill="none"
   d="M128,128H0V0h128V128z"
   id="path42" />
			</g>
			<linearGradient
   id="XMLID_4_"
   gradientUnits="userSpaceOnUse"
   x1="32.1113"
   y1="59.9604"
   x2="85.1559"
   y2="67.4256">
				<stop
   offset="0"
   style="stop-color:#CDF8FF"
   id="stop45" />
				<stop
   offset="0.1068"
   style="stop-color:#A1D6FF"
   id="stop47" />
				<stop
   offset="0.2858"
   style="stop-color:#5CA2FF"
   id="stop49" />
				<stop
   offset="0.4358"
   style="stop-color:#2A7BFF"
   id="stop51" />
				<stop
   offset="0.549"
   style="stop-color:#0C64FF"
   id="stop53" />
				<stop
   offset="0.6124"
   style="stop-color:#005BFF"
   id="stop55" />
				<stop
   offset="0.7113"
   style="stop-color:#0056FF"
   id="stop57" />
				<stop
   offset="0.8313"
   style="stop-color:#0047FF"
   id="stop59" />
				<stop
   offset="0.9616"
   style="stop-color:#002FFF"
   id="stop61" />
				<stop
   offset="1"
   style="stop-color:#0026FF"
   id="stop63" />
				<a:midPointStop
   offset="0"
   style="stop-color:#CDF8FF" />
				<a:midPointStop
   offset="0.4214"
   style="stop-color:#CDF8FF" />
				<a:midPointStop
   offset="0.6124"
   style="stop-color:#005BFF" />
				<a:midPointStop
   offset="0.6667"
   style="stop-color:#005BFF" />
				<a:midPointStop
   offset="1"
   style="stop-color:#0026FF" />
			</linearGradient>
			<path
   opacity="0.4"
   fill="url(#XMLID_4_)"
   d="M40.3,124.545c0,0-5.63-13.158-9.86-26.29c-3.762-11.693-8.514-27.498-5.066-30.032     c3.033-2.229,17.423-10.991,21.643-13.982c3.77-2.672,2.719-9.599,5.253-14.022c1.243-2.17,3.354-3.299,3.354-3.299     S105.001,8.47,107.793,6.608c1.351-0.899,3.126,0.315,3.126,2.258c0,2.669,2.196,18.056,5.485,33.048     c3.294,15.017,8.718,28.038,8.718,28.038s-0.133,1.522-1.458,2.23c-2.572,1.375-79.172,52.676-81.124,53.473     C40.588,126.451,40.3,124.545,40.3,124.545z"
   id="path65" />
			<defs
   id="defs67">
				<filter
   id="Adobe_OpacityMaskFilter"
   filterUnits="userSpaceOnUse"
   x="37"
   y="9.75"
   width="86.795"
   height="115.955">
					<feColorMatrix
   type="matrix"
   values="1 0 0 0 0  0 1 0 0 0  0 0 1 0 0  0 0 0 1 0"
   id="feColorMatrix70" />
				</filter>
			</defs>
			<mask
   maskUnits="userSpaceOnUse"
   x="37"
   y="9.75"
   width="86.795"
   height="115.955"
   id="XMLID_5_">
				<g
   filter="url(#Adobe_OpacityMaskFilter)"
   id="g73">
					<linearGradient
   id="XMLID_6_"
   gradientUnits="userSpaceOnUse"
   x1="101.9082"
   y1="30.7671"
   x2="12.619"
   y2="86.1555">
						<stop
   offset="0"
   style="stop-color:#FFFFFF"
   id="stop76" />
						<stop
   offset="1"
   style="stop-color:#000000"
   id="stop78" />
						<a:midPointStop
   offset="0"
   style="stop-color:#FFFFFF" />
						<a:midPointStop
   offset="0.5"
   style="stop-color:#FFFFFF" />
						<a:midPointStop
   offset="1"
   style="stop-color:#000000" />
					</linearGradient>
					<path
   fill="url(#XMLID_6_)"
   d="M125.483,115.934H-1.522V-4.865h127.006V115.934z"
   id="path80" />
				</g>
			</mask>
			<linearGradient
   id="XMLID_7_"
   gradientUnits="userSpaceOnUse"
   x1="46.1694"
   y1="55.1499"
   x2="97.3291"
   y2="76.854">
				<stop
   offset="0"
   style="stop-color:#6AC5FF"
   id="stop83" />
				<stop
   offset="0.1262"
   style="stop-color:#61B3F6"
   id="stop85" />
				<stop
   offset="0.3781"
   style="stop-color:#4886E0"
   id="stop87" />
				<stop
   offset="0.7286"
   style="stop-color:#213DBD"
   id="stop89" />
				<stop
   offset="1"
   style="stop-color:#00009F"
   id="stop91" />
				<a:midPointStop
   offset="0"
   style="stop-color:#6AC5FF" />
				<a:midPointStop
   offset="0.5526"
   style="stop-color:#6AC5FF" />
				<a:midPointStop
   offset="1"
   style="stop-color:#00009F" />
			</linearGradient>
			<path
   opacity="0.4"
   mask="url(#XMLID_5_)"
   fill="url(#XMLID_7_)"
   d="M115.251,43.631c-0.67-3.055-4.683-30.909-5.251-33.881     c-7.5,68.5-57.5,36.75-73,98.75c-1.066,4.266,3.66,16.117,3.66,16.117s0.283,1.868,2.196,1.088     c1.913-0.781,76.988-51.061,79.51-52.408c1.299-0.694,1.429-2.187,1.429-2.187S118.479,58.348,115.251,43.631z"
   id="path93" />
			<path
   fill="#FFFFFF"
   d="M28.949,69.737c3.033-2.228,17.424-10.99,21.643-13.982c3.77-2.672,2.721-9.6,5.253-14.022     c1.244-2.17,3.354-3.3,3.354-3.3s42.856-24.691,50.972-29.57c-0.296-1.609-1.847-2.523-3.065-1.712     c-2.793,1.86-52.172,30.31-52.172,30.31s-2.109,1.129-3.354,3.3c-2.533,4.423-1.483,11.35-5.253,14.022     c-4.22,2.991-18.609,11.754-21.642,13.981c-3.449,2.534,1.303,18.339,5.066,30.031c4.23,13.134,9.86,26.291,9.86,26.291     s0.288,1.907,2.239,1.109c0.148-0.059,0.727-0.41,1.658-1.002c-1.311-3.131-5.905-14.285-9.494-25.426     C30.252,88.076,25.502,72.271,28.949,69.737z"
   id="path95" />
			<linearGradient
   id="XMLID_8_"
   gradientUnits="userSpaceOnUse"
   x1="57.8667"
   y1="100.9258"
   x2="120.5585"
   y2="70.7129">
				<stop
   offset="0"
   style="stop-color:#FFFFFF"
   id="stop98" />
				<stop
   offset="1"
   style="stop-color:#B1B1C5"
   id="stop100" />
				<a:midPointStop
   offset="0"
   style="stop-color:#FFFFFF" />
				<a:midPointStop
   offset="0.5"
   style="stop-color:#FFFFFF" />
				<a:midPointStop
   offset="1"
   style="stop-color:#B1B1C5" />
			</linearGradient>
			<path
   fill="url(#XMLID_8_)"
   d="M34.57,110.088c3.049,8.195,5.729,14.457,5.729,14.457s0.288,1.906,2.24,1.11     c1.952-0.797,78.552-52.098,81.124-53.473c1.325-0.708,1.458-2.23,1.458-2.23s-2.802-6.724-5.6-16.083     C103.634,64.267,49.998,100.108,34.57,110.088z"
   id="path102" />
			<linearGradient
   id="XMLID_9_"
   gradientUnits="userSpaceOnUse"
   x1="18.0327"
   y1="124.1084"
   x2="116.4508"
   y2="70.4536">
				<stop
   offset="0"
   style="stop-color:#FFFFFF"
   id="stop105" />
				<stop
   offset="1"
   style="stop-color:#B1B1C5"
   id="stop107" />
				<a:midPointStop
   offset="0"
   style="stop-color:#FFFFFF" />
				<a:midPointStop
   offset="0.5"
   style="stop-color:#FFFFFF" />
				<a:midPointStop
   offset="1"
   style="stop-color:#B1B1C5" />
			</linearGradient>
			<path
   fill="url(#XMLID_9_)"
   a:adobe-blending-mode="multiply"
   d="M119.522,53.869c-0.107,0.069-0.221,0.145-0.332,0.217     c2.44,7.683,4.63,12.942,4.63,12.942s-0.133,1.521-1.457,2.229c-2.571,1.375-79.172,52.676-81.123,53.473     c-0.902,0.369-1.445,0.157-1.773-0.176c0.523,1.263,0.833,1.99,0.833,1.99s0.288,1.906,2.24,1.11     c1.952-0.797,78.552-52.098,81.124-53.473c1.325-0.708,1.458-2.23,1.458-2.23S122.32,63.229,119.522,53.869z"
   id="path109" />
			<linearGradient
   id="XMLID_10_"
   gradientUnits="userSpaceOnUse"
   x1="95.627"
   y1="73.9512"
   x2="35.7537"
   y2="50.8101">
				<stop
   offset="0"
   style="stop-color:#001EA4"
   id="stop112" />
				<stop
   offset="1"
   style="stop-color:#398BFF"
   id="stop114" />
				<a:midPointStop
   offset="0"
   style="stop-color:#001EA4" />
				<a:midPointStop
   offset="0.5"
   style="stop-color:#001EA4" />
				<a:midPointStop
   offset="1"
   style="stop-color:#398BFF" />
			</linearGradient>
			<path
   fill="url(#XMLID_10_)"
   d="M107.184,5.693c-2.731,1.82-51.617,29.988-52.111,30.272c-0.066,0.036-2.373,1.289-3.758,3.705     c-1.154,2.015-1.605,4.41-2.043,6.726c-0.548,2.906-1.064,5.651-2.893,6.946c-2.108,1.495-6.814,4.466-11.364,7.337     c-4.506,2.845-8.762,5.531-10.293,6.656c-1.098,0.808-1.665,2.348-1.665,4.863c0,4.761,2.031,13.013,6.336,26.393     c4.072,12.642,9.488,25.429,9.86,26.303c0.085,0.371,0.365,1.257,1.237,1.752c0.482,0.274,1.303,0.502,2.465,0.027     c1.098-0.448,18.279-11.843,46.446-30.558c16.554-10.997,33.671-22.37,34.781-22.964c1.461-0.78,1.967-2.318,2.035-3.104     l0.023-0.27l-0.104-0.249c-0.054-0.13-5.426-13.11-8.659-27.852c-3.341-15.228-5.46-30.459-5.46-32.812     c0-1.423-0.713-2.688-1.861-3.304C109.192,5.047,108.081,5.096,107.184,5.693z M41.578,124.734     c-0.076-0.042-0.168-0.237-0.193-0.372l-0.022-0.118l-0.052-0.132c-0.056-0.131-5.658-13.265-9.824-26.194     c-5.667-17.614-7.505-27.307-5.462-28.809c1.469-1.079,5.692-3.746,10.165-6.568c4.574-2.889,9.305-5.875,11.462-7.403     c2.552-1.81,3.178-5.126,3.782-8.333c0.402-2.137,0.82-4.348,1.789-6.04c1.062-1.853,2.902-2.867,2.922-2.878     c2.044-1.177,49.469-28.504,52.259-30.363c0.223-0.148,0.464-0.156,0.716-0.021c0.322,0.174,0.7,0.635,0.7,1.364     c0,2.868,2.272,18.522,5.511,33.284c3.012,13.73,7.844,25.924,8.65,27.914c-0.078,0.305-0.284,0.854-0.835,1.148     c-1.122,0.6-13.957,9.116-34.961,23.071c-19.897,13.219-44.659,29.671-46.087,30.364     C41.797,124.771,41.623,124.759,41.578,124.734z"
   id="path116" />
		</g>
	</g>
<g
   id="g3915"
   transform="matrix(1.8724213,0,0,1.8416415,42.796411,49.269664)"
   inkscape:export-xdpi="482"
   inkscape:export-ydpi="482"><g
     inkscape:label="vectors"
     id="g3917" /><g
     transform="matrix(1.025079,0,0,1.567924,-0.589373,-22.96863)"
     style="opacity:0.3"
     id="g3314"><rect
       style="opacity:1;fill:url(#radialGradient3296);fill-opacity:1;stroke:none;stroke-width:1;stroke-linecap:round;stroke-linejoin:round;stroke-miterlimit:4;stroke-dasharray:none;stroke-dashoffset:1.4;stroke-opacity:1"
       id="rect3288"
       width="3"
       height="6"
       x="-5"
       y="-41.5"
       transform="scale(-1,-1)" /><rect
       style="opacity:1;fill:url(#radialGradient3300);fill-opacity:1;stroke:none;stroke-width:1;stroke-linecap:round;stroke-linejoin:round;stroke-miterlimit:4;stroke-dasharray:none;stroke-dashoffset:1.4;stroke-opacity:1"
       id="rect3298"
       width="3"
       height="6"
       x="42"
       y="35.5" /><rect
       style="opacity:1;fill:url(#linearGradient3310);fill-opacity:1;stroke:none;stroke-width:1;stroke-linecap:round;stroke-linejoin:round;stroke-miterlimit:4;stroke-dasharray:none;stroke-dashoffset:1.4;stroke-opacity:1"
       id="rect3302"
       width="37"
       height="6"
       x="5"
       y="35.5" /></g><path
     transform="matrix(0.46236,0,0,1.404762,12.25892,-15.41071)"
     d="M 46.875,39 A 22.5625,5.25 0 1 1 1.75,39 A 22.5625,5.25 0 1 1 46.875,39 z"
     sodipodi:ry="5.25"
     sodipodi:rx="22.5625"
     sodipodi:cy="39"
     sodipodi:cx="24.3125"
     id="path3270"
     style="opacity:0.18857141;fill:url(#radialGradient3286);fill-opacity:1;stroke:none;stroke-width:1.03653526;stroke-linecap:round;stroke-linejoin:round;stroke-miterlimit:4;stroke-dasharray:none;stroke-dashoffset:1.4;stroke-opacity:1"
     sodipodi:type="arc" /><g
     transform="matrix(-1,0,0,1,-36,0)"
     id="g3370"><path
       style="fill:url(#linearGradient3380);fill-opacity:1;stroke:#4e9a06;stroke-width:1.00000012;stroke-linecap:square;stroke-linejoin:round;stroke-miterlimit:7.0999999;stroke-dashoffset:1.4;stroke-opacity:1"
       d="M -78.500004,8 L -78.500004,38.001826 C -78.500004,38.831811 -77.839354,39.499993 -77.018725,39.499993 L -67.98128,39.499993 C -67.160651,39.499993 -66.5,38.831811 -66.5,38.001826 L -66.5,8 L -65.5,5.5 L -65.5,10.5 L -65.5,7.5 L -76.5,7.5 L -76.5,5.5 L -78.500004,8 z"
       id="path3372"
       sodipodi:nodetypes="cccccccccccc" /><path
       style="opacity:0.7;fill:none;fill-opacity:1;stroke:url(#linearGradient3382);stroke-width:1;stroke-linecap:round;stroke-linejoin:miter;stroke-miterlimit:7.0999999;stroke-dashoffset:1.4;stroke-opacity:1"
       d="M -67.499993,8.5062626 L -67.499993,37.874998 C -67.499993,38.221248 -67.778743,38.499998 -68.124993,38.499998 L -76.874999,38.499998 C -77.221249,38.499998 -77.499999,38.221248 -77.499999,37.874998 L -77.499999,8.5062626 L -67.499993,8.5062626 z"
       id="path3378"
       sodipodi:nodetypes="ccccccc" /></g><g
     transform="translate(83,0)"
     id="g3398"><path
       style="fill:url(#linearGradient3408);fill-opacity:1;stroke:#888a85;stroke-width:1.00000012;stroke-linecap:square;stroke-linejoin:round;stroke-miterlimit:7.0999999;stroke-dashoffset:1.4;stroke-opacity:1"
       d="M -78.500004,8 L -78.500004,38.001826 C -78.500004,38.831811 -77.839354,39.499993 -77.018725,39.499993 L -67.98128,39.499993 C -67.160651,39.499993 -66.5,38.831811 -66.5,38.001826 L -66.5,8 L -65.5,5.5 L -65.5,10.5 L -65.5,7.5 L -76.5,7.5 L -76.5,5.5 L -78.500004,8 z"
       id="path3400"
       sodipodi:nodetypes="cccccccccccc" /><path
       sodipodi:nodetypes="ccccccc"
       style="fill:#babdb6;fill-rule:evenodd;stroke:none;stroke-width:0.80000001;stroke-linecap:butt;stroke-linejoin:round;stroke-miterlimit:4;stroke-dasharray:none;stroke-opacity:1"
       d="M -76.421875,6.03125 L -77.8125,7.6875 C -77.671652,7.8804108 -77.454795,7.9999998 -77.15625,8 L -67.8125,8 C -67.470114,8 -67.130791,7.8383582 -66.875,7.59375 L -66.3125,6.3125 C -66.3125,4.3125 -75.52489,4.8535534 -76.421875,6.03125 z"
       id="path3402" /><path
       style="fill:#d9d9d5;fill-opacity:1;fill-rule:evenodd;stroke:url(#linearGradient6512);stroke-width:1;stroke-linecap:butt;stroke-linejoin:miter;stroke-miterlimit:4;stroke-opacity:1"
       d="M -76.75,7.15625 L -77.5,8 C -77.5,8 -77.5,8.5 -77,8.5 L -68.09375,8.5 C -67.915074,8.5 -67.5,8.5 -67.5,8 L -67.1875,7.09375 C -68.027459,5.375 -75.615309,5.9272366 -76.75,7.15625 z"
       id="path3404"
       sodipodi:nodetypes="ccccccc" /><path
       style="opacity:0.7;fill:none;fill-opacity:1;stroke:url(#linearGradient3410);stroke-width:1;stroke-linecap:round;stroke-linejoin:miter;stroke-miterlimit:7.0999999;stroke-dashoffset:1.4;stroke-opacity:1"
       d="M -67.499993,8.5062626 L -67.499993,37.874998 C -67.499993,38.221248 -67.778743,38.499998 -68.124993,38.499998 L -76.874999,38.499998 C -77.221249,38.499998 -77.499999,38.221248 -77.499999,37.874998 L -77.499999,8.5062626 L -67.499993,8.5062626 z"
       id="path3406"
       sodipodi:nodetypes="ccccccc" /></g><path
     sodipodi:nodetypes="ccccccc"
     id="path3265"
     d="M 18.84375,4.40625 L 17.15625,14.8125 C 17.330483,15.104491 17.633901,15.3125 18,15.3125 L 29,15.3125 C 29.366099,15.3125 29.669517,15.104491 29.84375,14.8125 L 28.15625,4.40625 C 25.024803,5.7913019 21.897881,5.9787253 18.84375,4.40625 z"
     style="fill:url(#linearGradient5587);fill-opacity:1;fill-rule:evenodd;stroke:none;stroke-width:0.79999977;stroke-linecap:butt;stroke-linejoin:round;stroke-miterlimit:4;stroke-dasharray:none;stroke-opacity:1" /><path
     style="fill:url(#linearGradient5584);fill-opacity:1;stroke:#204a87;stroke-width:1.00000012;stroke-linecap:square;stroke-linejoin:round;stroke-miterlimit:7.0999999;stroke-dashoffset:1.4;stroke-opacity:1"
     d="M 30.500004,15.519495 L 29.500004,39.001826 C 29.500004,39.831811 28.839354,40.499993 28.018725,40.499993 L 18.98128,40.499993 C 18.160651,40.499993 17.500001,39.831811 17.500001,39.001826 L 16.500001,15.519495 L 18.5,4.5 L 18.56932,8.4558058 L 28.519068,8.5 L 28.5,4.5 L 30.500004,15.519495 z"
     id="path3133"
     sodipodi:nodetypes="ccccccccccc" /><path
     sodipodi:nodetypes="ccccccc"
     id="path3147"
     d="M 18.84375,5.5625 L 17.15625,14.8125 C 17.330483,15.104491 17.633901,15.3125 18,15.3125 L 29,15.3125 C 29.366099,15.3125 29.669517,15.104491 29.84375,14.8125 L 28.15625,5.5625 C 25.051937,5.835068 21.95209,4.9123898 18.84375,5.5625 z"
     style="fill:url(#linearGradient5581);fill-opacity:1;fill-rule:evenodd;stroke:none;stroke-width:0.79999977;stroke-linecap:butt;stroke-linejoin:round;stroke-miterlimit:4;stroke-dasharray:none;stroke-opacity:1" /><path
     sodipodi:nodetypes="ccsccsccc"
     id="path3143"
     d="M 17.5,15.5 L 18.46875,38.96875 C 18.468918,38.979166 18.468918,38.989584 18.46875,39 C 18.46875,39.325664 18.675424,39.53125 18.96875,39.53125 L 28.03125,39.53125 C 28.324578,39.53125 28.53125,39.325663 28.53125,39 C 28.531082,38.989584 28.531082,38.979166 28.53125,38.96875 L 29.5,15.5 L 17.5,15.5 z"
     style="opacity:0.5;fill:none;fill-opacity:1;stroke:url(#linearGradient5578);stroke-width:1;stroke-linecap:square;stroke-linejoin:round;stroke-miterlimit:7.0999999;stroke-dasharray:none;stroke-dashoffset:1.4;stroke-opacity:1" /><path
     id="path3156"
     d="M 18.71875,6.3212121 L 18.875,5.1962121 C 22.042187,3.8586583 24.858465,3.9019639 28.0625,5.0868371 L 28.3125,6.3524621 C 25.135083,4.8843265 21.883341,5.046444 18.71875,6.3212121 z"
     style="fill:#babdb6;fill-opacity:1;fill-rule:evenodd;stroke:none;stroke-width:1;stroke-linecap:butt;stroke-linejoin:round;stroke-miterlimit:4;stroke-dasharray:none;stroke-opacity:1"
     sodipodi:nodetypes="ccccc" /><path
     id="path5593"
     d="M 17.854446,15.235651 L 29.43332,15.324039 L 28.726213,12.230447 L 18.119611,11.876894 L 17.854446,15.235651 z"
     style="opacity:0.26285712;fill:url(#linearGradient5601);fill-opacity:1;fill-rule:evenodd;stroke:none;stroke-width:1px;stroke-linecap:butt;stroke-linejoin:miter;stroke-opacity:1" /><path
     sodipodi:nodetypes="ccccccc"
     id="path3302"
     d="M 27.858714,6.7308376 C 25.238676,5.3955964 21.879932,5.1240982 19.129932,6.7167158 L 17.588375,15.228661 C 17.704845,15.382909 17.857544,15.501406 18.045033,15.501406 L 28.932849,15.501406 C 29.120339,15.501406 29.273037,15.382909 29.389507,15.228661 L 27.858714,6.7308376 z"
     style="fill:none;fill-opacity:1;fill-rule:evenodd;stroke:#ffffff;stroke-width:1.00000024;stroke-linecap:butt;stroke-linejoin:miter;stroke-miterlimit:4;stroke-dasharray:none;stroke-opacity:1" /><g
     transform="translate(49,1)"
     id="g3440"><path
       style="fill:#cfcfc9;fill-opacity:1;stroke:#e2e2e2;stroke-width:0.99999988;stroke-linecap:round;stroke-linejoin:round;stroke-miterlimit:4;stroke-dashoffset:1.4;stroke-opacity:1"
       d="M -29.5,16.5 L -29.25,22.5 L -21.75,22.5 L -21.5,16.5 L -29.5,16.5 z"
       id="path3292" /><g
       id="g3436"><path
         transform="matrix(0.969746,0,0,0.819835,-35.65714,6.36533)"
         d="M 13.567611,32.487846 A 3.0935922,3.0493979 0 1 1 7.3804269,32.487846 A 3.0935922,3.0493979 0 1 1 13.567611,32.487846 z"
         sodipodi:ry="3.0493979"
         sodipodi:rx="3.0935922"
         sodipodi:cy="32.487846"
         sodipodi:cx="10.474019"
         id="path3294"
         style="opacity:1;fill:#888a85;fill-opacity:1;stroke:#204a87;stroke-width:1.12152207;stroke-linecap:round;stroke-linejoin:round;stroke-miterlimit:4;stroke-dasharray:none;stroke-dashoffset:1.4;stroke-opacity:1"
         sodipodi:type="arc" /><path
         sodipodi:nodetypes="ccscc"
         id="path3296"
         d="M -25.5,32.015615 C -26.699954,32.015615 -27.674466,32.467603 -27.90625,33.416662 C -27.674466,34.36572 -26.668704,35.083333 -25.46875,35.083333 C -24.268796,35.083333 -23.294284,34.365721 -23.0625,33.416662 C -23.294285,32.467603 -24.300047,32.015615 -25.5,32.015615 z"
         style="opacity:1;fill:#d3d7cf;fill-opacity:1;stroke:none;stroke-width:1;stroke-linecap:round;stroke-linejoin:round;stroke-miterlimit:4;stroke-dasharray:none;stroke-dashoffset:1.4;stroke-opacity:1" /></g></g><g
     transform="translate(49,0)"
     id="g3418"><rect
       style="opacity:1;fill:#eeeeec;fill-opacity:1;stroke:#ffffff;stroke-width:0.99999988;stroke-linecap:round;stroke-linejoin:round;stroke-miterlimit:4;stroke-dasharray:none;stroke-dashoffset:1.4;stroke-opacity:1"
       id="rect3354"
       width="5.9999971"
       height="7.0000043"
       x="-41.499996"
       y="11.499996"
       rx="0"
       ry="0" /><g
       id="g3362"
       transform="translate(-49,0)"><path
         transform="matrix(0.969746,0,0,0.983799,0.342857,-0.4615)"
         d="M 13.567611,32.487846 A 3.0935922,3.0493979 0 1 1 7.3804269,32.487846 A 3.0935922,3.0493979 0 1 1 13.567611,32.487846 z"
         sodipodi:ry="3.0493979"
         sodipodi:rx="3.0935922"
         sodipodi:cy="32.487846"
         sodipodi:cx="10.474019"
         id="path3364"
         style="opacity:1;fill:#babdb6;fill-opacity:1;stroke:#888a85;stroke-width:1.02380633;stroke-linecap:round;stroke-linejoin:round;stroke-miterlimit:4;stroke-dasharray:none;stroke-dashoffset:1.4;stroke-opacity:1"
         sodipodi:type="arc" /><path
         id="path3366"
         d="M 10.5,30 C 9.300046,30 8.325534,30.861133 8.09375,32 C 8.325534,33.138867 9.331296,34 10.53125,34 C 11.731204,34 12.705716,33.138868 12.9375,32 C 12.705715,30.861133 11.699953,30 10.5,30 z"
         style="opacity:1;fill:url(#linearGradient3499);fill-opacity:1;stroke:none;stroke-width:1;stroke-linecap:round;stroke-linejoin:round;stroke-miterlimit:4;stroke-dasharray:none;stroke-dashoffset:1.4;stroke-opacity:1" /></g></g><path
     transform="matrix(0.969746,0,0,0.983799,26.34286,-0.4615)"
     d="M 13.567611,32.487846 A 3.0935922,3.0493979 0 1 1 7.3804269,32.487846 A 3.0935922,3.0493979 0 1 1 13.567611,32.487846 z"
     sodipodi:ry="3.0493979"
     sodipodi:rx="3.0935922"
     sodipodi:cy="32.487846"
     sodipodi:cx="10.474019"
     id="path3386"
     style="opacity:1;fill:#babdb6;fill-opacity:1;stroke:#4e9a06;stroke-width:1.02380633;stroke-linecap:round;stroke-linejoin:round;stroke-miterlimit:4;stroke-dasharray:none;stroke-dashoffset:1.4;stroke-opacity:1"
     sodipodi:type="arc" /><g
     transform="translate(49,0)"
     id="g3424"><rect
       style="opacity:1;fill:#eeeeec;fill-opacity:1;stroke:#ffffff;stroke-width:0.99999988;stroke-linecap:round;stroke-linejoin:round;stroke-miterlimit:4;stroke-dasharray:none;stroke-dashoffset:1.4;stroke-opacity:1"
       id="rect3384"
       width="5.9999971"
       height="7.0000043"
       x="-15.499996"
       y="11.499996"
       rx="0"
       ry="0" /><path
       style="opacity:1;fill:url(#linearGradient3497);fill-opacity:1;stroke:none;stroke-width:1;stroke-linecap:round;stroke-linejoin:round;stroke-miterlimit:4;stroke-dasharray:none;stroke-dashoffset:1.4;stroke-opacity:1"
       d="M -12.5,30 C -13.699954,30 -14.674466,30.861133 -14.90625,32 C -14.674466,33.138867 -13.668704,34 -12.46875,34 C -11.268796,34 -10.294284,33.138868 -10.0625,32 C -10.294285,30.861133 -11.300047,30 -12.5,30 z"
       id="path3388" /></g><path
     sodipodi:nodetypes="ccccccc"
     style="fill:#babdb6;fill-rule:evenodd;stroke:none;stroke-width:0.80000001;stroke-linecap:butt;stroke-linejoin:round;stroke-miterlimit:4;stroke-dasharray:none;stroke-opacity:1"
     d="M 40.421875,6.0529866 L 41.8125,7.7092366 C 41.671652,7.9021474 41.454795,8.021736 41.15625,8.021737 L 31.8125,8.021737 C 31.470114,8.021737 31.130791,7.8600948 30.875,7.6154866 L 30.3125,6.3342366 C 30.3125,4.3342366 39.52489,4.87529 40.421875,6.0529866 z"
     id="path3572" /><path
     style="fill:#d9d9d5;fill-opacity:1;fill-rule:evenodd;stroke:url(#linearGradient6496);stroke-width:1;stroke-linecap:butt;stroke-linejoin:miter;stroke-miterlimit:4;stroke-opacity:1"
     d="M 40.75,7.1779866 L 41.5,8.021737 C 41.5,8.021737 41.5,8.521737 41,8.521737 L 32.09375,8.521737 C 31.915074,8.521737 31.5,8.521737 31.5,8.021737 L 31.1875,7.1154866 C 32.027459,5.3967366 39.615309,5.9489732 40.75,7.1779866 z"
     id="path3574"
     sodipodi:nodetypes="ccccccc" /><g
     style="opacity:1"
     transform="matrix(1,0,0,0.960159,0,1.257719)"
     id="g3588"><path
       style="fill:#babdb6;fill-opacity:1;fill-rule:evenodd;stroke:none;stroke-width:1px;stroke-linecap:butt;stroke-linejoin:miter;stroke-opacity:1"
       d="M 22.6875,14.3125 L 23.1875,6.4687499 L 23.375,14.3125 L 22.6875,14.3125 z"
       id="path3580"
       sodipodi:nodetypes="cccc" /><path
       style="fill:#babdb6;fill-opacity:1;fill-rule:evenodd;stroke:none;stroke-width:1px;stroke-linecap:butt;stroke-linejoin:miter;stroke-opacity:1"
       d="M 25.6875,14.3125 L 25.6875,7.7499999 L 26.375,14.3125 L 25.6875,14.3125 z"
       id="path3582"
       sodipodi:nodetypes="cccc" /><path
       style="fill:#babdb6;fill-opacity:1;fill-rule:evenodd;stroke:none;stroke-width:1px;stroke-linecap:butt;stroke-linejoin:miter;stroke-opacity:1"
       d="M 19.6875,14.3125 L 20.46875,9.9375 L 20.375,14.3125 L 19.6875,14.3125 z"
       id="path3586"
       sodipodi:nodetypes="cccc" /></g><g
     transform="translate(0,1)"
     style="opacity:0.22285713"
     id="g6518"><path
       style="fill:none;fill-rule:evenodd;stroke:#000000;stroke-width:0.99999982px;stroke-linecap:square;stroke-linejoin:miter;stroke-opacity:1"
       d="M 21.416659,18.5 L 25.583324,18.5"
       id="path6514" /><path
       id="path6516"
       d="M 21.333335,20.5 L 25.5,20.5"
       style="fill:none;fill-rule:evenodd;stroke:#000000;stroke-width:0.99999982px;stroke-linecap:square;stroke-linejoin:miter;stroke-opacity:1" /></g><g
     transform="matrix(0.952384,0,0,1,14.15866,-5)"
     id="g6522"
     style="opacity:0.1"><path
       id="path6524"
       d="M 21.416659,18.5 L 25.583324,18.5"
       style="fill:none;fill-rule:evenodd;stroke:#000000;stroke-width:1.02469325px;stroke-linecap:square;stroke-linejoin:miter;stroke-opacity:1" /><path
       style="fill:none;fill-rule:evenodd;stroke:#000000;stroke-width:1.02469325px;stroke-linecap:square;stroke-linejoin:miter;stroke-opacity:1"
       d="M 21.333335,20.5 L 25.5,20.5"
       id="path6526" /></g><g
     style="opacity:0.1"
     id="g6528"
     transform="matrix(0.952384,0,0,1,-11.84133,-5)"><path
       style="fill:none;fill-rule:evenodd;stroke:#000000;stroke-width:1.02469337px;stroke-linecap:square;stroke-linejoin:miter;stroke-opacity:1"
       d="M 21.416659,18.5 L 25.583324,18.5"
       id="path6530" /><path
       id="path6532"
       d="M 21.333335,20.5 L 25.5,20.5"
       style="fill:none;fill-rule:evenodd;stroke:#000000;stroke-width:1.02469337px;stroke-linecap:square;stroke-linejoin:miter;stroke-opacity:1" /></g></g></svg>