<?xml version="1.0" encoding="UTF-8" standalone="no"?>
<!-- Generator: Adobe Illustrator 10.0.3, SVG Export Plug-In . SVG Version: 3.0.0 Build 77)  -->
<svg
   xmlns:a="http://ns.adobe.com/AdobeSVGViewerExtensions/3.0/"
   xmlns:dc="http://purl.org/dc/elements/1.1/"
   xmlns:cc="http://creativecommons.org/ns#"
   xmlns:rdf="http://www.w3.org/1999/02/22-rdf-syntax-ns#"
   xmlns:svg="http://www.w3.org/2000/svg"
   xmlns="http://www.w3.org/2000/svg"
   xmlns:sodipodi="http://sodipodi.sourceforge.net/DTD/sodipodi-0.dtd"
   xmlns:inkscape="http://www.inkscape.org/namespaces/inkscape"
   width="128"
   height="128"
   viewBox="0 0 128 128"
   overflow="visible"
   enable-background="new 0 0 128 128"
   xml:space="preserve"
   id="svg2"
   sodipodi:version="0.32"
   inkscape:version="0.46"
   sodipodi:docname="folder_work.svg"
   inkscape:output_extension="org.inkscape.output.svg.inkscape"
   inkscape:export-filename="/home/rrp/Ikony/folder_work.png"
   inkscape:export-xdpi="180"
   inkscape:export-ydpi="180"><metadata
   id="metadata121"><rdf:RDF><cc:Work
       rdf:about=""><dc:format>image/svg+xml</dc:format><dc:type
         rdf:resource="http://purl.org/dc/dcmitype/StillImage" /></cc:Work></rdf:RDF></metadata><defs
   id="defs119"><inkscape:perspective
   sodipodi:type="inkscape:persp3d"
   inkscape:vp_x="0 : 64 : 1"
   inkscape:vp_y="0 : 1000 : 0"
   inkscape:vp_z="128 : 64 : 1"
   inkscape:persp3d-origin="64 : 42.666667 : 1"
   id="perspective123" />
	<inkscape:perspective
   id="perspective2588"
   inkscape:persp3d-origin="256 : 151.33333 : 1"
   inkscape:vp_z="512 : 227 : 1"
   inkscape:vp_y="0 : 1000 : 0"
   inkscape:vp_x="0 : 227 : 1"
   sodipodi:type="inkscape:persp3d" /></defs><sodipodi:namedview
   inkscape:window-height="672"
   inkscape:window-width="640"
   inkscape:pageshadow="2"
   inkscape:pageopacity="0.0"
   guidetolerance="10.0"
   gridtolerance="10.0"
   objecttolerance="10.0"
   borderopacity="1.0"
   bordercolor="#666666"
   pagecolor="#ffffff"
   id="base"
   showgrid="false"
   inkscape:zoom="1.8203125"
   inkscape:cx="136.54651"
   inkscape:cy="54.022169"
   inkscape:window-x="391"
   inkscape:window-y="9"
   inkscape:current-layer="svg2" />
	<g
   id="Layer_1">
		<g
   id="g5">
			<g
   id="g7">
				<linearGradient
   id="XMLID_1_"
   gradientUnits="userSpaceOnUse"
   x1="67.0205"
   y1="-22.6318"
   x2="60.5043"
   y2="123.7301">
					<stop
   offset="0.382"
   style="stop-color:#DCF0FF"
   id="stop10" />
					<stop
   offset="0.4435"
   style="stop-color:#C9E6FF"
   id="stop12" />
					<stop
   offset="0.6311"
   style="stop-color:#92CAFF"
   id="stop14" />
					<stop
   offset="0.793"
   style="stop-color:#6AB5FF"
   id="stop16" />
					<stop
   offset="0.9213"
   style="stop-color:#52A9FF"
   id="stop18" />
					<stop
   offset="1"
   style="stop-color:#49A4FF"
   id="stop20" />
					<a:midPointStop
   offset="0.382"
   style="stop-color:#DCF0FF" />
					<a:midPointStop
   offset="0.4"
   style="stop-color:#DCF0FF" />
					<a:midPointStop
   offset="1"
   style="stop-color:#49A4FF" />
				</linearGradient>
				<path
   fill-rule="evenodd"
   clip-rule="evenodd"
   fill="url(#XMLID_1_)"
   d="M101.944,22.202      c-2.628-9.266-4.355-16.555-4.776-18.001c-0.604-2.081-2.325-2.449-3.891-1.492c-2.003,1.228-45.738,25.562-45.738,25.562      s-3.47,2.491-7.073,1.264c-3.601-1.23-7.215-7.521-13.401-4.884c-4.749,2.026-10.732,5.412-16.307,9.101      c-7.002,4.631-2.34,10.637-2.664,14.347c-0.287,3.28-5.031,5.204-5.031,5.204S9.776,71.266,17.999,88.81      s21.085,36.104,21.085,36.104c0.312,0.442,0.862,1.212,2.23,0.652c1.95-0.794,78.553-52.096,81.12-53.473      c0.462-0.245,0.773-0.591,0.987-0.935c-2.407-4.28-4.803-8.815-6.899-13.286C108.299,40.326,101.727,22.305,101.944,22.202z"
   id="path22" />
				<path
   fill-rule="evenodd"
   clip-rule="evenodd"
   fill="#FFFFFF"
   d="M101.944,23.202c-2.628-9.266-4.355-16.555-4.776-18.001      c-0.604-2.081-2.325-2.449-3.891-1.492c-2.003,1.228-45.738,25.562-45.738,25.562s-3.47,2.491-7.073,1.264      c-3.601-1.23-7.215-7.521-13.401-4.884c-4.749,2.026-10.732,5.412-16.307,9.101c-7.002,4.631-2.34,10.637-2.664,14.347      c-0.287,3.28-5.031,5.204-5.031,5.204S9.776,72.266,17.999,89.81s21.085,36.104,21.085,36.104      c0.312,0.442,0.862,1.212,2.23,0.652c1.95-0.794,78.553-52.096,81.12-53.473c0.462-0.245,0.773-0.591,0.987-0.935      c-2.407-4.28-4.803-8.815-6.899-13.286C108.299,41.326,101.727,23.305,101.944,23.202z"
   id="path24" />
				<linearGradient
   id="XMLID_2_"
   gradientUnits="userSpaceOnUse"
   x1="8.5332"
   y1="64.3467"
   x2="120.7432"
   y2="64.3467">
					<stop
   offset="0.0056"
   style="stop-color:#FFFFFF"
   id="stop27" />
					<stop
   offset="0.3989"
   style="stop-color:#87BBFF"
   id="stop29" />
					<stop
   offset="1"
   style="stop-color:#1E65FF"
   id="stop31" />
					<a:midPointStop
   offset="0.0056"
   style="stop-color:#FFFFFF" />
					<a:midPointStop
   offset="0.5"
   style="stop-color:#FFFFFF" />
					<a:midPointStop
   offset="0.3989"
   style="stop-color:#87BBFF" />
					<a:midPointStop
   offset="0.5"
   style="stop-color:#87BBFF" />
					<a:midPointStop
   offset="1"
   style="stop-color:#1E65FF" />
				</linearGradient>
				<path
   fill="url(#XMLID_2_)"
   d="M100.722,25.434C98.269,16.796,96.659,10,96.267,8.651c-0.563-1.94-2.166-2.284-3.627-1.392      c-1.867,1.145-42.641,23.83-42.641,23.83s-3.235,2.324-6.595,1.18c-3.357-1.148-6.727-7.014-12.496-4.554      c-4.426,1.888-10.004,5.044-15.201,8.483c-6.527,4.318-2.182,9.918-2.483,13.376c-0.269,3.059-4.69,4.852-4.69,4.852      s6.258,16.748,13.926,33.106c7.664,16.355,19.656,33.659,19.656,33.659c0.291,0.411,0.805,1.127,2.079,0.607      c1.818-0.742,73.235-48.569,75.63-49.854c0.43-0.229,0.719-0.552,0.919-0.871c-2.244-3.991-4.479-8.22-6.432-12.387      C106.645,42.33,100.516,25.529,100.722,25.434z"
   id="path33" />
				<linearGradient
   id="XMLID_3_"
   gradientUnits="userSpaceOnUse"
   x1="87.4238"
   y1="71.2764"
   x2="10.7515"
   y2="41.6424">
					<stop
   offset="0"
   style="stop-color:#001EA4"
   id="stop36" />
					<stop
   offset="1"
   style="stop-color:#398BFF"
   id="stop38" />
					<a:midPointStop
   offset="0"
   style="stop-color:#001EA4" />
					<a:midPointStop
   offset="0.5"
   style="stop-color:#001EA4" />
					<a:midPointStop
   offset="1"
   style="stop-color:#398BFF" />
				</linearGradient>
				<path
   fill="url(#XMLID_3_)"
   d="M92.703,1.771c-1.961,1.202-45.262,25.296-45.698,25.538l-0.053,0.029L46.9,27.375      c-0.03,0.021-3.072,2.143-6.08,1.118c-0.959-0.328-2.033-1.171-3.17-2.062c-2.756-2.162-6.186-4.853-11.018-2.792      C22.007,25.612,16,28.964,10.15,32.834c-5.683,3.758-4.515,8.488-3.662,11.941c0.301,1.217,0.585,2.367,0.51,3.227      c-0.187,2.129-3.203,3.812-4.35,4.281L1.66,52.688l0.373,1c0.066,0.18,6.822,18.206,14.97,35.589      c8.167,17.426,21.048,36.077,21.177,36.264c0.906,1.288,2.1,1.638,3.551,1.044c1.1-0.448,18.391-11.916,46.737-30.75      c16.412-10.904,33.384-22.181,34.486-22.771c0.572-0.304,1.045-0.749,1.401-1.323l0.345-0.553l-0.319-0.567      c-2.657-4.725-4.966-9.17-6.862-13.215c-8.084-17.246-14.25-34.148-14.492-35.332l-0.008-0.04l-0.016-0.13      c-1.819-6.414-3.201-11.858-4.026-15.111l-0.752-2.896c-0.367-1.263-1.13-2.176-2.148-2.57      C95.033,0.92,93.835,1.078,92.703,1.771z M93.853,3.646c0.524-0.32,1.045-0.42,1.429-0.271c0.467,0.181,0.709,0.716,0.83,1.132      c0,0.001,0.732,2.824,0.732,2.824c0.829,3.264,2.215,8.727,4.042,15.17c0,0,0.013-0.025,0.013-0.027      c0.215,1.321,1.325,4.264,4.146,11.424c2.339,5.936,6.055,14.994,10.482,24.44c1.819,3.88,4.036,8.141,6.546,12.636      c-0.057,0.041-0.091,0.113-0.153,0.146c-1.198,0.643-16.709,10.948-34.669,22.881c-20.022,13.303-44.941,29.859-46.379,30.557      c-0.537,0.22-0.611,0.113-0.887-0.278c-0.124-0.179-12.902-18.682-20.989-35.938C11.938,73.286,5.934,57.752,4.449,53.855      c1.564-0.83,4.485-2.752,4.74-5.662c0.014-0.161,0.021-0.324,0.021-0.488c0-1.085-0.287-2.242-0.586-3.457      c-0.323-1.307-0.65-2.631-0.65-3.936c0-1.972,0.748-3.896,3.39-5.645c5.743-3.799,11.623-7.082,16.132-9.006      c3.635-1.55,6.259,0.509,8.797,2.5c1.287,1.01,2.504,1.965,3.816,2.413c3.917,1.334,7.553-1.054,8.005-1.366      C50.246,28.023,91.861,4.867,93.853,3.646z"
   id="path40" />
				<path
   fill="none"
   d="M128,128H0V0h128V128z"
   id="path42" />
			</g>
			<linearGradient
   id="XMLID_4_"
   gradientUnits="userSpaceOnUse"
   x1="32.1113"
   y1="59.9604"
   x2="85.1559"
   y2="67.4256">
				<stop
   offset="0"
   style="stop-color:#CDF8FF"
   id="stop45" />
				<stop
   offset="0.1068"
   style="stop-color:#A1D6FF"
   id="stop47" />
				<stop
   offset="0.2858"
   style="stop-color:#5CA2FF"
   id="stop49" />
				<stop
   offset="0.4358"
   style="stop-color:#2A7BFF"
   id="stop51" />
				<stop
   offset="0.549"
   style="stop-color:#0C64FF"
   id="stop53" />
				<stop
   offset="0.6124"
   style="stop-color:#005BFF"
   id="stop55" />
				<stop
   offset="0.7113"
   style="stop-color:#0056FF"
   id="stop57" />
				<stop
   offset="0.8313"
   style="stop-color:#0047FF"
   id="stop59" />
				<stop
   offset="0.9616"
   style="stop-color:#002FFF"
   id="stop61" />
				<stop
   offset="1"
   style="stop-color:#0026FF"
   id="stop63" />
				<a:midPointStop
   offset="0"
   style="stop-color:#CDF8FF" />
				<a:midPointStop
   offset="0.4214"
   style="stop-color:#CDF8FF" />
				<a:midPointStop
   offset="0.6124"
   style="stop-color:#005BFF" />
				<a:midPointStop
   offset="0.6667"
   style="stop-color:#005BFF" />
				<a:midPointStop
   offset="1"
   style="stop-color:#0026FF" />
			</linearGradient>
			<path
   opacity="0.4"
   fill="url(#XMLID_4_)"
   d="M40.3,124.545c0,0-5.63-13.158-9.86-26.29c-3.762-11.693-8.514-27.498-5.066-30.032     c3.033-2.229,17.423-10.991,21.643-13.982c3.77-2.672,2.719-9.599,5.253-14.022c1.243-2.17,3.354-3.299,3.354-3.299     S105.001,8.47,107.793,6.608c1.351-0.899,3.126,0.315,3.126,2.258c0,2.669,2.196,18.056,5.485,33.048     c3.294,15.017,8.718,28.038,8.718,28.038s-0.133,1.522-1.458,2.23c-2.572,1.375-79.172,52.676-81.124,53.473     C40.588,126.451,40.3,124.545,40.3,124.545z"
   id="path65" />
			<defs
   id="defs67">
				<filter
   id="Adobe_OpacityMaskFilter"
   filterUnits="userSpaceOnUse"
   x="37"
   y="9.75"
   width="86.795"
   height="115.955">
					<feColorMatrix
   type="matrix"
   values="1 0 0 0 0  0 1 0 0 0  0 0 1 0 0  0 0 0 1 0"
   id="feColorMatrix70" />
				</filter>
			</defs>
			<mask
   maskUnits="userSpaceOnUse"
   x="37"
   y="9.75"
   width="86.795"
   height="115.955"
   id="XMLID_5_">
				<g
   filter="url(#Adobe_OpacityMaskFilter)"
   id="g73">
					<linearGradient
   id="XMLID_6_"
   gradientUnits="userSpaceOnUse"
   x1="101.9082"
   y1="30.7671"
   x2="12.619"
   y2="86.1555">
						<stop
   offset="0"
   style="stop-color:#FFFFFF"
   id="stop76" />
						<stop
   offset="1"
   style="stop-color:#000000"
   id="stop78" />
						<a:midPointStop
   offset="0"
   style="stop-color:#FFFFFF" />
						<a:midPointStop
   offset="0.5"
   style="stop-color:#FFFFFF" />
						<a:midPointStop
   offset="1"
   style="stop-color:#000000" />
					</linearGradient>
					<path
   fill="url(#XMLID_6_)"
   d="M125.483,115.934H-1.522V-4.865h127.006V115.934z"
   id="path80" />
				</g>
			</mask>
			<linearGradient
   id="XMLID_7_"
   gradientUnits="userSpaceOnUse"
   x1="46.1694"
   y1="55.1499"
   x2="97.3291"
   y2="76.854">
				<stop
   offset="0"
   style="stop-color:#6AC5FF"
   id="stop83" />
				<stop
   offset="0.1262"
   style="stop-color:#61B3F6"
   id="stop85" />
				<stop
   offset="0.3781"
   style="stop-color:#4886E0"
   id="stop87" />
				<stop
   offset="0.7286"
   style="stop-color:#213DBD"
   id="stop89" />
				<stop
   offset="1"
   style="stop-color:#00009F"
   id="stop91" />
				<a:midPointStop
   offset="0"
   style="stop-color:#6AC5FF" />
				<a:midPointStop
   offset="0.5526"
   style="stop-color:#6AC5FF" />
				<a:midPointStop
   offset="1"
   style="stop-color:#00009F" />
			</linearGradient>
			<path
   opacity="0.4"
   mask="url(#XMLID_5_)"
   fill="url(#XMLID_7_)"
   d="M115.251,43.631c-0.67-3.055-4.683-30.909-5.251-33.881     c-7.5,68.5-57.5,36.75-73,98.75c-1.066,4.266,3.66,16.117,3.66,16.117s0.283,1.868,2.196,1.088     c1.913-0.781,76.988-51.061,79.51-52.408c1.299-0.694,1.429-2.187,1.429-2.187S118.479,58.348,115.251,43.631z"
   id="path93" />
			<path
   fill="#FFFFFF"
   d="M28.949,69.737c3.033-2.228,17.424-10.99,21.643-13.982c3.77-2.672,2.721-9.6,5.253-14.022     c1.244-2.17,3.354-3.3,3.354-3.3s42.856-24.691,50.972-29.57c-0.296-1.609-1.847-2.523-3.065-1.712     c-2.793,1.86-52.172,30.31-52.172,30.31s-2.109,1.129-3.354,3.3c-2.533,4.423-1.483,11.35-5.253,14.022     c-4.22,2.991-18.609,11.754-21.642,13.981c-3.449,2.534,1.303,18.339,5.066,30.031c4.23,13.134,9.86,26.291,9.86,26.291     s0.288,1.907,2.239,1.109c0.148-0.059,0.727-0.41,1.658-1.002c-1.311-3.131-5.905-14.285-9.494-25.426     C30.252,88.076,25.502,72.271,28.949,69.737z"
   id="path95" />
			<linearGradient
   id="XMLID_8_"
   gradientUnits="userSpaceOnUse"
   x1="57.8667"
   y1="100.9258"
   x2="120.5585"
   y2="70.7129">
				<stop
   offset="0"
   style="stop-color:#FFFFFF"
   id="stop98" />
				<stop
   offset="1"
   style="stop-color:#B1B1C5"
   id="stop100" />
				<a:midPointStop
   offset="0"
   style="stop-color:#FFFFFF" />
				<a:midPointStop
   offset="0.5"
   style="stop-color:#FFFFFF" />
				<a:midPointStop
   offset="1"
   style="stop-color:#B1B1C5" />
			</linearGradient>
			<path
   fill="url(#XMLID_8_)"
   d="M34.57,110.088c3.049,8.195,5.729,14.457,5.729,14.457s0.288,1.906,2.24,1.11     c1.952-0.797,78.552-52.098,81.124-53.473c1.325-0.708,1.458-2.23,1.458-2.23s-2.802-6.724-5.6-16.083     C103.634,64.267,49.998,100.108,34.57,110.088z"
   id="path102" />
			<linearGradient
   id="XMLID_9_"
   gradientUnits="userSpaceOnUse"
   x1="18.0327"
   y1="124.1084"
   x2="116.4508"
   y2="70.4536">
				<stop
   offset="0"
   style="stop-color:#FFFFFF"
   id="stop105" />
				<stop
   offset="1"
   style="stop-color:#B1B1C5"
   id="stop107" />
				<a:midPointStop
   offset="0"
   style="stop-color:#FFFFFF" />
				<a:midPointStop
   offset="0.5"
   style="stop-color:#FFFFFF" />
				<a:midPointStop
   offset="1"
   style="stop-color:#B1B1C5" />
			</linearGradient>
			<path
   fill="url(#XMLID_9_)"
   a:adobe-blending-mode="multiply"
   d="M119.522,53.869c-0.107,0.069-0.221,0.145-0.332,0.217     c2.44,7.683,4.63,12.942,4.63,12.942s-0.133,1.521-1.457,2.229c-2.571,1.375-79.172,52.676-81.123,53.473     c-0.902,0.369-1.445,0.157-1.773-0.176c0.523,1.263,0.833,1.99,0.833,1.99s0.288,1.906,2.24,1.11     c1.952-0.797,78.552-52.098,81.124-53.473c1.325-0.708,1.458-2.23,1.458-2.23S122.32,63.229,119.522,53.869z"
   id="path109" />
			<linearGradient
   id="XMLID_10_"
   gradientUnits="userSpaceOnUse"
   x1="95.627"
   y1="73.9512"
   x2="35.7537"
   y2="50.8101">
				<stop
   offset="0"
   style="stop-color:#001EA4"
   id="stop112" />
				<stop
   offset="1"
   style="stop-color:#398BFF"
   id="stop114" />
				<a:midPointStop
   offset="0"
   style="stop-color:#001EA4" />
				<a:midPointStop
   offset="0.5"
   style="stop-color:#001EA4" />
				<a:midPointStop
   offset="1"
   style="stop-color:#398BFF" />
			</linearGradient>
			<path
   fill="url(#XMLID_10_)"
   d="M107.184,5.693c-2.731,1.82-51.617,29.988-52.111,30.272c-0.066,0.036-2.373,1.289-3.758,3.705     c-1.154,2.015-1.605,4.41-2.043,6.726c-0.548,2.906-1.064,5.651-2.893,6.946c-2.108,1.495-6.814,4.466-11.364,7.337     c-4.506,2.845-8.762,5.531-10.293,6.656c-1.098,0.808-1.665,2.348-1.665,4.863c0,4.761,2.031,13.013,6.336,26.393     c4.072,12.642,9.488,25.429,9.86,26.303c0.085,0.371,0.365,1.257,1.237,1.752c0.482,0.274,1.303,0.502,2.465,0.027     c1.098-0.448,18.279-11.843,46.446-30.558c16.554-10.997,33.671-22.37,34.781-22.964c1.461-0.78,1.967-2.318,2.035-3.104     l0.023-0.27l-0.104-0.249c-0.054-0.13-5.426-13.11-8.659-27.852c-3.341-15.228-5.46-30.459-5.46-32.812     c0-1.423-0.713-2.688-1.861-3.304C109.192,5.047,108.081,5.096,107.184,5.693z M41.578,124.734     c-0.076-0.042-0.168-0.237-0.193-0.372l-0.022-0.118l-0.052-0.132c-0.056-0.131-5.658-13.265-9.824-26.194     c-5.667-17.614-7.505-27.307-5.462-28.809c1.469-1.079,5.692-3.746,10.165-6.568c4.574-2.889,9.305-5.875,11.462-7.403     c2.552-1.81,3.178-5.126,3.782-8.333c0.402-2.137,0.82-4.348,1.789-6.04c1.062-1.853,2.902-2.867,2.922-2.878     c2.044-1.177,49.469-28.504,52.259-30.363c0.223-0.148,0.464-0.156,0.716-0.021c0.322,0.174,0.7,0.635,0.7,1.364     c0,2.868,2.272,18.522,5.511,33.284c3.012,13.73,7.844,25.924,8.65,27.914c-0.078,0.305-0.284,0.854-0.835,1.148     c-1.122,0.6-13.957,9.116-34.961,23.071c-19.897,13.219-44.659,29.671-46.087,30.364     C41.797,124.771,41.623,124.759,41.578,124.734z"
   id="path116" />
		</g>
	</g>
<g
   id="g2567"
   transform="matrix(0.1678966,0,0,0.163343,41.759038,50.070857)">
		<path
   id="path2569"
   d="M 41.184,453.06 C 18.504,453.06 0,434.556 0,411.804 C 0,404.532 1.872,397.476 5.544,391.212 L 219.528,20.628 C 235.44,-6.876 274.968,-6.876 290.88,20.628 L 504.864,391.212 C 508.464,397.476 510.336,404.604 510.336,411.804 C 510.336,434.556 491.976,452.988 469.224,453.06 L 41.184,453.06 L 41.184,453.06 z"
   style="fill:#ed171f" />
		<polygon
   id="polygon2571"
   points="52.2,405.468 458.136,405.468 255.168,53.892 52.2,405.468 "
   style="fill:#feb82f" />
		<path
   id="path2573"
   d="M 419.4,378.396 L 419.4,384.444 L 90.648,384.444 L 91.368,381.564 C 92.448,377.388 93.672,373.356 95.04,369.468 C 96.048,366.3 97.56,363.06 99.36,360.108 C 100.584,358.092 101.736,356.292 102.888,354.42 C 103.032,354.204 103.32,353.988 103.68,353.772 L 104.4,352.548 L 107.064,346.716 C 107.712,345.204 108.576,343.764 109.44,342.468 C 110.304,341.244 111.168,340.092 112.104,339.012 C 113.904,336.852 115.56,334.548 117,332.172 C 118.44,329.652 120.168,327.42 122.184,325.332 C 122.976,324.468 123.912,323.676 124.92,323.1 C 126.144,322.308 127.08,321.3 127.728,320.076 C 129.168,317.268 131.04,314.604 133.128,312.228 C 135.936,308.988 140.328,307.62 144.504,308.7 C 146.664,309.276 148.752,310.068 150.696,311.004 C 154.296,312.804 157.608,315.036 160.56,317.7 L 162.576,316.692 C 171.648,312.3 180.144,307.476 188.352,302.22 L 192.024,303.66 L 196.488,299.916 L 198.936,297.252 L 203.616,293.868 C 209.304,289.692 215.424,286.164 221.832,283.284 L 225.576,279.972 L 231.48,274.428 C 232.128,273.78 232.56,272.988 232.776,272.196 C 233.496,269.892 233.928,267.516 234.072,265.212 C 234.288,261.828 234.432,258.732 234.576,255.564 C 234.648,253.116 234.864,250.668 235.152,248.22 C 235.584,244.98 235.728,241.884 235.728,238.644 C 235.728,237.996 235.728,237.42 235.728,236.7 C 235.728,236.196 235.656,235.116 235.656,233.964 C 235.584,232.02 235.368,231.228 234.936,230.58 L 230.976,222.084 L 225.576,212.868 C 224.424,210.852 223.704,208.548 223.56,206.172 C 223.416,203.796 223.632,201.42 224.136,199.116 C 224.352,198.18 224.64,197.316 225,196.452 C 225.144,196.164 225.216,195.804 225.216,195.444 C 225.216,194.94 225,194.436 224.712,194.004 C 224.424,193.572 223.92,193.356 223.416,193.356 C 223.272,193.356 223.128,193.356 222.984,193.428 C 221.4,193.788 219.744,193.428 218.52,192.348 C 215.712,189.972 213.768,186.804 212.832,183.276 C 212.472,181.98 212.04,180.612 211.608,179.244 C 211.32,178.236 210.744,177.444 209.952,176.796 C 208.44,175.5 207.36,173.772 206.856,171.9 C 206.352,169.812 206.352,167.724 206.856,165.636 C 207.432,163.332 208.656,161.172 210.528,159.588 C 212.4,158.004 214.56,156.78 216.864,155.988 C 219.384,155.196 221.976,154.548 224.568,154.188 C 225.936,153.972 227.376,154.188 228.6,154.836 C 230.184,155.7 231.696,156.636 232.992,157.788 C 234.36,158.868 235.368,160.38 235.944,162.108 C 236.52,163.764 237.024,165.42 237.384,167.076 C 237.672,168.156 237.888,169.164 238.032,170.172 C 238.464,172.548 239.328,174.78 240.552,176.868 C 241.488,178.596 242.28,179.892 243.144,181.188 C 243,180.972 244.152,181.836 245.52,182.268 C 246.24,182.484 247.104,182.628 247.896,182.628 C 248.544,182.628 249.12,182.556 249.696,182.412 C 252.072,181.908 254.376,181.62 256.752,181.404 C 258.696,181.26 260.64,180.9 262.44,180.324 C 266.112,179.1 269.712,178.092 273.384,177.012 C 275.4,176.436 277.704,176.292 279.936,176.652 C 291.456,178.452 302.4,182.34 312.336,188.172 C 313.344,188.748 314.352,189.324 315.288,189.972 C 316.728,190.908 317.88,192.204 318.528,193.788 C 319.32,195.588 319.752,197.46 319.968,199.332 C 320.472,204.732 321.048,209.556 321.768,214.38 C 322.2,217.548 323.784,220.86 326.304,223.524 C 326.952,224.244 327.744,224.892 328.608,225.396 C 330.336,226.404 331.776,227.844 332.856,229.572 C 333.36,230.292 333.576,231.156 333.576,232.02 C 333.576,233.388 333,234.756 331.92,235.62 C 330.912,236.412 329.832,237.204 328.752,237.852 C 327.888,238.428 326.952,238.716 325.944,238.86 C 325.44,238.932 325.08,239.292 325.008,239.796 L 325.944,260.604 L 326.088,277.74 L 325.8,285.948 L 325.944,293.076 L 325.512,299.556 L 324.72,307.332 C 324.432,309.708 324.288,312.156 324.288,314.532 C 324.288,318.132 324.576,321.66 325.08,325.188 C 325.44,327.42 325.656,329.868 325.656,332.172 C 325.656,332.892 325.584,333.54 325.584,334.188 L 325.728,343.548 L 325.512,354.276 L 325.224,364.212 L 325.368,368.964 C 325.44,370.692 326.88,372.06 328.608,372.06 L 329.328,371.988 L 333.576,368.532 C 334.224,368.028 334.584,367.236 334.584,366.444 C 334.584,366.228 334.584,366.084 334.512,365.868 C 334.368,365.004 334.224,363.996 334.224,363.06 C 334.152,362.196 334.44,361.404 335.016,360.756 C 335.448,360.324 335.952,359.892 336.6,359.532 L 339.264,358.38 L 342.144,356.796 C 344.664,355.428 347.04,353.844 349.2,351.972 C 349.776,351.468 350.28,351.036 350.784,350.676 C 351.576,349.884 352.872,349.452 354.168,349.524 C 355.824,349.524 357.48,350.028 358.92,350.964 C 360.072,351.756 361.008,352.836 361.584,354.132 C 365.328,362.772 371.016,370.26 378.216,376.164 C 379.584,377.244 381.24,377.964 382.896,378.252 L 419.4,378.396 z" />
		<path
   id="path2575"
   d="M 247.248,264.636 C 247.32,264.708 247.392,264.708 247.536,264.708 C 247.824,264.708 248.112,264.636 248.328,264.348 C 249.768,262.692 251.064,261.108 252.288,259.452 C 253.224,258.3 254.016,257.076 254.88,255.852 C 255.528,254.844 256.176,253.764 256.896,252.756 C 257.616,251.748 258.264,250.668 258.84,249.588 C 259.776,247.86 260.64,246.276 261.504,244.62 C 262.08,243.468 262.584,242.028 262.8,240.516 C 263.016,239.724 263.16,238.86 263.376,237.996 C 263.52,237.636 263.592,237.132 263.592,236.628 L 263.592,236.628 C 263.592,235.908 263.304,235.188 262.8,234.612 L 261,232.596 L 258.84,230.94 C 258.408,230.508 257.904,230.292 257.328,230.292 C 256.608,230.292 255.888,230.724 255.528,231.372 L 254.088,233.748 C 253.8,234.468 253.584,235.188 253.512,235.98 C 253.512,237.348 253.368,238.716 253.08,240.084 C 252.936,240.732 252.504,242.604 252.144,244.476 C 251.136,249.3 250.056,253.044 248.904,256.572 L 248.04,259.02 L 247.032,261.972 C 246.816,262.476 246.672,263.052 246.672,263.628 C 246.672,263.772 246.672,263.916 246.744,264.06 C 246.744,264.348 246.96,264.636 247.248,264.636 z"
   style="fill:#feb82f" />
		<line
   id="line2577"
   y2="264.63599"
   x2="247.17599"
   y1="263.98801"
   x1="246.744"
   style="fill:none;stroke:#000000;stroke-width:0.21600001" />
		<path
   id="path2579"
   d="M 291.96,199.836 L 295.488,199.908 L 298.584,200.268 L 303.408,201.204 C 303.624,201.276 303.912,201.42 303.984,201.708 L 305.28,204.516 L 306.216,206.604 L 306.864,208.404 L 307.872,210.78 L 309.528,214.092 L 310.536,215.892 L 311.688,218.7 L 312.768,221.94 L 313.344,224.388 L 313.56,225.324 C 313.632,225.468 313.632,225.684 313.632,225.828 C 313.632,226.836 312.768,227.7 311.76,227.7 C 311.76,227.7 311.76,227.7 311.688,227.7 C 311.328,227.7 310.896,227.556 310.536,227.34 L 308.232,225.036 L 305.784,222.444 L 304.344,220.86 L 303.192,219.132 L 302.328,217.476 C 301.68,216.108 301.032,214.74 300.528,213.3 L 297.288,209.628 L 293.256,205.164 L 290.016,201.996 C 289.8,201.78 289.8,201.492 290.088,201.348 L 291.024,200.196 C 291.24,199.98 291.6,199.836 291.96,199.836 z"
   style="fill:#feb82f" />
		<path
   id="path2581"
   d="M 254.304,371.484 L 263.16,365.436 L 263.592,365.148 L 265.248,364.644 L 268.56,363.852 L 274.968,360.036 L 274.608,358.74 C 274.104,356.508 273.024,354.348 271.656,352.476 C 270.504,350.82 269.424,349.092 268.56,347.22 C 267.84,345.78 267.48,344.34 267.408,342.756 C 267.12,337.788 266.256,332.82 264.96,327.924 C 263.448,322.596 261.648,317.124 259.704,311.652 C 258.696,308.988 258.192,306.468 257.976,304.02 C 257.904,303.444 257.832,302.868 257.904,302.292 C 257.904,301.932 258.048,301.572 258.264,301.284 L 260.208,299.484 L 262.512,297.684 L 264.672,295.74 L 267.336,293.364 L 268.992,291.636 L 276.264,283.716 L 277.2,282.492 L 277.632,281.844 C 278.064,281.196 278.568,280.548 279.072,279.9 C 279.36,279.54 279.648,279.324 280.008,279.108 L 282.96,277.308 L 285.12,276.516 C 285.84,276.228 286.704,276.3 287.28,276.804 C 288.216,277.524 288.864,278.676 289.152,279.828 L 289.512,283.716 L 289.944,287.532 L 291.024,295.164 C 291.24,297.036 291.384,298.836 291.384,300.636 C 291.384,302.364 291.24,304.02 291.024,305.676 C 290.952,306.324 290.952,306.972 290.952,307.62 C 290.952,309.492 291.24,311.364 291.888,313.092 C 292.392,314.388 292.968,315.612 293.616,316.764 C 295.272,319.86 296.496,323.1 297.36,326.484 C 297.936,328.86 298.296,331.236 298.368,333.684 C 298.512,337.644 299.016,341.604 299.88,345.492 C 300.384,347.796 300.744,349.668 301.176,351.684 C 301.248,352.188 301.896,352.692 302.616,352.692 C 302.76,352.692 302.904,352.692 303.048,352.62 L 304.776,352.692 C 305.136,352.692 305.496,352.98 305.568,353.34 C 306.072,355.068 306.288,356.796 306.288,358.524 C 306.288,360.18 306.072,361.836 305.64,363.42 C 305.28,365.004 304.128,366.228 302.616,366.732 C 301.32,367.164 299.952,367.524 298.584,367.668 C 297.288,367.884 296.208,368.82 295.992,370.044 C 295.848,370.62 295.776,371.124 295.776,371.628 L 295.776,371.7 L 295.776,371.7 C 295.776,372.924 294.984,373.86 293.904,374.148 C 292.824,374.508 291.672,374.724 290.592,374.796 C 288.936,374.94 287.28,375.156 285.552,375.444 L 280.296,375.588 L 274.176,375.3 L 269.28,374.508 L 266.184,373.788 L 261.432,372.852 L 258.192,372.204 L 254.304,371.484 z"
   style="fill:#feb82f" />
		<path
   id="path2583"
   d="M 163.224,321.372 L 165.096,321.012 L 170.064,319.932 C 173.448,319.212 176.688,318.204 179.856,316.836 C 182.592,315.684 184.68,314.82 186.768,313.956 C 189.288,312.948 191.808,311.292 194.04,309.204 L 197.568,306.252 L 200.592,303.228 L 202.536,301.572 L 204.768,299.916 L 206.856,298.404 L 209.448,296.82 L 211.32,295.812 L 213.336,294.804 L 215.424,293.796 L 217.656,292.644 L 219.312,291.78 L 220.824,290.844 L 222.264,290.052 L 225.36,288.756 L 231.48,305.46 L 231.624,306.108 L 231.768,306.756 L 234.144,314.676 L 236.16,322.812 L 237.672,327.996 L 238.68,331.884 L 240.84,341.676 L 241.416,344.772 C 241.776,346.356 242.496,347.796 243.648,349.02 C 244.08,349.452 244.584,349.812 245.088,350.028 C 246.312,350.676 247.608,350.964 248.976,350.964 C 249.192,350.964 249.48,350.964 249.696,350.892 C 250.632,350.82 251.568,351.18 252.144,351.9 C 253.44,353.412 254.232,355.212 254.52,357.156 C 254.52,357.228 254.52,357.372 254.52,357.444 C 254.52,357.804 254.448,358.164 254.304,358.452 L 251.64,362.7 L 251.136,363.492 L 245.16,366.876 C 244.728,367.092 244.44,367.596 244.44,368.1 C 244.44,368.172 244.44,368.244 244.44,368.316 L 244.944,370.26 L 242.928,369.828 C 240.336,369.18 237.672,368.892 234.864,368.892 C 233.28,368.892 231.624,368.964 230.04,369.18 C 226.944,369.612 223.776,370.188 220.536,370.98 C 217.224,371.772 213.84,372.204 210.312,372.276 C 207.936,372.348 205.56,372.06 203.328,371.412 C 202.392,371.196 201.312,370.908 200.304,370.692 C 198.216,370.332 196.344,369.324 194.976,367.812 C 193.968,366.804 192.744,365.436 191.448,364.212 L 188.208,359.604 L 186.408,356.724 L 184.464,353.916 L 182.736,351.396 L 180,347.22 L 178.704,345.132 L 176.832,341.316 L 175.464,338.292 L 174.528,336.42 L 173.736,334.908 C 171,329.94 167.544,325.332 163.296,321.372 L 163.224,321.372 L 163.224,321.372 z"
   style="fill:#feb82f" />
	</g></svg>