<?xml version="1.0" encoding="UTF-8" standalone="no"?>
<!-- Generator: Adobe Illustrator 10.0.3, SVG Export Plug-In . SVG Version: 3.0.0 Build 77)  -->

<svg
   xmlns:a="http://ns.adobe.com/AdobeSVGViewerExtensions/3.0/"
   xmlns:dc="http://purl.org/dc/elements/1.1/"
   xmlns:cc="http://creativecommons.org/ns#"
   xmlns:rdf="http://www.w3.org/1999/02/22-rdf-syntax-ns#"
   xmlns:svg="http://www.w3.org/2000/svg"
   xmlns="http://www.w3.org/2000/svg"
   xmlns:xlink="http://www.w3.org/1999/xlink"
   xmlns:sodipodi="http://sodipodi.sourceforge.net/DTD/sodipodi-0.dtd"
   xmlns:inkscape="http://www.inkscape.org/namespaces/inkscape"
   width="128"
   height="128"
   viewBox="0 0 128 128"
   overflow="visible"
   enable-background="new 0 0 128 128"
   xml:space="preserve"
   id="svg2"
   sodipodi:version="0.32"
   inkscape:version="0.47 r22583"
   sodipodi:docname="folder_check_list.svg"
   inkscape:output_extension="org.inkscape.output.svg.inkscape"
   inkscape:export-filename="/tmp/folder_work.png"
   inkscape:export-xdpi="180"
   inkscape:export-ydpi="180"
   version="1.1"><metadata
   id="metadata121"><rdf:RDF><cc:Work
       rdf:about=""><dc:format>image/svg+xml</dc:format><dc:type
         rdf:resource="http://purl.org/dc/dcmitype/StillImage" /><dc:title></dc:title></cc:Work></rdf:RDF></metadata><defs
   id="defs119"><inkscape:perspective
   sodipodi:type="inkscape:persp3d"
   inkscape:vp_x="0 : 64 : 1"
   inkscape:vp_y="0 : 1000 : 0"
   inkscape:vp_z="128 : 64 : 1"
   inkscape:persp3d-origin="64 : 42.666667 : 1"
   id="perspective123" />
	<inkscape:perspective
   id="perspective2588"
   inkscape:persp3d-origin="256 : 151.33333 : 1"
   inkscape:vp_z="512 : 227 : 1"
   inkscape:vp_y="0 : 1000 : 0"
   inkscape:vp_x="0 : 227 : 1"
   sodipodi:type="inkscape:persp3d" /><inkscape:perspective
   id="perspective3227"
   inkscape:persp3d-origin="0.5 : 0.33333333 : 1"
   inkscape:vp_z="1 : 0.5 : 1"
   inkscape:vp_y="0 : 1000 : 0"
   inkscape:vp_x="0 : 0.5 : 1"
   sodipodi:type="inkscape:persp3d" /><filter
   color-interpolation-filters="sRGB"
   id="filter3274"
   inkscape:collect="always"><feGaussianBlur
     id="feGaussianBlur3276"
     stdDeviation="0.82016509"
     inkscape:collect="always" /></filter><linearGradient
   y2="168.12671"
   x2="54.63039"
   y1="143.36218"
   x1="54.316311"
   gradientTransform="translate(0.1767767,0.1767767)"
   gradientUnits="userSpaceOnUse"
   id="linearGradient3282"
   xlink:href="#linearGradient3200"
   inkscape:collect="always" /><linearGradient
   id="linearGradient3200"><stop
     id="stop3202"
     offset="0"
     style="stop-color:#05ff05;stop-opacity:1;" /><stop
     id="stop3204"
     offset="1"
     style="stop-color:#00bd00;stop-opacity:1;" /></linearGradient><linearGradient
   y2="155.48718"
   x2="42"
   y1="155.48718"
   x1="72.25"
   gradientTransform="translate(0.1767767,0.1767767)"
   gradientUnits="userSpaceOnUse"
   id="linearGradient3284"
   xlink:href="#linearGradient3190"
   inkscape:collect="always" /><linearGradient
   id="linearGradient3190"><stop
     id="stop3192"
     offset="0"
     style="stop-color:#00a100;stop-opacity:1;" /><stop
     style="stop-color:#005b00;stop-opacity:1;"
     offset="0.69008267"
     id="stop3198" /><stop
     id="stop3194"
     offset="1"
     style="stop-color:#009c00;stop-opacity:1;" /></linearGradient><linearGradient
   id="SVGID_10_"
   gradientUnits="userSpaceOnUse"
   x1="523.50293"
   y1="699.53522"
   x2="526.95007"
   y2="699.53522"
   gradientTransform="translate(-484,-665)"><stop
     offset="0"
     style="stop-color:#787878"
     id="stop134" /><stop
     offset="0.267"
     style="stop-color:#FFFFFF"
     id="stop136" /><stop
     offset="0.7382"
     style="stop-color:#FFFFFF"
     id="stop138" /><stop
     offset="1"
     style="stop-color:#CCCCCC"
     id="stop140" /></linearGradient><linearGradient
   id="SVGID_11_"
   gradientUnits="userSpaceOnUse"
   x1="525.2168"
   y1="708.58398"
   x2="525.2168"
   y2="701.2868"
   gradientTransform="translate(-484,-665)"><stop
     offset="0"
     style="stop-color:#404040"
     id="stop145" /><stop
     offset="1"
     style="stop-color:#FFFFFF"
     id="stop147" /></linearGradient><linearGradient
   id="SVGID_12_"
   gradientUnits="userSpaceOnUse"
   x1="542.20801"
   y1="699.53522"
   x2="545.65472"
   y2="699.53522"
   gradientTransform="translate(-484,-665)"><stop
     offset="0"
     style="stop-color:#787878"
     id="stop154" /><stop
     offset="0.267"
     style="stop-color:#FFFFFF"
     id="stop156" /><stop
     offset="0.7382"
     style="stop-color:#FFFFFF"
     id="stop158" /><stop
     offset="1"
     style="stop-color:#CCCCCC"
     id="stop160" /></linearGradient><linearGradient
   id="SVGID_13_"
   gradientUnits="userSpaceOnUse"
   x1="543.92188"
   y1="708.58398"
   x2="543.92188"
   y2="701.2868"
   gradientTransform="translate(-484,-665)"><stop
     offset="0"
     style="stop-color:#404040"
     id="stop165" /><stop
     offset="1"
     style="stop-color:#FFFFFF"
     id="stop167" /></linearGradient><linearGradient
   id="SVGID_14_"
   gradientUnits="userSpaceOnUse"
   x1="561.23633"
   y1="699.53522"
   x2="564.68298"
   y2="699.53522"
   gradientTransform="translate(-484,-665)"><stop
     offset="0"
     style="stop-color:#787878"
     id="stop174" /><stop
     offset="0.267"
     style="stop-color:#FFFFFF"
     id="stop176" /><stop
     offset="0.7382"
     style="stop-color:#FFFFFF"
     id="stop178" /><stop
     offset="1"
     style="stop-color:#CCCCCC"
     id="stop180" /></linearGradient><linearGradient
   id="SVGID_15_"
   gradientUnits="userSpaceOnUse"
   x1="562.94922"
   y1="708.58398"
   x2="562.94922"
   y2="701.2868"
   gradientTransform="translate(-484,-665)"><stop
     offset="0"
     style="stop-color:#404040"
     id="stop185" /><stop
     offset="1"
     style="stop-color:#FFFFFF"
     id="stop187" /></linearGradient><linearGradient
   id="SVGID_16_"
   gradientUnits="userSpaceOnUse"
   x1="579.94043"
   y1="699.53522"
   x2="583.38708"
   y2="699.53522"
   gradientTransform="translate(-484,-665)"><stop
     offset="0"
     style="stop-color:#787878"
     id="stop194" /><stop
     offset="0.267"
     style="stop-color:#FFFFFF"
     id="stop196" /><stop
     offset="0.7382"
     style="stop-color:#FFFFFF"
     id="stop198" /><stop
     offset="1"
     style="stop-color:#CCCCCC"
     id="stop200" /></linearGradient><linearGradient
   id="SVGID_17_"
   gradientUnits="userSpaceOnUse"
   x1="581.6543"
   y1="708.58398"
   x2="581.6543"
   y2="701.2868"
   gradientTransform="translate(-484,-665)"><stop
     offset="0"
     style="stop-color:#404040"
     id="stop205" /><stop
     offset="1"
     style="stop-color:#FFFFFF"
     id="stop207" /></linearGradient><linearGradient
   id="SVGID_9_"
   gradientUnits="userSpaceOnUse"
   x1="554.86621"
   y1="782.68073"
   x2="554.86621"
   y2="786.22742"
   gradientTransform="translate(-484,-665)"><stop
     offset="0"
     style="stop-color:#00FFFF"
     id="stop115" /><stop
     offset="1"
     style="stop-color:#041889"
     id="stop117" /></linearGradient><radialGradient
   id="SVGID_4_"
   cx="553.77441"
   cy="714.71002"
   r="28.879499"
   gradientTransform="translate(-484,-665)"
   gradientUnits="userSpaceOnUse"><stop
     offset="0"
     style="stop-color:#C6E3FA"
     id="stop52" /><stop
     offset="0.368"
     style="stop-color:#C5DBF5"
     id="stop54" /><stop
     offset="0.9432"
     style="stop-color:#C0C5E8"
     id="stop56" /><stop
     offset="1"
     style="stop-color:#C0C2E7"
     id="stop58" /></radialGradient><radialGradient
   id="SVGID_5_"
   cx="491.3027"
   cy="726.32233"
   r="28.8603"
   gradientTransform="matrix(1.148,0,0,1,-494.2081,-665)"
   gradientUnits="userSpaceOnUse"><stop
     offset="0"
     style="stop-color:#C6E3FA"
     id="stop63-5" /><stop
     offset="0.368"
     style="stop-color:#C5DBF5"
     id="stop65" /><stop
     offset="0.9432"
     style="stop-color:#C0C5E8"
     id="stop67" /><stop
     offset="1"
     style="stop-color:#C0C2E7"
     id="stop69" /></radialGradient><radialGradient
   id="SVGID_6_"
   cx="491.3027"
   cy="737.93158"
   r="28.8612"
   gradientTransform="matrix(1.148,0,0,1,-494.2081,-665)"
   gradientUnits="userSpaceOnUse"><stop
     offset="0"
     style="stop-color:#C6E3FA"
     id="stop74" /><stop
     offset="0.368"
     style="stop-color:#C5DBF5"
     id="stop76-6" /><stop
     offset="0.9432"
     style="stop-color:#C0C5E8"
     id="stop78-9" /><stop
     offset="1"
     style="stop-color:#C0C2E7"
     id="stop80" /></radialGradient><radialGradient
   id="SVGID_7_"
   cx="491.62701"
   cy="750.51068"
   r="28.778299"
   gradientTransform="matrix(1.148,0,0,1,-494.2081,-665)"
   gradientUnits="userSpaceOnUse"><stop
     offset="0"
     style="stop-color:#C6E3FA"
     id="stop85-8" /><stop
     offset="0.368"
     style="stop-color:#C5DBF5"
     id="stop87-7" /><stop
     offset="0.9432"
     style="stop-color:#C0C5E8"
     id="stop89-2" /><stop
     offset="1"
     style="stop-color:#C0C2E7"
     id="stop91-8" /></radialGradient><radialGradient
   id="SVGID_8_"
   cx="491.73239"
   cy="763.32812"
   r="28.782499"
   gradientTransform="matrix(1.148,0,0,1,-494.2081,-665)"
   gradientUnits="userSpaceOnUse"><stop
     offset="0"
     style="stop-color:#C6E3FA"
     id="stop96" /><stop
     offset="0.368"
     style="stop-color:#C5DBF5"
     id="stop98-2" /><stop
     offset="0.9432"
     style="stop-color:#C0C5E8"
     id="stop100-9" /><stop
     offset="1"
     style="stop-color:#C0C2E7"
     id="stop102" /></radialGradient><linearGradient
   id="SVGID_2_"
   gradientUnits="userSpaceOnUse"
   x1="554.86719"
   y1="776.83398"
   x2="554.86719"
   y2="704.27002"
   gradientTransform="translate(-484,-665)"><stop
     offset="0.0051"
     style="stop-color:#FFFFFF"
     id="stop31-9" /><stop
     offset="1"
     style="stop-color:#E6E6E6"
     id="stop33" /></linearGradient><radialGradient
   id="SVGID_1_"
   cx="554"
   cy="759.25"
   r="62.5979"
   gradientTransform="translate(-484,-665)"
   gradientUnits="userSpaceOnUse"><stop
     offset="0"
     style="stop-color:#2CB0FB"
     id="stop13" /><stop
     offset="0.1263"
     style="stop-color:#2AAAF6"
     id="stop15" /><stop
     offset="0.3021"
     style="stop-color:#2698E9"
     id="stop17" /><stop
     offset="0.5069"
     style="stop-color:#1E7AD2"
     id="stop19" /><stop
     offset="0.7336"
     style="stop-color:#1351B4"
     id="stop21" /><stop
     offset="0.9758"
     style="stop-color:#051C8C"
     id="stop23" /><stop
     offset="0.9949"
     style="stop-color:#041889"
     id="stop25" /></radialGradient></defs><sodipodi:namedview
   inkscape:window-height="672"
   inkscape:window-width="675"
   inkscape:pageshadow="2"
   inkscape:pageopacity="0.0"
   guidetolerance="10.0"
   gridtolerance="10.0"
   objecttolerance="10.0"
   borderopacity="1.0"
   bordercolor="#666666"
   pagecolor="#ffffff"
   id="base"
   showgrid="false"
   inkscape:zoom="1.8203125"
   inkscape:cx="113.99922"
   inkscape:cy="54.022169"
   inkscape:window-x="97"
   inkscape:window-y="211"
   inkscape:current-layer="g2567"
   inkscape:window-maximized="0" />
	<g
   id="Layer_1">
		<g
   id="g5">
			<g
   id="g7">
				<linearGradient
   id="XMLID_1_"
   gradientUnits="userSpaceOnUse"
   x1="67.0205"
   y1="-22.6318"
   x2="60.5043"
   y2="123.7301">
					<stop
   offset="0.382"
   style="stop-color:#DCF0FF"
   id="stop10" />
					<stop
   offset="0.4435"
   style="stop-color:#C9E6FF"
   id="stop12" />
					<stop
   offset="0.6311"
   style="stop-color:#92CAFF"
   id="stop14" />
					<stop
   offset="0.793"
   style="stop-color:#6AB5FF"
   id="stop16" />
					<stop
   offset="0.9213"
   style="stop-color:#52A9FF"
   id="stop18" />
					<stop
   offset="1"
   style="stop-color:#49A4FF"
   id="stop20" />
					<a:midPointStop
   offset="0.382"
   style="stop-color:#DCF0FF" />
					<a:midPointStop
   offset="0.4"
   style="stop-color:#DCF0FF" />
					<a:midPointStop
   offset="1"
   style="stop-color:#49A4FF" />
				</linearGradient>
				<path
   fill-rule="evenodd"
   clip-rule="evenodd"
   fill="url(#XMLID_1_)"
   d="M101.944,22.202      c-2.628-9.266-4.355-16.555-4.776-18.001c-0.604-2.081-2.325-2.449-3.891-1.492c-2.003,1.228-45.738,25.562-45.738,25.562      s-3.47,2.491-7.073,1.264c-3.601-1.23-7.215-7.521-13.401-4.884c-4.749,2.026-10.732,5.412-16.307,9.101      c-7.002,4.631-2.34,10.637-2.664,14.347c-0.287,3.28-5.031,5.204-5.031,5.204S9.776,71.266,17.999,88.81      s21.085,36.104,21.085,36.104c0.312,0.442,0.862,1.212,2.23,0.652c1.95-0.794,78.553-52.096,81.12-53.473      c0.462-0.245,0.773-0.591,0.987-0.935c-2.407-4.28-4.803-8.815-6.899-13.286C108.299,40.326,101.727,22.305,101.944,22.202z"
   id="path22" />
				<path
   fill-rule="evenodd"
   clip-rule="evenodd"
   fill="#FFFFFF"
   d="M101.944,23.202c-2.628-9.266-4.355-16.555-4.776-18.001      c-0.604-2.081-2.325-2.449-3.891-1.492c-2.003,1.228-45.738,25.562-45.738,25.562s-3.47,2.491-7.073,1.264      c-3.601-1.23-7.215-7.521-13.401-4.884c-4.749,2.026-10.732,5.412-16.307,9.101c-7.002,4.631-2.34,10.637-2.664,14.347      c-0.287,3.28-5.031,5.204-5.031,5.204S9.776,72.266,17.999,89.81s21.085,36.104,21.085,36.104      c0.312,0.442,0.862,1.212,2.23,0.652c1.95-0.794,78.553-52.096,81.12-53.473c0.462-0.245,0.773-0.591,0.987-0.935      c-2.407-4.28-4.803-8.815-6.899-13.286C108.299,41.326,101.727,23.305,101.944,23.202z"
   id="path24" />
				<linearGradient
   id="XMLID_2_"
   gradientUnits="userSpaceOnUse"
   x1="8.5332"
   y1="64.3467"
   x2="120.7432"
   y2="64.3467">
					<stop
   offset="0.0056"
   style="stop-color:#FFFFFF"
   id="stop27" />
					<stop
   offset="0.3989"
   style="stop-color:#87BBFF"
   id="stop29" />
					<stop
   offset="1"
   style="stop-color:#1E65FF"
   id="stop31" />
					<a:midPointStop
   offset="0.0056"
   style="stop-color:#FFFFFF" />
					<a:midPointStop
   offset="0.5"
   style="stop-color:#FFFFFF" />
					<a:midPointStop
   offset="0.3989"
   style="stop-color:#87BBFF" />
					<a:midPointStop
   offset="0.5"
   style="stop-color:#87BBFF" />
					<a:midPointStop
   offset="1"
   style="stop-color:#1E65FF" />
				</linearGradient>
				<path
   fill="url(#XMLID_2_)"
   d="M100.722,25.434C98.269,16.796,96.659,10,96.267,8.651c-0.563-1.94-2.166-2.284-3.627-1.392      c-1.867,1.145-42.641,23.83-42.641,23.83s-3.235,2.324-6.595,1.18c-3.357-1.148-6.727-7.014-12.496-4.554      c-4.426,1.888-10.004,5.044-15.201,8.483c-6.527,4.318-2.182,9.918-2.483,13.376c-0.269,3.059-4.69,4.852-4.69,4.852      s6.258,16.748,13.926,33.106c7.664,16.355,19.656,33.659,19.656,33.659c0.291,0.411,0.805,1.127,2.079,0.607      c1.818-0.742,73.235-48.569,75.63-49.854c0.43-0.229,0.719-0.552,0.919-0.871c-2.244-3.991-4.479-8.22-6.432-12.387      C106.645,42.33,100.516,25.529,100.722,25.434z"
   id="path33" />
				<linearGradient
   id="XMLID_3_"
   gradientUnits="userSpaceOnUse"
   x1="87.4238"
   y1="71.2764"
   x2="10.7515"
   y2="41.6424">
					<stop
   offset="0"
   style="stop-color:#001EA4"
   id="stop36" />
					<stop
   offset="1"
   style="stop-color:#398BFF"
   id="stop38" />
					<a:midPointStop
   offset="0"
   style="stop-color:#001EA4" />
					<a:midPointStop
   offset="0.5"
   style="stop-color:#001EA4" />
					<a:midPointStop
   offset="1"
   style="stop-color:#398BFF" />
				</linearGradient>
				<path
   fill="url(#XMLID_3_)"
   d="M92.703,1.771c-1.961,1.202-45.262,25.296-45.698,25.538l-0.053,0.029L46.9,27.375      c-0.03,0.021-3.072,2.143-6.08,1.118c-0.959-0.328-2.033-1.171-3.17-2.062c-2.756-2.162-6.186-4.853-11.018-2.792      C22.007,25.612,16,28.964,10.15,32.834c-5.683,3.758-4.515,8.488-3.662,11.941c0.301,1.217,0.585,2.367,0.51,3.227      c-0.187,2.129-3.203,3.812-4.35,4.281L1.66,52.688l0.373,1c0.066,0.18,6.822,18.206,14.97,35.589      c8.167,17.426,21.048,36.077,21.177,36.264c0.906,1.288,2.1,1.638,3.551,1.044c1.1-0.448,18.391-11.916,46.737-30.75      c16.412-10.904,33.384-22.181,34.486-22.771c0.572-0.304,1.045-0.749,1.401-1.323l0.345-0.553l-0.319-0.567      c-2.657-4.725-4.966-9.17-6.862-13.215c-8.084-17.246-14.25-34.148-14.492-35.332l-0.008-0.04l-0.016-0.13      c-1.819-6.414-3.201-11.858-4.026-15.111l-0.752-2.896c-0.367-1.263-1.13-2.176-2.148-2.57      C95.033,0.92,93.835,1.078,92.703,1.771z M93.853,3.646c0.524-0.32,1.045-0.42,1.429-0.271c0.467,0.181,0.709,0.716,0.83,1.132      c0,0.001,0.732,2.824,0.732,2.824c0.829,3.264,2.215,8.727,4.042,15.17c0,0,0.013-0.025,0.013-0.027      c0.215,1.321,1.325,4.264,4.146,11.424c2.339,5.936,6.055,14.994,10.482,24.44c1.819,3.88,4.036,8.141,6.546,12.636      c-0.057,0.041-0.091,0.113-0.153,0.146c-1.198,0.643-16.709,10.948-34.669,22.881c-20.022,13.303-44.941,29.859-46.379,30.557      c-0.537,0.22-0.611,0.113-0.887-0.278c-0.124-0.179-12.902-18.682-20.989-35.938C11.938,73.286,5.934,57.752,4.449,53.855      c1.564-0.83,4.485-2.752,4.74-5.662c0.014-0.161,0.021-0.324,0.021-0.488c0-1.085-0.287-2.242-0.586-3.457      c-0.323-1.307-0.65-2.631-0.65-3.936c0-1.972,0.748-3.896,3.39-5.645c5.743-3.799,11.623-7.082,16.132-9.006      c3.635-1.55,6.259,0.509,8.797,2.5c1.287,1.01,2.504,1.965,3.816,2.413c3.917,1.334,7.553-1.054,8.005-1.366      C50.246,28.023,91.861,4.867,93.853,3.646z"
   id="path40" />
				<path
   fill="none"
   d="M128,128H0V0h128V128z"
   id="path42" />
			</g>
			<linearGradient
   id="XMLID_4_"
   gradientUnits="userSpaceOnUse"
   x1="32.1113"
   y1="59.9604"
   x2="85.1559"
   y2="67.4256">
				<stop
   offset="0"
   style="stop-color:#CDF8FF"
   id="stop45" />
				<stop
   offset="0.1068"
   style="stop-color:#A1D6FF"
   id="stop47" />
				<stop
   offset="0.2858"
   style="stop-color:#5CA2FF"
   id="stop49" />
				<stop
   offset="0.4358"
   style="stop-color:#2A7BFF"
   id="stop51" />
				<stop
   offset="0.549"
   style="stop-color:#0C64FF"
   id="stop53" />
				<stop
   offset="0.6124"
   style="stop-color:#005BFF"
   id="stop55" />
				<stop
   offset="0.7113"
   style="stop-color:#0056FF"
   id="stop57" />
				<stop
   offset="0.8313"
   style="stop-color:#0047FF"
   id="stop59" />
				<stop
   offset="0.9616"
   style="stop-color:#002FFF"
   id="stop61" />
				<stop
   offset="1"
   style="stop-color:#0026FF"
   id="stop63" />
				<a:midPointStop
   offset="0"
   style="stop-color:#CDF8FF" />
				<a:midPointStop
   offset="0.4214"
   style="stop-color:#CDF8FF" />
				<a:midPointStop
   offset="0.6124"
   style="stop-color:#005BFF" />
				<a:midPointStop
   offset="0.6667"
   style="stop-color:#005BFF" />
				<a:midPointStop
   offset="1"
   style="stop-color:#0026FF" />
			</linearGradient>
			<path
   opacity="0.4"
   fill="url(#XMLID_4_)"
   d="M40.3,124.545c0,0-5.63-13.158-9.86-26.29c-3.762-11.693-8.514-27.498-5.066-30.032     c3.033-2.229,17.423-10.991,21.643-13.982c3.77-2.672,2.719-9.599,5.253-14.022c1.243-2.17,3.354-3.299,3.354-3.299     S105.001,8.47,107.793,6.608c1.351-0.899,3.126,0.315,3.126,2.258c0,2.669,2.196,18.056,5.485,33.048     c3.294,15.017,8.718,28.038,8.718,28.038s-0.133,1.522-1.458,2.23c-2.572,1.375-79.172,52.676-81.124,53.473     C40.588,126.451,40.3,124.545,40.3,124.545z"
   id="path65" />
			<defs
   id="defs67">
				<filter
   id="Adobe_OpacityMaskFilter"
   filterUnits="userSpaceOnUse"
   x="37"
   y="9.75"
   width="86.795"
   height="115.955">
					<feColorMatrix
   type="matrix"
   values="1 0 0 0 0  0 1 0 0 0  0 0 1 0 0  0 0 0 1 0"
   id="feColorMatrix70" />
				</filter>
			</defs>
			<mask
   maskUnits="userSpaceOnUse"
   x="37"
   y="9.75"
   width="86.795"
   height="115.955"
   id="XMLID_5_">
				<g
   filter="url(#Adobe_OpacityMaskFilter)"
   id="g73">
					<linearGradient
   id="XMLID_6_"
   gradientUnits="userSpaceOnUse"
   x1="101.9082"
   y1="30.7671"
   x2="12.619"
   y2="86.1555">
						<stop
   offset="0"
   style="stop-color:#FFFFFF"
   id="stop76" />
						<stop
   offset="1"
   style="stop-color:#000000"
   id="stop78" />
						<a:midPointStop
   offset="0"
   style="stop-color:#FFFFFF" />
						<a:midPointStop
   offset="0.5"
   style="stop-color:#FFFFFF" />
						<a:midPointStop
   offset="1"
   style="stop-color:#000000" />
					</linearGradient>
					<path
   fill="url(#XMLID_6_)"
   d="M125.483,115.934H-1.522V-4.865h127.006V115.934z"
   id="path80" />
				</g>
			</mask>
			<linearGradient
   id="XMLID_7_"
   gradientUnits="userSpaceOnUse"
   x1="46.1694"
   y1="55.1499"
   x2="97.3291"
   y2="76.854">
				<stop
   offset="0"
   style="stop-color:#6AC5FF"
   id="stop83" />
				<stop
   offset="0.1262"
   style="stop-color:#61B3F6"
   id="stop85" />
				<stop
   offset="0.3781"
   style="stop-color:#4886E0"
   id="stop87" />
				<stop
   offset="0.7286"
   style="stop-color:#213DBD"
   id="stop89" />
				<stop
   offset="1"
   style="stop-color:#00009F"
   id="stop91" />
				<a:midPointStop
   offset="0"
   style="stop-color:#6AC5FF" />
				<a:midPointStop
   offset="0.5526"
   style="stop-color:#6AC5FF" />
				<a:midPointStop
   offset="1"
   style="stop-color:#00009F" />
			</linearGradient>
			<path
   opacity="0.4"
   mask="url(#XMLID_5_)"
   fill="url(#XMLID_7_)"
   d="M115.251,43.631c-0.67-3.055-4.683-30.909-5.251-33.881     c-7.5,68.5-57.5,36.75-73,98.75c-1.066,4.266,3.66,16.117,3.66,16.117s0.283,1.868,2.196,1.088     c1.913-0.781,76.988-51.061,79.51-52.408c1.299-0.694,1.429-2.187,1.429-2.187S118.479,58.348,115.251,43.631z"
   id="path93" />
			<path
   fill="#FFFFFF"
   d="M28.949,69.737c3.033-2.228,17.424-10.99,21.643-13.982c3.77-2.672,2.721-9.6,5.253-14.022     c1.244-2.17,3.354-3.3,3.354-3.3s42.856-24.691,50.972-29.57c-0.296-1.609-1.847-2.523-3.065-1.712     c-2.793,1.86-52.172,30.31-52.172,30.31s-2.109,1.129-3.354,3.3c-2.533,4.423-1.483,11.35-5.253,14.022     c-4.22,2.991-18.609,11.754-21.642,13.981c-3.449,2.534,1.303,18.339,5.066,30.031c4.23,13.134,9.86,26.291,9.86,26.291     s0.288,1.907,2.239,1.109c0.148-0.059,0.727-0.41,1.658-1.002c-1.311-3.131-5.905-14.285-9.494-25.426     C30.252,88.076,25.502,72.271,28.949,69.737z"
   id="path95" />
			<linearGradient
   id="XMLID_8_"
   gradientUnits="userSpaceOnUse"
   x1="57.8667"
   y1="100.9258"
   x2="120.5585"
   y2="70.7129">
				<stop
   offset="0"
   style="stop-color:#FFFFFF"
   id="stop98" />
				<stop
   offset="1"
   style="stop-color:#B1B1C5"
   id="stop100" />
				<a:midPointStop
   offset="0"
   style="stop-color:#FFFFFF" />
				<a:midPointStop
   offset="0.5"
   style="stop-color:#FFFFFF" />
				<a:midPointStop
   offset="1"
   style="stop-color:#B1B1C5" />
			</linearGradient>
			<path
   fill="url(#XMLID_8_)"
   d="M34.57,110.088c3.049,8.195,5.729,14.457,5.729,14.457s0.288,1.906,2.24,1.11     c1.952-0.797,78.552-52.098,81.124-53.473c1.325-0.708,1.458-2.23,1.458-2.23s-2.802-6.724-5.6-16.083     C103.634,64.267,49.998,100.108,34.57,110.088z"
   id="path102" />
			<linearGradient
   id="XMLID_9_"
   gradientUnits="userSpaceOnUse"
   x1="18.0327"
   y1="124.1084"
   x2="116.4508"
   y2="70.4536">
				<stop
   offset="0"
   style="stop-color:#FFFFFF"
   id="stop105" />
				<stop
   offset="1"
   style="stop-color:#B1B1C5"
   id="stop107" />
				<a:midPointStop
   offset="0"
   style="stop-color:#FFFFFF" />
				<a:midPointStop
   offset="0.5"
   style="stop-color:#FFFFFF" />
				<a:midPointStop
   offset="1"
   style="stop-color:#B1B1C5" />
			</linearGradient>
			<path
   fill="url(#XMLID_9_)"
   a:adobe-blending-mode="multiply"
   d="M119.522,53.869c-0.107,0.069-0.221,0.145-0.332,0.217     c2.44,7.683,4.63,12.942,4.63,12.942s-0.133,1.521-1.457,2.229c-2.571,1.375-79.172,52.676-81.123,53.473     c-0.902,0.369-1.445,0.157-1.773-0.176c0.523,1.263,0.833,1.99,0.833,1.99s0.288,1.906,2.24,1.11     c1.952-0.797,78.552-52.098,81.124-53.473c1.325-0.708,1.458-2.23,1.458-2.23S122.32,63.229,119.522,53.869z"
   id="path109" />
			<linearGradient
   id="XMLID_10_"
   gradientUnits="userSpaceOnUse"
   x1="95.627"
   y1="73.9512"
   x2="35.7537"
   y2="50.8101">
				<stop
   offset="0"
   style="stop-color:#001EA4"
   id="stop112" />
				<stop
   offset="1"
   style="stop-color:#398BFF"
   id="stop114" />
				<a:midPointStop
   offset="0"
   style="stop-color:#001EA4" />
				<a:midPointStop
   offset="0.5"
   style="stop-color:#001EA4" />
				<a:midPointStop
   offset="1"
   style="stop-color:#398BFF" />
			</linearGradient>
			<path
   fill="url(#XMLID_10_)"
   d="M107.184,5.693c-2.731,1.82-51.617,29.988-52.111,30.272c-0.066,0.036-2.373,1.289-3.758,3.705     c-1.154,2.015-1.605,4.41-2.043,6.726c-0.548,2.906-1.064,5.651-2.893,6.946c-2.108,1.495-6.814,4.466-11.364,7.337     c-4.506,2.845-8.762,5.531-10.293,6.656c-1.098,0.808-1.665,2.348-1.665,4.863c0,4.761,2.031,13.013,6.336,26.393     c4.072,12.642,9.488,25.429,9.86,26.303c0.085,0.371,0.365,1.257,1.237,1.752c0.482,0.274,1.303,0.502,2.465,0.027     c1.098-0.448,18.279-11.843,46.446-30.558c16.554-10.997,33.671-22.37,34.781-22.964c1.461-0.78,1.967-2.318,2.035-3.104     l0.023-0.27l-0.104-0.249c-0.054-0.13-5.426-13.11-8.659-27.852c-3.341-15.228-5.46-30.459-5.46-32.812     c0-1.423-0.713-2.688-1.861-3.304C109.192,5.047,108.081,5.096,107.184,5.693z M41.578,124.734     c-0.076-0.042-0.168-0.237-0.193-0.372l-0.022-0.118l-0.052-0.132c-0.056-0.131-5.658-13.265-9.824-26.194     c-5.667-17.614-7.505-27.307-5.462-28.809c1.469-1.079,5.692-3.746,10.165-6.568c4.574-2.889,9.305-5.875,11.462-7.403     c2.552-1.81,3.178-5.126,3.782-8.333c0.402-2.137,0.82-4.348,1.789-6.04c1.062-1.853,2.902-2.867,2.922-2.878     c2.044-1.177,49.469-28.504,52.259-30.363c0.223-0.148,0.464-0.156,0.716-0.021c0.322,0.174,0.7,0.635,0.7,1.364     c0,2.868,2.272,18.522,5.511,33.284c3.012,13.73,7.844,25.924,8.65,27.914c-0.078,0.305-0.284,0.854-0.835,1.148     c-1.122,0.6-13.957,9.116-34.961,23.071c-19.897,13.219-44.659,29.671-46.087,30.364     C41.797,124.771,41.623,124.759,41.578,124.734z"
   id="path116" />
		</g>
	</g>
<g
   id="g2567"
   transform="matrix(0.1678966,0,0,0.163343,41.759038,50.070857)">
		
		
		
		
		
		
		
		
	<g
   transform="matrix(3.8599403,0,0,4.0726438,25.995801,-72.421935)"
   id="Layer_2"><radialGradient
     id="radialGradient3314"
     cx="554"
     cy="759.25"
     r="62.5979"
     gradientTransform="translate(-484,-665)"
     gradientUnits="userSpaceOnUse"><stop
       offset="0"
       style="stop-color:#2CB0FB"
       id="stop3316" /><stop
       offset="0.1263"
       style="stop-color:#2AAAF6"
       id="stop3318" /><stop
       offset="0.3021"
       style="stop-color:#2698E9"
       id="stop3320" /><stop
       offset="0.5069"
       style="stop-color:#1E7AD2"
       id="stop3322" /><stop
       offset="0.7336"
       style="stop-color:#1351B4"
       id="stop3324" /><stop
       offset="0.9758"
       style="stop-color:#051C8C"
       id="stop3326" /><stop
       offset="0.9949"
       style="stop-color:#041889"
       id="stop3328" /></radialGradient><path
     style="fill:url(#SVGID_1_)"
     d="m 120.532,116.648 c 0,2.172 -1.732,3.934 -3.87,3.934 H 25.07 c -2.137,0 -3.87,-1.762 -3.87,-3.934 l 6.773,-73.083 c 0,-2.172 1.733,-3.933 3.87,-3.933 h 75.146 c 2.138,0 3.869,1.761 3.869,3.933 l 9.674,73.083 z"
     id="path27" /></g><g
   transform="matrix(3.8599403,0,0,4.0726438,25.995801,-72.421935)"
   id="Layer_3"><linearGradient
     id="linearGradient3332"
     gradientUnits="userSpaceOnUse"
     x1="554.86719"
     y1="776.83398"
     x2="554.86719"
     y2="704.27002"
     gradientTransform="translate(-484,-665)"><stop
       offset="0.0051"
       style="stop-color:#FFFFFF"
       id="stop3334" /><stop
       offset="1"
       style="stop-color:#E6E6E6"
       id="stop3336" /></linearGradient><polygon
     style="fill:url(#SVGID_2_)"
     points="118.275,114.293 23.458,114.615 30.553,38.181 107.955,38.342 "
     id="polygon35" /></g><g
   transform="matrix(3.8599403,0,0,4.0726438,25.995801,-72.421935)"
   id="Layer_2_1_"><polygon
     style="fill:#d1d1d1"
     points="23.458,114.615 23.791,111.292 117.5,111.25 118.275,114.293 "
     id="polygon38" /></g><g
   transform="matrix(3.8599403,0,0,4.0726438,25.995801,-72.421935)"
   id="Layer_4"><g
     id="g49"><radialGradient
       id="radialGradient3343"
       cx="553.77441"
       cy="714.71002"
       r="28.879499"
       gradientTransform="translate(-484,-665)"
       gradientUnits="userSpaceOnUse"><stop
         offset="0"
         style="stop-color:#C6E3FA"
         id="stop3345" /><stop
         offset="0.368"
         style="stop-color:#C5DBF5"
         id="stop3347" /><stop
         offset="0.9432"
         style="stop-color:#C0C5E8"
         id="stop3349" /><stop
         offset="1"
         style="stop-color:#C0C2E7"
         id="stop3351" /></radialGradient><polygon
       style="fill:url(#SVGID_4_)"
       points="109.427,50.194 109.307,49.227 29.787,49.227 29.681,50.194 "
       id="polygon60" /><radialGradient
       id="radialGradient3354"
       cx="491.3027"
       cy="726.32233"
       r="28.8603"
       gradientTransform="matrix(1.148,0,0,1,-494.2081,-665)"
       gradientUnits="userSpaceOnUse"><stop
         offset="0"
         style="stop-color:#C6E3FA"
         id="stop3356" /><stop
         offset="0.368"
         style="stop-color:#C5DBF5"
         id="stop3358" /><stop
         offset="0.9432"
         style="stop-color:#C0C5E8"
         id="stop3360" /><stop
         offset="1"
         style="stop-color:#C0C2E7"
         id="stop3362" /></radialGradient><polygon
       style="fill:url(#SVGID_5_)"
       points="110.868,61.805 110.749,60.837 28.578,60.837 28.472,61.805 "
       id="polygon71" /><radialGradient
       id="radialGradient3365"
       cx="491.3027"
       cy="737.93158"
       r="28.8612"
       gradientTransform="matrix(1.148,0,0,1,-494.2081,-665)"
       gradientUnits="userSpaceOnUse"><stop
         offset="0"
         style="stop-color:#C6E3FA"
         id="stop3367" /><stop
         offset="0.368"
         style="stop-color:#C5DBF5"
         id="stop3369" /><stop
         offset="0.9432"
         style="stop-color:#C0C5E8"
         id="stop3371" /><stop
         offset="1"
         style="stop-color:#C0C2E7"
         id="stop3373" /></radialGradient><polygon
       style="fill:url(#SVGID_6_)"
       points="112.311,73.415 112.189,72.447 27.409,72.447 27.303,73.415 "
       id="polygon82" /><radialGradient
       id="radialGradient3376"
       cx="491.62701"
       cy="750.51068"
       r="28.778299"
       gradientTransform="matrix(1.148,0,0,1,-494.2081,-665)"
       gradientUnits="userSpaceOnUse"><stop
         offset="0"
         style="stop-color:#C6E3FA"
         id="stop3378" /><stop
         offset="0.368"
         style="stop-color:#C5DBF5"
         id="stop3380" /><stop
         offset="0.9432"
         style="stop-color:#C0C5E8"
         id="stop3382" /><stop
         offset="1"
         style="stop-color:#C0C2E7"
         id="stop3384" /></radialGradient><polygon
       style="fill:url(#SVGID_7_)"
       points="114.115,85.993 113.995,85.025 26.35,85.025 26.245,85.993 "
       id="polygon93" /><radialGradient
       id="radialGradient3387"
       cx="491.73239"
       cy="763.32812"
       r="28.782499"
       gradientTransform="matrix(1.148,0,0,1,-494.2081,-665)"
       gradientUnits="userSpaceOnUse"><stop
         offset="0"
         style="stop-color:#C6E3FA"
         id="stop3389" /><stop
         offset="0.368"
         style="stop-color:#C5DBF5"
         id="stop3391" /><stop
         offset="0.9432"
         style="stop-color:#C0C5E8"
         id="stop3393" /><stop
         offset="1"
         style="stop-color:#C0C2E7"
         id="stop3395" /></radialGradient><polygon
       style="fill:url(#SVGID_8_)"
       points="115.828,98.813 115.708,97.846 25.156,97.846 25.05,98.813 "
       id="polygon104" /></g></g><g
   transform="matrix(3.8599403,0,0,4.0726438,25.995801,-72.421935)"
   id="Layer_5"><polygon
     style="opacity:0.31000001;fill:#ff004f"
     enable-background="new    "
     points="34.583,113.832 33.617,113.783 37.326,39.608 38.292,39.657 "
     id="polygon107" /></g><g
   transform="matrix(3.8599403,0,0,4.0726438,25.995801,-72.421935)"
   id="Layer_6"><g
     id="g110"><polygon
       style="opacity:0.27999998;fill:#00ffff"
       enable-background="new    "
       points="120.498,116.391 120.35,115.261 21.329,115.261 21.224,116.391 "
       id="polygon112" /><linearGradient
       id="linearGradient3403"
       gradientUnits="userSpaceOnUse"
       x1="554.86621"
       y1="782.68073"
       x2="554.86621"
       y2="786.22742"
       gradientTransform="translate(-484,-665)"><stop
         offset="0"
         style="stop-color:#00FFFF"
         id="stop3405" /><stop
         offset="1"
         style="stop-color:#041889"
         id="stop3407" /></linearGradient><path
       style="opacity:0.43999999;fill:url(#SVGID_9_)"
       enable-background="new    "
       d="m 25.07,120.582 h 91.592 c 1.953,0 3.552,-1.477 3.816,-3.387 H 21.254 c 0.264,1.91 1.863,3.387 3.816,3.387 z"
       id="path119" /></g></g><g
   transform="matrix(3.8599403,0,0,4.0726438,25.995801,-72.421935)"
   id="Layer_14"><ellipse
     d="m 44.581998,42.374001 c 0,0.801365 -1.543274,1.451 -3.447,1.451 -1.903725,0 -3.447,-0.649635 -3.447,-1.451 0,-0.801366 1.543275,-1.451 3.447,-1.451 1.903726,0 3.447,0.649634 3.447,1.451 z"
     style="fill:#2c8afb"
     sodipodi:ry="1.451"
     sodipodi:rx="3.447"
     sodipodi:cy="42.374001"
     sodipodi:cx="41.134998"
     cx="41.134998"
     cy="42.374001"
     rx="3.447"
     ry="1.451"
     id="ellipse122" /><ellipse
     d="m 63.287,42.374001 c 0,0.801365 -1.543274,1.451 -3.447,1.451 -1.903725,0 -3.447,-0.649635 -3.447,-1.451 0,-0.801366 1.543275,-1.451 3.447,-1.451 1.903726,0 3.447,0.649634 3.447,1.451 z"
     style="fill:#2c8afb"
     sodipodi:ry="1.451"
     sodipodi:rx="3.447"
     sodipodi:cy="42.374001"
     sodipodi:cx="59.84"
     cx="59.84"
     cy="42.374001"
     rx="3.447"
     ry="1.451"
     id="ellipse124" /><ellipse
     d="m 82.316003,42.374001 c 0,0.801365 -1.543274,1.451 -3.447,1.451 -1.903725,0 -3.447,-0.649635 -3.447,-1.451 0,-0.801366 1.543275,-1.451 3.447,-1.451 1.903726,0 3.447,0.649634 3.447,1.451 z"
     style="fill:#2c8afb"
     sodipodi:ry="1.451"
     sodipodi:rx="3.447"
     sodipodi:cy="42.374001"
     sodipodi:cx="78.869003"
     cx="78.869003"
     cy="42.374001"
     rx="3.447"
     ry="1.451"
     id="ellipse126" /><ellipse
     d="m 101.021,42.374001 c 0,0.801365 -1.543277,1.451 -3.447003,1.451 -1.903725,0 -3.447,-0.649635 -3.447,-1.451 0,-0.801366 1.543275,-1.451 3.447,-1.451 1.903726,0 3.447003,0.649634 3.447003,1.451 z"
     style="fill:#2c8afb"
     sodipodi:ry="1.451"
     sodipodi:rx="3.447"
     sodipodi:cy="42.374001"
     sodipodi:cx="97.573997"
     cx="97.573997"
     cy="42.374001"
     rx="3.447"
     ry="1.451"
     id="ellipse128" /></g><g
   transform="matrix(3.8599403,0,0,4.0726438,25.995801,-72.421935)"
   id="Layer_16"><g
     id="g131"><linearGradient
       id="linearGradient3417"
       gradientUnits="userSpaceOnUse"
       x1="523.50293"
       y1="699.53522"
       x2="526.95007"
       y2="699.53522"
       gradientTransform="translate(-484,-665)"><stop
         offset="0"
         style="stop-color:#787878"
         id="stop3419" /><stop
         offset="0.267"
         style="stop-color:#FFFFFF"
         id="stop3421" /><stop
         offset="0.7382"
         style="stop-color:#FFFFFF"
         id="stop3423" /><stop
         offset="1"
         style="stop-color:#CCCCCC"
         id="stop3425" /></linearGradient><path
       style="fill:url(#SVGID_10_)"
       d="m 41.256,25.402 c -1.036,0 -1.875,0.839 -1.875,1.875 v 16.34 c 0.073,0.018 0.147,0.035 0.224,0.051 0.707,-0.609 1.668,-1.636 2.036,-2.724 0.093,-0.275 0.159,-0.552 0.159,-0.827 0,-2.418 0,-3.83 0,-3.83 h 1.028 v 7.345 c 0.103,-0.025 0.207,-0.048 0.303,-0.078 V 27.276 c -10e-4,-1.035 -0.84,-1.874 -1.875,-1.874 z"
       id="path142" /><linearGradient
       id="linearGradient3428"
       gradientUnits="userSpaceOnUse"
       x1="525.2168"
       y1="708.58398"
       x2="525.2168"
       y2="701.2868"
       gradientTransform="translate(-484,-665)"><stop
         offset="0"
         style="stop-color:#404040"
         id="stop3430" /><stop
         offset="1"
         style="stop-color:#FFFFFF"
         id="stop3432" /></linearGradient><path
       style="fill:url(#SVGID_11_)"
       d="m 41.8,36.286 c 0,0 0,1.412 0,3.83 0,0.275 -0.066,0.552 -0.159,0.827 -0.368,1.088 -1.33,2.115 -2.036,2.724 0.463,0.097 0.978,0.157 1.531,0.157 0.618,0 1.191,-0.074 1.692,-0.194 v -7.345 l -1.028,0.001 0,0 z"
       id="path149" /></g><g
     id="g151"><linearGradient
       id="linearGradient3436"
       gradientUnits="userSpaceOnUse"
       x1="542.20801"
       y1="699.53522"
       x2="545.65472"
       y2="699.53522"
       gradientTransform="translate(-484,-665)"><stop
         offset="0"
         style="stop-color:#787878"
         id="stop3438" /><stop
         offset="0.267"
         style="stop-color:#FFFFFF"
         id="stop3440" /><stop
         offset="0.7382"
         style="stop-color:#FFFFFF"
         id="stop3442" /><stop
         offset="1"
         style="stop-color:#CCCCCC"
         id="stop3444" /></linearGradient><path
       style="fill:url(#SVGID_12_)"
       d="m 59.961,25.402 c -1.036,0 -1.875,0.839 -1.875,1.875 v 16.34 c 0.073,0.018 0.147,0.035 0.223,0.051 0.707,-0.609 1.668,-1.636 2.036,-2.724 0.093,-0.275 0.159,-0.552 0.159,-0.827 0,-2.418 0,-3.83 0,-3.83 h 1.028 v 7.345 c 0.103,-0.025 0.206,-0.048 0.302,-0.078 V 27.276 c 10e-4,-1.035 -0.838,-1.874 -1.873,-1.874 z"
       id="path162" /><linearGradient
       id="linearGradient3447"
       gradientUnits="userSpaceOnUse"
       x1="543.92188"
       y1="708.58398"
       x2="543.92188"
       y2="701.2868"
       gradientTransform="translate(-484,-665)"><stop
         offset="0"
         style="stop-color:#404040"
         id="stop3449" /><stop
         offset="1"
         style="stop-color:#FFFFFF"
         id="stop3451" /></linearGradient><path
       style="fill:url(#SVGID_13_)"
       d="m 60.505,36.286 c 0,0 0,1.412 0,3.83 0,0.275 -0.066,0.552 -0.159,0.827 -0.368,1.088 -1.33,2.115 -2.036,2.724 0.463,0.097 0.978,0.157 1.531,0.157 0.618,0 1.191,-0.074 1.693,-0.194 v -7.345 l -1.029,0.001 0,0 z"
       id="path169" /></g><g
     id="g171"><linearGradient
       id="linearGradient3455"
       gradientUnits="userSpaceOnUse"
       x1="561.23633"
       y1="699.53522"
       x2="564.68298"
       y2="699.53522"
       gradientTransform="translate(-484,-665)"><stop
         offset="0"
         style="stop-color:#787878"
         id="stop3457" /><stop
         offset="0.267"
         style="stop-color:#FFFFFF"
         id="stop3459" /><stop
         offset="0.7382"
         style="stop-color:#FFFFFF"
         id="stop3461" /><stop
         offset="1"
         style="stop-color:#CCCCCC"
         id="stop3463" /></linearGradient><path
       style="fill:url(#SVGID_14_)"
       d="m 78.988,25.402 c -1.034,0 -1.873,0.839 -1.873,1.875 v 16.34 c 0.07,0.018 0.146,0.035 0.223,0.051 0.707,-0.609 1.669,-1.636 2.036,-2.724 0.093,-0.275 0.16,-0.552 0.16,-0.827 0,-2.418 0,-3.83 0,-3.83 h 1.026 v 7.345 c 0.104,-0.025 0.207,-0.048 0.304,-0.078 V 27.276 c -0.001,-1.035 -0.839,-1.874 -1.876,-1.874 z"
       id="path182" /><linearGradient
       id="linearGradient3466"
       gradientUnits="userSpaceOnUse"
       x1="562.94922"
       y1="708.58398"
       x2="562.94922"
       y2="701.2868"
       gradientTransform="translate(-484,-665)"><stop
         offset="0"
         style="stop-color:#404040"
         id="stop3468" /><stop
         offset="1"
         style="stop-color:#FFFFFF"
         id="stop3470" /></linearGradient><path
       style="fill:url(#SVGID_15_)"
       d="m 79.534,36.286 c 0,0 0,1.412 0,3.83 0,0.275 -0.067,0.552 -0.16,0.827 -0.367,1.088 -1.329,2.115 -2.036,2.724 0.463,0.097 0.979,0.157 1.53,0.157 0.618,0 1.19,-0.074 1.692,-0.194 v -7.345 l -1.026,0.001 0,0 z"
       id="path189" /></g><g
     id="g191"><linearGradient
       id="linearGradient3474"
       gradientUnits="userSpaceOnUse"
       x1="579.94043"
       y1="699.53522"
       x2="583.38708"
       y2="699.53522"
       gradientTransform="translate(-484,-665)"><stop
         offset="0"
         style="stop-color:#787878"
         id="stop3476" /><stop
         offset="0.267"
         style="stop-color:#FFFFFF"
         id="stop3478" /><stop
         offset="0.7382"
         style="stop-color:#FFFFFF"
         id="stop3480" /><stop
         offset="1"
         style="stop-color:#CCCCCC"
         id="stop3482" /></linearGradient><path
       style="fill:url(#SVGID_16_)"
       d="m 97.693,25.402 c -1.035,0 -1.875,0.839 -1.875,1.875 v 16.34 c 0.074,0.018 0.146,0.035 0.225,0.051 0.706,-0.609 1.669,-1.636 2.036,-2.724 0.093,-0.275 0.159,-0.552 0.159,-0.827 0,-2.418 0,-3.83 0,-3.83 h 1.027 v 7.345 c 0.104,-0.025 0.207,-0.048 0.303,-0.078 V 27.276 c 0,-1.035 -0.839,-1.874 -1.875,-1.874 z"
       id="path202" /><linearGradient
       id="linearGradient3485"
       gradientUnits="userSpaceOnUse"
       x1="581.6543"
       y1="708.58398"
       x2="581.6543"
       y2="701.2868"
       gradientTransform="translate(-484,-665)"><stop
         offset="0"
         style="stop-color:#404040"
         id="stop3487" /><stop
         offset="1"
         style="stop-color:#FFFFFF"
         id="stop3489" /></linearGradient><path
       style="fill:url(#SVGID_17_)"
       d="m 98.238,36.286 c 0,0 0,1.412 0,3.83 0,0.275 -0.066,0.552 -0.159,0.827 -0.367,1.088 -1.33,2.115 -2.036,2.724 0.463,0.097 0.979,0.157 1.53,0.157 0.618,0 1.19,-0.074 1.692,-0.194 v -7.345 l -1.027,0.001 0,0 z"
       id="path209" /></g></g><g
   id="layer1"
   inkscape:label="Layer 1"
   transform="matrix(5.9485775,0,0,7.6162856,320.7854,138.18347)"><g
     transform="translate(-41.012195,-139.30004)"
     id="g3278"><path
       sodipodi:nodetypes="ccccc"
       id="path3208"
       d="m 42.883885,146.92286 6,21.25 24.25,-23.25 -21,10.5 -9.25,-8.5 z"
       style="opacity:0.49923078;fill:#000000;fill-opacity:1;fill-rule:evenodd;stroke:none;filter:url(#filter3274)" /><path
       style="fill:url(#linearGradient3282);fill-opacity:1;fill-rule:evenodd;stroke:url(#linearGradient3284);stroke-width:1px;stroke-linecap:round;stroke-linejoin:miter;stroke-opacity:1"
       d="m 42.176777,146.03896 6,21.25 24.25,-23.25 -21,10.5 -9.25,-8.5 z"
       id="path2418"
       sodipodi:nodetypes="ccccc" /></g></g></g></svg>