<?xml version="1.0" encoding="UTF-8" standalone="no"?>
<!-- Generator: Adobe Illustrator 10.0.3, SVG Export Plug-In . SVG Version: 3.0.0 Build 77)  -->
<svg
   xmlns:a="http://ns.adobe.com/AdobeSVGViewerExtensions/3.0/"
   xmlns:dc="http://purl.org/dc/elements/1.1/"
   xmlns:cc="http://creativecommons.org/ns#"
   xmlns:rdf="http://www.w3.org/1999/02/22-rdf-syntax-ns#"
   xmlns:svg="http://www.w3.org/2000/svg"
   xmlns="http://www.w3.org/2000/svg"
   xmlns:xlink="http://www.w3.org/1999/xlink"
   xmlns:sodipodi="http://sodipodi.sourceforge.net/DTD/sodipodi-0.dtd"
   xmlns:inkscape="http://www.inkscape.org/namespaces/inkscape"
   width="130.369"
   height="129.957"
   viewBox="0 0 130.369 129.957"
   overflow="visible"
   enable-background="new 0 0 130.369 129.957"
   xml:space="preserve"
   id="svg2"
   sodipodi:version="0.32"
   inkscape:version="0.46"
   sodipodi:docname="notatki_logo.svg"
   inkscape:output_extension="org.inkscape.output.svg.inkscape"><metadata
   id="metadata196"><rdf:RDF><cc:Work
       rdf:about=""><dc:format>image/svg+xml</dc:format><dc:type
         rdf:resource="http://purl.org/dc/dcmitype/StillImage" /></cc:Work></rdf:RDF></metadata><defs
   id="defs194"><inkscape:perspective
     sodipodi:type="inkscape:persp3d"
     inkscape:vp_x="0 : 64.9785 : 1"
     inkscape:vp_y="0 : 1000 : 0"
     inkscape:vp_z="130.369 : 64.9785 : 1"
     inkscape:persp3d-origin="65.184502 : 43.319 : 1"
     id="perspective198" /><inkscape:perspective
     id="perspective2652"
     inkscape:persp3d-origin="372.04724 : 350.78739 : 1"
     inkscape:vp_z="744.09448 : 526.18109 : 1"
     inkscape:vp_y="0 : 1000 : 0"
     inkscape:vp_x="0 : 526.18109 : 1"
     sodipodi:type="inkscape:persp3d" /></defs><sodipodi:namedview
   inkscape:window-height="681"
   inkscape:window-width="1016"
   inkscape:pageshadow="2"
   inkscape:pageopacity="0.0"
   guidetolerance="10.0"
   gridtolerance="10.0"
   objecttolerance="10.0"
   borderopacity="1.0"
   bordercolor="#666666"
   pagecolor="#ffffff"
   id="base"
   showgrid="false"
   inkscape:zoom="3.5858014"
   inkscape:cx="90.40288"
   inkscape:cy="45.492256"
   inkscape:window-x="656"
   inkscape:window-y="291"
   inkscape:current-layer="svg2" />
	<g
   id="Layer_1">
		<g
   id="g5">
			<g
   id="g7">
				<path
   d="M1.319,78.311c-0.529,0.756-0.169,1.227,0.41,1.473l63.137,31.67      c0,0,2.514,1.145,4.191-0.4c3.106-2.861,57.819-64.603,57.819-64.603l-0.784-2.019L63.228,15.462c0,0-1.493-1.196-3.881,1.192      c-2.39,2.39-21.292,22.899-22.785,24.391c-1.491,1.492-1.759,1.9-4.294,1.759c-1.518-0.083-7.435-0.677-10.278-0.853      c-1.653-0.104-2.359,0.789-2.896,1.328C18.111,44.263,5.418,58.013,4.822,58.734c0,0-1.338,1.635-0.55,3.13      c0.82,1.557,3.755,6.4,3.755,6.4s0.761,1.875-0.489,3.361C6.226,73.18,1.569,77.951,1.319,78.311z"
   id="path9"
   stroke="#FFFFFF"
   fill="#FFFFFF" />
				<linearGradient
   id="XMLID_1_"
   gradientUnits="userSpaceOnUse"
   x1="5.1406"
   y1="62.6279"
   x2="125.8857"
   y2="62.6279">
					<stop
   offset="0.0056"
   style="stop-color:#FFFFFF"
   id="stop12" />
					<stop
   offset="0.3989"
   style="stop-color:#87BBFF"
   id="stop14" />
					<stop
   offset="1"
   style="stop-color:#1E65FF"
   id="stop16" />
					<a:midPointStop
   offset="0.0056"
   style="stop-color:#FFFFFF" />
					<a:midPointStop
   offset="0.5"
   style="stop-color:#FFFFFF" />
					<a:midPointStop
   offset="0.3989"
   style="stop-color:#87BBFF" />
					<a:midPointStop
   offset="0.5"
   style="stop-color:#87BBFF" />
					<a:midPointStop
   offset="1"
   style="stop-color:#1E65FF" />
				</linearGradient>
				<path
   d="M5.141,77.191c-0.51,0.727-0.161,1.18,0.393,1.416l60.718,30.459c0,0,2.416,1.096,4.031-0.389      c2.986-2.752,55.603-62.126,55.603-62.126l-0.756-1.942L64.676,16.751c0,0-2.35-2.423-4.646-0.125      c-2.295,2.297-20.912,21.884-22.346,23.318c-1.437,1.435-0.343,3.237-2.782,3.102c-1.459-0.08-7.152-0.651-9.883-0.822      c-1.59-0.098-2.268,0.761-2.786,1.278C21.288,44.449,9.082,57.673,8.507,58.367c0,0-1.285,1.57-0.528,3.008      c0.79,1.497,3.611,6.155,3.611,6.155s0.732,1.803-0.471,3.234C9.858,72.258,5.382,76.846,5.141,77.191z"
   id="path18"
   fill="url(#XMLID_1_)" />
				<linearGradient
   id="XMLID_2_"
   gradientUnits="userSpaceOnUse"
   x1="63.9692"
   y1="156.2451"
   x2="63.9692"
   y2="-7.9506">
					<stop
   offset="0"
   style="stop-color:#001EA4"
   id="stop21" />
					<stop
   offset="0.5618"
   style="stop-color:#398BFF"
   id="stop23" />
					<stop
   offset="1"
   style="stop-color:#AECFFF"
   id="stop25" />
					<a:midPointStop
   offset="0"
   style="stop-color:#001EA4" />
					<a:midPointStop
   offset="0.5"
   style="stop-color:#001EA4" />
					<a:midPointStop
   offset="0.5618"
   style="stop-color:#398BFF" />
					<a:midPointStop
   offset="0.5"
   style="stop-color:#398BFF" />
					<a:midPointStop
   offset="1"
   style="stop-color:#AECFFF" />
				</linearGradient>
				<path
   d="M58.596,15.903c-1.346,1.346-7.813,8.314-13.521,14.462c-4.431,4.773-8.617,9.282-9.265,9.928      c0,0.001-0.214,0.216-0.214,0.216c-1.233,1.239-1.336,1.341-3.27,1.233c-0.002,0-4.057-0.339-4.057-0.339l-6.211-0.513      c-2.002-0.125-3.032,0.935-3.584,1.504l-0.131,0.133C17.367,43.504,4.64,57.29,4.004,58.056c-0.467,0.57-1.042,1.632-1.042,2.79      c0,0.499,0.106,1.012,0.37,1.512c0.784,1.492,3.371,5.767,3.725,6.353c0.031,0.088,0.141,0.41,0.141,0.863      c0,0.424-0.104,0.928-0.473,1.367L2.647,75.33c-1.632,1.719-2.061,2.176-2.197,2.371C0.104,78.191,0,78.631,0,78.988      c0,0.184,0.028,0.344,0.066,0.479c0.114,0.398,0.421,0.941,1.245,1.295l63.078,31.643c0.165,0.074,3.217,1.428,5.39-0.57      c3.11-2.863,55.659-62.156,57.895-64.679c0.175-0.197,0.266-0.45,0.266-0.705c0-0.13-0.022-0.261-0.072-0.384l-0.783-2.019      c-0.101-0.256-0.296-0.464-0.547-0.58c0,0-62.704-28.898-62.812-28.946C63.161,14.176,61.193,13.304,58.596,15.903z       M2.184,78.93c0,0.004-0.004,0.006-0.004,0.008c0-0.002,0-0.002,0.002-0.004C2.182,78.934,2.184,78.932,2.184,78.93z       M37.103,42.008l0.21-0.212c0.678-0.675,4.682-4.99,9.319-9.984c5.695-6.136,12.149-13.089,13.463-14.405      c1.623-1.62,2.471-1.108,2.506-1.086c0.041,0.026,0.137,0.086,0.18,0.106c0,0,61.706,28.437,62.476,28.791      c0.126,0.323,0.23,0.589,0.396,1.014c-4.957,5.59-54.421,61.375-57.314,64.041c-1.129,1.039-3.018,0.221-3.036,0.213      c0,0-62.955-31.578-63.049-31.627c0.15-0.16,1.936-2.064,1.936-2.064l4.162-4.484c0.759-0.902,0.968-1.898,0.968-2.717      c0-0.957-0.283-1.672-0.304-1.727c-0.021-0.053-0.047-0.104-0.076-0.152c-0.03-0.047-2.932-4.833-3.725-6.344      c-0.089-0.167-0.124-0.348-0.124-0.527c0-0.713,0.552-1.431,0.558-1.439c0.569-0.686,13.313-14.487,14.198-15.373l0.151-0.154      c0.482-0.498,0.901-0.927,1.928-0.864l6.154,0.51l4.131,0.344C34.955,44.016,35.611,43.506,37.103,42.008z"
   id="path27"
   fill="url(#XMLID_2_)" />
			</g>
			<g
   id="g29">
				<linearGradient
   id="XMLID_3_"
   gradientUnits="userSpaceOnUse"
   x1="101.1631"
   y1="22.6377"
   x2="67.4751"
   y2="168.1972">
					<stop
   offset="0"
   style="stop-color:#FFFFFF"
   id="stop32" />
					<stop
   offset="0.1997"
   style="stop-color:#F9F9FB"
   id="stop34" />
					<stop
   offset="0.4548"
   style="stop-color:#EAEAEF"
   id="stop36" />
					<stop
   offset="0.7386"
   style="stop-color:#D0D0DC"
   id="stop38" />
					<stop
   offset="1"
   style="stop-color:#B1B1C5"
   id="stop40" />
					<a:midPointStop
   offset="0"
   style="stop-color:#FFFFFF" />
					<a:midPointStop
   offset="0.6554"
   style="stop-color:#FFFFFF" />
					<a:midPointStop
   offset="1"
   style="stop-color:#B1B1C5" />
				</linearGradient>
				<path
   d="M126.938,39.645c-0.214-0.259-6.795-4.415-15.716-9.988c-6.283,7.187-46.502,52.48-58.787,66.312      c7.303,4.854,13.062,8.881,14.604,10.486c2.358,2.451,2.642,4.055,1.791,5.188c0,0,57.476-64.704,58.495-66      C128.391,44.288,128.761,41.852,126.938,39.645z"
   id="path42"
   fill="url(#XMLID_3_)" />
				<linearGradient
   id="XMLID_4_"
   gradientUnits="userSpaceOnUse"
   x1="22.7861"
   y1="43.6436"
   x2="71.3647"
   y2="50.4802">
					<stop
   offset="0"
   style="stop-color:#CDF8FF"
   id="stop45" />
					<stop
   offset="0.1068"
   style="stop-color:#A1D6FF"
   id="stop47" />
					<stop
   offset="0.2858"
   style="stop-color:#5CA2FF"
   id="stop49" />
					<stop
   offset="0.4358"
   style="stop-color:#2A7BFF"
   id="stop51" />
					<stop
   offset="0.549"
   style="stop-color:#0C64FF"
   id="stop53" />
					<stop
   offset="0.6124"
   style="stop-color:#005BFF"
   id="stop55" />
					<stop
   offset="0.7113"
   style="stop-color:#0056FF"
   id="stop57" />
					<stop
   offset="0.8313"
   style="stop-color:#0047FF"
   id="stop59" />
					<stop
   offset="0.9616"
   style="stop-color:#002FFF"
   id="stop61" />
					<stop
   offset="1"
   style="stop-color:#0026FF"
   id="stop63" />
					<a:midPointStop
   offset="0"
   style="stop-color:#CDF8FF" />
					<a:midPointStop
   offset="0.4214"
   style="stop-color:#CDF8FF" />
					<a:midPointStop
   offset="0.6124"
   style="stop-color:#005BFF" />
					<a:midPointStop
   offset="0.6667"
   style="stop-color:#005BFF" />
					<a:midPointStop
   offset="1"
   style="stop-color:#0026FF" />
				</linearGradient>
				<path
   d="M65.605,1.517c-2.404-1.54-4.404,0.002-5.734,1.435      c-1.404,1.513-31.247,35-32.194,36.093c-0.706,0.816-3.135,2.946-2.748,7.409c0.332,3.829,0.317,4.466,0.423,6.169      c0.024,0.386,0.129,2.564-0.987,3.968c-2.646,3.338-7.559,8.239-9.259,10.426c-1.066,1.371-2.915,2.914-0.729,4.615      c0.814,0.633,21.312,13.203,38.057,24.336c12.285-13.832,52.504-59.125,58.787-66.312C92.019,17.655,66.334,1.985,65.605,1.517z      "
   id="path65"
   fill="url(#XMLID_4_)"
   opacity="0.4" />
				<linearGradient
   id="XMLID_5_"
   gradientUnits="userSpaceOnUse"
   x1="21.2974"
   y1="54.2246"
   x2="69.8759"
   y2="61.0612">
					<stop
   offset="0"
   style="stop-color:#FFFFFF"
   id="stop68" />
					<stop
   offset="0.0182"
   style="stop-color:#F9FBFF"
   id="stop70" />
					<stop
   offset="0.3013"
   style="stop-color:#A2BEFF"
   id="stop72" />
					<stop
   offset="0.5507"
   style="stop-color:#5D8EFF"
   id="stop74" />
					<stop
   offset="0.7572"
   style="stop-color:#2A6BFF"
   id="stop76" />
					<stop
   offset="0.913"
   style="stop-color:#0C56FF"
   id="stop78" />
					<stop
   offset="1"
   style="stop-color:#004EFF"
   id="stop80" />
					<a:midPointStop
   offset="0"
   style="stop-color:#FFFFFF" />
					<a:midPointStop
   offset="0.4214"
   style="stop-color:#FFFFFF" />
					<a:midPointStop
   offset="1"
   style="stop-color:#004EFF" />
				</linearGradient>
				<path
   d="M33.973,63.454c-5.135,0-10.162-0.247-15.052-0.72      c-1.592,1.721-3.038,3.286-3.814,4.284c-1.066,1.371-2.915,2.914-0.729,4.615c0.814,0.633,21.312,13.203,38.057,24.336      c12.285-13.832,52.504-59.125,58.787-66.312c-0.094-0.058-0.19-0.119-0.283-0.178C98.505,47.632,71.153,63.454,33.973,63.454z"
   id="path82"
   fill="url(#XMLID_5_)"
   opacity="0.4" />
				<path
   d="M55.479,94.406C38.966,83.428,18.815,71.072,18.014,70.449c-2.156-1.678-0.334-3.199,0.717-4.551      c1.676-2.156,6.521-6.989,9.13-10.28c1.099-1.385,0.998-3.533,0.973-3.913c-0.104-1.679-0.091-2.307-0.419-6.083      c-0.381-4.401,2.016-6.5,2.71-7.306c0.936-1.078,30.362-34.099,31.746-35.59c0.548-0.59,1.214-1.198,1.975-1.596      c-2.066-0.816-3.789,0.543-4.975,1.822c-1.404,1.513-31.247,35-32.194,36.093c-0.706,0.816-3.135,2.946-2.748,7.409      c0.332,3.829,0.317,4.466,0.423,6.169c0.024,0.386,0.129,2.564-0.987,3.968c-2.646,3.338-7.559,8.239-9.259,10.426      c-1.066,1.371-2.915,2.914-0.729,4.615c0.814,0.633,21.312,13.203,38.057,24.336c7.303,4.854,13.062,8.881,14.604,10.486      c2.358,2.451,2.642,4.055,1.791,5.188c0,0,1.169-1.316,3.173-3.572c-0.184-0.893-0.827-1.975-2.125-3.324      C68.358,103.162,62.679,99.191,55.479,94.406z"
   id="path84"
   fill="#FFFFFF" />
				
					<linearGradient
   id="XMLID_6_"
   gradientUnits="userSpaceOnUse"
   x1="-30.8105"
   y1="189.5371"
   x2="13.4348"
   y2="165.4158"
   gradientTransform="matrix(0.3466 0.3072 -0.6434 0.7258 212.125 -50.9844)">
					<stop
   offset="0"
   style="stop-color:#FFFFFF"
   id="stop87" />
					<stop
   offset="1"
   style="stop-color:#B1B1C5"
   id="stop89" />
					<a:midPointStop
   offset="0"
   style="stop-color:#FFFFFF" />
					<a:midPointStop
   offset="0.5"
   style="stop-color:#FFFFFF" />
					<a:midPointStop
   offset="1"
   style="stop-color:#B1B1C5" />
				</linearGradient>
				<path
   a:adobe-blending-mode="multiply"
   d="M128.694,42.532l-1.336-1.185l-57.97,65.396l1.336,1.186      L128.694,42.532z"
   id="path91"
   fill="url(#XMLID_6_)" />
				
					<linearGradient
   id="XMLID_7_"
   gradientUnits="userSpaceOnUse"
   x1="55.0996"
   y1="81.8623"
   x2="104.3213"
   y2="24.5442"
   gradientTransform="matrix(0.8981 -0.0904 -0.0904 0.9199 33.4496 29.3358)">
					<stop
   offset="0"
   style="stop-color:#FFFFFF"
   id="stop94" />
					<stop
   offset="1"
   style="stop-color:#000000"
   id="stop96" />
					<a:midPointStop
   offset="0"
   style="stop-color:#FFFFFF" />
					<a:midPointStop
   offset="0.5"
   style="stop-color:#FFFFFF" />
					<a:midPointStop
   offset="1"
   style="stop-color:#000000" />
				</linearGradient>
				<path
   a:adobe-blending-mode="screen"
   d="M127.823,41.576l-1.562-1.385l-57.967,65.397l1.56,1.383      L127.823,41.576z"
   id="path98"
   fill="url(#XMLID_7_)" />
				<linearGradient
   id="XMLID_8_"
   gradientUnits="userSpaceOnUse"
   x1="70.79"
   y1="133.8281"
   x2="70.79"
   y2="39.44">
					<stop
   offset="0"
   style="stop-color:#001EA4"
   id="stop101" />
					<stop
   offset="0.3167"
   style="stop-color:#184CCA"
   id="stop103" />
					<stop
   offset="0.6063"
   style="stop-color:#2A6EE7"
   id="stop105" />
					<stop
   offset="0.8439"
   style="stop-color:#3583F9"
   id="stop107" />
					<stop
   offset="1"
   style="stop-color:#398BFF"
   id="stop109" />
					<a:midPointStop
   offset="0"
   style="stop-color:#001EA4" />
					<a:midPointStop
   offset="0.3842"
   style="stop-color:#001EA4" />
					<a:midPointStop
   offset="1"
   style="stop-color:#398BFF" />
				</linearGradient>
				<path
   d="M59.158,2.291c-1.674,1.804-32.031,35.906-32.215,36.118c0,0.001-0.218,0.24-0.218,0.24      c-0.943,1.022-3.152,3.414-2.763,7.891l0.353,4.926l0.068,1.219c0.022,0.359,0.095,2.205-0.778,3.303      c-1.404,1.772-3.501,4.039-5.351,6.039c-1.666,1.8-3.104,3.355-3.913,4.394l-0.431,0.527c-0.734,0.873-1.647,1.961-1.509,3.273      c0.085,0.799,0.55,1.531,1.382,2.178c0.285,0.223,2.285,1.49,7.184,4.59c13.728,8.688,41.504,26.117,45.373,30.141      c1.738,1.809,2.314,3.129,1.715,3.93c-0.312,0.418-0.275,1.619,0.161,1.336c0.718-0.463,2.27-1.201,2.617-1.59      c2.348-2.643,56.23-63.258,57.258-64.562c1.304-1.662,1.734-4.628-0.402-7.217c-0.342-0.412-0.758-0.646-54.894-34.192      l-6.666-4.135C63.844-0.766,61.498-0.23,59.158,2.291z M22.007,75.346c-3.769-2.383-6.746-4.268-7.035-4.482      c-0.271-0.211-0.605-0.531-0.639-0.848c-0.051-0.49,0.541-1.197,1.064-1.82l0.476-0.582c0.759-0.975,2.239-2.574,3.805-4.267      c1.875-2.026,3.998-4.322,5.448-6.151c1.281-1.612,1.239-3.954,1.196-4.633l-0.066-1.2l-0.359-4.993      c-0.315-3.62,1.421-5.5,2.256-6.403l0.258-0.286c0.184-0.212,30.5-34.268,32.17-36.068c1.674-1.803,3.062-2.198,4.497-1.277      c0.002,0,6.691,4.15,6.691,4.15c14.08,8.726,52.316,32.212,54.447,33.828c0.725,0.899,1.032,1.83,1.032,2.672      c0,0.803-0.27,1.523-0.688,2.057c-0.829,1.043-36.36,41.076-56.608,63.873c-0.538-1.391-1.685-2.58-2.214-3.133      C63.709,101.588,36.962,84.811,22.007,75.346z"
   id="path111"
   fill="url(#XMLID_8_)" />
			</g>
		</g>
		<g
   id="g113">
			<path
   d="M128.548,79.487c-0.053-0.194-0.186-0.355-0.365-0.444L80.703,55.832     c-0.296-0.145-0.654-0.061-0.854,0.198L42.49,104.147c-0.128,0.163-0.176,0.379-0.128,0.584c0.048,0.202,0.187,0.375,0.376,0.465     l51.457,24.761c0.311,0.15,0.683,0.048,0.877-0.238l33.381-49.663C128.566,79.887,128.599,79.681,128.548,79.487z"
   id="path115"
   opacity="0.1" />
			<g
   id="g117">
				<path
   d="M77.516,44.753l52.116,25.477L92.99,124.745L36.51,97.567L77.516,44.753z"
   id="path119"
   fill="#FFFFFF" />
				
					<linearGradient
   id="XMLID_9_"
   gradientUnits="userSpaceOnUse"
   x1="82.7012"
   y1="64.9658"
   x2="82.7012"
   y2="138.4041"
   gradientTransform="matrix(0.9884 0.1518 -0.1518 0.9884 13.7805 -11.3589)">
					<stop
   offset="0"
   style="stop-color:#FFFFFF"
   id="stop122" />
					<stop
   offset="1"
   style="stop-color:#D4D4D4"
   id="stop124" />
					<a:midPointStop
   offset="0"
   style="stop-color:#FFFFFF" />
					<a:midPointStop
   offset="0.5"
   style="stop-color:#FFFFFF" />
					<a:midPointStop
   offset="1"
   style="stop-color:#D4D4D4" />
				</linearGradient>
				<path
   d="M78.441,52.738l41.292,20.187l-29.03,43.191L45.952,94.583L78.441,52.738z"
   id="path126"
   fill="url(#XMLID_9_)" />
				
					<linearGradient
   id="XMLID_10_"
   gradientUnits="userSpaceOnUse"
   x1="37.541"
   y1="137.6318"
   x2="187.1572"
   y2="-30.1964"
   gradientTransform="matrix(0.9884 0.1518 -0.1518 0.9884 13.7805 -11.3589)">
					<stop
   offset="0"
   style="stop-color:#D4D4D4"
   id="stop129" />
					<stop
   offset="1"
   style="stop-color:#999999"
   id="stop131" />
					<a:midPointStop
   offset="0"
   style="stop-color:#D4D4D4" />
					<a:midPointStop
   offset="0.5"
   style="stop-color:#D4D4D4" />
					<a:midPointStop
   offset="1"
   style="stop-color:#999999" />
				</linearGradient>
				<path
   d="M76.914,44.286L35.907,97.101c-0.141,0.181-0.193,0.419-0.141,0.644      c0.054,0.222,0.205,0.409,0.412,0.512l56.48,27.176c0.342,0.165,0.751,0.053,0.962-0.261l36.643-54.514      c0.124-0.184,0.161-0.41,0.105-0.623c-0.059-0.212-0.202-0.391-0.401-0.487L77.852,44.068      C77.527,43.91,77.135,44.002,76.914,44.286z M77.737,45.71c1.074,0.524,49.266,24.084,50.774,24.823      c-0.938,1.397-35.074,52.18-35.785,53.24c-1.147-0.553-53.406-25.697-55.037-26.484C38.803,95.856,77.004,46.657,77.737,45.71z"
   id="path133"
   fill="url(#XMLID_10_)" />
			</g>
		</g>
		<path
   d="M105.61,61.52c-0.116-0.165-0.296-0.271-0.494-0.293L52.564,55.61c-0.327-0.034-0.635,0.166-0.735,0.478    l-18.697,57.978c-0.065,0.196-0.036,0.415,0.079,0.592c0.115,0.174,0.303,0.29,0.512,0.31l56.817,5.716    c0.343,0.035,0.658-0.188,0.742-0.523l14.431-58.074C105.764,61.889,105.725,61.684,105.61,61.52z"
   id="path135"
   opacity="0.1" />
		<g
   id="g137">
			<path
   d="M45.789,46.285l57.682,6.164l-15.84,63.746l-62.365-6.273L45.789,46.285z"
   id="path139"
   fill="#FFFFFF" />
			
				<linearGradient
   id="XMLID_11_"
   gradientUnits="userSpaceOnUse"
   x1="64.8325"
   y1="63.3721"
   x2="64.8325"
   y2="136.8056"
   gradientTransform="matrix(0.9809 -0.1946 0.1946 0.9809 -15.4342 13.3755)">
				<stop
   offset="0"
   style="stop-color:#FFFFFF"
   id="stop142" />
				<stop
   offset="1"
   style="stop-color:#D4D4D4"
   id="stop144" />
				<a:midPointStop
   offset="0"
   style="stop-color:#FFFFFF" />
				<a:midPointStop
   offset="0.5"
   style="stop-color:#FFFFFF" />
				<a:midPointStop
   offset="1"
   style="stop-color:#D4D4D4" />
			</linearGradient>
			<path
   d="M49.384,53.475l45.701,4.884l-12.549,50.504l-49.413-4.969L49.384,53.475z"
   id="path146"
   fill="url(#XMLID_11_)" />
			
				<linearGradient
   id="XMLID_12_"
   gradientUnits="userSpaceOnUse"
   x1="19.6763"
   y1="136.0371"
   x2="169.2888"
   y2="-31.787"
   gradientTransform="matrix(0.9809 -0.1946 0.1946 0.9809 -15.4342 13.3755)">
				<stop
   offset="0"
   style="stop-color:#D4D4D4"
   id="stop149" />
				<stop
   offset="1"
   style="stop-color:#999999"
   id="stop151" />
				<a:midPointStop
   offset="0"
   style="stop-color:#D4D4D4" />
				<a:midPointStop
   offset="0.5"
   style="stop-color:#D4D4D4" />
				<a:midPointStop
   offset="1"
   style="stop-color:#999999" />
			</linearGradient>
			<path
   d="M45.064,46.051l-20.523,63.637c-0.071,0.218-0.039,0.46,0.088,0.652     c0.125,0.19,0.332,0.315,0.562,0.341l62.365,6.271c0.377,0.038,0.723-0.207,0.815-0.574l15.84-63.745     c0.054-0.215,0.012-0.44-0.113-0.622c-0.128-0.179-0.324-0.297-0.543-0.321l-57.683-6.166     C45.511,45.488,45.174,45.708,45.064,46.051z M46.324,47.109c1.188,0.126,54.526,5.827,56.196,6.007     c-0.405,1.633-15.162,61.016-15.47,62.255c-1.267-0.128-58.969-5.931-60.77-6.113C26.838,107.531,45.957,48.25,46.324,47.109z"
   id="path153"
   fill="url(#XMLID_12_)" />
		</g>
		<g
   id="g155">
			<g
   id="g157"
   opacity="0.1">
				<path
   d="M114.658,73.821c-1.962-3.588-4.534-5.956-5.85-5.392L69.468,85.423      c-0.033-0.056-10.419,12.354-10.419,12.354l0.057,0.009l-0.003,0.006l17.373,0.337l0.045,0.053l39.325-16.883      C117.131,80.669,116.627,77.414,114.658,73.821z"
   id="path159"
   fill="#000030" />
			</g>
			
				<linearGradient
   id="XMLID_13_"
   gradientUnits="userSpaceOnUse"
   x1="-1082.9839"
   y1="1056.168"
   x2="-1075.9254"
   y2="1056.0115"
   gradientTransform="matrix(0.9121 0.4099 -0.4099 0.9121 1486.1229 -457.4578)">
				<stop
   offset="0"
   style="stop-color:#FFAE00"
   id="stop162" />
				<stop
   offset="1"
   style="stop-color:#BB4400"
   id="stop164" />
				<a:midPointStop
   offset="0"
   style="stop-color:#FFAE00" />
				<a:midPointStop
   offset="0.5"
   style="stop-color:#FFAE00" />
				<a:midPointStop
   offset="1"
   style="stop-color:#BB4400" />
			</linearGradient>
			<path
   d="M73.897,84.913l0.071,0.016l20.778-45.481c0.627-1.557-1.967-4.184-5.984-6.011     c-4.007-1.828-7.693-2.063-8.389-0.542L59.656,78.491c-0.112-0.048-0.221,19.336-0.221,19.336l0.054-0.036l0.002,0.009     l1.362-0.938L73.897,84.913z"
   id="path166"
   fill="url(#XMLID_13_)" />
			<path
   d="M61.125,78.428L60.432,95.68l12.484-11.936l-0.086-0.038c0.093-0.064,0.178-0.136,0.246-0.217     l0.064,0.031l19.896-43.604l-0.064-0.026c0.594-1.299-1.581-3.562-4.858-5.057c-3.275-1.495-6.409-1.654-7.002-0.357     L61.219,78.077L61.125,78.428z"
   id="path168"
   fill="#FFF0DC" />
			<linearGradient
   id="XMLID_14_"
   gradientUnits="userSpaceOnUse"
   x1="52.9009"
   y1="100.9199"
   x2="77.01"
   y2="48.5007">
				<stop
   offset="0"
   style="stop-color:#FFFFFF"
   id="stop171" />
				<stop
   offset="1"
   style="stop-color:#FFEB00"
   id="stop173" />
				<a:midPointStop
   offset="0"
   style="stop-color:#FFFFFF" />
				<a:midPointStop
   offset="0.5"
   style="stop-color:#FFFFFF" />
				<a:midPointStop
   offset="1"
   style="stop-color:#FFEB00" />
			</linearGradient>
			<path
   d="M81.233,34.215c-0.404,0.997,0.756,2.529,2.771,3.857L64.038,81.828     c-1.778-1.161-2.82-2.728-2.849-3.729l20.036-43.89L81.233,34.215z"
   id="path175"
   fill="url(#XMLID_14_)" />
			<linearGradient
   id="XMLID_15_"
   gradientUnits="userSpaceOnUse"
   x1="62.4639"
   y1="101.4902"
   x2="86.2083"
   y2="50.1658">
				<stop
   offset="0"
   style="stop-color:#FFFFD9"
   id="stop178" />
				<stop
   offset="1"
   style="stop-color:#FF9A2B"
   id="stop180" />
				<a:midPointStop
   offset="0"
   style="stop-color:#FFFFD9" />
				<a:midPointStop
   offset="0.5"
   style="stop-color:#FFFFD9" />
				<a:midPointStop
   offset="1"
   style="stop-color:#FF9A2B" />
			</linearGradient>
			<path
   d="M73.271,83.346c-0.451,0.991-2.459,1.089-4.769,0.476l19.957-43.737     c2.266,0.614,4.126,0.47,4.606-0.472l0.125,0.057L73.831,82.093C73.824,82.129,73.374,83.117,73.271,83.346z"
   id="path182"
   fill="url(#XMLID_15_)" />
			<linearGradient
   id="XMLID_16_"
   gradientUnits="userSpaceOnUse"
   x1="54.7822"
   y1="108.6143"
   x2="83.82"
   y2="44.147">
				<stop
   offset="0"
   style="stop-color:#FFFFE8"
   id="stop185" />
				<stop
   offset="1"
   style="stop-color:#FFBD00"
   id="stop187" />
				<a:midPointStop
   offset="0"
   style="stop-color:#FFFFE8" />
				<a:midPointStop
   offset="0.5"
   style="stop-color:#FFFFE8" />
				<a:midPointStop
   offset="1"
   style="stop-color:#FFBD00" />
			</linearGradient>
			<path
   d="M66.076,82.944c-0.744-0.338-1.425-0.719-2.038-1.116l19.966-43.756     c0.625,0.41,1.325,0.804,2.092,1.153c0.808,0.369,1.608,0.656,2.363,0.858L68.502,83.821     C67.729,83.617,66.904,83.323,66.076,82.944z"
   id="path189"
   fill="url(#XMLID_16_)" />
			<path
   d="M60.669,88.878l-0.251,6.854l4.454-4.251c0,0-0.792,0.199-2.266-0.56     C60.655,89.921,60.669,88.878,60.669,88.878z"
   id="path191"
   fill="#000030"
   opacity="0.4" />
		</g>
	</g>
<image
   y="65.775269"
   x="32.854111"
   id="image2654"
   height="64.221558"
   width="97.289459"
   sodipodi:absref="logo.png"
   xlink:href="logo.png" /></svg>