<?xml version="1.0" encoding="UTF-8"?>
<svg xmlns="http://www.w3.org/2000/svg" xmlns:xlink="http://www.w3.org/1999/xlink" height="48" width="48">
<defs>
<linearGradient id="f" y2="35.96" gradientUnits="userSpaceOnUse" x2="41" y1="18.1" x1="24">
<stop stop-color="#c00" offset="0"/>
<stop stop-color="#b30000" offset="1"/>
</linearGradient>
<linearGradient id="g" y2="38.2" gradientUnits="userSpaceOnUse" x2="32.59" y1="10.54" x1="15.2">
<stop stop-color="#ff0202" stop-opacity=".3" offset="0"/>
<stop stop-color="#ff9b9b" stop-opacity=".8" offset="1"/>
</linearGradient>
<linearGradient id="h" y2="45.4" gradientUnits="userSpaceOnUse" x2="53.6" y1="10.5" x1="15.74">
<stop stop-color="#ff8b8b" offset="0"/>
<stop stop-color="#ec1b1b" offset="1"/>
</linearGradient>
<radialGradient id="c" gradientUnits="userSpaceOnUse" cy="41.63" cx="24.2" gradientTransform="matrix(1 0 0 .303 0 29)" r="18.5">
<stop offset="0"/>
<stop stop-opacity="0" offset="1"/>
</radialGradient>
<radialGradient id="d" gradientUnits="userSpaceOnUse" cy="10.67" cx="16.75" gradientTransform="matrix(4.155 0 0 3.199-52.85-23.51)" r="21.25">
<stop stop-color="#fff" offset="0"/>
<stop stop-color="#fff" stop-opacity="0" offset="1"/>
</radialGradient>
<radialGradient id="a" gradientUnits="userSpaceOnUse" cy="314.1" cx="334.3" gradientTransform="matrix(.152 0 0 .081-28.53-6.36)" r="316.9">
<stop stop-color="#fff" offset="0"/>
<stop stop-color="#b8b8b8" offset="1"/>
</radialGradient>
</defs>
<ellipse opacity=".63" rx="18.5" ry="5.6" cy="41.63" cx="24.2" fill="url(#c)"/>
<path stroke="#800" d="m32.69 0.49l12.82 13.1v17.89l-12.65 12h-17.43l-12.93-12.84v-17.2l13.1-12.96z" fill="url(#f)"/>
<g fill="none">
<path opacity=".8" stroke="url(#h)" d="m32.2 1.5l12.25 12.42v17.1l-11.86 11.45h-16.77l-12.36-12.28v-16.36l12.51-12.34z"/>
<use stroke-width="1.6" stroke="url(#g)" xlink:href="#b"/>
</g>
<g stroke="#800" stroke-width=".7" fill="url(#a)">
<path id="b" stroke-linejoin="round" d="m15.1 22.72c-0.21-11.99 2.25-9.97 3.11-8.64l0.1-1.89c0.04-2.71 3.57-2.1 3.6-0.59l-0.03-1.69c0-2.46 3.98-2.63 3.98-0.32l0.11 2.82c-0.03-2.38 3.55-2.73 3.69 0.11 0.08 4.42 0.11 9.17 0.08 10.58 1.74 1.86 3.14-7.62 6.79-5.75 1.5 1.51-4.06 12.45-4.66 13.6-0.58 1.1-3.16 4.8-6.89 4.85-4.97 0.08-9.67 0.16-9.88-13.1z"/>
</g>
<g stroke-linecap="round" fill="none">
<g stroke-linejoin="round" stroke="#fff">
<path opacity=".8" d="m22.2 11.84l0.18 9.55m3.51-9.19l0.22 9.54m-7.63-7.45l0.1 8.48m9.54 2.64s-3.14 0.67-4.3 7m-6.84-8.36c2.63-2.95 7.76-2.9 10.54-1.99"/>
<path opacity=".9" stroke-width=".5" d="m28.48 25.8s-3.14 0.67-4.3 7m-6.84-8.32c2.94-2.88 7.67-2.5 9.89-1.82m-5.29-10.73c-0.74-1.5-2.98-1.43-3.14 0.04-0.06 0.74-0.15 1.73-0.15 1.73m-0.41 1.11c-0.19-1.07-1.51-2-1.95-0.46-0.76 2.42-0.57 5-0.61 7.58 0.06 3.39 0.15 6.92 1.59 10 0.77 1.79 2.52 3.05 4.46 3.21 1.64 0.12 3.35 0.31 4.95-0.19 2.62-0.95 4.45-3.32 5.53-5.82 1.54-3.24 3.16-6.48 3.98-9.95 0.41-1.33 0.34-2.12-1.27-1.19-1.73 1.49-2.25 3.89-3.82 5.51-0.67 0.9-1.82 0.79-1.85-1.31-0.02-3.36 0.03-6.72-0.14-10.1-0.19-1.64-2.61-1.7-3.03 0.36m-0.31-0.42s-0.19-1.7-0.19-2.48c-0.79-1.51-2.43-1.21-2.9-0.4-0.27 0.35-0.21 1.61-0.27 2.21"/>
</g>
<path opacity=".9" stroke="#800" stroke-width=".7" d="m22.1 9.1l0.2 12.31m3.47-12.34l0.26 12.69m-7.63-10.25l0.1 11.29m9.54 2.64s-3.14 0.67-4.3 7m-6.84-8.36c2.63-2.95 7.76-2.9 10.54-1.99"/>
</g>
<path opacity=".3" d="m2.75 13.56v17l2.94 2.91c16.76 0.06 16.47-13 39.56-11.88v-7.9l-12.69-12.94h-16.87z" fill="url(#d)"/>
</svg>