<?xml version="1.0" encoding="UTF-8" standalone="no"?>
<!-- Created with Inkscape (http://www.inkscape.org/) -->
<svg xmlns:dc="http://purl.org/dc/elements/1.1/" xmlns:cc="http://creativecommons.org/ns#" xmlns:rdf="http://www.w3.org/1999/02/22-rdf-syntax-ns#" xmlns:svg="http://www.w3.org/2000/svg" xmlns="http://www.w3.org/2000/svg" xmlns:xlink="http://www.w3.org/1999/xlink" xmlns:sodipodi="http://sodipodi.sourceforge.net/DTD/sodipodi-0.dtd" xmlns:inkscape="http://www.inkscape.org/namespaces/inkscape" width="48" height="48" id="svg2" version="1.1" inkscape:version="0.48.0 r9654" sodipodi:docname="Unblock request.svg">
  <defs id="defs4">
    <linearGradient inkscape:collect="always" id="linearGradient4045">
      <stop style="stop-color:#2e3436;stop-opacity:1;" offset="0" id="stop4047"/>
      <stop style="stop-color:#2e3436;stop-opacity:0;" offset="1" id="stop4049"/>
    </linearGradient>
    <linearGradient inkscape:collect="always" id="linearGradient3988">
      <stop style="stop-color:#cc0000;stop-opacity:1;" offset="0" id="stop3990"/>
      <stop style="stop-color:#cc0000;stop-opacity:0;" offset="1" id="stop3992"/>
    </linearGradient>
    <linearGradient inkscape:collect="always" xlink:href="#linearGradient3988" id="linearGradient3994" x1="36.404003" y1="8.1557331" x2="42.751442" y2="18.530815" gradientUnits="userSpaceOnUse"/>
    <radialGradient inkscape:collect="always" xlink:href="#linearGradient4045" id="radialGradient4051" cx="9.9375" cy="47.562504" fx="9.9375" fy="47.562504" r="7.5" gradientTransform="matrix(0.79999999,-3.1097021e-7,6.5716317e-8,0.08545198,1.9874971,42.185692)" gradientUnits="userSpaceOnUse"/>
    <radialGradient gradientUnits="userSpaceOnUse" gradientTransform="matrix(4.445991,0,0,6.8665,67.25071,-104.6679)" r="8.7536434" fy="16.855663" fx="-19.515638" cy="16.855663" cx="-19.515638" id="radialGradient2437" xlink:href="#linearGradient2431" inkscape:collect="always"/>
    <radialGradient gradientTransform="matrix(1.238342,0.00595485,-0.00650776,1.351272,-6.992513,-9.744842)" gradientUnits="userSpaceOnUse" r="22.376116" fy="28.458725" fx="26.544321" cy="28.458725" cx="26.544321" id="radialGradient2207" xlink:href="#linearGradient2933" inkscape:collect="always"/>
    <linearGradient id="linearGradient2933">
      <stop style="stop-color:#9cbcde;stop-opacity:1" offset="0" id="stop2935"/>
      <stop style="stop-color:#204a87" offset="1" id="stop2937"/>
    </linearGradient>
    <radialGradient gradientUnits="userSpaceOnUse" gradientTransform="matrix(1,0,0,0.595238,0,14.875)" r="15.75" fy="36.75" fx="25.125" cy="36.75" cx="25.125" id="radialGradient21650" xlink:href="#linearGradient21644" inkscape:collect="always"/>
    <linearGradient id="linearGradient21644" inkscape:collect="always">
      <stop id="stop21646" offset="0" style="stop-color:#000000;stop-opacity:1;"/>
      <stop id="stop21648" offset="1" style="stop-color:#000000;stop-opacity:0;"/>
    </linearGradient>
    <linearGradient id="linearGradient2431">
      <stop id="stop2433" offset="0" style="stop-color:#ffffff;stop-opacity:1;"/>
      <stop id="stop2435" offset="1" style="stop-color:#b8b8b8;stop-opacity:1;"/>
    </linearGradient>
    <radialGradient inkscape:collect="always" xlink:href="#linearGradient21644" id="radialGradient4195" gradientUnits="userSpaceOnUse" gradientTransform="matrix(1,0,0,0.595238,0,14.875)" cx="25.125" cy="36.75" fx="25.125" fy="36.75" r="15.75"/>
    <radialGradient inkscape:collect="always" xlink:href="#linearGradient2933" id="radialGradient4197" gradientUnits="userSpaceOnUse" gradientTransform="matrix(1.238342,0.00595485,-0.00650776,1.351272,-6.992513,-9.744842)" cx="26.544321" cy="28.458725" fx="26.544321" fy="28.458725" r="22.376116"/>
    <radialGradient inkscape:collect="always" xlink:href="#linearGradient2431" id="radialGradient4199" gradientUnits="userSpaceOnUse" gradientTransform="matrix(4.445991,0,0,6.8665,67.25071,-104.6679)" cx="-19.515638" cy="16.855663" fx="-19.515638" fy="16.855663" r="8.7536434"/>
    <radialGradient inkscape:collect="always" xlink:href="#linearGradient21644-6" id="radialGradient4195-2" gradientUnits="userSpaceOnUse" gradientTransform="matrix(1,0,0,0.595238,0,14.875)" cx="25.125" cy="36.75" fx="25.125" fy="36.75" r="15.75"/>
    <linearGradient id="linearGradient21644-6" inkscape:collect="always">
      <stop id="stop21646-7" offset="0" style="stop-color:#000000;stop-opacity:1;"/>
      <stop id="stop21648-2" offset="1" style="stop-color:#000000;stop-opacity:0;"/>
    </linearGradient>
    <radialGradient r="15.75" fy="36.75" fx="25.125" cy="36.75" cx="25.125" gradientTransform="matrix(1,0,0,0.595238,0,14.875)" gradientUnits="userSpaceOnUse" id="radialGradient4216" xlink:href="#linearGradient21644-6" inkscape:collect="always"/>
  </defs>
  <sodipodi:namedview id="base" pagecolor="#ffffff" bordercolor="#666666" borderopacity="1.0" inkscape:pageopacity="0.0" inkscape:pageshadow="2" inkscape:zoom="1" inkscape:cx="17.432511" inkscape:cy="24.300865" inkscape:document-units="px" inkscape:current-layer="layer1" showgrid="false" inkscape:window-width="1340" inkscape:window-height="878" inkscape:window-x="99" inkscape:window-y="0" inkscape:window-maximized="1">
    <inkscape:grid type="xygrid" id="grid2985" empspacing="5" visible="true" enabled="true" snapvisiblegridlinesonly="true"/>
  </sodipodi:namedview>
  <metadata id="metadata7">
    <rdf:RDF>
      <cc:Work rdf:about="">
        <dc:format>image/svg+xml</dc:format>
        <dc:type rdf:resource="http://purl.org/dc/dcmitype/StillImage"/>
      </cc:Work>
    </rdf:RDF>
  </metadata>
  <g inkscape:label="Layer 1" inkscape:groupmode="layer" id="layer1" transform="translate(0,-1004.3622)">
    <path sodipodi:type="arc" style="opacity:0.63068183;color:#000000;fill:url(#radialGradient4216);fill-opacity:1;fill-rule:evenodd;stroke:none;stroke-width:1;marker:none;visibility:visible;display:inline;overflow:visible" id="path21642-2" sodipodi:cx="25.125" sodipodi:cy="36.75" sodipodi:rx="15.75" sodipodi:ry="9.375" d="m 40.875,36.75 a 15.75,9.375 0 1 1 -31.5,0 15.75,9.375 0 1 1 31.5,0 z" transform="matrix(0.5869015,0,0,0.3,-5.2459002,1038.5247)"/>
    <path style="fill:#d3d7cf;fill-opacity:1;stroke:none" d="m 7.5000174,1027.8622 3.9999656,0 c 1.108009,0 2.000017,0.892 2.000017,2 l 0,20 -8,0 0,-20 c 0,-1.108 0.8920078,-2 2.0000174,-2 z" id="rect3763" inkscape:connector-curvature="0" sodipodi:nodetypes="sssccss"/>
    <path inkscape:connector-curvature="0" style="opacity:0.5;fill:#ffffff;fill-opacity:1;stroke:none" d="m 7.5,1027.8622 c -1.1080096,0 -2,0.892 -2,2 l 0,7.8125 c 1.2946807,-0.2954 2.4274698,-0.027 3.5,0.6875 1.316469,0.8776 3.004784,0.5881 4.5,0 l 0,-8.5 c 0,-1.108 -0.89199,-2 -2,-2 l -4,0 z" id="path4001"/>
    <path style="fill:none;stroke:#babdb6" d="m 7.5000174,1027.8622 3.9999656,0 c 1.108009,0 2.000017,0.892 2.000017,2 l 0,19 -8,0 0,-19 c 0,-1.108 0.8920078,-2 2.0000174,-2 z" id="rect4006" inkscape:connector-curvature="0" sodipodi:nodetypes="sssccss"/>
    <path style="fill:none;stroke:#555753;stroke-width:1" d="m 7.6048717,1026.8622 3.7902563,0 c 1.720099,0 3.104872,1.3848 3.104872,3.1049 l 0,19.8951 -10,0 0,-19.8951 c 0,-1.7201 1.3847728,-3.1049 3.1048717,-3.1049 z" id="rect4032" inkscape:connector-curvature="0" sodipodi:nodetypes="sssccss"/>
    <path id="path3974" transform="matrix(0.84574436,0.0354998,-0.0354998,0.84574436,2.5010479,1008.1722)" style="fill:none;stroke:url(#linearGradient3994);stroke-width:1.37154752999999996;fill-opacity:1;stroke-miterlimit:4;stroke-dasharray:none;stroke-linecap:round" d="m 31.975536,10.363678 c 2.672998,3.530862 4.455847,7.653821 5.197595,12.019793 M 35.447804,6.6286598 c 3.273095,4.0887602 5.512775,8.9060022 6.529408,14.0438582 M 39.157004,2.9385245 c 3.866005,4.6847256 6.546261,10.2320255 7.813835,16.1722185"/>
    <path style="fill:none;stroke:#2e3436;stroke-width:1px;stroke-linecap:butt;stroke-linejoin:miter;stroke-opacity:1" d="m 8,1040.8622 3,0" id="path4037" inkscape:connector-curvature="0"/>
    <path style="fill:none;stroke:#2e3436;stroke-width:1px;stroke-linecap:butt;stroke-linejoin:miter;stroke-opacity:1" d="m 8,1042.8622 3,0" id="path4039" inkscape:connector-curvature="0"/>
    <path inkscape:connector-curvature="0" id="path4041" d="m 8,1044.8622 3,0" style="fill:none;stroke:#2e3436;stroke-width:1px;stroke-linecap:butt;stroke-linejoin:miter;stroke-opacity:1"/>
    <g id="g4068" transform="matrix(0.70710678,0.70710678,-0.70710678,0.70710678,732.83346,295.12925)" style="opacity:0.3">
      <path style="fill:#eeeeec;stroke:none" d="M 36,4 34,6 34,2 z" id="path4070" inkscape:connector-curvature="0" transform="translate(0,1004.3622)"/>
      <path style="fill:#cc0000;stroke:none" d="m 25,1019.3622 3,-3 0,-6 -3,3 z" id="path4072" inkscape:connector-curvature="0"/>
      <path style="fill:#eeeeec;stroke:none" d="m 22,1022.3622 3,-3 0,-6 -3,3 z" id="path4074" inkscape:connector-curvature="0"/>
      <path style="fill:#cc0000;stroke:none" d="m 19,1025.3622 3,-3 0,-6 -3,3 z" id="path4076" inkscape:connector-curvature="0"/>
      <path style="fill:#eeeeec;stroke:none" d="m 16,1028.3622 3,-3 0,-6 -3,3 z" id="path4078" inkscape:connector-curvature="0"/>
      <path style="fill:#cc0000;stroke:none" d="m 13,1031.3622 3,-3 0,-6 -3,3 z" id="path4080" inkscape:connector-curvature="0"/>
      <path style="fill:#cc0000;stroke:none" d="m 10,30 0,-6 -3,3 z" id="path4082" inkscape:connector-curvature="0" transform="translate(0,1004.3622)"/>
      <path style="fill:#eeeeec;stroke:none" d="m 10,30 3,-3 0,-6 -3,3 z" id="path4084" inkscape:connector-curvature="0" transform="translate(0,1004.3622)"/>
      <path style="fill:#cc0000;stroke:none" d="m 31,1013.3622 3,-3 0,-4 -1,-1 -2,2 z" id="path4086" inkscape:connector-curvature="0" sodipodi:nodetypes="cccccc"/>
      <path style="fill:#eeeeec;stroke:none" d="m 28,1016.3622 3,-3 0,-6 -3,3 z" id="path4088" inkscape:connector-curvature="0"/>
      <rect style="fill:none;stroke:#555753;stroke-width:1;stroke-linecap:round;stroke-linejoin:round;stroke-opacity:1" id="rect4090" width="37" height="4" x="-724.33344" y="734.47559" transform="matrix(0.70710678,-0.70710678,0.70710678,0.70710678,0,0)"/>
    </g>
    <g id="g4055">
      <path transform="translate(0,1004.3622)" inkscape:connector-curvature="0" id="path3955" d="M 36,4 34,6 34,2 z" style="fill:#eeeeec;stroke:none;stroke-width:1px;stroke-linecap:butt;stroke-linejoin:miter;stroke-opacity:1"/>
      <path inkscape:connector-curvature="0" id="path3896-7-0" d="m 25,1019.3622 3,-3 0,-6 -3,3 z" style="fill:#cc0000;stroke:none"/>
      <path inkscape:connector-curvature="0" id="path3896-3" d="m 22,1022.3622 3,-3 0,-6 -3,3 z" style="fill:#eeeeec;stroke:none"/>
      <path inkscape:connector-curvature="0" id="path3896-7-3" d="m 19,1025.3622 3,-3 0,-6 -3,3 z" style="fill:#cc0000;stroke:none"/>
      <path inkscape:connector-curvature="0" id="path3896-8" d="m 16,1028.3622 3,-3 0,-6 -3,3 z" style="fill:#eeeeec;stroke:none"/>
      <path inkscape:connector-curvature="0" id="path3896-7" d="m 13,1031.3622 3,-3 0,-6 -3,3 z" style="fill:#cc0000;stroke:none"/>
      <path transform="translate(0,1004.3622)" inkscape:connector-curvature="0" id="path3894" d="m 10,30 0,-6 -3,3 z" style="fill:#cc0000;stroke:none;stroke-width:1px;stroke-linecap:butt;stroke-linejoin:miter;stroke-opacity:1"/>
      <path transform="translate(0,1004.3622)" inkscape:connector-curvature="0" id="path3896" d="m 10,30 3,-3 0,-6 -3,3 z" style="fill:#eeeeec;stroke:none;stroke-width:1px;stroke-linecap:butt;stroke-linejoin:miter;stroke-opacity:1"/>
      <path sodipodi:nodetypes="cccccc" inkscape:connector-curvature="0" id="path3896-7-1" d="m 31,1013.3622 3,-3 0,-4 -1,-1 -2,2 z" style="fill:#cc0000;stroke:none"/>
      <path inkscape:connector-curvature="0" id="path3896-6" d="m 28,1016.3622 3,-3 0,-6 -3,3 z" style="fill:#eeeeec;stroke:none"/>
      <rect transform="matrix(0.70710678,-0.70710678,0.70710678,0.70710678,0,0)" y="734.47559" x="-724.33344" height="4" width="37" id="rect3765" style="fill:none;stroke:#555753;stroke-width:1;stroke-linecap:round;stroke-linejoin:round;stroke-opacity:1"/>
    </g>
    <g inkscape:label="Layer 1" id="layer1-6" transform="matrix(0.5,0,0,0.5,49.499335,1033.1135)">
      <g id="g4189" transform="translate(-1.2794658,-0.78596774)">
        <path sodipodi:type="arc" style="opacity:0.63068183;color:#000000;fill:url(#radialGradient4195);fill-opacity:1;fill-rule:evenodd;stroke:none;stroke-width:1;marker:none;visibility:visible;display:inline;overflow:visible" id="path21642" sodipodi:cx="25.125" sodipodi:cy="36.75" sodipodi:rx="15.75" sodipodi:ry="9.375" d="m 40.875,36.75 c 0,5.17767 -7.051515,9.375 -15.75,9.375 -8.698485,0 -15.75,-4.19733 -15.75,-9.375 0,-5.17767 7.051515,-9.375 15.75,-9.375 8.698485,0 15.75,4.19733 15.75,9.375 z" transform="matrix(1.173803,0,0,0.6,-56.254403,10.075)"/>
        <path sodipodi:type="arc" style="fill:url(#radialGradient4197);fill-opacity:1;stroke:#204a87;stroke-width:2" id="path2093" sodipodi:cx="23.909048" sodipodi:cy="23.825787" sodipodi:rx="21.876116" sodipodi:ry="21.876116" d="m 45.785164,23.825787 c 0,12.081845 -9.794271,21.876115 -21.876116,21.876115 -12.081845,0 -21.8761157,-9.79427 -21.8761157,-21.876115 0,-12.081846 9.7942707,-21.8761162 21.8761157,-21.8761162 12.081845,0 21.876116,9.7942702 21.876116,21.8761162 z" transform="matrix(0.938442,0,0,0.93868,-49.685925,-8.616094)"/>
        <path transform="matrix(0.855103,0,0,0.855213,-47.694712,-6.624981)" d="m 45.785164,23.825787 c 0,12.081845 -9.794271,21.876115 -21.876116,21.876115 -12.081845,0 -21.8761157,-9.79427 -21.8761157,-21.876115 0,-12.081846 9.7942707,-21.8761162 21.8761157,-21.8761162 12.081845,0 21.876116,9.7942702 21.876116,21.8761162 z" sodipodi:ry="21.876116" sodipodi:rx="21.876116" sodipodi:cy="23.825787" sodipodi:cx="23.909048" id="path2209" style="opacity:0.96022728;fill:none;stroke:#ffffff;stroke-width:2.33874917;stroke-miterlimit:4;stroke-opacity:1;stroke-dasharray:none" sodipodi:type="arc"/>
        <path inkscape:href="#text2215" sodipodi:type="inkscape:offset" inkscape:radius="0.13495015" inkscape:original="M -20.25 6 C -21.298341 6.000026 -22.372769 6.1244771 -23.5 6.34375 C -24.627244 6.563073 -25.886043 6.8832479 -27.25 7.34375 L -27.25 12.5 C -26.100219 11.776335 -24.997109 11.236862 -23.9375 10.875 C -22.877902 10.502213 -21.881822 10.312521 -20.96875 10.3125 C -19.999334 10.312521 -19.259834 10.530174 -18.71875 10.96875 C -18.177686 11.396402 -17.906262 12.013726 -17.90625 12.78125 C -17.906261 13.285654 -18.039408 13.776881 -18.34375 14.28125 C -18.636843 14.785651 -19.107484 15.33609 -19.75 15.90625 L -20.84375 16.84375 C -22.038631 17.918325 -22.815518 18.829509 -23.1875 19.53125 C -23.559495 20.22205 -23.750005 21.007137 -23.75 21.90625 L -23.75 22.71875 L -17.65625 22.71875 L -17.65625 21.96875 C -17.656262 21.475338 -17.517981 21.030712 -17.28125 20.625 C -17.044542 20.208345 -16.547785 19.648586 -15.78125 18.96875 L -14.71875 18.03125 C -13.659161 17.055386 -12.908389 16.156813 -12.46875 15.3125 C -12.029144 14.457253 -11.781268 13.480828 -11.78125 12.40625 C -11.781268 10.311973 -12.525902 8.7417969 -13.96875 7.65625 C -15.41163 6.559783 -17.499549 6.0000261 -20.25 6 z M -23.75 25.15625 L -23.75 31 L -17.65625 31 L -17.65625 25.15625 L -23.75 25.15625 z " xlink:href="#text2215" style="font-size:34.15322876px;font-style:normal;font-variant:normal;font-weight:bold;font-stretch:normal;text-align:start;line-height:125%;writing-mode:lr-tb;text-anchor:start;fill:url(#radialGradient4199);fill-opacity:1;stroke:none;font-family:Bitstream Vera Sans" id="path1554" d="m -20.25,5.875 c -1.059019,2.63e-5 -2.147637,0.1232356 -3.28125,0.34375 -1.132925,0.2204283 -2.380162,0.5375125 -3.75,1 a 0.13496364,0.13496364 0 0 0 -0.03125,0 0.13496364,0.13496364 0 0 0 -0.03125,0.03125 0.13496364,0.13496364 0 0 0 -0.03125,0.03125 0.13496364,0.13496364 0 0 0 0,0.03125 0.13496364,0.13496364 0 0 0 0,0.03125 l 0,5.15625 a 0.13496364,0.13496364 0 0 0 0,0.03125 0.13496364,0.13496364 0 0 0 0,0.03125 0.13496364,0.13496364 0 0 0 0.03125,0.03125 0.13496364,0.13496364 0 0 0 0.03125,0.03125 0.13496364,0.13496364 0 0 0 0.03125,0 0.13496364,0.13496364 0 0 0 0.03125,0 0.13496364,0.13496364 0 0 0 0.03125,0 0.13496364,0.13496364 0 0 0 0.03125,0 c 1.142438,-0.719043 2.233352,-1.267138 3.28125,-1.625 1.048141,-0.368756 2.043116,-0.562479 2.9375,-0.5625 0.949218,2.1e-5 1.644925,0.210545 2.15625,0.625 0.508723,0.40209 0.781238,0.98304 0.78125,1.71875 -10e-6,0.480657 -0.144188,0.95141 -0.4375,1.4375 -0.282991,0.487016 -0.740265,1.030495 -1.375,1.59375 L -20.9375,16.75 c -1.201459,1.08049 -1.989243,1.991022 -2.375,2.71875 -0.383113,0.711446 -0.562505,1.519324 -0.5625,2.4375 l 0,0.8125 a 0.13496364,0.13496364 0 0 0 0,0.03125 0.13496364,0.13496364 0 0 0 0,0.03125 0.13496364,0.13496364 0 0 0 0.03125,0.03125 0.13496364,0.13496364 0 0 0 0.03125,0.03125 0.13496364,0.13496364 0 0 0 0.03125,0 0.13496364,0.13496364 0 0 0 0.03125,0 l 6.09375,0 a 0.13496364,0.13496364 0 0 0 0.03125,0 0.13496364,0.13496364 0 0 0 0.03125,0 0.13496364,0.13496364 0 0 0 0.03125,-0.03125 0.13496364,0.13496364 0 0 0 0.03125,-0.03125 0.13496364,0.13496364 0 0 0 0,-0.03125 0.13496364,0.13496364 0 0 0 0,-0.03125 l 0,-0.75 c -1.1e-5,-0.468196 0.14837,-0.892849 0.375,-1.28125 0.222295,-0.391284 0.708073,-0.950359 1.46875,-1.625 l 1.0625,-0.9375 c 1.066588,-0.98231 1.830659,-1.884654 2.28125,-2.75 0.449269,-0.874046 0.687482,-1.87342 0.6875,-2.96875 -1.8e-5,-2.126265 -0.743769,-3.7340276 -2.21875,-4.84375 -1.475197,-1.1210252 -3.60624,-1.6874737 -6.375,-1.6875 z m -3.5625,19.15625 a 0.13496364,0.13496364 0 0 0 -0.03125,0.03125 0.13496364,0.13496364 0 0 0 -0.03125,0.03125 0.13496364,0.13496364 0 0 0 0,0.03125 0.13496364,0.13496364 0 0 0 0,0.03125 l 0,5.84375 a 0.13496364,0.13496364 0 0 0 0,0.03125 0.13496364,0.13496364 0 0 0 0,0.03125 0.13496364,0.13496364 0 0 0 0.03125,0.03125 0.13496364,0.13496364 0 0 0 0.03125,0.03125 0.13496364,0.13496364 0 0 0 0.03125,0 0.13496364,0.13496364 0 0 0 0.03125,0 l 6.09375,0 a 0.13496364,0.13496364 0 0 0 0.03125,0 0.13496364,0.13496364 0 0 0 0.03125,0 0.13496364,0.13496364 0 0 0 0.03125,-0.03125 0.13496364,0.13496364 0 0 0 0.03125,-0.03125 0.13496364,0.13496364 0 0 0 0,-0.03125 0.13496364,0.13496364 0 0 0 0,-0.03125 l 0,-5.84375 a 0.13496364,0.13496364 0 0 0 0,-0.03125 0.13496364,0.13496364 0 0 0 0,-0.03125 0.13496364,0.13496364 0 0 0 -0.03125,-0.03125 0.13496364,0.13496364 0 0 0 -0.03125,-0.03125 0.13496364,0.13496364 0 0 0 -0.03125,0 0.13496364,0.13496364 0 0 0 -0.03125,0 l -6.09375,0 a 0.13496364,0.13496364 0 0 0 -0.03125,0 0.13496364,0.13496364 0 0 0 -0.03125,0 z" transform="matrix(0.849895,0,0,0.835205,-9.5201901,-1.701673)"/>
      </g>
    </g>
  </g>
</svg>